<svg xmlns="http://www.w3.org/2000/svg" xmlns:xlink="http://www.w3.org/1999/xlink" viewBox="0 0 290.28 282.95"><defs><style>.cls-1{fill:none;}.cls-2{clip-path:url(#clip-path);}.cls-3{fill:#36353f;}.cls-4{fill:#2c2c33;}.cls-5{fill:#25252b;}.cls-6{fill:#1f1f23;}.cls-7{fill:#3e3d47;}.cls-8{fill:#4e4d59;}.cls-9{fill:#71707f;}.cls-10{fill:#6e6e96;opacity:0.6;}.cls-11{fill:#3c6022;}.cls-12{fill:#cf6805;}.cls-13{fill:#aa550f;}.cls-14{fill:#30491c;}.cls-15{fill:#293d18;}.cls-16{fill:#243315;}.cls-17{fill:#598436;}.cls-18{fill:#8ab75e;}.cls-19{fill:#874515;}.cls-20{fill:#6b3510;}.cls-21{fill:#e57c25;}.cls-22{fill:#ff9545;}.cls-23{fill:#ffbb8d;}.cls-24{fill:#3a271d;}.cls-25{fill:#828293;}</style><clipPath id="clip-path" transform="translate(16.61 15.08)"><path class="cls-1" d="M231,0H25A25.07,25.07,0,0,0,0,25H0V231H0a24.77,24.77,0,0,0,2,9.71A25.18,25.18,0,0,0,13.11,253c.71.39,1.44.74,2.18,1.06.38.16.75.31,1.14.45A24.84,24.84,0,0,0,25,256H231a24.84,24.84,0,0,0,8.57-1.52c.39-.14.76-.29,1.14-.45.74-.32,1.47-.67,2.18-1.06A25.18,25.18,0,0,0,254,240.71a24.77,24.77,0,0,0,2-9.71h0V25h0A25.07,25.07,0,0,0,231,0Z"/></clipPath></defs><g id="Layer_2" data-name="Layer 2"><g id="icon"><g class="cls-2"><path class="cls-3" d="M234.62-4.5H21.38A26,26,0,0,0-4.5,21.38V234.62a25.7,25.7,0,0,0,2,10A26.34,26.34,0,0,0,3.1,252.9a25.85,25.85,0,0,0,6,4.46c.73.4,1.49.77,2.26,1.1.39.16.78.32,1.17.46a25.73,25.73,0,0,0,8.88,1.58H234.62a25.73,25.73,0,0,0,8.88-1.58c.39-.14.78-.3,1.17-.46.77-.33,1.53-.7,2.26-1.1a25.85,25.85,0,0,0,6-4.46,26.34,26.34,0,0,0,5.56-8.23,25.7,25.7,0,0,0,2-10V21.38A26,26,0,0,0,234.62-4.5Z" transform="translate(16.61 15.08)"/><path class="cls-4" d="M266.25,11.28C261.2.33,253.47-7.34,241.74-10.6c-11.92-3.31-24.4-4.08-36.71-4.32-13.4-.26-26.59-.25-40,.42-13.67.69-27.35,1-41,1.64-13.84.67-27.55,1.88-41.34,3.23C68.4-8.22,53.71-7,39.35-7.82c-6.61-.39-12.45.32-19,1.28-6.2.91-10.54,3-12.57,8.91a7.49,7.49,0,0,0-1.21.33C-.08,5.11.47,13.58-.31,19.26c-.51,3.7-.83,7.4-1.06,11.09-.55,3-1.09,6.08-1.41,9.2-.35,3.34-.68,6.75-1,10.16-2.79,9.8-.33,19.13-.16,29.05V81A4.61,4.61,0,0,0-2.36,84.6q0,3,0,6.05c0,13.2.06,26.39,0,39.59,0,11.67,1.42,23.62-.46,35.2-2,12.35-3.44,24.29-3.11,36.87.16,6.33,1,12.7,1,19,0,1.84.06,3.61.21,5.34-.62,9.42.16,19.38,6.23,26.11,4.32,4.78,11.37-2.31,7.07-7.07a11.72,11.72,0,0,1-2.56-5.14c.14-.78.3-1.56.46-2.34a4.26,4.26,0,0,0,1.22-5.43c.77-3.17,1.65-6.31,2.56-9.43a45.75,45.75,0,0,0-.25,4.87.54.54,0,0,0,1.07,0,47.77,47.77,0,0,1,3-15.21c-.07.5-.13,1-.17,1.52-.4,4.72-1.09,9.39-1.5,14.1a130,130,0,0,0,1,28.77c.1.75,1.36.57,1.32-.18-.57-9.53-1.19-19.05-.27-28.59.41-4.16,1.15-8.27,1.46-12.45.3-4,1.47-8,1.79-12,1-2.33,2.15-4.66,3.23-7,1.59-3.48,3.37-6.89,5.23-10.23a31,31,0,0,0,3.15-4.78.76.76,0,0,0,.06-.7c.92-1.52,2-3.35,2.84-4.85a.93.93,0,0,0,1.2-.39,159.16,159.16,0,0,1,13.29-18.59c-.64,1-1.28,2.09-1.89,3.15a.85.85,0,0,0,1.47.86A140.17,140.17,0,0,1,61,141.74c1.08-1.23,2.15-2.48,3.21-3.72a83.51,83.51,0,0,1,10.57-9.15c8.23-5.86,17.67-10,26.71-14.4,3.64-1.78,7.13-3.89,10.66-5.91a89,89,0,0,1,23.07-7.76c8.63-1.62,17.1-3.82,25.77-5.44,7.9-1.46,15.92-3.07,23.72-5l1.11-.25a50.66,50.66,0,0,0,5.76.49l1.14,0a1.85,1.85,0,0,0,.37,3.38c4.23,1.1,8.44.31,12.74.16,4.78-.16,9.51.8,14.3.47A32.92,32.92,0,0,0,230.65,92c4.76-2,8.66-5.51,13.95-6a1.76,1.76,0,0,0,0-3.52c-8.93-1-15.69,5.57-24.45,6.25-4.69.37-9.33-.71-14-.51,2.45-.65,4.89-1.31,7.36-1.81A175,175,0,0,0,236.83,80a30.86,30.86,0,0,0,5.69-2.7,32,32,0,0,0,2.91-1.82c.78-.29,1.56-.6,2.32-1,3.41-1.61,6.05-4,8.85-6.32,1.07-.89,0-2.48-1.14-2.39l.12-.14a2.88,2.88,0,0,0,.75-2.1.73.73,0,0,0-.28-1l-.15-.24a67.62,67.62,0,0,0,12.62-17.81C273.75,33.72,271.12,21.82,266.25,11.28ZM92.45,102.87c-1,.84-1.92,1.67-2.89,2.48-.81.41-1.61.81-2.42,1.2C88.93,105.36,90.7,104.12,92.45,102.87Zm-25.74,8c-2.28,1.86-4.5,3.76-6.67,5.62s-4.28,3.78-6.36,5.78A68.27,68.27,0,0,1,66.71,110.89ZM28,174.68c-1.65,3.37-5.18,8.56-4.46,12.36a1.06,1.06,0,0,0,.06.19c-1.55,3-3.05,6-4.39,9-.87,2-1.74,4-2.58,5.93a.51.51,0,0,0-.18.33c0,.06,0,.13,0,.2-1,2.25-1.86,4.49-2.67,6.75a.7.7,0,0,0-.74.36c-3.28,6-4.95,13.53-6.67,20.2a12.2,12.2,0,0,1-.68-2.29,89,89,0,0,1,2.54-19.91c3.2-12.47,9.39-23.73,15.56-35s12-22.72,18.56-33.81A165,165,0,0,1,58.39,122.5c4.13-3.72,8.58-7.39,13.18-10.77a1,1,0,0,0,.75-.29c.47-.45,1-.87,1.43-1.29l2.07-1.44c-2.78,2.58-5.41,5.19-8,7.89a70.27,70.27,0,0,0-9.09,8.78,2.68,2.68,0,0,0-.71,1.58l-.17.15A146,146,0,0,0,26,172.84c-.38.86.81,1.63,1.29.76a230.47,230.47,0,0,1,17.07-26.77,6.48,6.48,0,0,0-.2,2.13l0,.1q-3.27,4.22-6.26,8.65A141.21,141.21,0,0,0,28,174.68Zm20.9-23.82a167.25,167.25,0,0,0-15,20.72,1,1,0,0,0-.8,0,147.3,147.3,0,0,1,8.33-12.83c3.2-4.54,6.71-9.35,10.5-13.91,3-3.08,6.12-6,9.3-8.73,1.14-1,2.31-1.87,3.51-2.75A214.61,214.61,0,0,0,48.85,150.86Zm65-46.33c-13.28,5-26.39,9-37.95,17.79a53.89,53.89,0,0,0-6.61,6c-1.67,1-3.3,2.14-4.9,3.29.13-1.41-1.41-2.91-2.78-1.9a33.29,33.29,0,0,0-3.33,2.82c.78-.92,1.59-1.83,2.38-2.75a2.61,2.61,0,0,0,1.74-.7c2.79-2.45,5.23-4.88,7.94-7-.6,1.76,1.54,3.68,3.08,2.06,4.49-4.71,9.91-7.8,15.22-11.43,2-.9,4-1.84,5.85-2.92a67.21,67.21,0,0,1,16.86-7.08c2.74-.71,5.59-.87,8.37-1.4C117.86,102.46,115.9,103.51,113.89,104.53Zm10-3.86c.28-.26.54-.53.8-.82a.89.89,0,0,0,.22-.4,4.48,4.48,0,0,1,2.14-.36,2.11,2.11,0,0,0,1.18,0C126.82,99.57,125.38,100.12,123.93,100.67ZM147,90.61A86.25,86.25,0,0,0,134,95.15a1.21,1.21,0,0,0-.27,1.91c-1.78.63-3.54,1.27-5.31,1.92a2,2,0,0,0,.57-3.13A5,5,0,0,0,123.83,94c-3.66.52-7.3,1.69-11,2.25-1.38.2-2.76.49-4.14.82l.21-.14a41,41,0,0,1,4.34-2.31c6.73-1.34,13.46-2.64,20.18-4,2.67-.19,5.33-.41,8-.75,4.37-.56,8.68-1.54,13.06-2.08,1.24-.15,2.46-.28,3.65-.48C154.43,88.42,150.75,89.63,147,90.61ZM158.91,93a64.4,64.4,0,0,1,6.84-2.11,61.92,61.92,0,0,1,11-1.35C170.86,90.76,164.91,92,158.91,93Zm3.46-6.71-.46.12a14,14,0,0,0,1.31-.6,1,1,0,0,0,.6-.81c3-.59,6-1.21,9-1.91,7.14-1.65,14.42-2,21.71-2.22C183.84,82.33,172.83,83.79,162.37,86.26Zm26.73-.64q5.51-.83,11-1.61A55.07,55.07,0,0,1,189.1,85.62Z" transform="translate(16.61 15.08)"/><path class="cls-4" d="M145.36,114.9a2.32,2.32,0,0,0-.49-.59,2.41,2.41,0,0,0-.21-.24,1.31,1.31,0,0,0-.24-.23,2.76,2.76,0,0,0-2.69-1.23,2.83,2.83,0,0,0-2.43,2.75,3.8,3.8,0,0,0,1.83,3.29,2.85,2.85,0,0,0,2.89,0,2.61,2.61,0,0,0,1.14-.87,2.52,2.52,0,0,0,.56-1.58A3.07,3.07,0,0,0,145.36,114.9Z" transform="translate(16.61 15.08)"/><path class="cls-4" d="M162.51,114.89a2.2,2.2,0,0,0-.21-1.55,2,2,0,0,0-3.27-.23,1.91,1.91,0,0,0-.82,2.13,2,2,0,0,0,2.42,1.38l.41-.06a1.44,1.44,0,0,0,.84-.48.92.92,0,0,0,.64-.86c0-.07,0-.14,0-.21Z" transform="translate(16.61 15.08)"/><path class="cls-4" d="M66.6,142.59a2.9,2.9,0,1,0,2.9,2.9A2.93,2.93,0,0,0,66.6,142.59Z" transform="translate(16.61 15.08)"/><path class="cls-4" d="M76,138.93l-.28,0h0a2.18,2.18,0,0,0-1.5.48,1.86,1.86,0,0,0-.88,1.53,1.88,1.88,0,0,0,.52,1.25,1.79,1.79,0,0,0,2.78-.36c.11-.17.24-.33.34-.5a2.3,2.3,0,0,0,.15-.38v0A1.36,1.36,0,0,0,76,138.93Z" transform="translate(16.61 15.08)"/><path class="cls-5" d="M265.65,18.08c-2.25,1.32-4.54,2.61-6.84,3.87a1,1,0,0,0-1.25-.16c-4,2.27-8.16,4.32-12.32,6.29a61.14,61.14,0,0,0,10.44-7.84A2.84,2.84,0,0,0,259.29,19c1.15-2.7,2-5.49,3.16-8.15.83-1.87,1.77-3.76,1-5.83-2-5.29-9.77-2.86-13.81-2.69-7.47.3-14.93-.6-22.36-1.25C219.53.37,211.74.91,204,.54c-8.17-.38-16.39-1.16-24.56-1-7.85.16-15.7,1.32-23.55,1.22C139.89.56,124.1-3,108.1-3.34c-7.79-.18-15.6-1-23.35-1.75S69.2-6.33,61.35-6.77c-8.21-.47-16.53-1.17-24.7-2.12-7.16-.83-14.87-1.72-22-.63a33.11,33.11,0,0,0-15,6.57c-5,4.22-4.45,9.85-5.21,15.81-1,7.78-2.44,15.73-2.72,23.56s0,15.79.47,23.57c.26,4.42,1.34,8.78,1.52,13.21.2,4.68-.3,9.37-.51,14-.42,9,0,18.17,0,27.21,0,2.24,0,4.47,0,6.71a87,87,0,0,0-4.27,12.6c-1.5,6.23-2.4,12.65-1.21,19,.79,4.19,1.72,11,5.48,13.79,0,1,.12,2.08.21,3.13a2.79,2.79,0,0,0,4.66,2,57.63,57.63,0,0,0-.1,10.2c-.36,2.86-.68,5.72-.92,8.6-1.19,14.44.6,28.92-.48,43.31-.09,1.22,2,1.53,2.17.29,2-13.12.65-26.67,1.59-39.92a184.61,184.61,0,0,1,2.31-18.77,2.41,2.41,0,0,0,1.33-.08,21.86,21.86,0,0,0,.76,2.24c.45,1.15,2.3.71,1.89-.52a16.25,16.25,0,0,1-.72-3.62c3-4.78.64-13,4.44-17.45a1.68,1.68,0,0,0,.42-1.24c1.16-1.53,2.71-3.06,3.65-4.41,1.88-2.67,3.8-5.31,5.57-8.05.66-1-1-2-1.62-.94-1.94,3.05-4.21,5.9-5.94,9.08-.56,1-1.42,2.11-2.17,3.23a1.63,1.63,0,0,0-.75-.46c.56-2,1.14-4,1.73-6a205.48,205.48,0,0,1,16.05-24.86A177.32,177.32,0,0,1,39.92,106.9l1.18-1.2a84.5,84.5,0,0,1,8.3-7.45A156.79,156.79,0,0,1,77.75,81.07c5.15-2.51,9.85-5.6,15.46-7.08,5.06-1.34,10.27-2.14,15.36-3.38l2.11-.55c-2.38,1-4.74,1.94-7.14,3-7.08,3.06-14.34,5.6-21.17,9.22-13.49,7.15-26.61,14.6-39.08,23.44a.62.62,0,0,0,.63,1.07c6.24-3.37,11.81-8,18.16-11.17C68.76,92.23,75.44,88.77,82,85.17a209.15,209.15,0,0,1,45.36-18.63l2-.55a81.3,81.3,0,0,0,8.74-1.59C149,61.63,160.47,62,171.57,61.66a279.19,279.19,0,0,0,31.83-3.44,124.5,124.5,0,0,0,33.43-9.85c5.4-2.51,10.79-4.66,16.28-6.9a66.78,66.78,0,0,0,13.49-7c2-1.48.14-4.87-2-3.42a27.29,27.29,0,0,1-2.38,1.44c.08-1.46-1.66-3-3.17-2a72.55,72.55,0,0,1-20,9.4c-8.59,2.39-17.4,3.63-26.17,5.16l-2.15.36c1.54-.41,3.08-.83,4.61-1.26.4-.06.81-.1,1.21-.17a111.29,111.29,0,0,0,26.14-8.24c4.05-1.78,8.31-3.31,12.07-5.66,4.36-2.72,8.49-5.83,12.79-8.65C269.59,20,267.77,16.84,265.65,18.08ZM2.74,153.84a73,73,0,0,0-2.57,7.09c.21-1,.44-2,.67-3,.69-1.73,1.37-3.47,2.08-5.17l.25-.6C3,152.75,2.89,153.3,2.74,153.84ZM180.62,41.16c1.93-.06,3.87,0,5.8,0-2.86.14-5.74.16-8.61.17C178.75,41.25,179.68,41.2,180.62,41.16ZM167.56,46c-4.87.61-9.66,1.43-14.55,2.3-2,.35-3.95.67-5.92,1a1.08,1.08,0,0,0-.35-.42A88.76,88.76,0,0,1,167.56,46Zm-26.33.22,1.35-.14L138,47.32c-1.85-.07-3.72,0-5.54.08ZM86.63,57c5.58-1.47,11.18-2.89,16.8-4.19-3.78,1.35-7.41,2.94-11,4.64A109.33,109.33,0,0,0,78,61.33,95.71,95.71,0,0,1,86.63,57Zm-58,49a2.79,2.79,0,0,0-1.76,0q2.28-3.18,4.66-6.26a1.81,1.81,0,0,0,2.84.39c1.65-1.55,3.26-3.12,4.87-4.68-1.35,1.41-2.69,2.85-4,4.31s-2.78,3.23-4.09,4.89a.91.91,0,0,0-1.26,0C29.5,105,29.09,105.47,28.67,105.94ZM53.38,88.45l0,0C51.19,90,49.08,91.54,47,93.2A109.32,109.32,0,0,0,30.32,110c0-.24.09-.48.11-.71A108.31,108.31,0,0,1,42.54,96a171.7,171.7,0,0,1,30-22.54c1.08-.29,2.16-.61,3.23-.91L75,73A172.21,172.21,0,0,0,53.38,88.45ZM159.34,56c-2.23.08-4.47.21-6.7.38,3-.58,6-1.14,9.05-1.74l.43-.06c1.11-.06,2.23-.12,3.34-.16C163.42,54.92,161.38,55.44,159.34,56Zm9.53-.24-1.82,0q3-.75,6-1.45a137,137,0,0,0,17.56-.45L198,53A221,221,0,0,1,168.87,55.74Z" transform="translate(16.61 15.08)"/><path class="cls-6" d="M256.22,7.84l-.79.64a3.42,3.42,0,0,0,1-3.42c-.72-2.72-4.67-3.87-7-4.61a53.16,53.16,0,0,0-16.08-2.7c-13.23-.06-26.65-1.68-39.74-3.42A124.08,124.08,0,0,0,175.7-6.79c-6.62.06-13.15-.9-19.75-1-12.25-.22-24.46.53-36.71.53-12.52,0-25.18.42-37.69,1C58-5.23,34.84-3.59,11.33-5.29A14,14,0,0,0-1,.09C-4.34,4.76-4.4,12.33-5.46,17.82-8.21,32.19-10.06,46.65-13.18,61c-2.71,12.44-4.64,26.14-2.54,38.82a70.11,70.11,0,0,0,1.7,8.54c.76,2.53,1,5.19,1.93,7.64,1.21,3.22,3.12,6.13,4.2,9.43a19.23,19.23,0,0,1,.79,3.45,66.47,66.47,0,0,0-.47,10.87,1.68,1.68,0,0,0,3.35,0c0-.41.09-.81.13-1.22a3.14,3.14,0,0,0,1.65-.36c0,.53,0,1.06,0,1.58a1.56,1.56,0,0,0,3.11,0C1.29,133.44,3,127.26,3.76,121c.18-1.56.44-3.09.72-4.61,3.07-.37,5.56-4.88,7.18-7,4.29-5.71,7.12-12.1,11.93-17.45,1.79-2-1.12-5-3-3A69,69,0,0,0,12.31,100c-.67,1.08-1.37,2.28-2.11,3.51.76-1.72,1.51-3.47,2.42-5.07A71.13,71.13,0,0,1,22.86,85.09a83.82,83.82,0,0,1,9-6.89c5.54-3.66,11.23-7.11,16.8-10.73,6.73-2.83,13.72-5.26,20.53-7.78,7.63-2.82,15.61-4.53,23.18-7.52s15.38-4.83,23.23-6.68c3.9-.92,7.79-1.9,11.67-2.91a.51.51,0,0,0,.55.41c12.35-1.65,24.76-2.69,37.2-3.37,5.41-.29,10.91.5,16.28,0,6.21-.59,12.45-1.7,18.66-2.45,10.12-1.23,21.25-3,30.81-6.67,8-3,17.24-7.24,23-13.93a13.17,13.17,0,0,0,5.39-7C259.62,7.77,257.45,6.76,256.22,7.84ZM51.77,49.58c6-2.73,12.37-4,18.56-6.36a86.3,86.3,0,0,1,18.78-4.44c6.17-.82,12.24-2.24,18.42-3,5-.62,9.89-1,14.83-1.44-10.07,1.22-20.1,2.86-30.15,4.2-8.29,1.11-15.1,2.91-22.34,7.08-.81.47-1.6,1-2.4,1.43-3.28-.06-6.7,1.8-9.65,3.07a143.49,143.49,0,0,0-14,6.48c-1,.59-2.08,1.2-3.1,1.83a2.31,2.31,0,0,0-1.77-1.54A87.53,87.53,0,0,1,51.77,49.58ZM26.11,75.72A52.68,52.68,0,0,1,39.54,65.09c-1.19,1-2.37,2.06-3.55,3C30.33,72.76,24.32,77,19.36,82.42v0a76.47,76.47,0,0,0-5.52,5.44C15,86,16.28,84.15,17.44,82.45a79.21,79.21,0,0,1,5.73-7.32A1.71,1.71,0,0,0,26.11,75.72Zm-5.46-4.89c-.41.51-.8,1-1.18,1.51-1.66,2.12-3.49,4.45-5.21,6.91A16.21,16.21,0,0,0,11,82.9,39.15,39.15,0,0,1,20.65,70.83ZM.26,118.38c-.39,3.21-1,6.51-1.61,9.81-.11-.8-.26-1.59-.43-2.39.33-1.68.65-3.36.89-5.06.88-6.18,2.28-12.29,3.75-18.35a36.3,36.3,0,0,1,1.06-3.54,106.71,106.71,0,0,0-2.66,11.64.86.86,0,0,0,.06.51C.86,113.47.55,116,.26,118.38Zm48.34-56c.55-.47,1.08-.94,1.62-1.42a1.36,1.36,0,0,0,.6.3C50.08,61.65,49.34,62,48.6,62.41Zm20-5.74a1.27,1.27,0,0,0-1.47-1.08,64.88,64.88,0,0,0-12.34,3.92c5.86-3.24,11.74-6.37,17.73-9.38,8.18-4.1,15.65-4.89,24.6-6.28,9.33-1.46,18.67-2.55,28-3.56C106.1,45.06,87.24,50.45,68.6,56.67Zm70.09-17L144,38.29l3-.32.61-.06C144.64,38.46,141.67,39,138.69,39.63Zm1.74-6.86c-2.83.12-5.66.33-8.49.58,10.42-1.19,20.73-2.6,31.22-3.31,5.85-.4,11.58-1.71,17.39-2.27l1.19-.13A292.14,292.14,0,0,1,140.43,32.77Zm84.15-6.56c-10.44,2.5-20.94,4.95-31.63,6.17-5.5.62-10.92,2.24-16.45,2.27-.55,0-1.1,0-1.65,0,7.57-1.45,15.21-2.54,22.72-4.29q4.89-1.16,9.68-2.4c2.15-.32,4.3-.64,6.45-1,4.64-.72,9.33-1.59,14-2.66a1.48,1.48,0,0,0,.54.73A34.82,34.82,0,0,1,224.58,26.21Zm23.89-13.14c-.07-.16-.15-.33-.24-.5.3-.17.61-.31.91-.48,1.18-.66,3-1.34,4.55-2.26A45.88,45.88,0,0,1,248.47,13.07Z" transform="translate(16.61 15.08)"/><path class="cls-6" d="M110.53,51.86c-6.59,1.56-13.25,2.81-19.83,4.41a105.08,105.08,0,0,0-17.27,6.17c-12.48,5.47-25.65,10.4-37.05,18a.77.77,0,0,0,.78,1.33c23.69-12,47.48-23.64,73.85-28.14C112.12,53.39,111.67,51.6,110.53,51.86Z" transform="translate(16.61 15.08)"/><path class="cls-6" d="M128.6,51.57c-5.94.27-11.93,1.89-17.86,2.59A60.73,60.73,0,0,0,94,59C82.62,63.86,73,71.19,63.06,78.29c-1.11.79-.08,2.64,1.09,1.86,10-6.68,19.71-13.43,30.93-18a74.22,74.22,0,0,1,17.7-4.9c5.65-.83,10.54-3.08,16-4.39A.65.65,0,0,0,128.6,51.57Z" transform="translate(16.61 15.08)"/><path class="cls-6" d="M173.1,45.16c-2.74.06-5.61,1-8.33,1.4-4.35.69-8.61,1.84-12.88,2.89-1,.25-.57,1.78.43,1.54,7-1.71,14-3.16,20.93-4.73A.56.56,0,0,0,173.1,45.16Z" transform="translate(16.61 15.08)"/><path class="cls-5" d="M232.85,51.81l-2.17.67a63.8,63.8,0,0,0-9.49,3c-4.81,1.58-9.6,3.2-14.42,4.75-1.16.38-2.31.77-3.46,1.18-5,1.13-10,2-15.06,2.93-8.18,1.57-16.67,2.2-25,3.18S146.63,70,138.19,70.3c-15.53.49-30.85,3-44.84,10A112.83,112.83,0,0,0,74.33,92c-2.94,2.29-6.07,4.4-8.88,6.86-1.27,1.1-7.11,5.27-6.84,6.73-.11-.61-1-.42-1,.14l-.06.87a.64.64,0,0,0,1,.55c12-8.64,22.88-17.78,36.29-24.36a98,98,0,0,1,24-7.94c8.71-1.74,17.32-1.65,26.09-2.5,7.57-.74,15.06-2.23,22.58-3.3,6-.86,11.93-1.6,17.88-2.52-2,.4-3.91.8-5.85,1.27-9.3,2.27-18.69,4-28.1,5.74-4.42.81-8.91,1.39-13.31,2.3s-8.26,3.3-12.59,4.39c-.55.14-.46,1.08.13,1,3.84-.39,7.32-2.46,11.09-3.34,4.67-1.08,9.47-1.7,14.19-2.5,9.43-1.6,18.81-3.67,28.09-6,8.66-2.13,17.05-3.94,25.54-6.62,2.6-.63,5.18-1.34,7.73-2.18,2.17-.71,4.35-1.57,6.54-2.45,4.84-1.57,9.69-3.11,14.58-4.56A1,1,0,0,0,232.85,51.81Z" transform="translate(16.61 15.08)"/><path class="cls-5" d="M74.36,100.81c-10.59,6.21-22,9.48-30.91,18.33C35.06,127.53,27.86,136.73,23.7,148c-.38,1,1.16,1.58,1.71.72,3-4.67,5.46-9.72,8.56-14.36,3.42-5.1,7.66-9.56,11.85-14a54.6,54.6,0,0,1,12.51-10.37c5.38-3.05,11.11-5.27,16.52-8.29A.48.48,0,0,0,74.36,100.81Z" transform="translate(16.61 15.08)"/><path class="cls-7" d="M259.58,185c0-7.42-.73-14.68-.91-22.09-.15-6.37.41-12.7.41-19.09,0-7,.43-13.93.53-20.9.06-4.62,1.56-12.43-1.42-16.4a3.71,3.71,0,0,0-1.34-1.15,1.72,1.72,0,0,0-1.9-.39,1.35,1.35,0,0,0-1.35-1.59c-7.49.67-15.1,3.76-22.34,5.8-8.18,2.31-16.6,5-24.94,6.5-15.25,2.78-30.78,4-45.62,8.39-8.44,2.51-17.19,3.69-25.6,6.12-7.64,2.21-15,5.08-22.43,7.87-7.26,2.73-14.43,5.51-21.41,8.93-6.08,3-12.55,5.63-17.05,10.88-.37.44.13,1.25.67.87a26.42,26.42,0,0,1,4.71-2.51C74.07,160.67,68.16,165.9,64,171.5c-1.29,1.74-2.46,3.53-3.57,5.34,1.39-2.51,2.82-5,4.28-7.46a1.31,1.31,0,0,0-2.27-1.32c-7.77,12.44-15,24.68-18.49,39.07-1.71,7.11-2.85,14.38-4.26,21.56-1.19,6-3,12.46-.5,18.34a1.56,1.56,0,0,0,1.86.72c0,6,.38,12.28,3.1,17.6,1.34,2.6,5,.31,3.85-2.25-2.58-6-1.92-13.85-1.89-20.26,0-1.4,0-2.84-.1-4.3a25.54,25.54,0,0,0,1.18,7.08c1.15,3.54,1.51,7.19,2.52,10.71a1.09,1.09,0,0,0,0,.18c.52,3.54,1.15,7.89,4.62,9.83,4,2.21,9.52.41,13.75.35,11.94-.18,23.7-1.14,35.55-2.49,24.28-2.78,48.66-5,73.13-5,13.73,0,27.46-.08,41.18,0a83.52,83.52,0,0,0,33.53-6.95c3.83-1.7,7.81-3.42,8.14-8,.48-6.44-.07-13.15-.07-19.61Zm-213,44.82A52.82,52.82,0,0,0,46,237.7a73.91,73.91,0,0,1,0-11.24,1.61,1.61,0,0,0,1.08-.05C46.93,227.53,46.74,228.64,46.59,229.77Zm46.32-75c-13.7,12.62-29.29,25-36.71,42.49a139.65,139.65,0,0,0-8.33,25.36c.05-8.64,3.23-15.94,6.67-24s7-16.25,12.17-23.42a79.89,79.89,0,0,1,19-18.05,98.63,98.63,0,0,1,15.18-8.3A50.73,50.73,0,0,0,92.91,154.76Zm84.06-18c-5.07.12-10,.13-15,.62-4.74.46-9.46.11-14.19.27,4.94-1.3,9.85-2.75,14.75-4.5,4.38-1.56,9.24-3.56,14-3.58,4.13,0,8.75,1.71,12.67,3a42.25,42.25,0,0,0,5.8,1.4A77.29,77.29,0,0,1,177,136.74Zm61.87-21.31c-1.75.8-3.52,1.59-5.21,2.49-5.12,2.72-9.91,6.09-15.43,8-2,.69-4,1.42-6,2.16-.93.15-1.86.3-2.81.4a117.31,117.31,0,0,1-13.5.83c-2.1,0-4.14-.49-6.23-.56s-3.85.39-5.8.32c-9.29-.36-17.67.77-26.88,2.28a285.31,285.31,0,0,0-28.4,6,53.21,53.21,0,0,1-8.86,1.23,160.29,160.29,0,0,1,19.3-7.7c3.74-1.12,7.55-2.1,11.34-3,4.27-1,8.39-1.44,12.7-2.12,14.72-2.35,29.5-4.12,44.19-6.8,7.76-1.42,15.54-3.89,23.14-6,4-1.1,7.95-2.46,12-3.48,3.44-.87,6.67-2.33,10.12-3.1C247.74,109.1,243.28,112.25,238.84,115.43Z" transform="translate(16.61 15.08)"/><path class="cls-8" d="M260.21,161.82c-.2-5.84-.62-11.62-.62-17.47,0-3.48,1-8.26-.88-11.41-.76-1.27-2.79-2.05-4.09-1.07-1.62,1.21-2.41,2.91-3.64,4.5-.2.26-.4.52-.59.79-10.72,8.49-22.47,16-35.37,20.72-15.92,5.78-32.61,11.59-49.81,10.86a105.46,105.46,0,0,0-23.44,1.82,90.27,90.27,0,0,0-12.17,2.83c-4.08,1.31-7.84,3.46-11.85,5C109,181.66,100,186,92.33,191.78a88.94,88.94,0,0,1,19.35-14.36c4.51-1.64,9.18-3,13.57-4.47,4.09-1.38,8.05-3.09,12.1-4.59a67.24,67.24,0,0,1,15.25-3.28.85.85,0,0,0,.54-1.48l.39,0c6.9-.52,13.79-.56,20.71-.6,5.11,0,12.19-.63,17.06,1.36,1.32.54,1.81-1.39.88-2.1-1.57-1.21-3.13-1-5-1.25a87.92,87.92,0,0,0-10-.67,188.53,188.53,0,0,0-22.91,1.45,127.93,127.93,0,0,0-41.82,13.53c-1.11.43-2.22.88-3.33,1.34-3.51,1.47-7.27,2.63-10.32,5-8.23,6.32-16.22,14.35-20.89,23.82a73.4,73.4,0,0,0-8.63,16.4C66.62,228.73,67,234.88,68,242a1,1,0,0,0,1.25.8c.08,2.89.32,5.78.68,8.65.44,3.46,2.73,6.67,1.18,10.16a1.17,1.17,0,0,0,1,1.73c6.26.39,3.26-11.15,3.05-14.21q-.21-3.1-.26-6.29a1.91,1.91,0,0,0,2.22.81c.07.23.13.46.22.7,1.19,3.41,4.82,9.37,3.79,12.79a2.08,2.08,0,0,0,3.55,1.9c.32,1.41.63,2.81.89,4.22s2,1.79,3.12,1.26a4.46,4.46,0,0,0,.51.07c3.87.3,7,1.68,11.1,1.59a76.64,76.64,0,0,0,12.57-1.28c2.46-.48,4.69-1.29,7.24-1.41s5.14.13,7.71,0c5.35-.24,10.65-1.13,16-1.27,10.89-.28,21.75-1.26,32.63-1.53,11.1-.28,22.15.33,33.23-.63,10-.87,19.93-.67,29.78-2.91,4.43-1,8.86-1.2,13.26-1.89,2.69-.42,3.81-2.25,4.25-4.77a66.87,66.87,0,0,0,.57-12.49c-.06-4.93.55-9.88.92-14.79.73-9.6-.28-19.3,1-28.87C260.91,183.53,260.57,172.72,260.21,161.82ZM124.81,171a94.51,94.51,0,0,1,22.53-6.67C139.62,165.9,132.36,168.48,124.81,171ZM69.68,232.18a32.56,32.56,0,0,1,.83-6.16c-.09.6-.17,1.2-.26,1.76C70,229.25,69.84,230.71,69.68,232.18Zm12.2-9.51c-.27,1.62-.59,3.27-.88,4.94,0-.24,0-.49,0-.74,0-1.26-.13-3-.2-4.72.06-.12.11-.25.17-.38.65-1.18,1.31-2.38,2-3.58A37.77,37.77,0,0,0,81.88,222.67Zm58.27-39.73c-3.6.05-7.2-.15-10.79,0a103,103,0,0,0-14.5,2.19c-1.76.36-3.41.64-5,1,.57-.35,1.15-.68,1.74-1q2.57-1.09,5.15-2.16c4.14-1.31,8.44-1.86,12.59-3.12,2.31-.69,4.43-1.88,6.84-2.3,3.64-.62,6.7.93,10.19,1.62a39.44,39.44,0,0,0,5.64.43q-2.67.94-5.3,1.76C144.59,182.05,142.36,182.46,140.15,182.94Zm11.79,1.44c.3-.1.61-.2.91-.32,2.17-.83,4.78-1.63,7.16-2.75,1.07.33,2.14.66,3.23.91l.68.13Q158,183.6,151.94,184.38Zm15.32-7.75c-.5-.07-1-.17-1.48-.26a1.74,1.74,0,0,0-2.5-1.57c-.47.25-.95.48-1.43.72-1.43-.35-2.89-.73-4.43-1.1-3.17-.76-6.32-.43-9.51-.9a19,19,0,0,1-2.24-.49l1.44-.35c4.5-1.06,8.76-1.85,13.37-1.36a80.69,80.69,0,0,0,12,.62,113.68,113.68,0,0,0,17.82-2.36C182.77,172.28,175,174.34,167.26,176.63Zm55.06-14.32c-9.76,3.79-19.41,7.79-29.22,11.38a2.5,2.5,0,0,0-1.36-.74c3.19-1.1,6.35-2.24,9.5-3.65,6.36-2.83,13-5,19.34-8,4.19-1.95,10.54-4.76,13.9-8.4,1.72-1.06,3.38-2.17,5-3.3.73-.52,1.43-1.05,2.13-1.58C235.81,153.82,230.06,159.3,222.32,162.31Z" transform="translate(16.61 15.08)"/><path class="cls-9" d="M261.08,219.64c.16-10,1.35-20,1.13-30A68.49,68.49,0,0,0,260.36,176c-.29-1.3-.55-2.67-.88-4a1.15,1.15,0,0,0-.52-1.85,10.48,10.48,0,0,0-3.43-5.33,2.39,2.39,0,0,0-.34-.21c.75-1,1.51-2,2.31-3s-.29-2.92-1.53-2c-4.85,3.63-9.28,8.85-12.95,13.65-2.21,2.88-5.3,5-8,7.49-.59.55-1.19,1.09-1.79,1.63A99.27,99.27,0,0,1,217.69,190a159.4,159.4,0,0,1-26.76,6.84,1.11,1.11,0,0,0-1.33-1.05,176,176,0,0,1-31.55,1.11c-9.09-.58-17.49,2.26-25.29,6.7a.69.69,0,0,0-.16,1l-.2,0A50.81,50.81,0,0,0,112.66,215c-5.11,4.42-7,11-9.36,17.07-1.32,3.43-3,6.8-3.53,10.48a16.69,16.69,0,0,0,.8,7.27,17.3,17.3,0,0,0,5.74,10.54,9.58,9.58,0,0,0,.82.64,8.28,8.28,0,0,0,1.81,3.09,2.2,2.2,0,0,0,3.41-.44l.44-.61a12,12,0,0,0,3.34-.39c.1,4.17,4.34,5.25,7.94,5.19a111,111,0,0,0,17.05-2.15c9.07-1.62,18.42-2.45,27.56-3.61,8.3-1.05,16.95-.46,25.31-.41,17.25.1,34.39-2.3,50.26-9.26,5.86-2.57,13.29-2.16,15.49-9.1C262.06,236,261,227.22,261.08,219.64Zm-35.3-31.16c-.11.08-.22.17-.33.24-2.22,1.54-4.43,3-6.68,4.36l-1.21.47c-2.56.95-5.14,1.93-7.75,2.85a1.38,1.38,0,0,0-1.21-.44c-4.08.5-8.11.9-12.14,1.41A141.58,141.58,0,0,0,225.78,188.48ZM106.92,248.64c-.07.45-.13.94-.2,1.44a6.07,6.07,0,0,1,.41-2.91.05.05,0,0,1,0,0C107.07,247.68,107,248.16,106.92,248.64Zm12.7,8.39a9.32,9.32,0,0,1-8.15.09,27.11,27.11,0,0,1,.33-3.83c1.55,1.2,3.24,1.85,4.77,1.23a3,3,0,0,0,.4-.2,14.22,14.22,0,0,0,1.6,1.6c.42.36.86.71,1.3,1A1.21,1.21,0,0,0,119.62,257ZM114,247.2c-.27-.41-.51-.84-.73-1.26.07-.26.13-.52.2-.78a1.12,1.12,0,0,0,.58.2A10.27,10.27,0,0,0,114,247.2Zm13.76,14.36a29.9,29.9,0,0,1-3.64.36,15.63,15.63,0,0,1-1.81,0l-.2-.07a2.56,2.56,0,0,0-.51-1.38l0,0a1.68,1.68,0,0,0,1-1.8,27,27,0,0,0,7.89,2.62C129.54,261.33,128.62,261.44,127.71,261.56Zm6.6-47.43c-1.57.41-3.15.84-4.76,1.24-4,1-8.48.41-11.75,3.49-2,1.88-2.4,4.62-2.48,7.3a33.25,33.25,0,0,0-3.47,5.7,2.71,2.71,0,0,0-1.36.76,12.52,12.52,0,0,0-1.92,2.75c-.55.65-1.08,1.31-1.63,2-1,1.35-2.32,2.6-3.46,3.93.14-.44.28-.88.46-1.34,1.09-2.77,2.52-5.42,3.68-8.17,1.42-3.34,2.7-6.86,4.76-9.89,2.31-3.39,5.61-5.09,9-7.24l.92-.56c5.35-.36,10.77-1.23,16.1-2.05l-3.19,1.61Zm4.2,8.94c-.45.13-.9.25-1.36.36,1.31-.55,2.62-1.05,3.92-1.48.93-.31,1.87-.59,2.81-.84C142.11,221.81,140.29,222.39,138.51,223.07ZM147,211.68c-.58.25-1.17.47-1.76.67h-.26c1.23-.63,2.44-1.19,3.66-1.72l1.41-.18C149,210.84,148,211.25,147,211.68Zm16.82-7.58a36.84,36.84,0,0,0-9,1,46.8,46.8,0,0,0-5.58,1.86c-2.14.41-4.28.83-6.42,1.28-5.56,1.18-11.08,2.65-16.63,3.91,5.36-2.35,10.86-3.3,16.81-4.84,4.63-1.19,12.17-1.41,15.76-5,.71-.71-.18-1.72-1-1.33-3.21,1.49-9.16,1-12.53,1.39-2.65.32-5.35.72-8,1.24,7.77-2.43,15-3.87,23.53-3.37A146,146,0,0,0,186.43,199c-7,1.4-13.83,3.13-20.76,4.69Zm8.84,14.47c.55-.18,1.1-.38,1.64-.57,1.52-.24,3-.46,4.55-.67C176.75,217.77,174.69,218.19,172.61,218.57Zm48.21-18.15a61.22,61.22,0,0,0-16.75,4.06c-8.4,3.12-16.9,4.55-25.8,5.61-3.59.43-7.06,1-10.46,1.71l-1.2,0a3.13,3.13,0,0,0-.47-.42c1.37-.43,2.74-.87,4.11-1.34a91.38,91.38,0,0,1,9.64-2.89,21,21,0,0,1,2.47-.37,37.4,37.4,0,0,0,6.93-.19l1.11-.05c12.21-.81,24.49-6,35.42-11.21l.8-.41Q223.82,197.83,220.82,200.42Z" transform="translate(16.61 15.08)"/><path class="cls-9" d="M101.59,223.92c-6.46,9.82-13.81,20.67-9.65,33,.23.69,1.43.63,1.36-.19-.51-5.51-.72-11.34.91-16.69,1.71-5.64,5.26-10.59,8.41-15.51C103,223.87,102,223.28,101.59,223.92Z" transform="translate(16.61 15.08)"/><path class="cls-9" d="M99.49,221.16l-1.48,2c-.08.11.1.21.19.1l1.52-2C99.82,221.16,99.59,221,99.49,221.16Z" transform="translate(16.61 15.08)"/><path class="cls-9" d="M156.1,189.37a29,29,0,0,0-17.42,4,.85.85,0,0,0,.65,1.54c2.69-.67,5.21-2,7.86-2.79a20.94,20.94,0,0,1,8.91-.67C157.41,191.54,157.4,189.49,156.1,189.37Z" transform="translate(16.61 15.08)"/><path class="cls-9" d="M119.55,204.44c-3.56,2.34-7.19,4.56-10.6,7.11-1,.73,0,2.41,1,1.68,3.46-2.48,7.13-4.63,10.73-6.89C121.86,205.58,120.73,203.66,119.55,204.44Z" transform="translate(16.61 15.08)"/><path class="cls-8" d="M141.1,155.6c-9.64-1.1-19.29,2-28.54,4.23-8.26,2-14.42,7.6-20.83,12.85-.46.38.16,1.19.64.83,14-10.71,31.42-14.61,48.73-16.34A.79.79,0,0,0,141.1,155.6Z" transform="translate(16.61 15.08)"/><path class="cls-8" d="M203.28,152.47c-10.2,3.89-20.7,5-31.51,5.65-.76,0-.77,1.24,0,1.2,10.44-.55,22.53-.67,32-5.74C204.34,153.26,203.93,152.22,203.28,152.47Z" transform="translate(16.61 15.08)"/><path class="cls-10" d="M231.57,133.65c-.83-4.06-1.25-8.25-2.25-12.26-1.47-6-3.06-11.73-6.08-17.2-1.68-3-3.94-5.6-5.83-8.48s-3.47-6.22-5.44-9.18a40.35,40.35,0,0,0-4.17-5.26,36.94,36.94,0,0,1,5.39-1.88c6.61-1.53,13.32-3.43,13-11.72-.24-6.2-3.67-10.81-7.23-15.58s-6.67-10.18-10.86-14.38c-5.2-5.2-10.56-6.65-17.19-9.11a51.57,51.57,0,0,0-21.64-3.12c-6.33.53-13.29,1-19.42,2.61a80.12,80.12,0,0,0-19.71,8.11c-13.71,7.65-25,18.72-30,33.65-1.51-.33-3-.75-4.55-1a51,51,0,0,0-9.88-.42C80.35,68.4,74.07,69.1,69,71c-10.23,3.9-17.7,12-24.91,19.86A51.79,51.79,0,0,0,35.72,102a20.29,20.29,0,0,0-1.42,3.62,3.4,3.4,0,0,0-.32.44c-1.3,2-1.5,5.57-2,7.86-2.71,12.11-5.52,24.65-5.52,37.09a6.44,6.44,0,0,0,.06.89c0,.15-.05.29-.06.45a82,82,0,0,0-.67,11.71c.19,3.55,1.31,6.92,1.58,10.43s-.16,7.44.61,10.88c.69,3.09,1.9,6.13,2.78,9.18,2,6.78,4.75,13.9,9.73,19.19A48.15,48.15,0,0,0,59,225.49c13,4.52,28.27,5.8,41.92,5a184.79,184.79,0,0,0,22.19-2.78c3.57-.64,7.35-1,10.75-2.38,2.56-1,7-4.67,9.58-4.62a5.7,5.7,0,0,0,3.17-.8l.57.07c2.57.3,5.17,0,7.76.17,5.23.33,10.8.72,16-.24,7-1.3,15.82-3.35,20.69-9.1A28.21,28.21,0,0,0,207,202.34c5.16-5.22,11.68-9.91,15.67-16.17,3.79-5.94,7.25-12.09,8.69-19.09a98.57,98.57,0,0,0,2.18-20.83C233.45,142,232.42,137.78,231.57,133.65Z" transform="translate(16.61 15.08)"/><path class="cls-11" d="M123.73,86.08c2.81-.86,5.5-2.07,8.27-3,4.49-1.57,9-2.93,13.5-4.51a43.64,43.64,0,0,1-4.93-10.79,1.64,1.64,0,0,0-.41-.81A24,24,0,0,1,142.4,61a53,53,0,0,1,5.69-8.75c3.13-1.53,7.17-2.56,10.3-3.77,4.86-1.89,10.27-3.24,15.45-1.95,8.59,2.13,10.1,6.07,13.27,13.82,1.63,4,4.44,7.28,8.63,8.62,3.9,1.24,12,2.22,14.4-1.87,3.26-5.46-4.48-11.73-7.77-14.91-4.84-4.68-9.6-8.82-16-11.27s-12.32-2.51-18.88-1.39c-5,.86-10.9,1.28-16,3.07a3.22,3.22,0,0,0-2.6,0c-8.23,3.69-16.23,7.2-22.14,14.43-6.93,8.47-12.83,18.52-18,28.13a3,3,0,0,0-.24.6c1.85.78,3.61,1.82,5.66,1.8A45.35,45.35,0,0,0,123.73,86.08Z" transform="translate(16.61 15.08)"/><path class="cls-12" d="M214.57,128.26a2.75,2.75,0,0,0-.23-.33c-.4-6.22-3.44-12.05-6.23-17.83-2.39-5-3.93-10.36-8.26-14-2.16-1.79-4.36-3.94-6.93-4.79-4.31-7.15-11.24-11.95-20.27-14.1-6-1.42-11.46-.12-17.44.72-2,.28-7.09,2.42-8.16,2.09a1.39,1.39,0,0,1-.5-.31c-5.12,1.84-10.34,3.37-15.46,5.22a79.24,79.24,0,0,1-9.45,3.25,49.89,49.89,0,0,1-7.09.85l-.1,0h-.2l-.82.07a.61.61,0,0,1-.49-.16,12.89,12.89,0,0,1-3-1v0a4.77,4.77,0,0,0-1.9-1.46,8.58,8.58,0,0,0-2.22-1.07,1.52,1.52,0,0,0-1.67.71c-14.2-6.29-31.93,0-43.69,9.36-7.3,5.78-10.93,15.34-14.48,23.67-2.2,5.17-6.38,11.7-6.34,17.72-1.79,3.6-1.58,7.47-1.14,11.36a19.46,19.46,0,0,0,.17,7.9,2.92,2.92,0,0,0,.27.63.29.29,0,0,0,0,.1c-.05.22-.06.44-.09.65-2.27,6.88-1.34,16.91-.41,21.68,1.76,9,7.68,19.18,14.42,25.44,9.69,9,24.36,7.74,36.44,9.74a140.45,140.45,0,0,0,17.3,1.42c3.11.13,6.6.43,9.64-.48,3.89.44,7.69-1.43,10.9-3.54,5.63-3.69,10.57-5.25,17.49-4.76,8.2.59,21.46,4.82,27.8-2.78,4.1-.4,9.26-2.72,11.34-3.72,3.73-1.81,7.78-2,11.65-3.76,4.29-1.91,7.86-5.44,10.65-9.19,5.69-7.66,9.24-17,11.42-26.15C220,151.15,220,137.71,214.57,128.26Z" transform="translate(16.61 15.08)"/><path class="cls-13" d="M185.77,191c-3.66,0-6.45.87-9.92,2-1.3.42-5.65,2.31-7,1.39-.63-.45-1.32-4-1.51-4.67-1.39-4.92-2.25-10.08-3.7-15-.76-9.26-2.47-18.56-4.08-27.36-1.49-8.11-2.38-17.08-5.42-24.79-1.33-3.36-3.65-6.06-5.33-9.22l-.47-.92c.43.51.84,1,1.23,1.5,5.47,6.76,6.87,14.7,9.86,22.68s3.69,16,4.56,24.48a1,1,0,0,0,2.07,0c1.11-14.07-5.13-25.92-9.91-38.75a161.79,161.79,0,0,0-7.83-16.76c-1.94-3.83-6.71-10.15-7.26-14.94a2.61,2.61,0,0,0,.1-.57c0-.72,0-1.44,0-2.16a2.46,2.46,0,0,0-1.14-2.3,5.79,5.79,0,0,0,3.14-3.07c.89-1.69-1-3.91-2.76-2.76s-3.6,3-5.67,3.66a15.74,15.74,0,0,0-4,1.85,3.54,3.54,0,0,0-2.39.26,2.88,2.88,0,0,0-2-1.27,3,3,0,0,0-3.23,2.11c.42-1.17-.07.13-.18.5a5.33,5.33,0,0,0-1.42,1.28,12.06,12.06,0,0,0-3.26,1,3.36,3.36,0,0,0-1.19-.16,8,8,0,0,0-2.55.76l-.07,0c-.39-2.31-4-3-5.32-1.22a2.66,2.66,0,0,0-.53-.34l0-.08c.86-3.06-2.84-4.8-5-2.93-2.91,2.49-5.12,6.22-7.53,9.24-2.29,2.87-4.57,5.92-6.57,9a85.73,85.73,0,0,0-9,19.27c-2.95,8.71-6.12,16.8-6.7,26.11-.6,9.49,2.37,17.86,4.73,26.92q.75,2.93,1.76,5.81c.55,2.73,1.41,5.42,2.13,7.86a1.73,1.73,0,0,0,1.75,1.21,57.46,57.46,0,0,0,10.45,14.46,26.71,26.71,0,0,1-6.48-.83,45.67,45.67,0,0,1-12.72-5.94,39.82,39.82,0,0,0-3.21-3.73c-.69-1.33-1.44-2.58-2.07-3.7a40.49,40.49,0,0,0-1.59-5.78,2.11,2.11,0,0,0,1.61-2.54,155.77,155.77,0,0,1-3.79-26.37c1.12.27,2.51-.36,2.33-1.71-.59-4.5-1.27-9.1-1.8-13.73.14-1.19.29-2.38.48-3.59a163.22,163.22,0,0,1,4.15-21c1-3.27,2.55-8.41,4.74-12.12A12.47,12.47,0,0,0,79,100.57a3.09,3.09,0,0,0,.09-2.23,34.48,34.48,0,0,0,4.54-3.87,3.21,3.21,0,0,0,.79-2,12,12,0,0,0,3.38-3.23c1.17-1.78-.11-3.75-1.81-4.43-4-1.61-7.68.15-10.88,3.26a2.39,2.39,0,0,0-2.87-.77,27.75,27.75,0,0,0-9.52,7.18,6.56,6.56,0,0,0-5.59,3.88c-6.42,12.24-15,24.86-15.72,39.22a6.6,6.6,0,0,0,.41,2.55c-.12.65-.23,1.31-.32,2-3.25,6.31-3,15.95-3,22.46.05,5.44.14,15,3.45,20.5,1.9,9.4,8.34,20,16.22,24.27,12.34,6.65,28.41,6,41.93,5A3.12,3.12,0,0,0,103,212l.5.05c.81.5,1.65,1,2.5,1.45,5.73,3.06,12.14.9,18-1.06,4.85-1.63,8.78-4.69,13.61-6.51.42-.15.84-.34,1.25-.53s.61-.2.92-.32c1.16-.46,2.82-1.05,4.38-1.76a1.86,1.86,0,0,0,1.9,2.07,12.31,12.31,0,0,0,3.92-1,3.4,3.4,0,0,0,1.89.41,2.32,2.32,0,0,0,.88.79c5.3,2.48,13.49.06,18.76-1.72,2.13-.73,4.3-1.57,6.4-2.36,3.55-1.33,5.57-4.75,9-6.23C189.05,194.32,187.85,191,185.77,191Zm-101-26a3.9,3.9,0,0,0-.87-.3c-.33-3-.46-6.1-.72-9.06a74.51,74.51,0,0,1-.24-7.62,111.69,111.69,0,0,0,1.91,16C84.82,164.35,84.8,164.69,84.78,165ZM45.73,177.71a47.7,47.7,0,0,1-.91-7.2v.06A31.66,31.66,0,0,0,46.25,178,2,2,0,0,0,45.73,177.71Zm8.66-12.46c-.56-2.23-1.07-4.47-1.46-6.72.55,1.38,1.12,2.88,1.69,4.43v.1c.07.89.14,1.78.22,2.67Zm22.24,43.17a4.89,4.89,0,0,0,1.06-1.48c1.51.69,3.07,1.31,4.67,1.9C80.43,208.77,78.51,208.64,76.63,208.42Zm38.69-4.15c-.92-1.29-2-2.52-2.91-3.66.41.36.82.7,1.24,1l.09.12C115.26,203.71,115.61,204.34,115.32,204.27Zm10,.46c-1.11.59-2.22,1.18-3.35,1.72a5.4,5.4,0,0,0,.25-1.87,3.47,3.47,0,0,0-.06-.45,4.69,4.69,0,0,0,1-.54,4,4,0,0,0,.54-.48c.56.15,1.13.27,1.7.37a1.75,1.75,0,0,0-.15.87C125.22,204.49,125.25,204.6,125.27,204.73ZM150.65,167a137.27,137.27,0,0,1-2.29,15.8c-.73,4.11-.74,9.18-3.34,12.73a14,14,0,0,0-4.78,2c-.42.26-.82.49-1.22.72a46.56,46.56,0,0,1-9.81-.57,19.46,19.46,0,0,1-9-3A56.4,56.4,0,0,1,114.5,186c-4-7.43-6.3-16.38-8.47-24.55a122.77,122.77,0,0,1-3.7-24.63,116.3,116.3,0,0,1,2.39-19.07c1-4.69,1.8-9.38,2.74-14.07a41.6,41.6,0,0,1,1.61-5.39,6.42,6.42,0,0,0,3.41-2.67,4.22,4.22,0,0,0,2.25.55,7.33,7.33,0,0,0,2-.58,6,6,0,0,1,.73-.18,4,4,0,0,0,3.37-.7c1.14-.75,2.66-1.67,3.31-3a2.93,2.93,0,0,0,1,.06,2,2,0,0,0,.34.22,7.74,7.74,0,0,0,1.35,1.72,15.72,15.72,0,0,0,5,3.72c.8,1.37,1.7,2.7,2.57,4,.12.26.24.53.35.74,1,1.94,2.15,3.87,3.19,5.82,1.5,3.43,2.87,6.79,4.52,10.1a36.63,36.63,0,0,0,1.32,3.5c1.27,3.07,2.44,6.06,3.49,9.13.62,2.05,1.23,4.09,1.85,6.13l.39,3c-1.86,6.79.49,15.23,1.33,22.4C150.8,163.86,150.75,165.43,150.65,167Zm13.58,32.45a23.76,23.76,0,0,1-3,.2,12.34,12.34,0,0,0,1.17-4.16.84.84,0,0,0,.43-.09c.2.47.4.95.64,1.39a8.46,8.46,0,0,0,1.85,2.39C165,199.27,164.61,199.37,164.23,199.45Z" transform="translate(16.61 15.08)"/><path class="cls-14" d="M114.25,80.63a1,1,0,0,1,.08-.14C114.44,80.23,114.44,80.2,114.25,80.63Z" transform="translate(16.61 15.08)"/><path class="cls-14" d="M155.69,42.4c-4.4.17-8.39,2.16-12.29,4-5.33,2.44-10.32,4.39-14.62,8.52-6.75,6.48-8.69,16.21-12.55,24.53a1.89,1.89,0,0,0-1.9,1.09l-.26.61-.23.09a1.7,1.7,0,0,0-1.52.59,7,7,0,0,0-1.88,2.86,2.21,2.21,0,0,0,1,2.43c2.06,1.05,3.51.63,4.65-.43a2.12,2.12,0,0,0,2.5-1.13,1.62,1.62,0,0,0,.1-.18,2.31,2.31,0,0,0,2,.11,2.94,2.94,0,0,0,.49-.08c1.15-.33,1.34-.86,2.26-1.46l.23-.16.33-.07a21.79,21.79,0,0,1,5.14-.82,26.77,26.77,0,0,0,6.36-1.16c2.3-.63,4.34-.76,6.46-1.84,2.61-1.33.69-5-1.89-4.47a46.48,46.48,0,0,1-11.31,1C126.06,76.2,126,74,125,71.73h0a61.87,61.87,0,0,1,6-10.42c3.88-5.14,9.45-7.76,14.86-10.87,3.49-2,6.76-4.42,10.22-6.38A.9.9,0,0,0,155.69,42.4Z" transform="translate(16.61 15.08)"/><path class="cls-14" d="M206,63.43c-3.62.09-7.42-2.58-10.44-4.4-1.69-1-2.8-1.63-4.36-1.34-1.91-3.39-3.61-7.6-6.67-9.76a1.39,1.39,0,0,0-2,1.56c2.22,5.68,4.33,12.24,7.73,17.34,2.95,4.45,13.85,5.29,17.82,1.57A2.94,2.94,0,0,0,206,63.43Z" transform="translate(16.61 15.08)"/><path class="cls-15" d="M155,41.21c-9.35,2.24-16.92,7.81-24.58,13.59a37.59,37.59,0,0,0-8.26,8.44A48.18,48.18,0,0,0,117,73.46a1.23,1.23,0,0,0-.76,0c-1.66.56-1.91,2.43-2.46,3.88a17.79,17.79,0,0,0-1.5,5.08,7.77,7.77,0,0,0-3,3A2.4,2.4,0,0,0,112,88.87c.46-.15.88-.32,1.29-.5,1.45.63,3.49.08,5.33-1.11.81-.52,1.58-1.23,2.43-1.68,1.12-.61,1.73-.36,2.9-.44,1.69-.12,3-.25,3.86-1.82a.75.75,0,0,0,.05-.26c.38,0,.76,0,1.11-.06a22.79,22.79,0,0,0,8.15-2.11,1.14,1.14,0,0,0,0-2c-2.51-1.26-5-.33-7.69,0-3.3.35-6.62.06-9.87.85a1,1,0,0,0-.24,1.8,10.82,10.82,0,0,0,2.15.85l-.92-.05a8.19,8.19,0,0,0-3,.21c-.28.08-.61.17-.94.29a1.72,1.72,0,0,0-.49-.44c.2-.46.42-.93.63-1.39,5.63-8,8.23-18,15.88-24.76a65.91,65.91,0,0,1,14.08-9.55c3.18-1.58,6.2-2.19,8.83-4.5C156.05,41.78,155.56,41.08,155,41.21Z" transform="translate(16.61 15.08)"/><path class="cls-15" d="M201.89,63.77c-2.92-.78-7.36.38-9.34-2.25-1-1.33-1.81-2.7-3.6-1.31a.43.43,0,0,0,.08.68,2.21,2.21,0,0,0,0,.77,5.64,5.64,0,0,0,.34,1.64,5.86,5.86,0,0,0,3.29,3.35c2.87,1.39,7.45,2.35,10,.06A1.77,1.77,0,0,0,201.89,63.77Z" transform="translate(16.61 15.08)"/><path class="cls-16" d="M116.66,86.38a2.52,2.52,0,0,0-1.81-1.33,1.88,1.88,0,0,0-.12-.3s0,0,0,0a.94.94,0,0,0,.1-.28,2.4,2.4,0,0,0,.75-2.54h0a1.71,1.71,0,0,0-.09-.3,28.43,28.43,0,0,0,1.24-5.09c.16-1.75-2.49-2-3-.4-.72,2.39-2.45,4.26-2.86,6.8a2.28,2.28,0,0,0,.26,1.39,1.63,1.63,0,0,0-1.52,1.52c0,.36-.28.74-.37,1.1a6.78,6.78,0,0,0-.19,1.55,2.19,2.19,0,0,0,1.6,2.1,2.58,2.58,0,0,0,2.2-.42,3.42,3.42,0,0,0,.47-.46l.82-.21a3,3,0,0,0,2.22-.87A1.91,1.91,0,0,0,116.66,86.38Z" transform="translate(16.61 15.08)"/><path class="cls-16" d="M131,81c-1.36.09-2.48.86-3.8,1.18-.79.19-1.41.6-2.16.81-.39.12-.64,0-1.06.1a5.58,5.58,0,0,0-1.11.44,8.21,8.21,0,0,1-2.52.73,5.31,5.31,0,0,0-2.69,1.87c-1,1,.6,2.66,1.6,1.6s2.39-1.22,3.77-1.82a2.37,2.37,0,0,1,1.25-.36c.39,0,.8.32,1.23.31,1.19,0,2.56-.9,3.68-1.3A4.73,4.73,0,0,0,132,82.78,1.19,1.19,0,0,0,131,81Z" transform="translate(16.61 15.08)"/><path class="cls-16" d="M196.85,64.73c-.4-.15-.7-.43-1.12-.59a8.13,8.13,0,0,0-1.7-.34,13.13,13.13,0,0,0-2.8-.11,1.59,1.59,0,0,0-.42,3.11,11,11,0,0,1,.93.64,10.46,10.46,0,0,0,1.59.66,6.66,6.66,0,0,0,3,.53A2,2,0,0,0,196.85,64.73Z" transform="translate(16.61 15.08)"/><path class="cls-17" d="M144.78,52.21c-2.58-1.55-6.91,2-8.52,3.89-1.45,1.73-2.35,4.53-3,6.65A20.63,20.63,0,0,0,132.16,68a10.56,10.56,0,0,0,.15,2.25,1.67,1.67,0,0,0,.21.73,1.41,1.41,0,0,0-.12.61,3.75,3.75,0,0,0,1.16,3.26,1.45,1.45,0,0,0,1.38.36,3.38,3.38,0,0,0,1.1,0,3.31,3.31,0,0,0,2.57-3c.42-2.71-.48-4.92.41-7.76,1.14-3.62,1.9-9.31,5.76-11.1A.6.6,0,0,0,144.78,52.21Z" transform="translate(16.61 15.08)"/><path class="cls-17" d="M199.35,50.94C194.58,48,189,46.48,183.59,45.13s-9.37-2-14.74-1c-6.95,1.29-14.51,3.42-20.59,7.08a0,0,0,0,0,0,.06,42.27,42.27,0,0,1,31.27-3.54c7.1,2,21.69,6.74,23.69,15,.53,2.19,4,2.23,4.46,0C208.76,58,202.92,53.14,199.35,50.94Z" transform="translate(16.61 15.08)"/><path class="cls-18" d="M147.55,52.33c-4.86,2.34-9.51,3.19-11,9-1.05,4-2.93,12.77,1.71,15.44a1.63,1.63,0,0,0,2.37-1c.46-1.66-.9-3.42-1.24-5a2,2,0,0,0-.13-.29,39.88,39.88,0,0,1,1.82-9.92c1.43-3.3,5.54-4.33,7.44-7.26C148.89,52.65,148.12,52.05,147.55,52.33Z" transform="translate(16.61 15.08)"/><path class="cls-18" d="M195.81,48.88c-9.07-4.18-15.79-5-25.87-4.64a.51.51,0,0,0,0,1c10.5.41,34.05,5.68,35.6,18.87.27,2.3,3.82,2.42,3.68,0C208.77,56.15,202.63,52,195.81,48.88Z" transform="translate(16.61 15.08)"/><path class="cls-19" d="M141.24,201.44l-2.94.29a1.28,1.28,0,0,0-1.11-1.25c-4.72-.63-9.3,2.17-14,2.48-7.53.5-12.69-.86-17-7.65-5-7.9-8.89-17.67-12.45-26.35a62.92,62.92,0,0,1-4.68-29.47c.47-5.75.17-12.23,1.57-17.82a66.17,66.17,0,0,1,4.37-11c-1,11-1.08,22.22-1.58,33.27-.59,13.15,1.27,22.54,6.84,34.41.25.53,1.08.15.93-.4-1.77-6.53-3.84-12.82-4.44-19.61-.53-6-.07-12.14.14-18.2.38-11.31.6-22.78,2-34,.17-1.39-1.19-1.86-2.23-1.45a.92.92,0,0,0-.59.06c3.39-4.29,6.87-8.53,9.28-13.28a1.2,1.2,0,0,0,.27.08c.87.77,1.25,2,2.45,2.44a11.5,11.5,0,0,0,5.25.14c1.72-.26,3.41-.28,5.12-.52s3-.13,3.91-1.53a1.26,1.26,0,0,0-1.07-1.88,16,16,0,0,0-2.68,0c-1.18.11-2.43,0-3.62.15a6.85,6.85,0,0,1-3.54,0c-.59-.17-1.11-.31-1.65-.43-1-1.22-1.88-2.67-3.68-2.54a2.38,2.38,0,0,0-.84.23,2.71,2.71,0,0,0-4-.18c-7,6.3-11.45,13.92-14.59,22.17-2.3,1.53-3.27,4.54-4.49,7a74.09,74.09,0,0,0-7.84,39.19,15.86,15.86,0,0,0,1,5.45c-3.49,6.34,6,22.52,12,29.11,2.54,5.22,5.17,11.69,9.69,15.31l0,0a28.72,28.72,0,0,0,2.17,2.58,18.65,18.65,0,0,0,4,5c3.36,2.43,9.71,1.36,13.57,1.21,4.15-.15,7.72-.36,11.31-2.62a51.57,51.57,0,0,1,13.81-6.06C144.18,205.19,143.86,201.14,141.24,201.44Zm-20.05,6.65a45.21,45.21,0,0,1-8,.47c-1.39,0-2.85-.14-4.23,0-.23,0-1.14-.09-1.71-.1a25.09,25.09,0,0,0-1.67-2.2c-.77-2.65-2.89-5.26-4.71-7.08a3.18,3.18,0,0,0-1.08-.73c-1-1.23-2.09-2.4-2.92-3.64a2.86,2.86,0,0,0-1.66-1.22c-.31-.62-.62-1.23-.92-1.85l.25-.34a2.9,2.9,0,0,0,0-2.92c-.46-.83-.9-1.73-1.33-2.68-.48-3.59-2.58-7.63-4-10.68a16.49,16.49,0,0,0-.17-1.68.14.14,0,0,1,0,.06c4.31,10.2,9,23.76,17.51,31.25,3.39,3,6.85,3.19,11.26,2.81,2.11-.19,4.29-.39,6.42-.73A9.69,9.69,0,0,1,121.19,208.09Z" transform="translate(16.61 15.08)"/><path class="cls-19" d="M98.4,208.91l0-.06c-4.83-1-9.47.85-14.3,1.37.65-.51.87-1.61,0-2-1.87-.82-3.74-1.63-5.59-2.49a2.75,2.75,0,0,0-1-1,73,73,0,0,1-13.72-10.36.69.69,0,0,0,0-.37,11.41,11.41,0,0,0-1.5-3.59c-.21-.42-.39-.85-.58-1.28,0-2.88-1.17-6.32-2-8.84a1.23,1.23,0,0,0-.61-.69c-1.58-6.5-2.84-13.13-3.83-19.78-.06-1-.13-2-.14-2.93-.09-5.54-.18-11.08-.31-16.63a63.2,63.2,0,0,1,1.23-13.69c.17-.47.34-1,.52-1.43A95.65,95.65,0,0,1,77.7,92.77c1.08-1-.56-2.68-1.64-1.65a122.52,122.52,0,0,0-13,14.39,6.84,6.84,0,0,0,1-2.32,2.32,2.32,0,0,0-.88-2.43c5.59-5.7,13.06-11.23,20.59-13.54,2-.61,1.75-4-.51-3.8-9.54.73-16.39,5.94-23.23,12.36-8.89,8.33-12.27,17.63-15.73,28.85a105.57,105.57,0,0,0-4.48,30.55c0,6.76-.79,13.7.46,20.4.74,3.94,1.82,10.17,5.08,13a39.51,39.51,0,0,0,4.13,7.21c-.1,3.44,2.21,7.52,4.34,10,4.14,4.77,9.19,5.05,14.77,6.74s10.3,3.59,16.41,3.27c4.44-.24,8.42-2.4,12.88-2.5C100.61,213.17,100.6,209.54,98.4,208.91ZM47.64,138.16a85.48,85.48,0,0,0-1.5,11.63c0,.42,0,.86-.07,1.32a3,3,0,0,0-.52-.36,106.86,106.86,0,0,1,2.25-16.62C47.71,135.47,47.66,136.81,47.64,138.16ZM59,203c-.08-.07-.19-.19-.29-.3a2.28,2.28,0,0,0,.57-.7c1.51,1.28,3.49,2.33,4.87,3.5A11.33,11.33,0,0,1,59,203Zm20.23,7.1c-.52-.09-1-.2-1.54-.32a3.22,3.22,0,0,0,.67-.75c1.46.47,2.91.89,4.33,1.27A16.16,16.16,0,0,1,79.23,210.12Z" transform="translate(16.61 15.08)"/><path class="cls-19" d="M65.39,110.35c-3.8,8.13-7.32,17.24-8.54,26.17-1.36,9.87-.74,20.52-.15,30.43,0,.21.34.21.33,0-.63-10.21-.85-21.07,1.44-31.1,2-8.52,5.22-16.78,8.18-25C66.91,110.15,65.72,109.64,65.39,110.35Z" transform="translate(16.61 15.08)"/><path class="cls-19" d="M180.8,195.3c-.31.1-.61.23-.92.35a2.12,2.12,0,0,0-2.86-.37c-1.89,1.11-5.6,1.39-7.91,2-2,.53-4,1.15-6.09,1.69a9,9,0,0,0-2.54-4c1-3.23.25-7.78-.09-10.42-.61-4.7-.44-9.56-1.2-14.22-.41-2.52-.89-4.92-1.33-7.32a1.7,1.7,0,0,0,0-.22c.43-10.66-2.26-20-6.31-29.78-1-2.35-1.91-4.69-2.87-7-1.32-4.21-2.8-8.51-3.74-12.81-.5-2.29-.77-7.13-3.09-8.38a1.3,1.3,0,0,0-.77-.13,16.47,16.47,0,0,0-1.67-4,2.58,2.58,0,0,0-2.81-1.35l-.08-.14a2,2,0,0,0,.09-.75,13.15,13.15,0,0,0-2.31-6.77,3.39,3.39,0,0,1,.41-1.22,1.71,1.71,0,0,0,1.32-.4,32.35,32.35,0,0,0,2.64-1.91,1.84,1.84,0,0,0,0-2.57c-1.4-1.28-3.09-.86-4.56.1a2.59,2.59,0,0,1-.67.2,11.51,11.51,0,0,1-1.82-.3,5.13,5.13,0,0,0-1.18.1,2.76,2.76,0,0,0-.77-.1,2.17,2.17,0,0,0-1.72.68,3.48,3.48,0,0,0-1.2.2,3.1,3.1,0,0,0-2.07,2.92,2.36,2.36,0,0,0,2.34,2.34h.43A49.85,49.85,0,0,0,134.43,106c.76,3.53,2.62,7.32,3.7,10.22s2.34,5.65,3.58,8.45c-.64-1.46,1.42,3.39,1.77,4.18,1.91,4.33,3.59,8.71,5.17,13.13a55.79,55.79,0,0,1,2.33,8.77c-.06,4.56.08,9.12-.08,13.68,0,.91-.09,1.82-.16,2.73a2,2,0,0,0-.68,1.46h0a32,32,0,0,1,.21,4.26c-.16,1.83-.28,3.67-.3,5.51-.45,4.53-1.18,9.07-1,13.63a2.79,2.79,0,0,0,.17.84,29.17,29.17,0,0,1-1.33,8.85,3,3,0,0,0,.77,2.92c3.54,3.52,9.56,2.46,13.87.92l2-.68a1.86,1.86,0,0,0,1.4,1,8.65,8.65,0,0,0,4.23-.14c1.42-.55,2.34-1.88,3.8-2.42a44.74,44.74,0,0,0,4.54-1.61c1.47-.73,2.74-1.59,4.11-2.37C184.63,198.12,183.21,194.48,180.8,195.3Zm-25.71-12.47a3.16,3.16,0,0,0,.17-.79c.06-1,.11-2.09.16-3.13,0,4.82,0,11.47-.18,13.34l-.05,0c0-.63,0-1.21,0-1.68a2.75,2.75,0,0,0-.22-1.09C154.93,187.27,155,185.05,155.09,182.83Zm-.32,17.4a11.47,11.47,0,0,0,.32-1.72,2.59,2.59,0,0,0,.4.09,8.35,8.35,0,0,0,.5,1.56Z" transform="translate(16.61 15.08)"/><path class="cls-20" d="M178.53,198c-4.34,2-7.17,4.73-12.27,5.52a26.25,26.25,0,0,1-5.3.21,1.4,1.4,0,0,0-.57-2.44,1.61,1.61,0,0,1-.65-.3,2.06,2.06,0,0,1-.25-.26c-.08-.12-.09-.12,0,0-.05-.08-.11-.16-.16-.25-.23-.33-.46-.66-.68-1,0,.06-.16-.27-.23-.37l-.18-.41c-.7-1.62-2.67-2.59-4.11-1.73a16.78,16.78,0,0,0,.28-1.84c.11-2.33-.22-4.38-.29-6.65-.08-2.68-.12-5.26-.19-7.82a2.25,2.25,0,0,0,.9-1.89,18.14,18.14,0,0,0-.55-3.88c-.1-1-.18-2-.23-3a2.54,2.54,0,0,0,.67-1c1.33-3.34.68-7.7.57-11.26a1.6,1.6,0,0,0,1.13-1.74,73.22,73.22,0,0,0-1.88-13.22l-.15-2a1.43,1.43,0,0,0-.87-1.27c-.4-1.09-.83-2.19-1.35-3.31-2.28-4.87-4.47-11.9-8-16.27-1.49-3.78-2.91-7.39-4.5-10.92-1.09-6.48-5.2-12.57-9-18.15a1.91,1.91,0,0,0-.3-2.11,13.87,13.87,0,0,1-1.92-2.5c-.35-1.3-2-1.32-2.85-.53a2.07,2.07,0,0,0-1.24,2.92c2.07,4.12,4.82,7.92,6.93,12,1.4,2.74,2.39,6.34,4.4,8.89,1.65,4.64,3.35,9.27,5.27,13.74a1.65,1.65,0,0,0,1,1c1.57,4,3.18,7.92,5.07,11.77a41.33,41.33,0,0,1,3.88,11c-.24,3-.47,6.06-.62,9.1-.59,4.95-1.37,10.51-1.19,15.48-.5,6.47-.4,12.88-.36,19.36,0,4.33-3.68,13.66,1.79,15.91,1.77.73,5.49.1,7.4.11a46.72,46.72,0,0,0,9.61-.58c2.84-.56,6.48-1.21,9-2.68,2.07-1.22,2.49-3.12,4.32-4.55S180.37,197.1,178.53,198Z" transform="translate(16.61 15.08)"/><path class="cls-20" d="M142.26,203.38c-6.78.91-12.82,3.23-19.2,5.66-2.16.82-4.12,1.68-6,2.32a2.65,2.65,0,0,0-1.36-1.9,6.74,6.74,0,0,1-2.17-1.51l.18-.27c1-1.4-.62-3.14-2.12-2.76a19.85,19.85,0,0,1-2,.5,2.12,2.12,0,0,0-1,.53,39,39,0,0,1-7.52-4.53A25.76,25.76,0,0,1,95.23,195a2.63,2.63,0,0,0,.72-3.36c-2.72-5.29-5.79-10.2-8.29-15.62-.42-1.58-.81-3.17-1.13-4.83-.51-2.55-.81-5.92-1.5-9a.92.92,0,0,0,1.31-1c-6-20-1.59-40.43,8.33-58.33a.86.86,0,0,0,0-.85c2.64-4.77,6.35-8.72,8.15-13.9a.64.64,0,0,0-.44-.78c-5.4-.91-9.71,7.48-11.92,11.37-2.38,4.23-4.29,8.76-6.42,13.11s-4.87,8.28-6.3,12.8c-2.94,9.29-4.86,20.36-4,30.08a109.43,109.43,0,0,0,3,17.15,15.27,15.27,0,0,0,1.29,3.63c-1.41,4.14,3.55,9.5,5.68,12.37L84,188c1.4,2.92,3.09,5.81,5.28,7.59l.16.11c.43.6.86,1.19,1.3,1.78.23.3.42.63.63.94.33.55.69,1.08,1.06,1.6.86,3.32,3.62,6.87,5.92,9.38a2,2,0,0,0-.35,0,63.47,63.47,0,0,1-10.25,1.18c-7.19-1.94-16-2.46-23.15-5.09-6.22-4.48-10-11.21-12.84-18.47.33.51.66,1,1,1.52a2.14,2.14,0,0,0,2.2,1c.67,1.3,1.34,2.6,2,3.88,1,1.88,2.15,4.6,4.18,5.58a1,1,0,0,0,1.35-1.35c-1.86-3.46-3.82-6.9-5.9-10.24a2.58,2.58,0,0,0-.21-1c-1.33-3.1-3.56-5.54-5.08-8.53a2,2,0,0,0,.72-1.83c-1.08-7.71-1.25-15.33-3-22.94,0,0,0-.08,0-.12-.24-6-.75-12.56-.33-18.88A69,69,0,0,1,71,95.66c.92-.8-.43-2.16-1.35-1.35-8.52,7.54-16.3,17.21-20.7,28l0,0a34.65,34.65,0,0,0-3,10.54,44.4,44.4,0,0,0-.67,8.09,3.58,3.58,0,0,0-1-.8A1.9,1.9,0,0,0,43,139a33,33,0,0,1,.88-4.91,1.21,1.21,0,0,0,1-1.11c.12-1.11.28-2.22.47-3.31,1.41-3.59,3.11-7.14,3.91-10.83a2.07,2.07,0,0,0-.34-1.62,72.5,72.5,0,0,1,9.72-16.68C62.11,96,68.2,92.79,73.2,90.07c4-2.17,9.6-3.5,12.92-6.63a.89.89,0,0,0-.62-1.5c-6.29.54-10.83,3-16.36,6.07-4.93,2.7-10.06,5.37-13.48,9.93-5.1,6.78-9.17,14-11.37,21.79A86.67,86.67,0,0,0,39,133.65c-1.82,7-1.18,14.75-1,21.89a181.75,181.75,0,0,0,2,20.43c.68,5.15,2.06,11.78,5.38,15.94a1.92,1.92,0,0,0,1.49.76c1.75,8.29,7.71,16,15.79,18.25.74.21,1.49.37,2.24.55,6.36,3.95,14.85,4.28,22.81,3.32a18.84,18.84,0,0,0,4-.54,1.33,1.33,0,0,0,.21-.09c2.47-.44,4.84-1,7-1.49a1.48,1.48,0,0,0,1.2-1.43c3.23,3.25,6.62,6.13,11.47,6.14,5.66,0,11.08-3.28,16.1-5.32s10-3.31,15.1-5.08C144.55,206.34,144.43,203.09,142.26,203.38Zm-62-47.21a10.93,10.93,0,0,0-.5,1.39,42,42,0,0,1-.34-12.05c1.1-7.58,1.78-15.25,4.78-22.35-3.25,10.94-4.4,22.41-1.3,33.33-.07-.1-.12-.23-.19-.32C82.11,155.41,80.71,155.09,80.22,156.17Zm3.2,12.63a36.58,36.58,0,0,1-1.33-7.25,43.7,43.7,0,0,1,1.5,7.42C83.54,168.91,83.48,168.86,83.42,168.8Z" transform="translate(16.61 15.08)"/><path class="cls-20" d="M49.71,130.44a14.61,14.61,0,0,0-.54,2.53c0,.12.17.17.18.05a13.56,13.56,0,0,1,.48-2.54A.06.06,0,0,0,49.71,130.44Z" transform="translate(16.61 15.08)"/><path class="cls-21" d="M90.2,96c.62-.82-.61-2-1.43-1.43-11.21,8.5-17.16,25.28-19.83,38.71-1.37,6.91-2.73,14.65-2.23,21.79A56.41,56.41,0,0,0,69,166.89a1.75,1.75,0,0,0-.8,2.51c3.87,8.88,6,18,11.14,26.4a.87.87,0,0,0,.81.45,67.73,67.73,0,0,0,5.3,6.45c1.1,1.2,3.29-.42,2.29-1.77a105.51,105.51,0,0,1-6.59-9.8c-1.73-3-1.68-7-4.49-9.22-.59-1.55-1.17-3.12-1.7-4.7-.88-2.66-1.2-6.37-2.85-8.84-.57-4.43-1.6-8.83-1.83-13.28-.35-7,.57-14.33,1.53-21.21C73.89,119.33,81.48,107.41,90.2,96Z" transform="translate(16.61 15.08)"/><path class="cls-21" d="M146.55,151.7c-.16-2.64-.27-5.29-.65-7.9l0-.16a1.63,1.63,0,0,0,.41-2.14c-1.19-1.91-.84-4.25-2.22-6.11a2.38,2.38,0,0,0-4,0,68.76,68.76,0,0,0-5.11-12.7c-3.59-7.23-6.48-14.49-9.71-21.86a3,3,0,0,0-4.11-1.07,6.15,6.15,0,0,0-.67.5,4.78,4.78,0,0,0-4.4-2.05c-4.36.67-5.1,8-6.76,11-1.88,3.32,3.19,6.29,5.1,3,.84-1.43,1.61-4,2.49-6.12l.47.76a3,3,0,0,0,.32.58,2.62,2.62,0,0,0-.54.74c-1.88,3.77-1.81,8.65-1,13.57-1.65,1.55-2.44,4.14-2.7,7.17l-.06,0c-1.81,1.05-2.81,3-3.3,5.46a54.39,54.39,0,0,1,1.78-12.73c.68-2.59-3.35-3.7-4-1.11-3.4,13.44-.9,26.58,3.32,39.52a.74.74,0,0,0,1.42-.39c-.46-3.28-.94-6.42-1.37-9.5.49,2.15,1,4,1.38,5.26a77.55,77.55,0,0,0,4.91,12.27,1.32,1.32,0,0,0-.2.12,9.52,9.52,0,0,0-1.09,1.12,1.26,1.26,0,0,0-1,1.39c-2.21,4.11-.35,9.23,2.09,13.14,1.07,1.72,3.84.1,2.73-1.6-1.33-2-2.83-4.25-2.93-6.76.19.36.39.71.61,1.08,1.07,1.77,2.26,4,4.12,5,.89.49,2.22-.33,1.84-1.4a14.19,14.19,0,0,0-.62-1.44,22,22,0,0,0,5.18,6.37l.25.16a6.31,6.31,0,0,0,3.2,3.42,16.89,16.89,0,0,0,.83,2.26,10.4,10.4,0,0,1-2.39-1.11c-.91-.59-1.69-1.38-2.84-1.34a1.4,1.4,0,0,0-1.19,2.08,5.29,5.29,0,0,0,2.72,2.19,14,14,0,0,0,3.15,1,1.4,1.4,0,0,0,1.69-.94,6,6,0,0,0,1.63,1.5,3.06,3.06,0,0,0,3.65-.47,8.69,8.69,0,0,0,2-5,3.63,3.63,0,0,0,1.36-1.83,17.37,17.37,0,0,0,.83-4,2.3,2.3,0,0,0,.25-.71,22.25,22.25,0,0,0,.16-5.89c1-2.62.88-5.79.18-9a1.68,1.68,0,0,0,2.7-.89C147.23,161.46,146.84,156.42,146.55,151.7Zm-28.32,18.52.24-.6c.22.42.42.85.65,1.27,1,1.84,2,3.94,3.12,6C120.88,174.67,119.19,172.62,118.23,170.22Zm8.47-45.37c-.26-1.8-.49-3.77-.79-5.76.34.72.7,1.42,1.09,2.13.66,1.19,1.43,2.54,2.21,4A2.86,2.86,0,0,0,126.7,124.85Z" transform="translate(16.61 15.08)"/><path class="cls-21" d="M189.77,135.39c-2.12-9.15-5.64-20.1-12.89-26.53-5.09-4.52-7.9-10.21-12.5-15.14a45.15,45.15,0,0,0-13.71-9.89c-3.42-1.57-6.4,3.22-3,5.14,3.8,2.16,7,7.33,9.23,12.56a2.36,2.36,0,0,0-.08.84c.27,2.46,1.1,5.56,3.9,6a4.08,4.08,0,0,0,.78,0c.22.39.45.8.68,1.23a2.86,2.86,0,0,0-1.14,1c-3.58,5.95,2,18,8.91,20.46.51,2.23.93,4.48,1.6,6.68a1.91,1.91,0,0,0,3.35.67c.31,1,.63,2,.94,3,0,.26.06.53.09.78,1.15,9.25,5.22,24.48.47,33-1.28,2.28,1.47,5,3.51,4-.1.49-.18,1-.3,1.47a7.42,7.42,0,0,1-2,3.49.78.78,0,0,0-.22,0c-3.74.67-5.91,2.78-4.82,6.78.54,2,3.71,2.66,4.68.61.31-.67.68-1.32,1-2l.16,0a2.83,2.83,0,0,0,2-2.66c0-.13,0-.27,0-.4a2.71,2.71,0,0,0-.09-.41l0-.05a5.62,5.62,0,0,0,3.48,4.1,2.92,2.92,0,0,0,3-.78c4.5-5.69,3.77-15.17,4.12-22C191.41,156.66,192.22,145.88,189.77,135.39Zm-5,14.35A66.12,66.12,0,0,0,181.59,139a111.17,111.17,0,0,0-2.68-16.66,55.73,55.73,0,0,1,5,14.69,81.24,81.24,0,0,1,1.38,17.24C185.17,152.73,185,151.22,184.73,149.74Z" transform="translate(16.61 15.08)"/><path class="cls-21" d="M174.13,154.77a64.5,64.5,0,0,0-2-8.93c-1.08-4.23-1-8.71-2.4-12.82a.87.87,0,0,0-1.7.23c-.09,3.2,1,5.76,1.76,8.88,1.14,4.94.72,9.92.94,14.93.31,6.86.05,14,1.69,20.71.41,1.71,3.37,1.39,3.15-.43C174.63,169.87,175,162.26,174.13,154.77Z" transform="translate(16.61 15.08)"/><path class="cls-21" d="M210.81,122.2c-2.2-10.12-9.69-19.19-16.1-27-4-4.89-7.82-9.13-12.91-12.83-4.14-3-6.21-4.06-10.87-4-3.46-1.91-7.13-2.57-10.86-.47a3,3,0,0,0-.61,4.69c3.16,3.62,7.76,5.12,11.3,8.28.35.39.72.76,1.1,1.12,2.47,2.84,4.63,7.43,8.11,8.24l.09,0c1.46,2.55,2.44,5.44,3.83,8.06,4.42,8.32,9.08,17.55,12.06,26.51,3.33,10,3.19,21.55,2.29,32-.7,8.06-1.44,16.53-5.44,23.78a2.94,2.94,0,0,0-1,2.6c0,2.37,3.33,4.11,5,2.08a21.43,21.43,0,0,0,2.27-3.45,3.57,3.57,0,0,0,2.2-.26c4.92-2.17,6-9.57,7.3-14.21,1.53-5.43,4-10.5,4.71-16.16C214.86,148.53,213.5,134.62,210.81,122.2Zm-23.54-21c.47.45.93.9,1.37,1.36,1,2.18,2.25,4.41,2.45,4.76a67.75,67.75,0,0,1,4.77,11.1c-1.88-3.92-3.88-7.76-5.79-11.44C189.1,105.16,188.23,103.18,187.27,101.25Zm17.44,53.19a88.45,88.45,0,0,0-.65-10.3c0-.89.06-1.76.08-2.62A96.47,96.47,0,0,1,204.71,154.44Z" transform="translate(16.61 15.08)"/><path class="cls-22" d="M213.41,131.2a2.78,2.78,0,0,0-1.58-2.34,49.19,49.19,0,0,0-2.34-6.84,103.44,103.44,0,0,0-7.92-16.84,50.77,50.77,0,0,0-10.63-13.13c-1.52-1.32-3.24-3.66-5.24-4.85a16.34,16.34,0,0,0-2.59-1.75A24.72,24.72,0,0,0,178,81.27a24.08,24.08,0,0,0-9.36-2.87c-2.32-.3-5.67-1.73-7.83-.18A2.36,2.36,0,0,0,162,82.57c2.09.25,3.87,1.34,5.95,1.63a45.48,45.48,0,0,1,5.07.74c.48.17,1,.32,1.52.5a2.3,2.3,0,0,0,1.71,3.22A14,14,0,0,1,179.68,90c1.67,2.43,2.91,5.09,5,7.13a1.53,1.53,0,0,0,.69.4q2,3,4.1,5.78c.79,1,1.73,2,2.68,3.1a30.44,30.44,0,0,0,4.5,6,2.72,2.72,0,0,0,2.54.76l0,0a.8.8,0,0,0,0,.15c0,4.49,2,8.5,3.15,12.74,1,3.54,1.17,7.26,2,10.85a37.38,37.38,0,0,0,1.2,4.11,104.72,104.72,0,0,1,1.23,16.08c0,2.05,0,4.43-.15,7-.24,1.26-.55,2.48-.88,3.67a.74.74,0,0,0-1.18.46c-.34,2.05-.72,4-1.16,6a21.49,21.49,0,0,0-1.61,5.6,32.38,32.38,0,0,1-4,7.84,1,1,0,0,0,.48,1.49,12.35,12.35,0,0,1-1.45,1c-2.07,1.26-.26,4.06,1.85,3.16,6.35-2.71,9.34-8.92,10.9-15.68a25.75,25.75,0,0,0,1.44-3.89c1.18-4.4,2.1-8.54,2.91-13C215.81,150.25,214.36,141.65,213.41,131.2Z" transform="translate(16.61 15.08)"/><path class="cls-22" d="M205.37,147.4c-.22-2-.28-4.19-1.21-6a1,1,0,0,0-1.8.48c.06,4.41.94,9,1.3,13.43.12,1.52,2.5,1.53,2.38,0C205.82,152.66,205.64,150,205.37,147.4Z" transform="translate(16.61 15.08)"/><path class="cls-22" d="M202.36,131.32c-1.45-3.61-3.93-6.93-4.94-10.7-.84-3.13-.85-6.47-3.16-9-.65-.7-1.61.19-1.25,1,1.37,2.94,2,6.17,3.35,9.09,1.62,3.38,3.57,6.38,4.9,9.92C201.51,132.31,202.63,132,202.36,131.32Z" transform="translate(16.61 15.08)"/><path class="cls-22" d="M190.22,133.39a1.12,1.12,0,0,0-.82-.94c-.12-.49-.23-1-.37-1.47a3.52,3.52,0,0,0,0-.58c0-2.47-1.27-4.77-2.64-7-2.42-6-4.32-13-10.3-16.41a37.07,37.07,0,0,0-2.5-3,101.35,101.35,0,0,0-7.31-8,70.39,70.39,0,0,0-6.76-6.28,2.19,2.19,0,0,0-.82-3.12c-1.52-.71-2.74-1.81-4.23-2.56-.29-.15-1.22-.4-2-.66-.37-.19-.74-.38-1.11-.55a1.88,1.88,0,0,0-2.49-.84l-.41-.09c-2.25-.3-3.83,2.51-1.64,3.87,1.06.66,2.08,1.34,3.07,2.05,2,1.89,4.66,3.44,6.36,5.59a1.3,1.3,0,0,0,1.06.52c1.17,1.08,2.32,2.21,3.48,3.37s2.71,2.64,4.22,4.16a1.48,1.48,0,0,0,.3.67c2.14,2.88,4.21,5.83,6.11,8.88a11.83,11.83,0,0,0,1.66,3.06c.21.3.42.58.63.86.44.8.88,1.6,1.29,2.42a2.53,2.53,0,0,0,.13.8A72.6,72.6,0,0,0,179,127c.07,4.79,1.85,10.07,2.08,14.56.37,7.53.22,15.23,1.39,22.68.19,1.27,2.13.9,2.17-.29a174.58,174.58,0,0,0-.95-20.95c-.34-4-2-9.6-2.55-14.41a2.89,2.89,0,0,0,.72,0,19.52,19.52,0,0,0,1,2.46l0,.1c1.14,4.18,1.15,8.54,2.23,12.68.11,6.07-.1,12.18-.25,18-.22,8.33-1.8,16.81-2.83,25a1.46,1.46,0,0,0,1.08,1.41C195.61,192.07,191.76,140.82,190.22,133.39Z" transform="translate(16.61 15.08)"/><path class="cls-22" d="M178.63,135c-2-8.92-6.26-17-9.63-25.51a.66.66,0,0,0-1.28.35c2,8.23,6.73,15.41,8.72,23.63,2.65,10.92,3.12,22,3.47,33.21.05,1.43,2.27,1.44,2.23,0A155.29,155.29,0,0,0,178.63,135Z" transform="translate(16.61 15.08)"/><path class="cls-22" d="M145.34,137.85c-1.19-4.77-1.78-11.22-6.3-13.85-1.07-2.19-2.2-4.34-3.3-6.43-3.53-6.79-6.6-14.69-11.23-20.79A2.6,2.6,0,0,0,120,99.4c1.08,2.44,3.18,5,3.2,7.75a1.17,1.17,0,0,0,.23.72,2.2,2.2,0,0,0-2.58,2.71c2.65,10.87,5.76,21.76,9.42,32.31v0c-.47-1-1-2.09-1.54-3.1a2.07,2.07,0,0,0-1.16-1c-.91-2.8-1.88-5.57-3-8.29a1.8,1.8,0,0,0-3.19-.28c-.36-3.88-.59-7.78-.6-11.69a1.12,1.12,0,0,0-2.23,0c-.19,9.83.84,19.57,2,29.34.85,7.44,1.88,14.27,5.87,20.7a.75.75,0,0,0,1.37-.57c-2.24-11.84-4.88-23.8-6.17-35.89,1,3,1.91,6.05,2.74,9.13.23,5.09,1.85,10.29,3.27,15.21.73,5,1.11,10.63,3.44,15a2.23,2.23,0,0,0,3.71.4c.21.22.4.44.63.64a1.54,1.54,0,0,0,.78.38c.1,2.46.16,4.92.11,7.4-.06,2.73,3.44,3.26,4.8,1.69-.52,3.93-1,7.86-1.31,11.8-.08,1,1,1.54,1.85,1.41,5.2-.8,4.47-9.41,5.16-13a111.18,111.18,0,0,0,2.29-21.66C149,152.67,147.24,145.47,145.34,137.85Zm-10,27.12c-.45-1.25-.88-2.51-1.3-3.79-.31-2.38-.51-4.77-.74-7.2C134.11,157.61,134.76,161.29,135.37,165Zm7.62-.86c-.1,2.1-.28,4.19-.49,6.27-.11-1.26-.27-2.53-.42-3.8-1-8.1-2-16.22-3.09-24.31-.14-1-.33-1.91-.5-2.85a2.56,2.56,0,0,0,1.72,1.51c.28,1.47.56,2.89.89,4.17A63.71,63.71,0,0,1,143,164.11Z" transform="translate(16.61 15.08)"/><path class="cls-23" d="M148,153.92a127.27,127.27,0,0,0-3.59-13c-.24-1.55-.51-3.1-.83-4.64-.89-4.32-1.11-12.75-4.46-15.88a2.62,2.62,0,0,0-2.41-.67q-1-2.16-2-4.3c-.71-4-2.7-7.84-4.69-11.19-2.59-4.36-4.29-8-8.63-11-1.51-1-3.4,1-2.47,2.47,2.44,3.93,4.54,8,7,11.9a24.31,24.31,0,0,1,3,7.89c.46,2,.82,3.58,2.49,4.87l.22.13c1.19,3.66,2.43,7.3,3.52,11,.2.7.37,1.4.53,2.1.66,4.05.93,8.17,1.67,12.21,1.1,6.09,2.76,12,3.74,18.15,1.11,6.94,2,13.86,2.89,20.8v0a1.32,1.32,0,0,0,0,.41c.34,2.82.67,5.63,1,8.46a1.58,1.58,0,0,0,3.08.41c1.24-2.94,1.34-6.73.93-10.71A48.2,48.2,0,0,0,150,176C150.59,168.68,149.43,161.05,148,153.92Z" transform="translate(16.61 15.08)"/><path class="cls-23" d="M192.12,161.73c-.48-11.68,1-24-3.6-35.09-4.13-10-10.23-19-16.68-27.68-3.59-4.83-8.84-7.69-13.14-11.87-3-2.91-5.53-6.55-10.07-6.76a2,2,0,0,0-1.74,3,3.21,3.21,0,0,0,1.25,1.23.92.92,0,0,0,1.08-.13c.77-.6,19.34,17.66,21.18,20.31,5.2,7.51,10.79,16.09,13.94,24.74,3.84,10.56,2.88,23.32,3.18,34.33a187.15,187.15,0,0,1-2.35,32.93,1.22,1.22,0,0,0,2.36.65C191.29,186.89,192.58,172.92,192.12,161.73Z" transform="translate(16.61 15.08)"/><path class="cls-23" d="M212.75,132.29c-.69-3.33-1.35-6.66-2.18-9.95-.89-3.51-3.24-7.67-3.81-11.36a3,3,0,0,0-.64-3c-5.58-6.69-9.67-13.65-16.45-19.37A65.84,65.84,0,0,0,167.82,76c-2.06-.69-2.92,2.17-1.38,3.28,3.64,2.64,8,3.6,11.63,6.11a73.6,73.6,0,0,1,9.79,8.5c2.93,2.92,5.73,5.76,8.46,8.92,2.12,2.44,2.92,5,4.37,7.55.35,5.85,3.86,12,5,17.82a121.94,121.94,0,0,1,2.44,19.69c.59,14-.2,29.94-6.53,42.8-.78,1.57,1.36,3.58,2.61,2,8.15-10.23,9.86-25.76,9.85-38.3C214.09,147,214.27,139.54,212.75,132.29Z" transform="translate(16.61 15.08)"/><path class="cls-24" d="M217.84,124a117.62,117.62,0,0,0-13.58-24.14c-4.65-6.24-9.53-13.15-15.29-18.46s-12.94-7.46-20.8-8a40.56,40.56,0,0,0-10.27.39c-2.37.48-7.3,3.32-9.59,3h-.14a19,19,0,0,1-3.73-7.22c-1.24-5.07,2.06-10.16,6-13.36,6.64-5.32,19.66-7,27.49-3.51,8,3.61,5.14,14.36,12.13,18.7,3.09,1.92,7.78,1.6,11.23,1.74,3.7.14,8.62.61,11.8-1.75,5.58-4.15-.86-13-4-16.84-4.92-6-11.22-11.13-18.54-13.77-15.74-5.67-34.85-4.93-50.06,2.28C132,47,125.69,53.17,120,60.48c-2.5,3.22-4.24,6.85-6.3,10.33-.74,1.26-1.31,2.63-2.06,3.89-.93,1.54-4,4.28-5.28,6.61h-.11a15.16,15.16,0,0,0-1.45.45,2.68,2.68,0,0,0-1.27-.49,2.89,2.89,0,0,0-1.59-1c-9-2.25-19.84-.88-28.34,2.48-7.83,3.09-14,9.2-19.65,15.34C40.77,112.46,35.76,134.39,35,153.38c-.73,18,1.55,45.14,18.11,56,8,5.25,17.05,6.93,26.38,8,8.29,1,17.19,2.22,25.54,1a3.26,3.26,0,0,0,1.24-.06,3.5,3.5,0,0,0,.69.15c7.1.71,11.22.88,18-1.76,3-1.17,6.16-2.31,9.1-3.69,2.22-1.05,4.72-3.17,7.16-4.18,6,3.76,17.13,2.67,23.08,2.2a34.9,34.9,0,0,0,13.56-3.64c2.2-1.17,4.25-3.53,6.39-5a1.5,1.5,0,0,0,1.77-.64l0-.06c5.73.61,12.33-4,16.5-7.05,6.31-4.63,9.56-10.18,12-17.53C219.74,161.3,224.55,140.16,217.84,124Zm-101-46.22c3.8-6.8,7.33-13.55,12.7-19.36,12.25-13.25,34.32-18.26,51.57-14.08,9.15,2.22,16.9,6.43,23,13.72,1.32,1.58,4.65,5.51,4.52,7.8-.12,1.93-3.44,1.26-5.86,1.18h-.14a17.27,17.27,0,0,0-2.5-6.17c-1.35-2.34-3.43-3.87-5.34-5.71a1.38,1.38,0,0,0-2.16,1.67c.59,1.13,1,2.26,1.65,3.35a30,30,0,0,1,2,3.68c.45,1,.81,2.11,1.31,3.13-2-.12-4-.47-5.12-1.52-1.52-1.44-2-5.28-2.76-7.27-5.54-14.61-22.28-15.51-35.47-10.78-6.58,2.36-13.53,7.92-15.9,14.83-1.89,5.52,0,10.67,2.89,15.21-.19.77-6.09,2.34-6.89,2.52-2.46.54-4.37-.16-6.81.32a17.41,17.41,0,0,1,.91-3.65c.89-2.18,2.32-3.93,1.33-6.26a1.9,1.9,0,0,0-3-.38c-1.8,1.77-2.71,4.5-3.41,6.87a12.09,12.09,0,0,0-.3,5.58c-4.27,2.41-10.11,5.62-12.45,2.94A23.6,23.6,0,0,0,116.88,77.77ZM82.07,211.56c-8-.81-16.07-1.71-23.24-5.69-16.5-9.16-18.41-35.75-17.76-52.49S46,117.25,56.72,104.07c10-12.27,25-21.26,41.16-18.39-8,6.45-14.49,18-18,25.85A107.93,107.93,0,0,0,70,150.78a70.15,70.15,0,0,0,8,35.84c3.59,7.09,9,12.81,13.83,19,1.76,2.24,3.4,4.92,5.27,7.3C92,212.81,86.92,212.05,82.07,211.56Zm102.07-15.9a2.82,2.82,0,0,0-.63.37,17.52,17.52,0,0,0-3.1,2.19c-3.85,3.14-6.86,5-11.89,6.13-4.78,1.07-9.29.67-14.1.55a29.66,29.66,0,0,1-5.87-.83c.33-1.73.4-3.52.69-5.46.7-4.79,1.46-9.45,2-14.29,1.33-12.23.73-23.26,0-35.45a1.69,1.69,0,0,0-3.37,0c-.87,10.75-.56,21.35-1.93,32.12-.63,4.91-1.23,9.73-2.11,14.59-.07.41-.48,4.74-.53,7.34-4.86-.81-8.78,3.46-13.18,5.28-3.9,1.61-8,3.62-12,4.61-3.74.91-7.3,0-11.1-.34h-.06a3.81,3.81,0,0,0-1.8-.11c-.78.14-1.58.24-2.37.33-2.74-2.54-4.75-7-6.89-9.89C92,197.61,87.62,193,84.44,187.25a65.91,65.91,0,0,1-8.61-36.65c.74-11.33,3.57-21.43,7.56-32,3.86-10.23,11.42-23.15,20.29-31a11,11,0,0,0,3.14-.3c1.23,2.58,4.54,4.06,7.31,4.52a9.73,9.73,0,0,0,6.55-1.27c1.67,3.73,4.3,7.3,6.24,10.84,2.49,4.51,4.93,9,7.13,13.7,2.92,6.18,4.81,14.32,9.7,19.32a1.73,1.73,0,0,0,2.92-1.21c.72-6.49-4.6-15.64-7.41-21.15-4-8-7.8-17.77-14.75-23.8a23.56,23.56,0,0,1,2.24-1.16c2.44-1.08,2.91-.25,5.4-.35s4.81-1.81,7.33-2.37,4.59-.84,5.88-2a2.84,2.84,0,0,0,.49.1,3.31,3.31,0,0,0,.84.25,9.07,9.07,0,0,0,1.28.06c1.72,2.69,6.59,4.65,8.63,6.2a103.3,103.3,0,0,1,12.91,11.63c4.32,4.57,9.07,8.4,12.31,13.9,2.61,4.44,4.21,9.91,5.44,14.88,2.59,10.44,4.52,22.56,3.16,33.16-.74,5.78-.78,11.46-1.2,17.23S185.72,190.38,184.14,195.66Zm27.68-31.61c-1.2,6.26-2.9,13.7-6.23,19.19-2.37,3.9-6.4,6.72-10.26,9-1.73,1-4.2,2.73-6.52,3.34,1.53-4.73,2.31-9.81,3.49-14.51a67.65,67.65,0,0,0,2.07-16.57c0-6.15-.25-11.86.17-18a64.65,64.65,0,0,0-1.36-17.71c-2.33-10.78-6.42-19.93-14.44-27.65C174.16,96.7,170,91.66,165,87.74a59.28,59.28,0,0,0-10.71-6.41,38.89,38.89,0,0,1,4.92-1.45c6.34-1.23,14.26-.76,20.07,2.18,6.7,3.38,10.12,9.27,14.56,14.92,5.06,6.44,9.64,12.5,13.44,19.85,3.89,7.53,7.06,13.92,7.4,22.59C215,147.72,213.38,155.91,211.82,164.05Z" transform="translate(16.61 15.08)"/><path class="cls-24" d="M86.8,180.94c-.8-.83-2,.39-1.25,1.24a61.47,61.47,0,0,1,4.76,7.41,38.9,38.9,0,0,0,6.4,8.55c1.27,1.18,3.53-.35,2.5-1.93A107.55,107.55,0,0,0,86.8,180.94Z" transform="translate(16.61 15.08)"/><path class="cls-24" d="M102.92,186.84a15.39,15.39,0,0,1-3.13-3.7,1.4,1.4,0,0,0-2.54,1.07,14.35,14.35,0,0,0,2.47,4.48c1.09,1.39,2.21,3.61,4,4.06a1.63,1.63,0,0,0,2-1.56C105.68,189.42,104.15,188,102.92,186.84Z" transform="translate(16.61 15.08)"/><path class="cls-24" d="M95.66,113.64A34.38,34.38,0,0,1,96,110c.09-1.16,0-2.88.72-3.84,1-1.28-.33-3.72-1.94-2.52a7.12,7.12,0,0,0-2.87,4.95c-.4,2-1,4.18-.1,6.1S95.72,115.63,95.66,113.64Z" transform="translate(16.61 15.08)"/><path class="cls-24" d="M98.08,116a1.46,1.46,0,0,0,1.69.24l.27-.12a2.11,2.11,0,0,0,.8-.62,3.91,3.91,0,0,0,.62-1.52,13.31,13.31,0,0,0,.37-3.08,2,2,0,0,0-3.94,0,9.21,9.21,0,0,1-.58,2.84,2,2,0,0,0,.52,2C97.53,115.34,98,115.89,98.08,116Z" transform="translate(16.61 15.08)"/><path class="cls-24" d="M62.32,112.85c2.2-1.58,3-4.6,4.16-7.06C66,109.22,65,112.74,65.94,116a1.29,1.29,0,0,0,2.33.31A22,22,0,0,0,70,113.66a13.28,13.28,0,0,0,.63-3.87,18.8,18.8,0,0,0-.41-7,1.63,1.63,0,0,0-1.55-1.25,39.17,39.17,0,0,1,3.51-5.7c1-1.3-1-2.51-2.11-1.63a29.21,29.21,0,0,0-7.49,9.28c-1.37,2.61-3.82,6-2.17,8.86A1.45,1.45,0,0,0,62.32,112.85Z" transform="translate(16.61 15.08)"/><path class="cls-24" d="M55.54,174.51c-.54-.79-2.08-.32-1.67.7a77.79,77.79,0,0,0,6.37,12.91c1.81,2.86,4.35,7.07,7.94,7.52.62.08,1-.64.87-1.14-.74-3.36-4.32-6.56-6.26-9.34C60.34,181.64,58,178.06,55.54,174.51Z" transform="translate(16.61 15.08)"/><path class="cls-24" d="M60.28,196a13.43,13.43,0,0,1-.77-1.19,1.11,1.11,0,0,0-.28-.29c-1.26-3.61-4.53-6.35-5.33-10.15a1,1,0,0,0-1.87.25,14.26,14.26,0,0,0,4.89,10.67,1.24,1.24,0,0,0,.17.93c.61,1,1.29,2.3,2.43,2.65a14.33,14.33,0,0,0,1.6.73.82.82,0,0,0,1-1,3.8,3.8,0,0,0-1-1.53A5.74,5.74,0,0,0,60.28,196Z" transform="translate(16.61 15.08)"/><path class="cls-24" d="M155.53,182.32c-.13,3.14-.5,6.55,1.67,9.05a1.34,1.34,0,0,0,2.22-.59c.67-2.73-.06-5.66-.19-8.46A1.85,1.85,0,0,0,155.53,182.32Z" transform="translate(16.61 15.08)"/><path class="cls-24" d="M166,181.22a13.4,13.4,0,0,1,.12,2.61,7.13,7.13,0,0,0,.59,2.59,1.13,1.13,0,0,0,2.16,0,7,7,0,0,0,.67-3,14.33,14.33,0,0,0-.47-3.06A1.59,1.59,0,0,0,166,181.22Z" transform="translate(16.61 15.08)"/><path class="cls-24" d="M133.93,93.83a1.24,1.24,0,0,0-1.69,1.69c1.3,2.07,2.59,4,4,6,1.3,1.81,2,3.5,4.1,4.42a1.13,1.13,0,0,0,1.49-.39c1.21-1.73-1.53-4.56-2.49-5.84C137.81,97.68,136.1,95.26,133.93,93.83Z" transform="translate(16.61 15.08)"/><path class="cls-24" d="M148.63,101a19.3,19.3,0,0,0-2-2.5,11.65,11.65,0,0,0-1.89-1.89,7.55,7.55,0,0,0-2.21-.92c-1.47-.48-2.11,1.54-1,2.34a17.91,17.91,0,0,1,3.08,3.53c1.1,1.35,2.06,3.13,3.82,3.67,1,.32,1.67-.66,1.55-1.54A7.5,7.5,0,0,0,148.63,101Z" transform="translate(16.61 15.08)"/><path class="cls-24" d="M200.33,158.75a100.7,100.7,0,0,1,.41,16.47,1,1,0,0,0,1.84.5,13.94,13.94,0,0,0,1.35-7,94.51,94.51,0,0,0-.3-10C203.39,156.67,200.09,156.64,200.33,158.75Z" transform="translate(16.61 15.08)"/><path class="cls-24" d="M205.62,149.63c0,2.51-.31,5.53,1,7.81a1.43,1.43,0,0,0,2.44,0,7,7,0,0,0,.44-3.49c0-1.44,0-2.88,0-4.32C209.5,147.14,205.63,147.14,205.62,149.63Z" transform="translate(16.61 15.08)"/><path class="cls-25" d="M273.41,232.91c-1.26-4.33-7.1-6.73-11.71-7.62a3.38,3.38,0,0,0,.29-3.46c-.13-.24-.28-.47-.43-.7.15-2,.25-4,.35-6a4.85,4.85,0,0,0,1-1.56c1.1-2.86-1.14-5.07-3.78-5.4-1.67-.21-2.88,1.54-3,3,0,.23,0,.45,0,.67l-.41.26a33,33,0,0,1-5.19,2.49c-2.9,1.17-5.86,2.21-8.79,3.3a125.46,125.46,0,0,1-18.87,5.62c.57-.18,1.14-.37,1.71-.53a38.7,38.7,0,0,0,14.15-7.07l.66-.51c3.28,0,7-1.64,9.77-3,2.42-1.21,7.28-3.46,7.77-6.52.35-2.2-.74-5.39-3.15-5.81s-6.59,1.24-8.33,3.06a1.34,1.34,0,0,0-.37,1.27c-4,.75-5.95,3.39-9.09,6-5.62,4.71-11.47,6-18.24,8.31-1.67.57-3.31,1.18-4.94,1.8a1.59,1.59,0,0,0-1.81-.7c-3.54.81-6.92,2.07-10.42,3s-7.11.54-10.56,1.44c-3,.77-5.66,2.24-8.73,2.81a50.45,50.45,0,0,1-12.51.59c-1.84-.12-1.78,2.64,0,2.83,7.89.84,14-.55,21.54-2.45a14,14,0,0,1,2.14-.34,29.69,29.69,0,0,0-6.65,4.18c-.87.2-1.75.41-2.62.64-4.79,1.23-9.47,2.86-14.15,4.47a1.74,1.74,0,0,0-2.05-1.23c-2.7.54-5.48.91-8.25,1.32a28.36,28.36,0,0,0,2.2-2.47c1-1.27-.63-2.86-2-2.53-3,.74-5.84,3.31-7.61,6.39-.75.2-1.51.41-2.25.65a11.93,11.93,0,0,0-4.8,3.3c-.71.67-3.12,2-3.26,2.84a2.75,2.75,0,0,0,.72.46c-3.49-1.32-5.54,4.51-1.76,5.37a7.62,7.62,0,0,0,.77.12,10.05,10.05,0,0,0-1,1.89,3.38,3.38,0,0,0,3,4.93,2.71,2.71,0,0,0,2.63-2.79,5.23,5.23,0,0,0,2.44.28,3.45,3.45,0,0,0,0,1.15c.8,4.08,8.35,5.86,11.71,6.27,5,.62,11.55,1.36,15.23-3a6,6,0,0,0,1-1.64c4,.78,8.95.44,12.29.49h.1l.89.32A38.25,38.25,0,0,0,202.05,261c10.64,0,21.22-3.16,31.69-4.73,6.33-.94,17.76-2.15,21.39-8.62,3.16-1.2,6.27-2.5,9.29-3.92C268.52,241.81,275.06,238.62,273.41,232.91Zm-26.07-27.79.09-.07c.65-.58,2.79-1,3.52-1.1a8.82,8.82,0,0,0,1.94-.56,14.91,14.91,0,0,0,.17,1.92c-.26,1-1.7,1.5-2.57,2a38.29,38.29,0,0,1-4.55,2,10.23,10.23,0,0,0,1.61-2.73A1.72,1.72,0,0,0,247.34,205.12Zm-90.17,43.25c.11-.12.21-.24.33-.36a8.49,8.49,0,0,1,1.47-1.09,2.9,2.9,0,0,0,.32,1.26A14,14,0,0,0,157.17,248.37Zm85.31-24.32c-.47.09-.94.18-1.4.29,2.34-.77,4.67-1.6,7-2.47a2.82,2.82,0,0,0-.26.9c-.91.23-1.81.52-2.7.72Zm7.64,13.41-.25.12a10.73,10.73,0,0,0-2.71.48,2.79,2.79,0,0,0-.29-1.15l1.22-.37c.63-.19,1.33-.43,2.06-.69,0,.41,0,.8,0,1.19Zm3.28-17-1.58-.08c.68-.27,1.35-.53,2-.82l.06,0C253.73,219.88,253.56,220.19,253.4,220.5Zm10.92,16.62c-1,.54-2,1-3,1.51q.45-.52.84-1.08a17,17,0,0,0,4.23-4C268.43,235.67,265.74,236.34,264.32,237.12Z" transform="translate(16.61 15.08)"/></g></g></g></svg>