<svg xmlns="http://www.w3.org/2000/svg" xmlns:xlink="http://www.w3.org/1999/xlink" viewBox="0 0 277 287.47"><defs><style>.cls-1{fill:none;}.cls-2{clip-path:url(#clip-path);}.cls-3{fill:#64576d;}.cls-4{fill:#55495e;}.cls-5{fill:#473d4f;}.cls-6{fill:#38313f;}.cls-7{fill:#7c6e87;}.cls-8{fill:#9a8aa8;}.cls-9{fill:#b4a3c6;}.cls-10{fill:#d2c3e5;}.cls-11{fill:#d1aeff;opacity:0.6;}.cls-12{fill:#3c6022;}.cls-13{fill:#fcc015;}.cls-14{fill:#cf6805;}.cls-15{fill:#aa550f;}.cls-16{fill:#30491c;}.cls-17{fill:#293d18;}.cls-18{fill:#598436;}.cls-19{fill:#8ab75e;}.cls-20{fill:#874515;}.cls-21{fill:#6b3510;}.cls-22{fill:#e57c25;}.cls-23{fill:#ff9545;}.cls-24{fill:#ffbb8d;}.cls-25{fill:#e8aa0f;}.cls-26{fill:#ffcd50;}.cls-27{fill:#f4d798;}.cls-28{fill:#fff2d7;}.cls-29{fill:#3a271d;}.cls-30{fill:#473d26;}</style><clipPath id="clip-path" transform="translate(12.4 15.7)"><path class="cls-1" d="M231,0H25A25.07,25.07,0,0,0,0,25H0V231H0a24.77,24.77,0,0,0,2,9.71A25.18,25.18,0,0,0,13.11,253c.71.39,1.44.74,2.18,1.06.38.16.75.31,1.14.45A24.84,24.84,0,0,0,25,256H231a24.84,24.84,0,0,0,8.57-1.52c.39-.14.76-.29,1.14-.45.74-.32,1.47-.67,2.18-1.06A25.18,25.18,0,0,0,254,240.71a24.77,24.77,0,0,0,2-9.71h0V25h0A25.07,25.07,0,0,0,231,0Z"/></clipPath></defs><g id="Layer_2" data-name="Layer 2"><g id="icon"><g class="cls-2"><path class="cls-3" d="M234.62-4.5H21.38A26,26,0,0,0-4.5,21.38V234.62a25.7,25.7,0,0,0,2,10A26.34,26.34,0,0,0,3.1,252.9a25.85,25.85,0,0,0,6,4.46c.73.4,1.49.77,2.26,1.1.39.16.78.32,1.17.46a25.73,25.73,0,0,0,8.88,1.58H234.62a25.73,25.73,0,0,0,8.88-1.58c.39-.14.78-.3,1.17-.46.77-.33,1.53-.7,2.26-1.1a25.85,25.85,0,0,0,6-4.46,26.34,26.34,0,0,0,5.56-8.23,25.7,25.7,0,0,0,2-10V21.38A26,26,0,0,0,234.62-4.5Z" transform="translate(12.4 15.7)"/><path class="cls-4" d="M260.54,249.07l0-.85a2.38,2.38,0,0,0-1.46-2.11c-1.16-2.22-1.61-5.25-2.43-7.43-1.1-2.93-3-5-5-7.24a1.34,1.34,0,0,0-.07-1.63,62.84,62.84,0,0,0-4.31-4.68l-2.31-3.4c-2.1-3.08-4.76-5.46-7.28-8.19A72.88,72.88,0,0,0,217.45,198a194.92,194.92,0,0,0-19.2-8.33c-.56-.4-1.11-.81-1.68-1.19-3.2-2.18-6.8-3.47-10.19-5.3a57.45,57.45,0,0,0-10.28-4.38,76.92,76.92,0,0,0-11.92-2.73,172.1,172.1,0,0,0-22.83-7.7c-4.58-1.29-9.1-2.76-13.72-3.92-4.95-1.24-10-1.79-14.94-3.1-4.38-1.17-8.53-2.42-12.78-4-4.48-1.66-9.16-2.08-13.48-4.27a98.07,98.07,0,0,1-19.19-13c-4.8-4.53-9.18-9.63-13.59-14.45h0A116.79,116.79,0,0,1,44.3,110c-1.15-2.28-2.36-4.59-3.55-6.94A157.58,157.58,0,0,1,34.89,81.7c-1.18-6-2.77-11.87-3.72-17.94-.13-.88-.28-1.77-.44-2.66.77,1.76,1.51,3.54,2.2,5.34,2,5.25,2.59,11,4.15,16.45a1.74,1.74,0,0,0-.2,1.31c1.85,8.72,5.49,16.73,9.84,24.47,3.81,6.77,8.56,13.83,14.82,18.51,1,.74,2-.63,1.53-1.52-3.25-6.85-8.81-12.62-12.6-19.17-4.25-7.34-8.16-14.95-10.14-23.25a1.58,1.58,0,0,0-.32-.69A285.14,285.14,0,0,0,28.7,46.85c-2.58-6.58-5.7-13.3-7.09-20.27a72.41,72.41,0,0,1-1.09-7.72.64.64,0,0,0,.76-.64c.14-4.18.8-8.24,1.06-12.39.16-2.46-.09-4.5-1.64-6.45a1.56,1.56,0,0,0-2.59.69c-.08.32-.15.64-.22,1-.08-.45-.17-.9-.24-1.34.24-3,.58-6.44-1.17-8.59a1.29,1.29,0,0,0-2.17.9c.11,1.66.25,3.37.43,5.11a3.3,3.3,0,0,0-1.6.11C10.55-2,8.88,1.51,8.05,3.93a6,6,0,0,0-3.73,3.7c-1.05,2.8-2.49,5.11-3,8.12-.4,2.32-.71,4.68-1,7A5.81,5.81,0,0,0-1.9,27.22C-2,29.89-3.11,32.3-3.69,34.86A81,81,0,0,0-5.41,45,58.65,58.65,0,0,0-5.14,55.7a93,93,0,0,1-.21,12.49c-.33,7.11-.49,14.18-.5,21.3,0,8.06-1.14,15.86-2.1,23.84-1.88,15.73-1.71,31.43-2.71,47.21s-1.72,31.29-1.73,47.06c0,15.2-.24,30.55,4.71,45.11,4.82,14.16,20.33,13,32.87,13,7.72,0,15.44,0,23.16,0,7.91,0,15.73,1.09,23.61,1.68,6.84.52,13.77,1.19,20.56,2.16,7.81,1.11,15.73,1.19,23.59,1.76,15,1.09,30-.13,45.06-.24,16.17-.13,32.4.61,48.56.13,7.76-.24,15.58-1.12,23.31-1.82,5.87-.53,14,.19,19.26-2.94,5.5-3.3,6.21-9.17,4.77-15A2.59,2.59,0,0,0,260.54,249.07ZM17.2,42.85c-.71-7.55-1.3-15.09-1.35-22.7a1.09,1.09,0,0,0,1-.23,95,95,0,0,0,6.93,25.52c.38.92.77,1.83,1.16,2.74a1.08,1.08,0,0,0,0,.87c1.75,4.94,2.36,10.42,3,15.6A112.47,112.47,0,0,0,30,76a1.65,1.65,0,0,0-1.74,1.75,35.52,35.52,0,0,0,.21,3.86c-1-2.71-2.07-5.41-3.05-8.09A107.46,107.46,0,0,1,20.8,58.84C19.73,53.75,19.27,48.52,18,43.48A.76.76,0,0,0,17.2,42.85ZM25.36,95l-.9-.93a1.86,1.86,0,0,0-1.4-.51c-1.52-4.35-2.95-8.76-4.24-13.2.72,1.16,1.52,2.21,2.43,3.69a1.52,1.52,0,0,0,1.71.7q.87,2.69,1.78,5.36c1.3,3.79,2.54,7.52,3.92,11.19a22.31,22.31,0,0,1-3.13-4.06A1.62,1.62,0,0,0,25.36,95Zm24.29,49.15a2,2,0,0,0-.78.22c-8.62-11-15-22.94-20.25-35.92,2.37,3.57,4.55,7.21,6.86,10.9,5.1,8.16,9.49,16.78,14.87,24.77C50.11,144.08,49.88,144.09,49.65,144.11Zm38.2,19.74c-5.13-1-10-3.26-14.78-5.32l-.94-.43a3.71,3.71,0,0,0,0-2.16c-.92-3-5.78-5.67-8.24-7.19a37.76,37.76,0,0,0-4.44-2.35c-3.44-4.09-6.32-8.65-9.4-13.06-.94-1.34-1.84-2.72-2.73-4.11a2.29,2.29,0,0,0,1.23-.8c1.54,1.81,3.12,3.59,4.71,5.37.28.37.55.75.83,1.13a40.93,40.93,0,0,0,5.86,6.21L61,142.28a76.16,76.16,0,0,0,9.76,8.44c3.72,2.87,7.09,6.18,11,8.82a69.23,69.23,0,0,0,8.19,4.72ZM140,173.9c-1.68-.09-3.31-.07-4.92-.08-5.05-1.44-10.12-2.85-15.2-4.35-4.38-1.29-8.64-2.78-12.82-4.44-4.65-2.38-9.25-4.85-13.89-7.3,8.9,2,17.12,6.49,26.13,8.47a277.47,277.47,0,0,1,29.53,8.4l.38.14C146.12,174.45,143.06,174.06,140,173.9ZM170.26,186c-4.74-2.19-9.55-4.07-14.4-5.78l2.24,0a46.21,46.21,0,0,1,6.48.47c3.36,1.39,6.74,2.78,10.16,4.07,5.91,2.22,11.87,4.34,17.8,6.55l1.08.64c3.68,2.33,6.85,5.15,10.71,7.24,2.18,1.18,4.28,2.29,6.31,3.53C197.14,197.27,183.47,192.14,170.26,186Zm61.1,27c-1.41-.83-2.85-1.59-4.3-2.28-3.52-2.91-6.85-6-10.47-8.94a77,77,0,0,1,13.48,9.32c1.22,1.07,2.46,2.2,3.69,3.38C233,214,232.16,213.54,231.36,213.07Zm4.79,9.16-.14-.15c3.82,2.41,5.64,5.48,8.07,8.95C241.46,228.09,238.83,225.16,236.15,222.23Z" transform="translate(12.4 15.7)"/><path class="cls-4" d="M86.52,150.5c-1.14-.64-1.38-1.77-2.27-2.67-.58-.59-1.37-.91-2-1.45s-1.27-1.26-2-1.83c-.94-.75-2.28.53-1.35,1.34s1.44,1.53,2.24,2.21a9.12,9.12,0,0,1,2,1.85c.74,1.13,1.58,2.45,3.14,2.07A.84.84,0,0,0,86.52,150.5Z" transform="translate(12.4 15.7)"/><path class="cls-3" d="M44.49,101.48c-5.72-15.39-11.91-30.56-17.4-46-5.71-16.07-10.65-32-10.89-49.22a1.6,1.6,0,0,0-3.19,0c0,7.94.37,16.36,2.29,24.09,2.1,8.45,5,17,7.93,25.21,2.7,7.54,5.47,15.17,8.7,22.5,3.47,7.88,6.28,16.87,10.89,24.16C43.34,103,44.86,102.49,44.49,101.48Z" transform="translate(12.4 15.7)"/><path class="cls-3" d="M80.62,146.92c-6.6-9.35-14.83-17.23-23.09-25.12-.56-.53-1.39.3-.85.84,8,8.06,14.85,17.1,23,25C80.15,148.1,81,147.49,80.62,146.92Z" transform="translate(12.4 15.7)"/><path class="cls-3" d="M228.12,226.63c-5.9-11.28-14.91-19-25.57-25.76-12.23-7.75-25.71-14.68-39.73-18.52-6.69-1.84-13.17-3.67-20.12-4.27a87,87,0,0,1-20.95-4.79,162.62,162.62,0,0,1-22.2-9.14c-6.35-3.28-12.21-8-18-12.24-.85-.62-2,.8-1.14,1.47a176.83,176.83,0,0,0,15.5,11.8c5.73,3.69,12.45,6.31,18.75,8.9s12.73,5.23,19.39,6.28c6.93,1.1,13.94,1.46,20.74,3.33a154.23,154.23,0,0,1,41,17.39c6.33,3.94,12.58,7.92,18,13.07,4.59,4.37,8.15,9.28,12.43,13.9C227.21,229.06,228.71,227.78,228.12,226.63Z" transform="translate(12.4 15.7)"/><path class="cls-5" d="M236,254.76a32.07,32.07,0,0,0-4.94-3.12,1.32,1.32,0,0,0-.37-.42c-5.47-4-10.67-8.41-16.28-12.28-5.34-3.69-11.19-6.56-16.74-9.91-1.32-.89-2.67-1.7-4.06-2.45-9.86-5.94-20.28-11.44-31.17-15-3.43-1.12-7-1.93-10.53-2.73-7.85-4.35-16-8.33-24-12.29-8.89-4.41-18.45-6.83-28-9.53-10.8-3.07-21.91-4-32.33-8.38-2.77-1.17-5.52-2.37-8.19-3.73,1.25.07,2.15-1.67.81-2.29-8.88-4.12-15.1-13.17-21-20.69-3.43-4.37-5.16-9.54-7.91-14.31a103.19,103.19,0,0,1-6.1-11.93,1.46,1.46,0,0,0,1.41-1.48c-.23-3.85-1.65-7.34-2.72-11-1.36-4.67-2.57-9.42-3.78-14.13-2.47-9.57-3.85-19.48-5.55-29.21C11.46,52.06,10,32.89,3,16.05A1.14,1.14,0,0,0,2.83,15l-.71-.87a1.05,1.05,0,0,0-1.77.24C.21,12.48.06,10.61-.07,8.72a1.33,1.33,0,0,0-2.65,0c-.77,23.49,1.85,47,5.62,70.19A3.13,3.13,0,0,0,2,78.32a19.27,19.27,0,0,1,.23-2.16c.34-2.06-2.72-3-3.19-.88a24.85,24.85,0,0,0-.45,7.56c-.42,6.57.7,13.65,1.66,20.37-2.34,13.52.09,27.38,1.69,41-.08.66-.16,1.31-.25,2-.91,7-1.13,14.14-1.81,21.22-1.3,13.44-2.21,26.57-2.22,40.09,0,13.86,1.41,27.45,3.07,41.19.5,4,1.43,8.68,4.91,11.31,3.26,2.47,8.49,1.14,12.27.71,6-.68,11.88-3,18-3.82a96.32,96.32,0,0,1,22.32.07c12.67,1.36,25.67.74,38.4.68,14.4-.07,28.72.33,43.1,1.33,16.23,1.13,32.39,2.11,48.67,2.27a231.76,231.76,0,0,0,25-1,107.42,107.42,0,0,1,10.9-.72c3.59,0,6.94,1.11,10.46.19C236.66,259.23,237.81,256.18,236,254.76Zm-65-36.68c-1.25-.4-2.49-.8-3.72-1.22-1.41-.49-2.79-1-4.14-1.57A74.33,74.33,0,0,1,171,218.08Zm-33-9.13-6-.87c-6.05-.86-11.25-3.44-16.81-5.76l.8.18C123.55,204.29,130.78,206.7,138.07,209Zm-32.51-14c3.2,1.06,6.73,1.48,9.86,2.65-8.65-2.07-17.6-3.43-25.7-7,1.53.27,3,.56,4.55.89A111.87,111.87,0,0,1,105.56,195Zm-22.67-5.48a1.23,1.23,0,0,0-.12.26h0c-1.24-.28-2.47-.62-3.69-1C80.32,189,81.6,189.26,82.89,189.49ZM5.83,69.13C5.11,64,4.42,58.81,3.9,53.62c-1.23-12-2.37-24-3.31-36.06C2.3,26.13,4.37,34.62,5.93,43.25,7.65,52.8,8.8,62.43,10.44,72s3,19,5.36,28.28c.64,2.47,1.27,5,1.94,7.51a50.55,50.55,0,0,1-2.87-9.28c-2-10-5.29-19.58-7.5-29.49A.79.79,0,0,0,5.83,69.13Zm9,64.28c-1.82-6.65-3.35-13.39-5.19-20l-.09-.32c0-.8.08-1.6.14-2.4.44-6.21-.15-12.56.24-18.78.72,2.8,1.42,5.6,2,8.42,1.85,9.57,6.17,18,9.69,27.08a82.49,82.49,0,0,0,6.92,12.9c2.69,4.41,4.68,9.11,7.91,13.19.73.92,1.47,1.87,2.21,2.82-3.84.54-2.64,5.56-1,7.77.86,1.16,1.78,2.27,2.72,3.34l-2.25-2.3C29.49,156.21,20.39,145.25,14.86,133.41ZM40,172.73c-8.74-6.15-16.07-14.34-20.16-24.3l-.44-1.14A126.78,126.78,0,0,0,37.1,167.46c3.34,3.12,7.2,5.83,10.27,9.18a26,26,0,0,0,3.25,3C46.93,177.46,43.35,175.11,40,172.73Zm57.82,27.52c-10-2.87-19.72-7.58-29.35-11.49a121.23,121.23,0,0,1-12.56-6.06l.08,0c8.59,3.57,17.22,7.52,26.64,8a.47.47,0,0,0,.17,0,1.65,1.65,0,0,0,.23.46c2.68,3.8,7.51,5.14,11.72,6.55a75.34,75.34,0,0,0,8.69,2.23c2.37,1,4.79,1.88,7.19,2.86,2.77,1.12,5.51,2.6,8.28,4C111.93,204.39,104.92,202.3,97.79,200.25Zm113,43.46c-9.15-3.87-18.4-8.08-27.8-11.33-9.17-3.16-17.44-8.36-26.45-11.95s-18.24-6.49-27.3-9.88c6.1,1.22,12.39,1.5,18.48,2.62.53.09,1,.21,1.56.33a59.8,59.8,0,0,0,5.88,1.69c3.31,1.15,6.51,2.51,9.94,3.79,8.75,3.27,18.12,5.57,26.43,9.89l2.87,1.73,2.26,1.33c1.05.71,2.07,1.46,3.06,2.28A99.07,99.07,0,0,0,211.86,243c1.54.92,3.17,2,4.86,3C214.66,245.23,212.65,244.5,210.77,243.71Z" transform="translate(12.4 15.7)"/><path class="cls-6" d="M213.5,258.18A150.57,150.57,0,0,0,182.94,249c-2.24-.79-4.51-1.54-6.81-2.31-1-.34-2-.72-3-1.12a1.47,1.47,0,0,0-1.52-1.42l-1.9,0c-4-1.72-7.93-3.45-12.29-4.05-5-.7-10.07-1.54-15.13-2.33-1.4-.7-2.76-1.35-4-2a85.79,85.79,0,0,0-11.36-4.25c-2.72-2.46-5.43-4.93-8.28-7.19a62.52,62.52,0,0,0-16.18-9.12C95,212.4,87.69,209.62,79.87,208c-8.71-1.84-16.39-3.22-24.22-7.69a1.09,1.09,0,0,0-1.1,1.88c6.81,4.51,13.08,6.1,21,7.75a150.53,150.53,0,0,1,22.61,6.71,71.79,71.79,0,0,1,20.92,11.79l.83.7q-1.41-.54-2.79-1.17c-6.53-3-13.36-5.16-19.9-8-6-2.66-11.75-6.2-17.93-8.48-1-.37-1.44,1.23-.45,1.6,6.36,2.38,12.05,6.31,18.24,9,6.48,2.88,13.23,5.13,19.7,8.09,2.46,1.12,5,2.1,7.5,3.07q-8.75-2.76-17.46-5.58a271.4,271.4,0,0,1-36.67-14.82,125.15,125.15,0,0,1-30-20.38c-4.86-4.55-8.53-9.46-12.43-14.81-3.73-5.12-8.13-9.78-12-14.82a.79.79,0,0,0-1.35.8c3.2,6,7.13,10.87,11,16.34a94.55,94.55,0,0,0,11.09,13.62A117.8,117.8,0,0,0,67.1,215.19c4.32,2.06,8.63,4.06,13,6-.4-.09-.79-.17-1.18-.27a72.07,72.07,0,0,1-19.52-8.06c-5.45-3.12-10.94-6.15-16.4-9.27l-.13-.15a1.53,1.53,0,0,0-1.58-.83c-.69-.4-1.39-.79-2.08-1.2a41.49,41.49,0,0,1-5.72-4,.74.74,0,0,0,.14-1.11c-1.65-1.67-3.41-3.27-5.19-4.85-1.06-1.66-2.07-3.36-3-5.08-3.84-6.88-7.56-13.84-11.23-20.81-.29-.56-.58-1.12-.86-1.69-1.92-5.1-3.71-10.24-5.46-15.4-2-5.8-4.46-11.53-5.11-17.67a1.72,1.72,0,0,0-.62-1.18c.07-.68.14-1.37.22-2.06a158.36,158.36,0,0,0,.79-23c-.16-7.21-.41-14.34-1-21.51C1.6,76.46,0,70-1,63.47c-.16-1.11-1.86-.79-1.89.25C-3,70.19-2.18,76.57-2,83c.2,7.19.27,14.29.11,21.51A184.41,184.41,0,0,1-3,123.36a2.36,2.36,0,0,0-3.77,1.86A44.4,44.4,0,0,0-5,139.57c-.2,2.34-.33,4.68-.34,7-.11,26.14-5.25,52.3-3.95,78.52a36.1,36.1,0,0,0,4.7,16.42,44.59,44.59,0,0,0,8.89,10.94c8.25,7,21,6.56,31.25,7.19,27.17,1.69,54.5,1.57,81.74,1.55,7.49,0,14.89-.49,22.39-.49q12.53,0,25,0c8.59,0,17.13.34,25.71.42,7.27.07,14.41,1.75,21.58,2.6C214.88,264.09,216.16,259.34,213.5,258.18Zm-179-50.09c-4-3.77-7.26-8.42-10.89-12.65l-.36-.66c.41.53.82,1.06,1.25,1.57a1.47,1.47,0,0,0,2.05.13A43.32,43.32,0,0,0,30.89,201c1.25,1.7,2.55,3.37,4,5l.49.54A2.17,2.17,0,0,0,34.48,208.09Z" transform="translate(12.4 15.7)"/><path class="cls-7" d="M264.56,195.21c-1.11-6.76-2.78-13.64-3-20.49-.24-7.63.08-15.21-.44-22.84a348.41,348.41,0,0,1-.68-43.47c.81-14.21.59-28.46.63-42.71q0-10.61,0-21.19c0-6.86,1.2-13.58,1.07-20.41-.11-5.11,1.54-12.61-.91-17.3C259,2.59,254-.51,249.51-1.61c-12.3-3.06-26-.64-38.5-.66-13.74,0-27.37.11-41.08-1-6.05-.51-12.32-1.55-18.33-2.49-6.5-1-13.1-1.6-19.64-2.33-15.17-1.69-30.3-3-45.48-4.69-7.74-.84-15.63-1.24-23.38-1.89a47.67,47.67,0,0,0-9.42-.36c-.94-1-3.13-.87-3.49.77l0,.19A5.4,5.4,0,0,0,48-12.29a2.65,2.65,0,0,0,1.12,4,104.38,104.38,0,0,0-1,16.55,2.3,2.3,0,0,0-2.67-1.09c-.5-3.23-1-6.47-1.42-9.69-.35-2.65-4.06-2.21-3.84.1C40,4.31,40.8,11.2,41.58,18a.54.54,0,0,0-1,.23c-.09,2.22.83,4.44,1.72,6.53.44,5.68.46,12.43,4.7,16.4.41,2.61.82,5.21,1.28,7.8a40.33,40.33,0,0,0,3.24,14.33C53.26,69.91,55,76.45,58.2,82.59,60.6,87.14,64.39,95.38,70.1,97a47.33,47.33,0,0,0,7.47,8.07c5.58,4.8,11.82,8.58,17.93,12.62,12,7.93,24,15.88,38.16,19.39,14.83,3.69,30.6,4.77,45.87,4.82a26.48,26.48,0,0,0,4.63,3.24c7.16,3.92,12.94,8.16,18.08,14.61a221.55,221.55,0,0,0,17.23,19c6.62,6.53,14.37,11.3,22,16.51,1.16.8,2.65-1.09,1.52-2-6.2-4.8-12.66-9.12-18.28-14.63-5.84-5.71-10.51-12.32-16.05-18.23-4.54-4.86-9.24-10-14.65-13.95-2.45-1.79-5.16-3.36-7.72-5a31.8,31.8,0,0,1-7.88-7.38,160.28,160.28,0,0,1,16.27,6.73c1.21.55,2.37,1.08,3.49,1.64,2.52,2.87,5.43,5.58,8.1,8.3,5.51,5.61,11.39,10.69,16.34,16.84,2.94,3.65,5.7,7.42,8.55,11.14,2.34,3.06,4.37,6.78,7.15,9.49a70,70,0,0,0,9.22,7c1.8,1.22,3.66,2.44,5.49,3.61,1.34.84,3,1.18,4.08,2.37a1.42,1.42,0,0,0,2.37-.62,4.73,4.73,0,0,0-.24-2.77c.11.1.23.18.33.28C261.86,200.32,265,198,264.56,195.21ZM60.35,73q-.9-2.49-1.67-5.06c.58,1.23,1.21,2.44,1.85,3.65q.06.75.15,1.53A1.85,1.85,0,0,0,60.35,73Zm52.47,36.54c1.84.41,3.69.8,5.54,1.11,1,.17,1.9.3,2.85.45a3.06,3.06,0,0,0-.13.43c-.78-.14-1.57-.29-2.35-.46-2.38-.53-4.78-1-7.17-1.45C112,109.56,112.4,109.54,112.82,109.5Zm-23.38-2.36a52.83,52.83,0,0,0,8.87,3.56c7.44,2.09,14.93,3.69,22.44,5.43-3.3-.22-6.62-.62-9.85-1C103,114,95.78,111.87,89.44,107.14Zm47.26,26c-12.08-3.19-22.52-9.27-32.83-16,6.68,1.73,14.23,2.1,21,2.12,6,0,11,.29,16.57,2.61,3.49,1.45,7.21,2.41,10.62,4a96.39,96.39,0,0,0,19.34,6.4,76.56,76.56,0,0,0,4.67,6.17A178,178,0,0,1,136.7,133.1Zm15-11.12c2.41.79,4.82,1.63,7.27,2.29,3.78,1,7.84,2.67,10.6,5.56l-.48-.09a41.7,41.7,0,0,1-12.18-5.05C155.2,123.76,153.45,122.85,151.65,122ZM195,136.38a84.89,84.89,0,0,0-13.83-4.66c-1.64-.35-3.29-.6-4.95-.83a23.62,23.62,0,0,0-3.25-4.37c-2.34-2.29-5.63-3.62-8.62-4.83-2.38-1-4.86-1.86-7.38-2.72,2.75.16,5.49.37,8.18.68,1.18.5,2.35,1,3.54,1.45,5.68,2.21,11.25,4.55,16.72,7.21a51.87,51.87,0,0,1,9.95,6.44,1.73,1.73,0,0,0-.37,1C194.94,136,195,136.16,195,136.38Z" transform="translate(12.4 15.7)"/><path class="cls-8" d="M261.58,171.18a21.15,21.15,0,0,0-3.53-7.62,3.85,3.85,0,0,0,.77-.56c2.55-2.41,1-7.68.78-10.64-.76-11,0-21.77,0-32.76s.5-22.23.5-33.36c0-11.5.5-22.95.5-34.47a127.89,127.89,0,0,0-.41-15.29c-.67-5.58-1.74-11.11-2.39-16.69a51.62,51.62,0,0,0-1.22-6.38c-.55-2.23-.49-4.68-1.38-6.83-1.47-3.57-4.6-5-8.09-6.15A106.23,106.23,0,0,0,216-4.27c-12.44-.19-24.89-1.86-37.28-3-11.93-1-24.22-1.4-36.2-1.55-12.45-.15-25.25-.76-37.67,0-2.63.16-5.19.82-7.81,1-3.1.27-6.22-.07-9.33-.1-4.77,0-10.77-.21-15.09,2A2.62,2.62,0,0,0,71.52-2c.64,2.18.47,4.92.81,7.17.21,1.32.47,2.62.72,3.92-.26-.69-.54-1.38-.87-2.08s-2.19-3.77-2-4.65l-.07,0C70.74.1,67.41-1.89,66,.59L65.9.8c0-.31,0-.62,0-.94h0c-.12-2.25-3.68-2.43-3.61,0a14.4,14.4,0,0,0,.22,2.86,2,2,0,0,0,.23.73c.93,8.83.3,17.68,1.6,26.52a213.65,213.65,0,0,0,5.48,24.41,44.61,44.61,0,0,0,10.93,19c5.68,6,12.44,9.24,19.94,12.4a1.26,1.26,0,0,0,1.41-.27,55.8,55.8,0,0,1,7.43,1.72c5.86,2.05,11.77,4,17.73,5.69,2.17.62,5,1.8,7.3,1.35,1.79-.34,2-1.52,3.37-2.28.12-.07.21-.15.31-.22l6.6,1.76a20.59,20.59,0,0,0,3.43,1c.29,0,.59.09.88.12,1.85.45,3.71.87,5.58,1.23,8,1.54,16.4,1.83,24.23,4,15.1,4.15,27.38,13.81,38.15,24.91s15.27,28.14,28.05,37.63c1.52,1.13,3.6-1.07,2.58-2.58l-1.21-1.8c4.15,4.32,9.36,8.69,11.11,14.3A2.05,2.05,0,0,0,261.58,171.18ZM67,26.41c-.79-4-1.85-7.36-1.94-11.45A95.42,95.42,0,0,1,65.39,4.4C65.75,7,67.27,9.72,68,12c1.91,6.16,1.76,13.89,2.35,20.29.48,5.35.78,10.59,1.59,15.85C69.9,41,68.46,33.57,67,26.41Zm47.47,56.23c-.85-.28-1.7-.56-2.55-.86-4.47-1.61-10.57-1.43-14.41-4.22-3.4-2.48-6.24-6.3-8.77-9.61-1.91-2.5-6.19-.23-4.35,2.54l1.72,2.58c-.9-.78-1.79-1.6-2.64-2.48A39.68,39.68,0,0,1,77.22,62a8.16,8.16,0,0,0,1,.28c1.08.25,2.51-.78,2-2-1.78-4.28-2.1-10-2.83-14.56a88,88,0,0,1-.83-8.79c1.29,7.3,3.6,13.64,8.78,19.78A26.4,26.4,0,0,0,93.94,63c-1.85.67-3,3.28-1.2,4.74a179.88,179.88,0,0,0,19,12.89L115,82.54Zm20.76,1.12c-2.49-.52-5-1.05-7.59-1.5l-.79-.36-.22-.11a1.85,1.85,0,0,0-.69-1.07,103.53,103.53,0,0,0-9.13-6.17c1.51.63,3,1.28,4.49,2,4.78,2.26,9.3,4.92,14.16,7,.52.23,1,.44,1.57.65C136.48,84.05,135.88,83.89,135.27,83.76Zm15.37,5c-1.56-.34-3.12-.7-4.68-1.07-1.88-.66-3.72-1.47-5.58-2.23a100.29,100.29,0,0,0,15,3.37A39.9,39.9,0,0,1,150.64,88.72ZM184.87,94c-4-1-8-1.63-12.09-2.38-1.17-.21-2.32-.48-3.46-.77,3.26.35,6.53.65,9.75,1.16a31.08,31.08,0,0,1,8.59,2.79C186.73,94.46,185.8,94.19,184.87,94Z" transform="translate(12.4 15.7)"/><path class="cls-8" d="M225.71,152.87q-8-11.79-16.31-23.32c-3.87-5.33-8.59-10.53-14.73-13.26-7.62-3.38-16-5.57-24-8-4.51-1.36-9.11-2.46-13.6-3.88s-8.53-3.53-13.05-4.64c-1.86-.46-2.65,2.41-.79,2.87,4,1,7.57,2.73,11.4,4.08s8,2.21,12,3.44c7.75,2.4,15.83,4,23.45,6.71,17.81,6.32,21.92,24.73,34.51,36.83C225.16,154.25,226.17,153.55,225.71,152.87Z" transform="translate(12.4 15.7)"/><path class="cls-7" d="M106.46,68.22c-6.71-10-13.15-20.93-17.17-32.33-.52-1.48-2.88-.85-2.37.66a140.06,140.06,0,0,0,8,17.78c2.56,5.09,5.76,11.23,10,15.1C105.7,70.15,107.13,69.2,106.46,68.22Z" transform="translate(12.4 15.7)"/><path class="cls-7" d="M235.91,129.7c-7.23-4.29-13.81-9.67-20.52-14.71-6.5-4.88-11.78-10.88-19.65-13.65-17.05-6-36.28-6.9-54.14-8.84-1.57-.17-1.52,2.24,0,2.44,9.29,1.2,18.55,2.53,27.86,3.65,8.8,1,18.09,2.21,26.42,5.35a37.9,37.9,0,0,1,11.68,7.66c3.3,3,6.83,5.48,10.27,8.29,5.28,4.32,11.19,8.47,17.61,10.92C236.1,131.06,236.49,130,235.91,129.7Z" transform="translate(12.4 15.7)"/><path class="cls-9" d="M259.43,120.64a76.46,76.46,0,0,1-1.85-15.73c-.15-9.64-.77-19.81.34-29.37,1.18-10.25-.14-21-.32-31.25-.16-8.6.48-17.68-1.57-26.1C254.3,11,250.23,4.36,243.05,2c-9-3-19.77-3.68-29.22-3.71-19.84,0-39.29-.5-58.92-3.68-5.36-.86-10.56-.47-15.94-.86s-10.76-1.34-16.22-1.53c-5.08-.17-10,.86-15.1.34-4.22-.43-7.64-1.73-11.16,1.1-1.65,1.33-1.1,3.19.23,4.21-1.62,7.28-1.37,14-.42,21.59.72,5.8,1.35,11.26,5.27,15.64a20.33,20.33,0,0,1-1.81-2c-1.15-1.45-3.61.45-2.57,2,2.72,4,4.3,5.81,9,7.34,2,.65,3.8,1.82,5.75,2.66,2.87,1.23,5.71,1.55,8.75,2.19,8.06,1.68,16.06,4.3,24.27,5a58.78,58.78,0,0,1,7.28,3.38c9.16,5.06,17.23,13.74,27.38,16.7a1.69,1.69,0,0,0,1.63-2.8c-4-3.69-8.7-6.62-13.15-9.69-.51-.36-1-.72-1.56-1.07a47.24,47.24,0,0,0,12.68,2.91c5.87.61,9.66,2.31,14.55,5.45,3.51,2.25,7.52,3.32,11.22,5.32,4.16,2.26,7.55,5.62,10.71,9.12,3.42,3.8,6.95,7.5,10.3,11.37s5.89,7.7,9.77,10.86a37.52,37.52,0,0,1,10.25,12.52c1.84,3.89,4.51,7.59,5.73,11.75a1.29,1.29,0,0,0,2.19.58,16,16,0,0,0,1.45,2.06c1.45,1.74,4.44.72,5-1.32C261.23,126.19,260.15,123.72,259.43,120.64ZM166,55.22a1.5,1.5,0,0,0-1.82,2,89.08,89.08,0,0,0-9.79-5.77,1.39,1.39,0,0,0-.52-2c-4.63-2.6-8.53-2.66-13.6-3.67l-.36-.07c1.35.08,2.68.18,4,.31,12.83,1.24,25.59,4.59,36.93,10.68C175.88,56.28,171,56.33,166,55.22Zm65.24,37.17c-3.58-4.33-7.62-8.25-11.42-12.39a69.83,69.83,0,0,1,10.76,8c3,2.72,7,5.64,9.15,9a29.75,29.75,0,0,1,2.69,6.07C238.75,99.4,234.65,96.49,231.26,92.39Z" transform="translate(12.4 15.7)"/><path class="cls-9" d="M96.07,30.36c-3-4.37-1.43-11.16-1.63-16.44s-.32-12.31-3.5-16.67A2.17,2.17,0,0,0,87-1.09c1.68,7.93,1.79,15.94,1.67,24-.07,5.3-.5,9.88,5.93,10A1.71,1.71,0,0,0,96.07,30.36Z" transform="translate(12.4 15.7)"/><path class="cls-9" d="M231.53,103.29c-3.82-3.9-6.65-8.59-10.7-12.3a1,1,0,0,0-1.45,1.46c3.62,4.08,6.42,8.82,10.3,12.7C230.87,106.35,232.72,104.5,231.53,103.29Z" transform="translate(12.4 15.7)"/><path class="cls-9" d="M209.57,78.92C199,72.35,186,73.21,174,72.78a69,69,0,0,1-18.88-2.89c-6.41-2.09-11.87-5.89-17.9-8.7A1.2,1.2,0,0,0,136,63.25c10.18,7.12,20.13,10.59,32.28,12.75a85.43,85.43,0,0,0,17.92,1.31c7.71-.28,15.51-.8,22.44,3.21A.93.93,0,0,0,209.57,78.92Z" transform="translate(12.4 15.7)"/><path class="cls-9" d="M115.49,50.31a51.3,51.3,0,0,1-13.82-6.56,1.13,1.13,0,0,0-1.69,1c0,2.19,3,3.49,4.67,4.47,3.09,1.87,6.65,2.88,10.06,3.94C116.52,53.7,117.29,50.88,115.49,50.31Z" transform="translate(12.4 15.7)"/><path class="cls-10" d="M260.12,86.33c-.72-1-1.37-2.12-2-3.21a2.79,2.79,0,0,0,1.49-2.51c0-9.84-2.63-19.51-2.93-29.4-.25-8.48.89-17.39-.12-25.79-.44-3.62-2.08-6.67-3.59-9.93-1.57-3.41-2.63-7.16-5.09-10.08-5.06-6-12-6.63-19.06-8.4-17.62-4.42-36.66-4.28-54.73-4.28-9.44,0-18.89-.16-28.32.09s-19.29-.25-28.68.91a3.11,3.11,0,0,0-1.81.88c-1.2-.62-2.46-1-3.66,0-2.31,1.81-1.22,6.81-1.3,9.26-.21,5.59-1.14,18.19,7.27,17.79a1.94,1.94,0,0,0,1.66-2.89c-.8-1.22-1.91-1.83-2.65-3.05-1.35-2.23-1.44-5.64-1.59-8.13-.13-2.17-.11-4.34-.27-6.5-.13-1.7-.68-2.78-.28-2.93a2.76,2.76,0,0,0,.08.27,7.8,7.8,0,0,0,.11,1.5c.5,3.15,1,6.41,1.53,9.57,1.32,7.09,5.15,10.88,11.51,13.82a81.69,81.69,0,0,0,24.08,7.18c8,1.15,16,3,24,4.24,8.49,1.29,16.66,4.88,24.63,7.93l1.19.5a14.41,14.41,0,0,0-3.5-.49c-1.86,0-2,2.46-.41,3.06,9.64,3.75,17.8,10.16,27.38,13.94,1.93.77,3-1.61,2.09-3a18.44,18.44,0,0,1,3,2.72,50.67,50.67,0,0,0,5.43,5.24c2.48,1.83,5,3.23,7.15,5.54,2.33,2.55,4.34,5.42,6.4,8.18,2.85,3.83,4.48,7.82,8.58,10.45C259.15,89.66,261.13,87.79,260.12,86.33Z" transform="translate(12.4 15.7)"/><path class="cls-10" d="M187.61,42.9c-10.06-3-20-5.39-30.46-6.1-6.33-.42-10.59-3.6-16.27-5.85-4.06-1.61-9.83-1.13-12.88-4.13-1.83-1.81-4.46.9-2.8,2.8,1.24,1.42,2.4,3.06,4.19,3.82,2.25.94,4.56,0,6.92.35,6.17.91,11.31,5.5,17.41,7,5.84,1.47,11.56,2.32,17.46,3.44s10.47,4.22,16.43,2.28A1.91,1.91,0,0,0,187.61,42.9Z" transform="translate(12.4 15.7)"/><path class="cls-9" d="M256,90.7c-2.95-9.5-3.18-19.73-7.42-28.94-3.92-8.53-12.15-11.74-20.23-15.29-3.75-1.64-7.77-2.25-11.64-3.56a24.46,24.46,0,0,1-8.63-4.52c-1.46-1.33-2.57-3-4.15-4.18-3.16-2.41-6.49-2.2-10.29-2.51-4.57-.38-9-2.71-13.54-2.76a1.29,1.29,0,0,0-.64,2.38,35.84,35.84,0,0,0,9.92,4.07c4.14.93,9.1-.87,12.89,1.29,3.33,1.9,5.91,5.16,9.3,7.13a75.36,75.36,0,0,0,10.73,4.94c4.32,1.69,8.45,4.22,12.61,6.29A18.93,18.93,0,0,1,244.56,65c1.6,4.09,2.94,8.57,4.14,12.81,1.32,4.66,1.65,9.47,3.51,14C253.14,94,256.78,93.19,256,90.7Z" transform="translate(12.4 15.7)"/><path class="cls-9" d="M164.55,26.09c-6.46-1.79-13.3-2.16-20-2.75-1.6-.14-1.79,2.26-.36,2.71,6.36,2,13,1.75,19.42,3.3A1.69,1.69,0,0,0,164.55,26.09Z" transform="translate(12.4 15.7)"/><path class="cls-9" d="M122.6,23.89c-3-.39-5.1-3.74-6.86-5.9-2.08-2.57-4-5.81-7-7.33A1.24,1.24,0,0,0,107,12.34c1.63,3.64,5.08,6.73,7.73,9.69,2.15,2.4,4.49,4.39,7.83,4.53C124.37,26.63,124.26,24.1,122.6,23.89Z" transform="translate(12.4 15.7)"/><path class="cls-9" d="M223.18,21.46c-4.59-.88-9.1-4-13.5-5.59-5.54-2-11.46-2.93-16.86-5.37-1.64-.74-3.09,1.63-1.43,2.45,5.32,2.6,11.05,4,16.8,5.28,2.57.58,5.18.94,7.72,1.64s4.67,1.84,7.19,2.12C223.4,22,223.47,21.52,223.18,21.46Z" transform="translate(12.4 15.7)"/><path class="cls-9" d="M241.1,36.67a.05.05,0,0,0,0,.1A.05.05,0,1,0,241.1,36.67Z" transform="translate(12.4 15.7)"/><path class="cls-11" d="M244.89,139.05c-.89-6.73-.66-13.85-2.44-20.44-1.7-6.28-3.39-12.56-5.66-18.69-5.44-14.71-9.52-31.49-20-43.76a35.27,35.27,0,0,0-8.38-9.26c-2.63-1.9-5.26-2.2-8.28-3a23.66,23.66,0,0,0-5.74-1.21l-.61,0a9.61,9.61,0,0,0-2.48-4.32c-3.75-3.94-7.81-3.4-12.74-3.68-6.18-.35-12.59-.2-18.86-.64.27-.45.53-.92.8-1.38,2-3.41,2.86-7,1.23-10.78-3.56-8.33-13.66-8.24-21.23-8.2-4.17,0-7.81-.42-11.63,1.36A15.89,15.89,0,0,0,122.18,21c-2.29,3.22-4,6.85-6.25,10.08-1.94,2.77-5.16,4.32-7.84,6.41H108a31.7,31.7,0,0,0-6.46-.2,28.64,28.64,0,0,0-9.66,2.4c-6.06-1-12.57,2.69-17.81,5.54-7.47,4-14.84,8.16-22.14,12.5s-13.28,9.69-19.43,15.4a51.24,51.24,0,0,0-6.69,7.13,12.66,12.66,0,0,0-2.3,7.69c-1,2.27-1.9,4.55-2.83,6.82-2.26,5.53-2.56,11.72-4.18,17.47-1.79,6.32-1.83,13.15-3.28,19.54-1.53,6.7-.94,13.44-1.66,20.27-.68,6.38-1.37,14-.25,20.33,1.07,6,2.88,12.2,4.31,18.17.71,2.92.68,5.83,1.77,8.71a69.39,69.39,0,0,0,3.83,7.73c2.95,5.62,6.59,9.71,11.11,14a5.84,5.84,0,0,0,3.47,1.67,26.44,26.44,0,0,0,11.9,3.07c.65.62,2.56,2.64,3.17,3.1a26.76,26.76,0,0,0,5.37,2.95,45.8,45.8,0,0,0,13.38,4c2.42.34,4.71,1.22,7.11,1.63a49,49,0,0,0,8.73.32c4.28,0,8.53-.25,12.79-.39a7.1,7.1,0,0,0,.8.57c10.8,6.63,23.17,3.32,35,3.35a114.66,114.66,0,0,0,20-1.74c3.44-.6,6.9-1.08,10.32-1.74s6.75-2.66,10.18-3.05a6.24,6.24,0,0,0,3.46-1.49c5-1.55,9.84-3.89,14.71-5.34,7.36-2.19,14.72-4.21,21.73-7.49,6.14-2.88,12.82-7.4,16.32-13.52,3.72-6.51,8.13-12.56,11.37-19.43,3.71-7.88,2.91-15.51,2.91-24C245.1,155.45,245.93,147,244.89,139.05Z" transform="translate(12.4 15.7)"/><path class="cls-12" d="M120.17,65.29c4.47,3.12,5.45-2.86,8.6-4.46s7.06-1.22,10.36-1.34c.88,0,2.56.14,3.34-.32,2.53-1.5.78-3.72,0-5.18-1-1.85-2.15-3.66-3.23-5.49-.74-.06-1.48-.12-2.22-.15.34-.7.71-1.39,1.09-2.09a.73.73,0,0,1,.23-.41A79.23,79.23,0,0,1,142.65,39c2.21-3.16,6.36-8.39,5.17-12.52a3.11,3.11,0,0,0-3.72-2.11c-7.36,1.46-8,5.28-11.48,11.34a73.87,73.87,0,0,1-8.25,11.65c-3.6,4.15-8.18,5.69-13.23,7.28h0C112.84,59.08,116.3,62.59,120.17,65.29Z" transform="translate(12.4 15.7)"/><path class="cls-13" d="M73.52,122.07c-4.91,1-10.37,2-13.3,6.49a.77.77,0,0,1-1.09.21c-2.65,3.42-4.46,7.42-6.45,11.24-.84,1.64-2.75,4.76-.88,6.4,1.26,1.11,4.79.63,6.37.57,10.42-.39,20.64-.35,31-1.71,1.82-.24,4.43-.27,6.18-.92,3.27-1.22,3-3.78,2.42-6.62-.94-4.59-2.82-9.23-6.35-12.43C86.6,120.91,79.57,120.86,73.52,122.07Z" transform="translate(12.4 15.7)"/><path class="cls-13" d="M136.72,163.15c0,2.84.63,9.51-2.49,10.95-2.44,1.13-7.88,1-10.28,0-3.41-1.33-2.89-6-2.85-9s1.35-8.82-3.61-8.05c-2.42.37-4.67,1.93-6.71,3.19a.67.67,0,0,1-.5.09,35.13,35.13,0,0,1-3.5,3.39,15.35,15.35,0,0,0-4.41,7.88,28.43,28.43,0,0,0,2.13,19.62s0,.07,0,.1a.65.65,0,0,1,.44.38c6.86,14.29,30.46,15.77,38.41,1.95,3.27-5.68,4.17-12.68,3.54-19.12a29,29,0,0,0-2.68-10.05C142.83,161.75,137.8,157.78,136.72,163.15Z" transform="translate(12.4 15.7)"/><path class="cls-13" d="M189.57,123.82c-4-3.66-11-4.19-16-3.28-5.32.95-9.68,4.34-14.06,7.26-1.88,1.26-4,2.41-5,4.55-1.13,2.44-1.18,7.17.71,9.26a.76.76,0,0,1,.17.35.62.62,0,0,1,.21.37c.33,1.59,8-.33,9.28-.56a55.66,55.66,0,0,1,11.32-.52c4.92.1,10,.25,14.72,1.77,1.33.43,2.63.95,4,1.41,1.85.63,2.17,1.24,3.49-.15,1.95-2.05-.31-6-1.4-8.08C194.88,132.28,192.86,126.84,189.57,123.82Z" transform="translate(12.4 15.7)"/><path class="cls-14" d="M231.52,145.33c-.21-5.54-.22-11.53-2.27-16.7a.61.61,0,0,1,0-.13c.48-9.08-4.21-17.45-6.69-26-2.7-9.3-6.67-18.15-10.57-27C206.52,63,197.3,53.14,183.43,51.82c-2.89-6.22-14.43-3.5-20.19-3.5-6.24,0-12.43.38-18.65.52a31.79,31.79,0,0,1-3.44-.17,34.87,34.87,0,0,1,4.16,7.59c.47,1.39.49,2.59-.7,3.59C143,61.24,140.15,61,138.16,61c-3.79.15-8.26-.19-10.81,3.1-2.16,2.79-3.48,6-7.22,3.13-4.41-3.37-8.45-7-10.47-12.24a.61.61,0,0,1,.2-.74c-5.4-1.85-11.31-2.67-16-2-5.19.75-13.29,4-16.46,9.09-1.36.21-2.66.53-3.65.76-3.81.9-6.79,2.71-10.08,4.74-2.31,1.41-8.18,4.95-10.77,8.71-4.56,2.21-8.54,10.1-10.48,12.94a81.86,81.86,0,0,0-11.26,24.83c-4,14.45-12.62,35.42-7.36,51-1.12,5.71.39,12.54,1.7,17.93,1.56,6.43,2.89,13.39,6.12,19.22,4.42,8,17.82,16.25,27,12.23,4.35,5.36,10.3,6.13,17.19,7.75s14.61,2.24,21.54.28a34.13,34.13,0,0,0,8.19,6c7.17,3.66,13.68,4.19,21.63,3.37a122.06,122.06,0,0,0,27.66-6.3c2.65-.92,9.87-1.42,13.07-4,7.75.76,17.86-3.58,24.09-6.11s18.52-5.22,20.12-13.19c4.18-3.61,7.25-8.58,10.58-12.95,4.78-6.27,8.43-13.18,9.48-21.09C233.09,160.39,231.79,152.52,231.52,145.33ZM99.76,142.21c-.42,3-3.42,3.57-6,4C88.4,147,83,147.6,77.65,148c-6.1.49-12.2.23-18.3.41-2.6.07-7.1.87-9.09-1.36s.14-6,1.31-8.21c2.29-4.28,4.23-8.7,7.45-12.38a.65.65,0,0,1,.94-.07c2.89-3.31,7-4.41,11.34-5.42,5.49-1.27,11.32-1.87,16.68.34a17.74,17.74,0,0,1,8.9,8.84C98.53,133.55,100.3,138.38,99.76,142.21Zm46.72,48.42c-2.95,7.81-9.3,13.24-17.72,14-9.68.87-20.65-2.81-25.1-12.1a.35.35,0,0,1,0-.11.68.68,0,0,1-.45-.36,30.09,30.09,0,0,1-2.74-18.47,19.52,19.52,0,0,1,3.43-8.91c1.69-2.22,4.32-3.56,5.78-6a.73.73,0,0,1,1.13-.16c4.94-2.88,12.24-5.45,12,3-.08,2.3-.27,4.63-.12,6.93.21,3.31,1.34,4.6,4.74,4.72,1.27,0,4.69.3,5.88-.32,2.53-1.32,1.92-7.52,1.95-9.85a.71.71,0,0,1,.08-.34c.5-2.29,1.94-3.92,4.48-3.67,3.39.33,5.21,3.32,6.4,6.16A35.69,35.69,0,0,1,146.48,190.63Zm53.27-44.33c-2.15,2.25-8-1.5-10.38-2.17-6.26-1.8-13.61-1.58-20.07-1.29-2.57.12-14.38,3.72-15.16-.11,0,0,0,0,0,0-2.47-2.75-2.55-8.21-.83-11.4A11.19,11.19,0,0,1,157,127.6c2.67-1.86,5.37-3.76,8.19-5.4,7.23-4.19,19.38-5.72,25.81,1,3.25,3.37,5.37,8.6,7.5,12.76C199.83,138.44,202.24,143.69,199.75,146.3Z" transform="translate(12.4 15.7)"/><path class="cls-15" d="M189.93,144.86c-8.69-1.09-17.47-2.78-26.29-1.28-2.59.43-8.47,4.08-10.88,3a2.44,2.44,0,0,1-.72-.53,15.68,15.68,0,0,1,.08-6.13c.68-3.36,2.07-5.57,1.42-9.05a1.54,1.54,0,0,0-.43-.83,25.76,25.76,0,0,1,4.41-6.2,49.29,49.29,0,0,0,6.21-3.66c2-1,.52-4.43-1.81-3.24-4.66,2.39-8.17,4.76-10.88,8.68a1.92,1.92,0,0,0-2.38.9c-2.62,4.74-5.28,10.92-4.2,16.44,0,.07,0,.15,0,.22q0,.56,0,1.11a1.32,1.32,0,0,0,.62,1.1c.16.47.33.94.54,1.41A13,13,0,0,0,153,157.49c4.08,2,9.05.51,13-1.14,3.39-1.4,6.58-3.46,10.18-4.32,4.33-1,9.25-1.08,13.68-1.13C193.93,150.86,193.69,145.32,189.93,144.86Zm-27.79,6.62a11.61,11.61,0,0,1-2.82.56,19.94,19.94,0,0,1,7.45-2.48A38.52,38.52,0,0,1,162.14,151.48Z" transform="translate(12.4 15.7)"/><path class="cls-15" d="M174,91.13A73.35,73.35,0,0,0,172.08,84a18.94,18.94,0,0,0-2.63-6.47,3.33,3.33,0,0,0-3.5-1.11c-.82-1.68-3.7-1.55-3.6.68a26.83,26.83,0,0,0,1.06,6.17.82.82,0,0,0-.31,0,1.68,1.68,0,0,0,0-.63,2,2,0,0,0-.29-.69,1.77,1.77,0,0,0-2-.79,2,2,0,0,0-1.47,2.09A1.76,1.76,0,0,0,160.88,85a1.85,1.85,0,0,0,1.18-.28c-.11,3.26.77,11.12,5.52,10.46a1.32,1.32,0,0,0,.3-.09q.39,1,.75,2.07s0,.09.05.13a3.89,3.89,0,0,0-2,1.31,1.75,1.75,0,0,0,1.94,2.81l.07.06a5.36,5.36,0,0,1,.77,1c.63,1.14,1,2.41,1.62,3.56a1.78,1.78,0,0,0,.83.73c1.73,1.44,4.36-.23,4.48-2.33C176.61,100.28,174.93,95.22,174,91.13Z" transform="translate(12.4 15.7)"/><path class="cls-15" d="M142.44,121.2a15.69,15.69,0,0,1-1.71-6.88c-.2-2.77-4.38-2.84-4.36,0a109.59,109.59,0,0,0,.42,13.8c.17,1.28,2.12,1.85,2.47.33s.57-2.74.79-4.09A2.18,2.18,0,0,0,142.44,121.2Z" transform="translate(12.4 15.7)"/><path class="cls-15" d="M219.4,189.39c-.15.38-.33.75-.52,1.12a1.75,1.75,0,0,0-2.55-.08c-5.34,5.08-11.15,9.54-18.07,12.16-4.26,1.61-8.36,1.65-12.58,1.59a11.22,11.22,0,0,1-.21-1.25,63.82,63.82,0,0,0-.38-6.48,20.8,20.8,0,0,0-1.3-4.66,30.72,30.72,0,0,0,.25-5.57,2.49,2.49,0,0,0-3.93-1.92c-.17-1.72-.34-3.44-.53-5.16-.27-2.34-.7-6-3.07-7.18a1.74,1.74,0,0,0-2.34.61,2.75,2.75,0,0,1-.17.29,1.25,1.25,0,0,0,.19,1.47c2.18,2.69,1.72,7.3,2.09,10.49.18,1.51.37,3,.59,4.5a3.33,3.33,0,0,0-.33,1.08c-.71,5.44-.18,10.76-.16,16.21,0,.28,0,.55,0,.82-2.93,3.77-8.19,4.76-13.54,4.72a13.5,13.5,0,0,0,2.83-1.33,2.47,2.47,0,0,0-1.89-4.49c-2.6.65-5.11.51-7.7,1a22.66,22.66,0,0,0-3.2,1,19.86,19.86,0,0,0,2.2-7c.16-1.34-1.79-2-2.64-1.09-2.33,2.59-4.78,7.61-8.27,9.27a6.84,6.84,0,0,0-3.38.58c1-2.1-.58-5.12-3.38-4.21-5.88,1.9-11.43.47-17.13-1.1-2-.54-7.35-1.19-10-2.77a1.27,1.27,0,0,0-.25-.49,20.47,20.47,0,0,1-1.8-2c-.82-1-2.29-.68-3.16,0h0a87,87,0,0,0-6.49-13.4c.1-.15.2-.29.29-.44a2.91,2.91,0,0,0,.1-2.79c.32-1.74.91-3.57,1.1-5.21.4-3.39.59-6.91,1.31-10.27.93-2.7,1.81-5.44,2.94-8.1a24.88,24.88,0,0,1,10.18-6.19c3.85-1.13,3,.53,5.8,2.37a2.28,2.28,0,0,0,2,.24c.36,1.08.71,2.15,1.07,3.16a35.15,35.15,0,0,1,1.32,6.53c-1.53,1.52-2.16,3.29.75,6.09a3,3,0,0,0,5-1.31,25.79,25.79,0,0,0,0-9.45,2.34,2.34,0,0,0,1.14-1.94c0-2.56-1.82-4.09-3.24-6-.28-.37-.5-.77-.75-1.17l0-.18a18.77,18.77,0,0,0-.34-4.47c0-.28,0-.55,0-.82a7.54,7.54,0,0,0,3.42-.72c3.11-1.25,2-6.09-1.42-5.15a2.7,2.7,0,0,1-2,0,11.64,11.64,0,0,0-1.47-.53,3.17,3.17,0,0,0-3,1.42,2.1,2.1,0,0,0-.15.3,2.55,2.55,0,0,0-2.62,1.42,8,8,0,0,0-.49,4.17,3.43,3.43,0,0,0-.93-.4c-1.91-.53-5.38.2-7.2.59a12.58,12.58,0,0,0-1.93.59c0-.05,0-.1,0-.15a3.06,3.06,0,0,0,2.16-2.72c.16-1.49.33-3,.5-4.48a2.29,2.29,0,0,0,4.47-.64c.11-.93.2-1.86.29-2.79a3.21,3.21,0,0,0,3.56-2.9h0a83,83,0,0,1,.07-15.76,1.92,1.92,0,0,0,.77-.83,38.19,38.19,0,0,0,2.45-12.53c1.22-4.46,2.6-12.24.76-16.26a.66.66,0,0,1,0-.14c.26-2.18-1.92-3-3.61-2.39a3.24,3.24,0,0,0-2.31,1.39c-4,5.31-3.24,15.6-3.56,21.78-.2,3.64-.58,7.44-.84,11.25a2.32,2.32,0,0,0-2.92-.64c-2.06.91-2.68,3.56-3.07,5.69a3.09,3.09,0,0,0-1.9.3,26.37,26.37,0,0,0-1.55-2.4l-.93-1.26a17.79,17.79,0,0,0-.53-1.84,9.46,9.46,0,0,0-2.13-3.21c2.46,1.14,5.26-2.51,3-4.37a9.06,9.06,0,0,1-2.16-4c1.72,1.75,4.36-.91,2.69-2.69-4.35-4.62-6.82-1.86-7.08,2.19a1.7,1.7,0,0,0-1.52,1.16c-.87-.17-1.76-.32-2.66-.41a1.83,1.83,0,0,0-1-2.5c-3.11-1.15-4.91-2.11-7.86-1.15,2.59-4.14,3.79-9.67,5.47-14.33a1.76,1.76,0,0,0,.93-2.5l-.47-.85a2.27,2.27,0,0,0-.26-.35,3.52,3.52,0,0,0-.88-2.41s-.11-.09-.16-.14a8.72,8.72,0,0,0-.08-.88c-.37-2.07-3.31-2.67-4.66-1.23-2.09,2.24-2.94,5.63-4.18,8.42-.1.22-.19.45-.28.67a47.2,47.2,0,0,0-2.42,6c-.57,1.53-1.12,3.06-1.62,4.63a1.85,1.85,0,0,0-2-.73,11.19,11.19,0,0,0,.43-2.25,1.53,1.53,0,0,0-.08-.61.47.47,0,0,0,0-.1c.38-1.33.77-2.67,1.19-4,.06-.13.13-.26.18-.39.48-1.07,1-2.15,1.44-3.23.16-.38.34-.75.49-1.14.1-.24.64-1.44.14-.45a1.2,1.2,0,0,0-1-1.79c-1.84-.1-3.13,3.74-3.78,5l-.46.91A2.65,2.65,0,0,0,70.16,95a24.31,24.31,0,0,0-1.74,3.17,3.12,3.12,0,0,0-4.22-.05,20.54,20.54,0,0,0-3.89,6.37,12.6,12.6,0,0,0,.43-2.46c.47-1.16.92-2.32,1.43-3.45a2.79,2.79,0,0,0,.52-.56C67.19,91.63,70.2,83.12,76.26,78c2.06-1.84-.5-4.63-2.68-3.67a5.05,5.05,0,0,0,.48-1.67,1.61,1.61,0,0,0,0-.22l.28-.44c.56-.82,1.12-1.57,1.67-2.29a1.63,1.63,0,0,0,.91-.36,15.1,15.1,0,0,0,5.71,3.9C84,79.45,96.82,81,101.5,81.42c2.75.24,3.53-3.74,1.36-5a19.53,19.53,0,0,0-3.8-1.67A4.66,4.66,0,0,0,101.63,72a4.84,4.84,0,0,0,0-3.46,13,13,0,0,0,2.71,2.4,15.51,15.51,0,0,0,9.83,2.34,7.12,7.12,0,0,0,1.73,2.42c2.43,2.09,5.44,0,5-2.94a9,9,0,0,0-1.73-4,3.26,3.26,0,0,0-.2-.48l-.23-.4a2.36,2.36,0,0,0-.2-.23,10.42,10.42,0,0,0-.54-1.92,6.73,6.73,0,0,0-4.23-3.67,12.49,12.49,0,0,1-3-1.11c-.65-.39-1.14-.77-1.72-1a17.07,17.07,0,0,0-2.68-1.6,6.27,6.27,0,0,0-1.51-.35c.16-.15-.64-.93-1-1.35a3,3,0,0,0-3.69-.44,4.88,4.88,0,0,0-.92-.51c-3-1.17-7.46.24-10.38.61l-1.24.16a10.93,10.93,0,0,0-11.29,3.88,19.25,19.25,0,0,0-2.07,1.74h0c-3.11.81-6.53,4.2-9.08,6.76a25.55,25.55,0,0,0-2.39,1.22h-.18c-5.23,1-10.8,9.81-13.79,13.84-1.28,1.73-2.46,3.47-3.59,5.24-6.36.94-10.85,18.23-13,22.81-4.25,9.14-5.89,18.35-6.16,28.37-.3,11.15-1.94,23.18,1.36,33.88.73,2.35,1.32,4.77,1.9,7.18a1.61,1.61,0,0,0-.78,1.47c.06,9.29,4.42,19.78,11.65,25.79,5.21,4.32,15.76,6.18,22.3,6.22H63a1.72,1.72,0,0,0,.36.61,11,11,0,0,0,2.34,2.32c3.34,2.41,8.19,3,12.19,3.35,6,.57,11.54-1.19,17.52-1.56a45.23,45.23,0,0,0,6.32-.63c2,4.08,6.78,4.94,11.11,6.49,6.48,2.31,12.71,1.25,19.46.84,12.77-.77,24.67-3.89,36.81-7.51a2.9,2.9,0,0,0,1.55-1.06,19.09,19.09,0,0,0,4.27-1.72.78.78,0,0,0,0,.14c-.11,1-.7,1.51-.45,2.65,1.31,6.18,10.54.82,13.37-.42,13.23-5.8,31-12.62,35.62-27.85C224.24,187.87,220.37,187,219.4,189.39ZM96.71,69.27a10.61,10.61,0,0,1-4.6-.24A26.28,26.28,0,0,1,96.71,69.27ZM94,114.74l-.3.13a2.57,2.57,0,0,0-1.09,1.19c-1.46-.66-3-1.13-4.57-1.65A22.63,22.63,0,0,1,94,114.74Zm-47.76-7.43.21-.56.89-2.31a2.24,2.24,0,0,0,.73-.24c-.31,1.16-.53,2.35-.71,3.4-.24.43-.47.87-.69,1.3A6.09,6.09,0,0,0,46.27,107.31ZM58,188.09c-1.08-2.19-2.06-4.45-2.89-6.63-.45-1.2-1-2.69-1.43-4.27a100.78,100.78,0,0,0,4.33,9.34c.18.83.37,1.67.59,2.5C58.43,188.72,58.24,188.4,58,188.09Zm-2.43-29.86c.68-.14,1.35-.28,2-.43a7.26,7.26,0,0,0-.82,1.2A11.29,11.29,0,0,0,55.61,158.23ZM62.19,165a2.85,2.85,0,0,1,.83-1.27c.08,1.08.21,2.13.36,3.11C63,166.27,62.63,165.65,62.19,165ZM49.56,141.7C49,135,58,126.78,63,123.17c3.69-2.62,7.63-2.51,11.79-3.74.82-.24,1.63-.53,2.43-.82,1.84-.24,3.69-.48,5.52-.79,3.62,2.23,7.72,3.9,11.19,6.4,1.32.94,2.71,1.72,4,2.65a2.48,2.48,0,0,0,0,1.82c1.32,3.58,1.86,7.65,3.84,10.95a2.91,2.91,0,0,0,1.32,1.13c0,.4,0,.8.08,1.19a3,3,0,0,0,.18.83c-.07,1.76-.14,3.52-.27,5.24a3.69,3.69,0,0,0-.21.64,3,3,0,0,0-4.25-1.94c-3.39,1.44-8.67,1-12.33,1.18-4.93.25-9.85.7-14.78.74C65.36,148.7,50.2,149.78,49.56,141.7Zm29.44,25c-.15.65-.25,1.31-.34,2a21.64,21.64,0,0,1-1-2.15l1.67-.91A6.69,6.69,0,0,0,79,166.69Zm13.18,41.92-.27.06a14.05,14.05,0,0,0-3.16-2.91c0-.33,0-.67,0-1a23.62,23.62,0,0,0,3.77,3.84C92.41,208.6,92.3,208.59,92.18,208.61Zm-.64-39.21A22.19,22.19,0,0,0,90,173.94c-.08-.32-.17-.63-.26-.95a30.4,30.4,0,0,0-2.22-6.33,22.34,22.34,0,0,0,3.62.08,2,2,0,0,0,1.49-.69A9,9,0,0,0,91.54,169.4Zm5.95-9.27a2.74,2.74,0,0,0-.82.69,55.31,55.31,0,0,0-3.59,4.55,2,2,0,0,0-1.91-2.9,16.82,16.82,0,0,1-7.55-1.74A3.68,3.68,0,0,0,79,159a6.53,6.53,0,0,0-.86-.11A5.63,5.63,0,0,0,76,156.51a2.1,2.1,0,0,0-.7-.28c2.31-.1,4.62-.2,7-.37,6.68-.48,13.68-.09,19.36-4.09a3.15,3.15,0,0,0,1.31-1.82,2.47,2.47,0,0,0,.74,1.21l.16.15a37.67,37.67,0,0,0-6,6.39A2.43,2.43,0,0,0,97.49,160.13Zm29.32,54A45.53,45.53,0,0,0,139,211.7l.05,0a2.93,2.93,0,0,0,.77,3.43A35.18,35.18,0,0,1,126.81,214.15Zm63.35-3.46c-.54.25-1.09.48-1.64.72a2.46,2.46,0,0,0-.12-1.92,28.38,28.38,0,0,0,5.32-.41C192.54,209.61,191.35,210.14,190.16,210.69Z" transform="translate(12.4 15.7)"/><path class="cls-15" d="M171.8,174c-.6,2.83-1.61,5.48-2,8.37-.07.63.91.86,1.18.32a25.17,25.17,0,0,0,1.31-4c.43-1.4,1-2.75,1.39-4.17C174.05,173.25,172.07,172.72,171.8,174Z" transform="translate(12.4 15.7)"/><path class="cls-15" d="M159.78,194a56.21,56.21,0,0,0-1.37-9.5,1.42,1.42,0,0,0-2.71,0c-1,3.38-.78,6.06-.36,9.5C155.68,196.79,160.1,196.86,159.78,194Z" transform="translate(12.4 15.7)"/><path class="cls-16" d="M139.87,26.93c-3.8,1.48-6.33,5.75-8.73,8.91a117.39,117.39,0,0,1-10.12,12c-1.94,1.95-4.08,3-5,5.6a2.87,2.87,0,0,0-2.87,1.26c-1.16,1.76.13,3.72,1.42,4.95a9,9,0,0,0,3.6,2.07,4,4,0,0,0,.37,2.83c.83,1.63,2.85,1.49,4.07.53A5.68,5.68,0,0,0,124,63.23a2.34,2.34,0,0,0,1.73-.73c2-2.18,3.11-6.54-.27-7.88a1.8,1.8,0,0,0-2.26,1.72,1.15,1.15,0,0,1-.13.46,2,2,0,0,0-1.1.36,2.75,2.75,0,0,0-.26.22,4.26,4.26,0,0,0-.54-.15c-.14,0-.31,0-.49-.08a3.94,3.94,0,0,0-.61-1c0-.08-.11-.14-.16-.22,3.22-2.58,6.41-4.84,9.37-8.27a84.13,84.13,0,0,0,6.61-9.45c1.86-2.87,5.48-5.81,6.15-9.18C142.22,27.9,141.2,26.42,139.87,26.93Z" transform="translate(12.4 15.7)"/><path class="cls-17" d="M137.29,32.08a3.75,3.75,0,0,0-.5.21c0-.36,0-.72-.1-1.06-.24-1.58-2.6-1.37-3,0a5.45,5.45,0,0,1-1.07,1.58,10.64,10.64,0,0,0-1,1.87,2,2,0,0,0,0,1.83c-1.7,1.51-3.24,3.06-4.83,4.72-3,3.09-6.55,5.82-9.55,9-2,.14-4.1,2.74-4.81,4.41a3.37,3.37,0,0,0,.34,3.42,3.76,3.76,0,0,0,2,1.44c.17.51.42,1,.57,1.52a7.75,7.75,0,0,0,.55,1.79c0,.07,1.26,1.76,1.16.94.16,3.25,5.16,3.31,5.12.09a2.67,2.67,0,0,0,.4-2h0a1.91,1.91,0,0,0-2.35-2.32c-.74-1.38-1.76-2.61-3.13-2.66,0-.1,0-.21,0-.32a1.36,1.36,0,0,1,0-.17,9,9,0,0,0,.64-.73,8.18,8.18,0,0,0,1-1.69c2.11-1.77,4.48-3.19,6.57-5a55.15,55.15,0,0,0,4.84-5.07c1.7-1.93,3.4-3.91,5-5.94,1.09-1.41,3.31-3.21,3.1-5.09A.73.73,0,0,0,137.29,32.08Z" transform="translate(12.4 15.7)"/><path class="cls-17" d="M140,28.48a1.17,1.17,0,0,0-1.39.87c-.26.72-.52,1.39-.85,2.09a.39.39,0,0,0,.68.39,13.24,13.24,0,0,1,1.28-1.42,2.64,2.64,0,0,0,.78-1.06A.73.73,0,0,0,140,28.48Z" transform="translate(12.4 15.7)"/><path class="cls-18" d="M142.16,53.52a5.36,5.36,0,0,0-3.76-2.61l-1.15-.24c-.24-.37-.44-.66-.51-.75-1.65-1.93-4-1.83-6-.68a2.78,2.78,0,0,0-1.07.54c-1.45,1.15-3.71,2.81-3.59,4.87.14,2.51,2.31,3.6,4.53,3.72a2,2,0,0,0,1.65-3.12,1.21,1.21,0,0,0,.16-.16,5,5,0,0,0,.54.35,6.33,6.33,0,0,0,1.39,2.36c1.43,1.32,3.3,1.27,5.05.8a2.86,2.86,0,0,0,3.28-1.94c0-.17.08-.33.13-.5A2.82,2.82,0,0,0,142.16,53.52Z" transform="translate(12.4 15.7)"/><path class="cls-18" d="M147.26,30.13c.13-2.67-4.22-3.42-4.84-.9a.2.2,0,0,1,0,.08c-.09.13-.19.24-.27.37a1.19,1.19,0,0,0-.1.28,2.89,2.89,0,0,0-.49,2,22.76,22.76,0,0,1-4.09,6.26c-2.16,2.66-6.19,4.75-6.5,8.38-.15,1.89,2.45,2.28,3.35.9.77-1.19,2.13-1.76,3.16-2.74a32.58,32.58,0,0,0,3.77-5,55.33,55.33,0,0,0,3.31-5.13c.06-.11.39-.65.64-1.16A4.38,4.38,0,0,0,147.26,30.13Z" transform="translate(12.4 15.7)"/><path class="cls-19" d="M145.52,28.27c-1.58,1.82-2.6,4-4,5.94a56.4,56.4,0,0,1-5.45,6c-2.31,2.44-6.24,6.25-4.16,9.8l.07.07a7.25,7.25,0,0,0-.3,4.1,1.53,1.53,0,0,0,1.3,1.28c-.67,2.3,1.5,4,3.49,4.47a4.17,4.17,0,0,0,3.1-.32,3.61,3.61,0,0,0,1.32-1.34l.06-.13a2.79,2.79,0,0,0,0-4,3.54,3.54,0,0,0-2.7-.91,2.09,2.09,0,0,0-1.62.27,2.78,2.78,0,0,0-1.37-.08c-.11-1.1-.21-2.19-.36-3.25a3,3,0,0,1-.5-.8c.08-2.5,2.58-4.86,4.21-6.52s3.61-3.15,5.08-5.17c1.7-2.31,3-4.84,4.6-7.17C149.52,28.79,146.86,26.72,145.52,28.27Z" transform="translate(12.4 15.7)"/><path class="cls-20" d="M117.36,65.31a3.15,3.15,0,0,0-1-.32l-.06-.12a2.56,2.56,0,0,0-.11-.24.87.87,0,0,0-.07-.17,2.15,2.15,0,0,0-.14-.26,3,3,0,0,0-.25-.34l-.07-.09,0,0a2.55,2.55,0,0,0-.3-.26c.55-8.05-18.17-11.49-29.25-6.44a2.4,2.4,0,0,0-.88,0c-3.72.82-13.56,7.44-9.93,12.22A4.08,4.08,0,0,0,78.06,71C81.41,76.77,93,80.74,97.5,81.4c2.49.36,5.47-2.85,2.86-4.92a58,58,0,0,0-6.12-4c-2.39-1.43-6-3.83-5.6-5.92,1.22-.9,2.35-1.8,3.35-2.45a1.15,1.15,0,0,0,1.39.43,3.83,3.83,0,0,0,1.55-1,3.42,3.42,0,0,1,3.75-1.09,23.22,23.22,0,0,1,7.41,2.78c2,1.27,3.66-1.48,2.29-3,1.33.4,2.22.83,2.4,1.22l0,0a5.77,5.77,0,0,0-.15,1.16,1.63,1.63,0,0,0-.26.84,3.81,3.81,0,0,0,1,2.26,4.82,4.82,0,0,0,.72,1.36c-.33-.47.3.59.41.77a7.71,7.71,0,0,0,.81,1.07,3,3,0,0,0,4.94-1.31,1.29,1.29,0,0,0,0-.19,1,1,0,0,0,0-.2.21.21,0,0,1,0-.06A2.84,2.84,0,0,0,117.36,65.31Z" transform="translate(12.4 15.7)"/><path class="cls-20" d="M106.75,213.07c-.67-.66-1.36-1.3-2.08-1.9a.63.63,0,0,0-.89.89c.55.67,1.08,1.37,1.57,2.09C106.09,215.23,107.66,214,106.75,213.07Z" transform="translate(12.4 15.7)"/><path class="cls-20" d="M116.32,130.43c4.36-11.56,4.38-25.41,4.71-37.31.41-2.18-3.19-3.64-4.14-1.41-1.86,4.37-1.14,10.32-1.62,15a118.8,118.8,0,0,1-2.21,13.55c-.06.28-.43,1.59-.86,3.22a2.92,2.92,0,0,0-1.67,1.6,28.11,28.11,0,0,0-2.06,9.28,2.63,2.63,0,0,0,1.92,2.52l.55.08a4,4,0,0,0,.77,0,4.68,4.68,0,0,0,4.29,3.2,1.58,1.58,0,0,0,1.52-2C117,135.65,116.66,133,116.32,130.43Z" transform="translate(12.4 15.7)"/><path class="cls-20" d="M183,144.29c-1.85-.55-3.51,0-5.43-.09s-3.62-.8-5.5-.89c-4-.2-7.39,1.33-11.11,2.45-3.14.93-7.22,1.94-9-1.62-2.13-4.34,1-11.93,3.19-15.74,1.24-2.21-1.94-4-3.35-2-4.85,6.91-11.53,22.83,1.34,26.21,4.43,1.16,9.73-1.23,13.86-2.56,5.43-1.75,11.32,0,16.37-2.83A1.64,1.64,0,0,0,183,144.29Z" transform="translate(12.4 15.7)"/><path class="cls-20" d="M199.81,206.09c-4.09,0-14.39,2.21-17.62,6.84l-.73-.39a50.42,50.42,0,0,0,.45-6.71c.09-.69.17-1.37.21-2.06.16-2.9-.48-5.79-.57-8.68-.09-3.15-4.94-3.17-4.91,0,0,3.64.24,7.18.11,10.72a15.51,15.51,0,0,0-1,6.45c-.4.09-.79.2-1.17.32a1.79,1.79,0,0,0-2-.23c.28-.12-.25,0-.26,0a5.61,5.61,0,0,1-.71,0c-.43,0-.87-.13-1.46-.18-1.46-.14-2.07,1.76-1.42,2.77-2.64.68-5.36,1.14-7.67,2.45a2.16,2.16,0,0,0-.35.24c-.57.07-1.14.12-1.72.2a8.29,8.29,0,0,0,3-1.64,1.91,1.91,0,0,0-.39-3,13.72,13.72,0,0,0-5-1c-1.74-.18-3.38-.93-5.14-.85a8.26,8.26,0,0,0-3.54,1,5.09,5.09,0,0,0-6.1,6.82,4.19,4.19,0,0,0,.84,1.32l-1.05.2c-2.67,0-5.31,0-8,.29a58.16,58.16,0,0,1-16.67-.68l-.13,0a40.53,40.53,0,0,0-5.88-3,1.27,1.27,0,0,0-1.55.47c-1.82-.79-3.62-1.64-5.4-2.47a2,2,0,0,0-1.77-1.69c-5.35-.77-9.48,1-14.62,1.51a66.09,66.09,0,0,1-9,.48,3,3,0,0,0,.7-2,8.39,8.39,0,0,0,3.83.87,2.49,2.49,0,0,0,1.8-4.13,10.87,10.87,0,0,0,2.46-.86c4.54-2.12,5.25-2.65,5-7.29-.12-2.28-.21-4.51-.27-6.74,1.52,4.93,4.83,7.78,9.68,10.59,5.78,3.34,12.39,5.17,18.89,6.59,3.2.71,8.12,2,11,.11,1.6-1.07,1.7-4.21-.6-4.58-7.88-1.27-16.08-2.12-21.73-8.54-7.7-8.75-12.48-19.11-8.45-30.71.84-2.43-2.92-3.64-4-1.53a22.72,22.72,0,0,0-2.72,6.53l-.21-.81a1.3,1.3,0,0,0-2.48,0,28.23,28.23,0,0,0-1.08,6.48,2.22,2.22,0,0,0-2.28,2,79.32,79.32,0,0,0-.33,15.17c.38,3.74,2.71,6.89-.89,8.95a6.84,6.84,0,0,1-4.16.73,2.28,2.28,0,0,0,.06-1.38c-1.19-4.67-4.69-9.79-7.37-13.76a2.41,2.41,0,0,0-3-.94A23.26,23.26,0,0,1,71.25,188c-2-4.54-2.67-9.26-4.36-13.83a1.16,1.16,0,0,0-1.92-.51c-3.2,3.43-.36,8-1.19,11.81a64.14,64.14,0,0,1-4.14-14.63c.13-4.54.39-9.09.61-13.62a2.27,2.27,0,0,0-.08-1c2.13-.27,4.22-.74,6.42-.83,2.67-.1,5.16.26,7.86-.13,1.4-.2,2.78-.42,4.17-.66a55,55,0,0,0,14.25-2.84c2-.35,3.5-.5,3.7-3.22.17-2.39-2.94-3.3-4.5-1.86a1,1,0,0,1-.17.12c.67-.9,1.69-1.19-2.18-.78-1.68.18-3.25,1-4.89,1.43-3.47.83-7.32,1.19-10.88,1.71-.78,0-1.55,0-2.35,0-4.38-.08-8.7-.46-13.06-.77-2-.14-4.38-.71-6.3-.58,1.13-.08-3.59-.5-2.91.38-1.65-1.78-.15-7.28.41-8.95,1-3.06,3.11-4.87,5-7.31a42.36,42.36,0,0,1,6.83-7.54l.84-.75a45.31,45.31,0,0,0,9.74-5.15,3,3,0,0,0,1.06-.3c3.37-1.67,4.69-8.25,6-11.45,2.55-6.47,5.83-12.61,8.92-18.83.84-1.67-1-4.22-2.86-2.86a43.84,43.84,0,0,0-9.67,10.7A31.39,31.39,0,0,0,72.17,103c-.21.6-.38,1.28-.55,2l-.26,0c-4.77.31-6.83,5.79-8.44,9.85A1.36,1.36,0,0,0,62.1,116c0,.23,0,.45,0,.68a50,50,0,0,0-4.76,3.6,15.65,15.65,0,0,0-1.56.65,1.7,1.7,0,0,0-1.19-2.44A19.21,19.21,0,0,0,56,116a1.84,1.84,0,0,0-2.5-2.5,16.51,16.51,0,0,0-5.69,4.75,2.86,2.86,0,0,0-1.9-.57c.37-2,.74-4,1.2-5.77s1-3.65,1.54-5.5c.23-.51.47-1,.7-1.5.8-1.75,1.7-3.85,2.7-6.08,4.75-6.09,8.52-13,13.78-18.73a2.75,2.75,0,0,0,.24-3.64c1.93-1.92,3.74-4.07,6-5.46a2.86,2.86,0,0,0-1.44-5.29c-3.33-.14-4.76,1.87-7,4C60,73.05,56,76,52.58,79.59c-1.46,1.51-2.9,3.12-4.27,4.78a2.35,2.35,0,0,0-1.66.21c-3.86,2-5.57,7.24-7.54,10.86-3.07,5.62-6.27,11.26-8.42,17.31-2.64,7.4-5.09,16.76-5.34,25.58-2.52,6.5-2.08,14.33-1.58,21,.16,2.16.25,4.56.5,7a77.92,77.92,0,0,0,3.16,18.88c.33,8.62,11.27,20.47,16.19,24.21a30.21,30.21,0,0,0,14.23,6,12.29,12.29,0,0,0,3.78,0,2.29,2.29,0,0,0,.81-.45,22.94,22.94,0,0,0,6,5c3.78,1.9,8.18,1.39,12.29,1.33a56.69,56.69,0,0,0,11.71-1c2.44-.53,5.71-.36,8.32-1,4.1,2.41,8.1,5.17,12.74,6.34.64.16,1.27.29,1.91.42,4.83,2.49,11.09,2.62,16.36,2a90.11,90.11,0,0,0,9.39-1.76,72,72,0,0,0,18.22-3.92,2.08,2.08,0,0,0,1-.76l.11,0a2.57,2.57,0,0,0,2.07,1,21.89,21.89,0,0,0,9.53-2c.68-.33,9.23-4.1,9.23-4.1a2.12,2.12,0,0,0,3.09,1.26c4.92-3.69,11.62-4.92,16.56-9A1.54,1.54,0,0,0,199.81,206.09Zm-97.17-5.67a15.19,15.19,0,0,1-4.78-6.09,1.2,1.2,0,0,0-.14-.65,11.87,11.87,0,0,1-.68-1.59c-.18-.61-.33-1.23-.47-1.86A71.28,71.28,0,0,0,102.64,200.42ZM69.25,110.91c-.08.78-.21,1.57-.26,2.33a2.54,2.54,0,0,0,0,.39,9.87,9.87,0,0,0-2,.49A16.83,16.83,0,0,1,69.25,110.91ZM40.68,169c-.13-.35-.29-.69-.44-1-.2-1.32-.37-2.64-.51-4-.08-1.17-.15-2.35-.19-3.52a2.56,2.56,0,0,0,.64.32c0,.14,0,.27.07.41a1.29,1.29,0,0,0-.2,1.22c.32,1,.63,2,1,2.94,0,.29.11.58.16.88A6.77,6.77,0,0,0,40.68,169Zm.75-33.17A2.89,2.89,0,0,0,40,134.43l.08-.08a14.51,14.51,0,0,0,1.74-2.46,3.43,3.43,0,0,0,1.08,1A29.76,29.76,0,0,0,41.43,135.81ZM54.29,192.7c-.48-1.74-1-3.47-1.35-5.23l-.18-.89a3.27,3.27,0,0,0,.24-1.42c.35.79.7,1.57,1.06,2.35.23,2.42,1,4.9,1,7.37C55,196.81,54.44,193.25,54.29,192.7Zm-.67-23.93a45.26,45.26,0,0,0-3.13-6.27c-1-1.62-4-1.09-3.81,1,.1,1.18.26,2.35.45,3.53a2,2,0,0,0-.14-.25c-.39-2-.72-3.85-1-5.56-.11-.64-.22-1.32-.34-2a8.71,8.71,0,0,0,1.07.79,2.92,2.92,0,0,0,3.46-.44,5.23,5.23,0,0,0,1.76-3.66,26.86,26.86,0,0,0,3.22.35C54.48,160.26,53.93,164.48,53.62,168.77Zm12.89,22.68c-.46-.89-.91-1.84-1.36-2.81a1.48,1.48,0,0,0,.3-.31c1.46-2.28.81-4.87.84-7.48,0-.43,0-.85,0-1.28.28,1.23.56,2.43.72,3.13.85,3.6,1.47,7.37,3.28,10.64.19.34.4.64.6,1a26.3,26.3,0,0,0,1,5.76A54.35,54.35,0,0,1,66.51,191.45Zm82.74,27.82a4.5,4.5,0,0,0,1.31-1.39,3.07,3.07,0,0,1,1.75-.41c1.46.09,2.73.61,4.16.69C154.06,218.48,151.65,218.86,149.25,219.27Z" transform="translate(12.4 15.7)"/><path class="cls-21" d="M116.89,64.63h0a.31.31,0,0,0-.07-.09,1,1,0,0,0-.12-.17l-.1-.1a24.32,24.32,0,0,0-3.55-3.74,1.22,1.22,0,0,0-.13-.46c-2.1-3.75-7.78-5-11.78-5.76-5.79-1.06-13.11.54-18.89,3.13A1.68,1.68,0,0,0,80,57.36a9.14,9.14,0,0,0-2.43,2.69c-3.06,2.26-4.07,5.15-2,8.74.28.47.57.91.88,1.33a7.66,7.66,0,0,0,1.63,2.55,20.54,20.54,0,0,0,8.36,4.79c2,.61,4,1.45,6,2.14.75.34,1.5.68,2.23,1.06a1.72,1.72,0,0,0,1.61,0c.23,0,.46.09.69.11a2.09,2.09,0,0,0,2-1.52c1.11-2.89-6.85-5.46-8.55-6-.64-.21-1.31-.41-2-.62a35.68,35.68,0,0,1-4.93-3.36c-2.58-2.17-3.34-3.32-1.12-5s5.85-2.62,8.47-3.25,5.42-1.2,8.07-1.55c.4-.05,2.48-.63,3.92-1,2.09,1,4.33,1.42,6.08,2.93,2,1.76,4.15,4.9,7,5.26C116.79,66.66,117.32,65.39,116.89,64.63Z" transform="translate(12.4 15.7)"/><path class="cls-21" d="M171.38,216.78a19.8,19.8,0,0,0-5.46,1.76c-1.34.7-2.49,1.91-3.84,2.61a1.49,1.49,0,0,0-1.45-.39L155.49,222a1.41,1.41,0,0,0-2-1.7c-.7.37-1.55.68-1.91,1.44a1.26,1.26,0,0,0,.07,1.13c-9.4,2.08-19.06,3.66-28.55,2.76a31,31,0,0,1-15.59-5.38c-3-2.08-5.51-3.29-9.35-2.4-2.53.58-1.46,4.44,1.08,3.89,3.52-.77,10.08,4.35,13.63,5.58,4.36,1.52,9.17,1.92,13.78,2.11a66.85,66.85,0,0,0,15.71-1.23c4.67-.91,9.31-1.87,14-2.74a15.87,15.87,0,0,0,4.66-1.4,1.19,1.19,0,0,0,.62.13c2.15-.13,3.75-1.1,5.63-2,1-.48,2.08-.52,3-1a5.19,5.19,0,0,0,2.39-2.65A1.16,1.16,0,0,0,171.38,216.78Z" transform="translate(12.4 15.7)"/><path class="cls-21" d="M126.48,207.6c-4.69-4.64-11.66-5.42-16.21-10.45-2.6-2.87-6-7.06-7.4-10.6-1.86-4.56-1.32-10-1.2-14.85.07-3.09-4.6-3-4.78,0-.26,4.46-1.23,9.27-.48,13.76a12.13,12.13,0,0,1-1.08-4.24A3.34,3.34,0,0,0,94.6,179a1.43,1.43,0,0,0-1.43-.38c-2.19.57-2.49,3.29-2.76,5.19-.46,3.31-.09,7.56,1.92,10.37a7.59,7.59,0,0,0,5,3.14c1.21,1.71,3,2.9,5.15,2.41a2,2,0,0,0,1.21-.93l.6.74c4.7,5.78,13.22,11.36,20.83,11.32A1.93,1.93,0,0,0,126.48,207.6ZM97.17,190.5l-.4.2a4.34,4.34,0,0,1-.83-1,11.2,11.2,0,0,1-1-2.94A39.14,39.14,0,0,0,97.17,190.5Z" transform="translate(12.4 15.7)"/><path class="cls-21" d="M45.45,171.54c.67-1.59-2.07-2.76-2.8-1.18a3,3,0,0,0-.26,2.38,3.84,3.84,0,0,0,.56,1c.19.27.24.6.45.87a.9.9,0,0,0,1.4.18c.53-.54.43-1.06.4-1.76,0-.26-.08-.55-.07-.8C45.11,172.6,45.41,171.64,45.45,171.54Z" transform="translate(12.4 15.7)"/><path class="cls-21" d="M81.7,216.82c-2.26-.24-4.71-.33-6.92-.67-.34-.06-2.89-.86-5-1.45a6,6,0,0,0-.54-.9,1.82,1.82,0,0,0-.29-2.13,4.49,4.49,0,0,0-2.93-1.28l-.69,0a41.61,41.61,0,0,1-3.76-2.67A28.4,28.4,0,0,1,57,202.53h0c-.63-1.18-1.33-2.3-2.07-3.41-3.48-6.66-4.68-14.15-7.69-21.52-.56-1.38-3-1.4-2.84.38a45.93,45.93,0,0,0,.84,6.36c0-.08-.08-.16-.12-.24-2.62-6.19-2.36-13.14-5.41-19.17a1.86,1.86,0,0,0-1-.91c.28-1.81.53-3.62.72-5.47.12-1.21.17-2.47.24-3.75a1.68,1.68,0,0,0,.29-.2,6,6,0,0,0,1.76-3,3.64,3.64,0,0,0,1.8.71,3.55,3.55,0,0,0,3.39-1.75,2.94,2.94,0,0,0,.93-.17c6.07,3.18,15.42,2.72,21.45,2.19,8.43-.75,16.42-3.16,24.66-4.77,1.38-.26,1.43-2.62,0-2.84-6.87-1.05-15.29.74-22.13,1.78a59.77,59.77,0,0,1-12,.25c-3.25-.17-6.33-1.12-9.47-1.56a6.42,6.42,0,0,0-.37-2.58,3.13,3.13,0,0,0-.34-.62,29.75,29.75,0,0,1,1.08-3.43c.74-1,1.46-2,2-2.81,1.69-2.69,6.18-7.81,5.28-11.16a1.74,1.74,0,0,0-.41-.74c2.44-1.91,5-3.66,7.32-5.26,1.35-.91.54-3.5-1.19-2.82-7.22,2.81-11.53,7.93-16.15,13.76a2.76,2.76,0,0,0-3.07.1,15.54,15.54,0,0,0-.52-5.74,2,2,0,0,0-1.88-1.44c-2.46.17-3.07,3.21-3.6,5.15a32,32,0,0,0-1.52,9.8,1.72,1.72,0,0,0,2.79,1.26,2,2,0,0,0,1,1.29c-.28.59-.55,1.18-.8,1.78a2.83,2.83,0,0,0-.48.34,11.73,11.73,0,0,0-3,3.88,1.35,1.35,0,0,0-2.23.2c.4-3,.71-6,1.32-8.84,1.63-7.65,3.32-15.3,5-23a2,2,0,0,0-3.33-1.8c.6-1.45,1.19-2.9,1.83-4.33.71-1.6,1.36-3.28,2-5a0,0,0,0,0,0,0,55.58,55.58,0,0,0,4.51-8.39c.87-1,1.7-1.86,2.26-2.57,1.79-2.29,3.6-4.59,5.47-6.81a1.82,1.82,0,0,0,2.7.34c2.38-2,4.05-4.92,5.93-7.34,1-1.32,2-2.66,3-4,.43-.59.79-1.23,1.21-1.82.29-.41,1.19-1,.59-1.06A1.45,1.45,0,0,0,68,69.67l-.29-.42a1.76,1.76,0,0,0-2.32-.61,9.46,9.46,0,0,0-2.28,1.5,1.9,1.9,0,0,0-.76.55c-1.93,1.91-4.92,3.06-7,5a91.31,91.31,0,0,0-8.57,9.24l-.63.74a2.25,2.25,0,0,0-.52.17c-3.92,2.09-6.5,6.77-8.51,11.63a14.72,14.72,0,0,0-.75,1.88c-1.14,3-2.11,5.83-3.08,8.16a25.41,25.41,0,0,0-2.88,6c-2.66,5.37-5.7,12.15-4.25,16.54a54.85,54.85,0,0,0-2,15.3c-2.44,5.44-2.19,12.93-1.36,18.62.23,1.61.5,3.21.78,4.82a22.79,22.79,0,0,0,.55,5.41,1.45,1.45,0,0,0,.11.25c-1.59,2.72-.25,8,1.52,12.61a18.37,18.37,0,0,0,1,4.52,2.9,2.9,0,0,0,1.83,1.79l.86,1.65c4.73,8.69,12.32,16.44,21.87,19.64a2.14,2.14,0,0,0,1.83-.21l1.31.49c3.74,1.3,7.62,3.59,11.52,4.36a22.92,22.92,0,0,0,9,2.77c6,.33,13.42,2.57,18.89-.49a1.6,1.6,0,0,0,.32-2.5C90.78,216.41,85.82,217.25,81.7,216.82ZM31.33,157.14a2.2,2.2,0,0,0,.6-.81,30.5,30.5,0,0,0,1.68-5.76c-.41,2.88-.84,5.88-1.19,8.94a2.09,2.09,0,0,0-1.29.3C31.2,158.92,31.27,158,31.33,157.14Zm8,29.67a1.64,1.64,0,0,0,.49-1.05c.42,1,.87,2.08,1.36,3.09C40.62,188.13,40,187.45,39.36,186.81Zm18.56,22.86c-1.3-.42-2.58-.84-3.79-1.37a24.54,24.54,0,0,1-6.77-4.57,10,10,0,0,0-.23-5.23,66.79,66.79,0,0,0,6.07,7,2.21,2.21,0,0,0,1.82.72,34.79,34.79,0,0,0,3.09,3.5Z" transform="translate(12.4 15.7)"/><path class="cls-21" d="M82.84,82.45c-2.37,5.09-4.53,10.19-7.18,15.14-3.71,6.2-7.34,12.69-8.07,19.75-.18,1.8,2.78,2.64,3.5,1a8.09,8.09,0,0,1,.4-.84,1.7,1.7,0,0,0,.17-.51l0,0C75.31,111,77.56,104.24,80.55,98,82.78,93.37,85,88.17,84.68,83,84.63,82.06,83.29,81.5,82.84,82.45Z" transform="translate(12.4 15.7)"/><path class="cls-21" d="M120.21,84.43l0,0a1.37,1.37,0,0,0-2.52-.36c-1.67,2.56-1.5,7.11-1.72,10.13-.15,2-.36,4.1-.4,6.19-1,6.61-.33,13.9-2.34,20.1a1.82,1.82,0,0,0,.11,1.48c-.64,6.07-3.8,11.22-1.86,17.43a1.6,1.6,0,0,0,3,0,57.41,57.41,0,0,0,3-18.61.43.43,0,0,0,0,0c1.32-4.74,1.17-9.81,1.2-14.81a1.55,1.55,0,0,0,.47-.7c1-3.27.74-7,.89-10.38S120.86,87.79,120.21,84.43Z" transform="translate(12.4 15.7)"/><path class="cls-21" d="M177.61,142.48c-3.69-1-7.38.48-11.05.73-2.53.18-5.11.08-7.63.16-3.64.11-4.89,1.27-5.73-3a25.32,25.32,0,0,1,1-4.27,20.34,20.34,0,0,0,.83-7.59c-.16-1.39-2.33-2-2.66-.36-.67,3.21-2,6.15-2.93,9.25-.74,2.37-1.66,6,.69,7.66,1.2,3.4,4.2,3.55,9.35,3.06,3.33-.32,6.82-.13,10.12-.82,2.65-.56,6.06-.66,8.41-2.07A1.55,1.55,0,0,0,177.61,142.48Z" transform="translate(12.4 15.7)"/><path class="cls-21" d="M193.06,211c-2.81-.5-5.82,1.33-8.56,1.9a27.32,27.32,0,0,0-5.18,1.92c-1.33.56-2.67,1.68-4,2.11a1.41,1.41,0,0,0,0,2.7c3.39,1.43,6.88-.68,10-2.16,2.37-1.13,7.88-2.26,8.52-5.18A1.07,1.07,0,0,0,193.06,211Z" transform="translate(12.4 15.7)"/><path class="cls-21" d="M180.8,206.71c0-1.87,0-3.75-.07-5.61a1.45,1.45,0,0,0-2.67-.73c-.88,1.29-.68,3.16-.67,4.64v.19c-.06.51-.12,1-.17,1.51-.22,1.88-.73,3.89,0,5.7a1.6,1.6,0,0,0,1.65,1.11,1.32,1.32,0,0,0,1.44-1.15C181,210.65,180.76,208.55,180.8,206.71Z" transform="translate(12.4 15.7)"/><path class="cls-22" d="M113.18,86.23c-.19-3.44-5.19-3.55-5.48-.2-2.75-.12-6.07-1.28-8.66-1.88-2.2-.51-4.64-1.66-6.84-1.7A1.71,1.71,0,0,0,91,85.25c.16.22.32.44.5.65-1,2,1.14,4.09,3.19,3.73l.94.55-.3.07c-3.28,1-4.11,6.24-2.69,8.9a3,3,0,0,0,4.68.59c1.74,1.49,5.09.8,5-2.14v-.14a3.37,3.37,0,0,0,.86.12,3.1,3.1,0,0,0,.7-.06c.13.51.26,1,.43,1.52.41,1.22.94,2.36,1.4,3.53.4,1.84.81,3.68,1.21,5.53.12,2.16.14,4.2,1.5,6.07.93,1.28,3.21.58,2.71-1.14a4.38,4.38,0,0,0-.57-1.29,1.77,1.77,0,0,0,.27-.72,10,10,0,0,0,.09-1.11c.29-.76.86-1.85.91-2.2a5,5,0,0,0-.32-2.31,2.91,2.91,0,0,0,1.34-2.37A154.4,154.4,0,0,0,113.18,86.23Z" transform="translate(12.4 15.7)"/><path class="cls-22" d="M75.74,81.27a58.84,58.84,0,0,0-4.58,5.79c-1.52,2-2.92,4-4.42,6-1.1,1.46,1.27,3.23,2.5,1.93,1-1,2.08-1.94,3-3s1.61-2.31,2.51-3.41c1.4-1.7,3.29-4.11,3.39-6.36A1.41,1.41,0,0,0,75.74,81.27Z" transform="translate(12.4 15.7)"/><path class="cls-22" d="M114.91,74.73c-1-1.16-2.77-.76-4.07-.51a6.32,6.32,0,0,0-.85.24,1.71,1.71,0,0,0-1.3-.25,4.12,4.12,0,0,0-3.06,1.73,2.74,2.74,0,0,0,1.57,4,5.86,5.86,0,0,0,4.75-.61,17.31,17.31,0,0,0,1.68-1.16c.81-.55,1.32-.8,1.71-1.77A1.68,1.68,0,0,0,114.91,74.73Z" transform="translate(12.4 15.7)"/><path class="cls-22" d="M177.76,54.42c0-.08,0-.16,0-.24a5.85,5.85,0,0,0-4.48-5.58c-6.23-1.92-15,.08-21.45.48-3.84.25-3.91,5.93,0,6l.69.19c.51,1.82,2.26,3.27,4.21,1.86l.55-.4a2.37,2.37,0,0,0,.49-.11c.45.23.84.46,1.21.68a3.22,3.22,0,0,0-1.28.35c-3.48,1.85-3.93,4.89-2.8,7.34-.91,1.13-1.75,2.22-1.76,2.28a2.64,2.64,0,0,0-4.8-2c-.24.37-.73,1.11-1.29,1.93a.08.08,0,0,0,0,0c-.41-1.14-1.55-2.38-2.92-2.22a5.76,5.76,0,0,0-2.76,1.13,4.29,4.29,0,0,0-.42-.68c-3.4-4.59-8.07-.45-10,3.33-2.14,1.31-3.72,3.11-4,5.41-.46,4.09,2.6,5.72,5.82,5.52a13.37,13.37,0,0,0,8.11-1.94c.41-.18.81-.37,1.2-.58,2.41.8,4.86-1.27,6.89-3.74,1.17,1.35,3.14,1.75,6,.24a16.6,16.6,0,0,0,5.05-4.75,5.71,5.71,0,0,0,3.47-.67c5.3.46,11.38-3.42,13.59-8a7.56,7.56,0,0,0,.57-1.63c.2-.28.37-.54.53-.79A2.7,2.7,0,0,0,177.76,54.42Z" transform="translate(12.4 15.7)"/><path class="cls-22" d="M160.06,98c-.77-5.13-.85-11.54-3.43-16.16a3.06,3.06,0,0,0-4.74-.61c-1.86,1.72-2,2.53-4.68,3.17A51.49,51.49,0,0,1,136,86.12c-3.89,0-8.4-.77-10.17,3.54a2.66,2.66,0,0,0,.71,2.69c1.95,1.62,3.31,3.6,5.16,5.13a2.62,2.62,0,0,0,4.05-.52,19,19,0,0,1,2.7-4.22,2,2,0,0,0,.53-1.23l1.13-.09a2,2,0,0,0-.35.88q-.06.38-.09.78c-3.41,4.17-4,12.32.23,14.73a3,3,0,0,0,1.23.37,5.06,5.06,0,0,0,3.13,2,6,6,0,0,0,2,0,5.72,5.72,0,0,0,1.74,1.62,2.18,2.18,0,0,0,0,.72c-.08.12-.17.23-.24.35-.21.36-.39.74-.58,1.11a3.6,3.6,0,0,0-1.33.66c-2,1.55-2.68,4.89-2.92,7.23-.33,3.21,4.76,3.78,5.54.75a21.39,21.39,0,0,1,.74-2.22,3,3,0,0,0,1.75-2.54,2.6,2.6,0,0,0,0-1.11,3.88,3.88,0,0,0-.17-.71l.18-.74c1.68.46,2.71-1,2.76-2.53l.13,0a3,3,0,0,0-.52-1.91l.49-.51c.1.34.19.67.3,1a2.7,2.7,0,0,0,1.31,2.46,2.67,2.67,0,0,0,1.75.34,2.44,2.44,0,0,0,2.69-1.45C161.89,108.32,160.77,102.63,160.06,98Z" transform="translate(12.4 15.7)"/><path class="cls-22" d="M141.32,141.18a41.22,41.22,0,0,0,.25-6.68,2.85,2.85,0,0,0-3.83-2.76,6.35,6.35,0,0,0-1.83-4.46,2.91,2.91,0,0,0-4-.11,2.92,2.92,0,0,0-.72-.33c-2.11-4.61,2.57-10.35,5.25-13.73,1.89-2.39-1.31-5.81-3.43-3.43-5.59,6.29-12.16,14.43-5.33,22.58.48,3,1.14,6.14,3.78,7.91.69,2.37,1.84,4.38,3.69,5.25l.12.05c0,.83,0,1.66,0,2.49a2.92,2.92,0,0,0,.48,1.7c0,.64-.09,1.29-.06,1.94a4.44,4.44,0,0,0,.43,1.9,2.89,2.89,0,0,0,.58.77c.09.08.89.77.45.35a2.29,2.29,0,0,0,3.79-2.21,3.26,3.26,0,0,0-.22-.73c0-.16,0-.33,0-.49,0-.56.06-1.11.08-1.66a3,3,0,0,0,.49-1.57c0-.73,0-1.37,0-2C141.31,144.39,141.31,142.78,141.32,141.18Z" transform="translate(12.4 15.7)"/><path class="cls-22" d="M149,160a2.63,2.63,0,0,0,.22-1.72A5.94,5.94,0,0,0,148,156a20.3,20.3,0,0,0-2.13-3c-2-1.78-4.9,1.13-2.93,2.92a2.68,2.68,0,0,1,.55,1.12,8.6,8.6,0,0,0,1.07,2c.51.71.83,1.45,1.67,1.84a2.67,2.67,0,0,0,1.84.26,1.34,1.34,0,0,0,1-1C149.09,159.71,149.21,159.38,149,160Z" transform="translate(12.4 15.7)"/><path class="cls-22" d="M158.52,173.39c-.08-2.26-.46-5-2.39-6.4-1.66-1.21-3.84.44-3.88,2.23a3.39,3.39,0,0,1-.55,1.28,2.34,2.34,0,0,0,.91,3.2c0,.34,0,.68,0,1,0,.1,0,.45,0,.65a2.46,2.46,0,0,0,0,2.41l.15.26a2.6,2.6,0,0,0,2.28,1.3C158.43,179.07,158.62,176.13,158.52,173.39Z" transform="translate(12.4 15.7)"/><path class="cls-22" d="M96.52,156.35a1.83,1.83,0,0,0-2.45-.64c.16-.08-.27,0-.15,0s0,0-.1,0l-.11-.08a3,3,0,0,0-.82-.36c-2-.71-3.37,2.51-1.45,3.43a5.35,5.35,0,0,0,2.18.72,4.35,4.35,0,0,0,2.26-.58A1.83,1.83,0,0,0,96.52,156.35Z" transform="translate(12.4 15.7)"/><path class="cls-22" d="M224.38,128.48c-.38-2-.85-3.92-1.36-5.85s-.89-3.89-1.47-5.77a3.15,3.15,0,0,0-.56-1c-2.83-8.73-6.31-17.21-8.58-26.21-2.71-10.76-6.56-22.83-16.26-29-3.2-2-7.71-4.45-11.32-1.8a8.68,8.68,0,0,0-3.43,6.7,4.14,4.14,0,0,0-3.25,1.38.9.9,0,0,1-.09.1,3.1,3.1,0,0,0-1.92,1.33,7.78,7.78,0,0,0-1,2.28,5,5,0,0,0-1.18.31,3.14,3.14,0,0,0-2.22,2.92,4.34,4.34,0,0,0,1.59,3.54,3,3,0,0,0,2.95.78c.22-.08.39-.19.59-.28a3.24,3.24,0,0,0,3.31-1.33,3.59,3.59,0,0,0,2.84-1.4c.42.76.83,1.53,1.2,2.24-1.77-.74-4.08-.12-4.16,2a3.21,3.21,0,0,0-3.49.49c-2.94,2.59-1.25,4.53,0,7.09.86,1.72.88,4.45,1.31,6.32.69,3,1.9,6.13,2.24,9.19a2.86,2.86,0,0,0,.8,1.72l-.05,0a5.91,5.91,0,0,0-1.35,1.82c-.73.13-1.9.23-2.32.36a24.48,24.48,0,0,0-5.33,2.41,5,5,0,0,0-1.12.94,1.8,1.8,0,0,0-2.25.84l-.32.57a2,2,0,0,0,.31,2.36c2.19,2.43,3.77-.08,5.77-1.15,2.34-1.25,3.88-.09,6.16-.34a3.7,3.7,0,0,0,2.45-1.55,3,3,0,0,0,4.08,1c.11.12.2.25.32.37,1.3,1.26,3.91.82,4.29-1.13-.23,1.2,2.87,5,3.71,6.12a52.82,52.82,0,0,0,4,4.72,1.7,1.7,0,0,0,2.09.42,5.7,5.7,0,0,0,2.06,1.66,3.57,3.57,0,0,0,1.39.35c.14.48.26.92.34,1.25,1.12,4.67,2.44,9.39,3.6,14.15,1.21,8,2.66,16.14,2.8,24.2a3.1,3.1,0,0,0,.54,1.77,31.78,31.78,0,0,0-.75,7l-.09.19a3.45,3.45,0,0,0-1.23-.28c.34-1.95.57-3.65.73-4.79.42-3,.84-8.23-2.18-10.18a3.94,3.94,0,0,0-3.2-.5l-.21-.1a10.62,10.62,0,0,0,.39-1.75,2.64,2.64,0,0,0-.21-1.06c.5-.64.71-1.14.25-1.22a2.29,2.29,0,0,0,2.84-2.17c.8-6,.41-12.81-2.27-18.31a1.41,1.41,0,0,0-2.54.33c-1.3,4.93.11,10.32.32,15.49a8.11,8.11,0,0,0-.85.32c-1.34.59-2.05,1.89-3.17,2.68-2.22,1.55-3.84,1-6.24.93a3.1,3.1,0,0,0-3,3l0,.3c-2.4.62-3.18,4.72-3.34,8.31l-.29-.14c-.93-.49-.4-5.61-.37-6.36.15-3.07-4.12-4-5.6-1.52-1.25,2.07-4,8.91-5.56,3.51a2.82,2.82,0,0,0-5.1-.67c-.61,1.06-1.33,2.71-2.18,4.09l0-.07c-.52-1.25-2.49-1.95-3.24-.42-2.15,4.38-1.53,10-1.86,14.71-.29,4-1,8-1.26,12.06-.26,3.48.67,5.76,1.15,9.11.27,1.92,3.45,2.29,4.23.55A9.3,9.3,0,0,0,168,194c.06-4.11.19-7.83.53-12a68.39,68.39,0,0,0,.17-7.16,19.22,19.22,0,0,1,.75-2.56,2.37,2.37,0,0,0-1.24-2.75c0-.21-.07-.4-.12-.62a2,2,0,0,0,.76-.26,13.15,13.15,0,0,0,3.28-3.21,6,6,0,0,0,5.69,2.57A6.28,6.28,0,0,0,181.7,166c1,3.14,2.94,5.61,6.22,5.31.79,4.15,2.42,10.29,5.47,13.05,1,3.06,2.76,5.29,5.64,5.53,4.19.33,6.88-3.62,8.64-8.4a2.75,2.75,0,0,0,2.23.33,8.13,8.13,0,0,0,2.76-1.6,5.75,5.75,0,0,0,1,1.51,7.12,7.12,0,0,0,.86,3.57,1.55,1.55,0,0,0,2.63,0,9.66,9.66,0,0,0,1.17-2.55,1.32,1.32,0,0,0,.07-.54c2.71-1.46,3.81-6.06,4.31-8.85a7.26,7.26,0,0,0,1,.53,3,3,0,0,0,3.4-1.39C233.9,159.43,227,141.78,224.38,128.48Zm-31.79-19.25c-.47-.22-1-.42-1.43-.63-.73-1.45-.65-3.14-2.66-3.88a3.22,3.22,0,0,0-2.28-.07,4.84,4.84,0,0,0-.84-.73,2.74,2.74,0,0,0,.29-1.4,29.3,29.3,0,0,0-.51-4,2.88,2.88,0,0,0,.82-.07l.7-.17a2.44,2.44,0,0,0,.24-.1c1.35,2.43,2.75,4.76,4.08,6.91,1,1.63,2,3.25,3,4.88A8,8,0,0,0,192.59,109.23Zm7.07-1.74a3.42,3.42,0,0,0,.4-1.28c0-.12,0-.24,0-.36.21.62.43,1.26.67,1.89a15.1,15.1,0,0,0,.21,1.83C200.52,108.88,200.1,108.18,199.66,107.49Zm15,11.85c-.45-1.16-.89-2.32-1.33-3.48-1.45-3.8-2.59-8.93-5-12.23a4.53,4.53,0,0,0-.5-.56c-.53-1-1.07-1.94-1.48-2.71a99,99,0,0,0-5.4-8.91l-.9-2.68c-1.68-4.85-3.61-10.69-7.76-14a3.25,3.25,0,0,0-2.76-.72,41.27,41.27,0,0,0-2.76-4.67,2.31,2.31,0,0,0,.59-2.58c-.64-1.85,1.85-2.72,2.69-2.69,1.21,0,2.1,1.11,3.08,1.72,5.31,3.31,7.44,8.22,9.64,13.85,3.11,7.93,5,16.08,7.21,24.29,1.22,4.64,3.71,8.8,5.33,13.29v0A9.17,9.17,0,0,0,214.66,119.34Z" transform="translate(12.4 15.7)"/><path class="cls-23" d="M134.51,130.56c-3.93-2.76-3.23-6.38-3.48-10.74-.06-1-1.64-1.71-2.15-.58a13.22,13.22,0,0,0-1.37,6c.12,2.23,1.21,3.13,2.16,5a20.92,20.92,0,0,0,1.77,3.38c.35.48,1,.66,1.33,1.05,1.49,2,.88,4.71.79,7-.11,2.85,4.28,2.83,4.42,0C138.22,136.86,138.65,133.46,134.51,130.56Z" transform="translate(12.4 15.7)"/><path class="cls-23" d="M115.44,86.6a2,2,0,0,0-1.23-2.14A3.37,3.37,0,0,0,113,83.3c-1.89-1-5.78.08-7.92.14-3.81.1-7.62-.47-11.42-.62-2.57-.11-2.74,3.69-.85,4.32,1.26.79,2.92.76,4.4,1a37.83,37.83,0,0,0,5.5.93c-.28.84-.52,1.71-.76,2.59a3.13,3.13,0,0,0,3.65,3.75,7.73,7.73,0,0,0,1.46,2.46,2.71,2.71,0,0,0,1.52.79c-.24,3.06-1.13,6.59,1,9.06a1.53,1.53,0,0,0,2.52-.66l0-.1a1,1,0,0,0,.26-.41c.22-.83.43-1.67.62-2.52.06-.3.13-.59.18-.89C114.36,97.77,114.86,92.05,115.44,86.6Zm-5.65,1.74c-.18.51-.39,1-.61,1.55a3,3,0,0,0-.43-.45,8.76,8.76,0,0,0,.07-1c.34-.1.68-.18,1-.3C109.82,88.19,109.81,88.26,109.79,88.34Z" transform="translate(12.4 15.7)"/><path class="cls-23" d="M148.49,68.71c-1.68-2.08-4-1.93-6.32-1.19a6.54,6.54,0,0,0-1.1.5,2.94,2.94,0,0,0-.39-.4,3.19,3.19,0,0,0-3.62-.47,5.65,5.65,0,0,0-3.14,4.92,4.48,4.48,0,0,0-1.39,4.58,2.85,2.85,0,0,0,4.13,1.68,12.66,12.66,0,0,0,2.55-2.46A14.5,14.5,0,0,0,142.88,74a11.11,11.11,0,0,1,2.58-1.68c.94-.28,1.78-.09,2.65-.71A1.9,1.9,0,0,0,148.49,68.71Z" transform="translate(12.4 15.7)"/><path class="cls-23" d="M178.69,46.71c-4.12-1-7.08,3.54-11.34,2.19a2.9,2.9,0,0,0-2.65.59c-4.47-.42-11.6.3-8.67,5.67a3,3,0,0,0,3.33,1.35A6,6,0,0,0,160.7,56a4.45,4.45,0,0,0,2.22,1.53,2.79,2.79,0,0,0,2.74-.72,16.39,16.39,0,0,0,1.44-1.64,6.9,6.9,0,0,0,2,.33,31.52,31.52,0,0,0-2,2.56,2.49,2.49,0,0,0,.31,3.31,23.64,23.64,0,0,1-4.17,3.48,2.82,2.82,0,0,0-3.08.68c-3.06,2.91-.72,1.45-3.58-.07-2-1.07-3.6-.33-5.49.7-3.13,1.69-.37,6.28,2.77,4.73-.37-.84-.32-.75.16.26a4,4,0,0,0,1.11,1.16,4.35,4.35,0,0,0,2.47.91,6.69,6.69,0,0,0,4.79-1.68,2,2,0,0,0,1-.12c4.59-1.76,7.59-5.78,11.51-8.53,3.64-2.54,4.77-5.78,6.36-10C182.27,50.22,181.8,47.47,178.69,46.71Z" transform="translate(12.4 15.7)"/><path class="cls-23" d="M189.57,95.24h0C189.38,95.38,189.29,95.45,189.57,95.24Z" transform="translate(12.4 15.7)"/><path class="cls-23" d="M225.53,125.36c-3.14-11.14-5.14-22.75-8.51-33.78-3.31-10.86-10.12-19.14-16.57-28.22a2.59,2.59,0,0,0-1-.84,27.25,27.25,0,0,0-5.54-5c-2.21-1.47-4.89-2.27-7.16-.64-1.56,1.11-3.86,3.75-2.41,5.78a2.14,2.14,0,0,0,2.82.73l.26-.13a1.56,1.56,0,0,0,.86-1.07,5.62,5.62,0,0,1,1.1-1c3.05,1.09,5.75,4.12,7.31,6.74,1.71,2.87,2.93,7.32,5.87,9a2.35,2.35,0,0,0,.44.17c3.38,5.31,6.77,10.6,8.46,17,1.25,4.7,2.32,9.43,3.41,14.17-1.22-1.27-3.88-.81-3.8,1.42,0,.2,0,.41,0,.62s0,.48,0,.72c-.34-.62-.69-1.24-1.07-1.86a81,81,0,0,1-5.75-11c-1.62-3.83-2.25-7.48-3.55-11.28C199,81.77,194,77,190.21,73.31c-1.66-1.64-3.75-2.33-5.51-3.85-1.55-1.33-2.45-3.39-4.6-3.81a2.43,2.43,0,0,0-2.52,1,3.53,3.53,0,0,0-3.19,1c-.29.29-.52.62-.79.92a2.07,2.07,0,0,1-.38.21c-.36.14-.72.29-1.07.45,0,0,0,.07,0,.11a2.16,2.16,0,0,0,.49,4,4.42,4.42,0,0,0,3.37-.11,5.28,5.28,0,0,0,1.41-.92c.4.22.79.49,1.21.73a2.45,2.45,0,0,0,2.22.09c.22.29.43.59.68.86,1.36,1.48,3.21,2.5,4.61,4s2.85,2.86,4.27,4.34a1.53,1.53,0,0,0,.27.8q.63,1,1.2,2c-1.76-.35-3.32,1.73-3,3.48,0,.24.11.5.16.75a2.7,2.7,0,0,0-.49.23,2.65,2.65,0,0,1-.57.3c-.15-.22-.28-.4-.16-.24a2.78,2.78,0,0,0-3.68-1c-1.65.74-1.7,2.73-1.44,4.24a4.21,4.21,0,0,0,2.05,3,4.3,4.3,0,0,0,4.77-.65l.46-.37c.17-.14.36-.28.52-.44a1.83,1.83,0,0,1,.13-.16,33.94,33.94,0,0,0,3.82,6.9c2,2.75,4.88,4.27,7.7,6.06a1.69,1.69,0,0,0,.62.25l.12.24c1.53,2.74,4,4.83,5.5,7.69.3.56.59,1.13.86,1.7a1.37,1.37,0,0,0,.32.71,40.51,40.51,0,0,1,3.34,11.68,2,2,0,0,0,1.55,1.73c0,1.71,0,3.41,0,5.23.05,2.81.91,5.39.66,8.22-.32,3.48.45,9-1.5,12.33-.23-.81-.45-1.63-.64-2.46a2.42,2.42,0,0,0-.24-.62c0-.06,0-.12,0-.18-.82-2.65-5.19-3.07-5.8,0-.74,3.77-.93,7.64-1.89,11.37-.22.82-.57,1.68-.85,2.53-.47-1.82-1.13-3.92-2.35-5.11a12.34,12.34,0,0,0-.94-5.44,3,3,0,0,0-4.12-1.08c-1.64,1.21-2.09,3-3,4.54a2.44,2.44,0,0,0-1.87,1.86,4.5,4.5,0,0,1-.67,2.21c-.13.16-.76.81-1.12.81a2.11,2.11,0,0,0-.08-1.91,3.55,3.55,0,0,0-3.8-1.73A1.83,1.83,0,0,0,185,164a2.57,2.57,0,0,0,.82,1.33,4.81,4.81,0,0,0,3.25,4.24c2.61.77,4.75-.63,6.25-2.51l.39-.12c0,.57-.05,1.14-.06,1.68a2.84,2.84,0,0,0-3,3.39c.78,3.5,1.37,7,2.18,10.5a1.47,1.47,0,0,0,2.65.34c1.95-2.73,1.61-6.18,1-9.42a2.91,2.91,0,0,0,2.27-.55,2.65,2.65,0,0,0,1,.27,2.55,2.55,0,0,0,.16.87,2.47,2.47,0,0,0,3,1.68,6.79,6.79,0,0,0,3.59-2.5,3.19,3.19,0,0,0,4.86-.47c1.89-3,1.68-7.77,1-12.08a1.84,1.84,0,0,0,.18-.63c0-.34,3.33-2.94,3.74-3.68,1.2-2.15,1.24-5,1.71-7.34,0,.36,0,.74,0,1.09.2,8.25.88,16.37.22,24.62a1.69,1.69,0,0,0,1,1.79,35,35,0,0,0-1.33,4.41h.06a1.51,1.51,0,0,0,2.74,1.18C234.84,165.22,230.88,144.27,225.53,125.36Zm-7,13.1a29.18,29.18,0,0,1-1.52-3.88,3.75,3.75,0,0,0,1.29,1c.29,1.23.52,2.48.72,3.74A5.83,5.83,0,0,1,218.54,138.46Z" transform="translate(12.4 15.7)"/><path class="cls-23" d="M164.54,171.91a1.86,1.86,0,0,0-3.18,0,10.81,10.81,0,0,0-1,4c-.09.64-.1,1.29-.17,1.93,0,.12,0,.23,0,.34a2.39,2.39,0,0,0-1.52,3.42c1.53,3.06,5.09,1.67,6-1C165.46,178.29,165.89,174.07,164.54,171.91Z" transform="translate(12.4 15.7)"/><path class="cls-23" d="M164.91,88.4c-.64-3.2-1.62-9.43-5.24-10.77-3.09-1.14-7.37,1.19-10,2.57C143.35,83.53,135,84.81,128,85.79c-2.31.32-1.81,3.57,0,4.18,3.42,1.17,6.29-.16,9.66.24,1.61.2,2.84,1,4.55,1.38a11.87,11.87,0,0,0,2.88-.11c-1.44,1.87-.6,5,1.5,6.51l.08.05c.4,2,.7,4,2,5.79a2.22,2.22,0,0,0,4.1-1.29,13.71,13.71,0,0,0,2.56-.68,4.16,4.16,0,0,0-.06,1.66c-.09-.71,0,.42.06.54s0,.54,0,.81a3.38,3.38,0,0,0,1,2.9,3.83,3.83,0,0,0,.62.4c.13.82.27,1.65.39,2.45.51,3.39,6,2.54,5.93-.81,0-.77,0-1.64,0-2.55a2.56,2.56,0,0,0,2.25-2.16A54.1,54.1,0,0,0,164.91,88.4Zm-7.34-4.63a8,8,0,0,1,.82,1.87A5.75,5.75,0,0,0,156,84.43Zm-4.48,12.48,0,0A3.14,3.14,0,0,0,154.43,95a12.18,12.18,0,0,0,1-2c0,1.12,0,2.27,0,3.42l-1.87.23C153,97.7,152.83,97.57,153.09,96.25Z" transform="translate(12.4 15.7)"/><path class="cls-24" d="M181.61,48.75A3.85,3.85,0,0,0,178.53,47a27.78,27.78,0,0,0-4.37-.12,6.42,6.42,0,0,0-2.08.77,7,7,0,0,1-1.83.51c-2.1-.62-4.06-.63-5.15,2.08-.42,1,.66,1.63,1.53,1.39l0,.1a3.1,3.1,0,0,1,.51-.11,2.33,2.33,0,0,0,.84.77,6.5,6.5,0,0,0,3.11.1,10,10,0,0,0,2.13.74c.75.15,1.82-.19,2.31.48a14,14,0,0,1,.39,2c-.48.63-1,1.23-1.39,1.68-1.88,2.15-4.28,2.27-5,4.91a1.28,1.28,0,0,0-.46.08c-2,.77-3.1,3-4.85,4.15-1.57,1.08-3.58,1.59-4.4,3.49a1.94,1.94,0,0,0,2.63,2.62l.11,0a1.21,1.21,0,0,0,.43-.35,8.78,8.78,0,0,1,2-.85,8.22,8.22,0,0,0,2.86-1.63,11.69,11.69,0,0,0,3-4.29,2.13,2.13,0,0,0,2.74-1.46c.18-.77,1.9-1,2.53-1.4a6.49,6.49,0,0,0,1.91-1.78c1-1.28,2.16-2.65,3-4C182.38,55,182.94,50.87,181.61,48.75Z" transform="translate(12.4 15.7)"/><path class="cls-24" d="M145.6,70.8c-.39-2.11-3.14-3.17-5-2.64A8.85,8.85,0,0,0,136,71.54a2.12,2.12,0,0,0,.55,2.76,2.17,2.17,0,0,0,2.81-.17,7.48,7.48,0,0,1,2-1.21l0,0a7,7,0,0,0,1.46.68A2.3,2.3,0,0,0,145.6,70.8Z" transform="translate(12.4 15.7)"/><path class="cls-24" d="M114.75,98.5a1.94,1.94,0,0,0-.55-2.61c2.18-3,4.55-11.15-.15-12.69-2.57-.85-5.69-.36-8.34-.35s-5.86-.75-8.35.21l0,0c-1.32.45-2.06,2.51-.46,3.22a20.82,20.82,0,0,0,6.74,1.6c.45,0,.88.06,1.31.08l.92.89a1.9,1.9,0,0,1,.73,1.26,2,2,0,0,0,2,1.52c0,.07,0,.13,0,.2a2.26,2.26,0,0,0,.26,1,2.39,2.39,0,0,0,1.55,1.25,5.34,5.34,0,0,0,.72,1.66,2.17,2.17,0,0,0,.24.29c-.07.09-.15.18-.22.29-1.46,2.34-3.23,10.37,1.79,10.21,1.82-.05,2.8-2.55,1.29-3.63,0,.05,0,0-.09-.07a1.67,1.67,0,0,0-.16-.12.76.76,0,0,1,.15.1.54.54,0,0,1-.08-.17c-.08-.3-.17-.82-.17-.78,0-.49.26-1,.33-1.48A4.8,4.8,0,0,1,114.75,98.5Z" transform="translate(12.4 15.7)"/><path class="cls-24" d="M114.26,103a.48.48,0,0,0-.1-.09v0Z" transform="translate(12.4 15.7)"/><path class="cls-24" d="M164.23,88.06a12.24,12.24,0,0,0-2.39-9.3c-2.11-2.51-4-1.84-6.52-.8-6.88,2.89-14.49,3.86-21.58,6.42-2.67,1-1.62,5.13,1.17,4.34A115.58,115.58,0,0,0,150,86a2.67,2.67,0,0,0,2.51,1.41A7.62,7.62,0,0,0,154.1,87h.17a4.42,4.42,0,0,0,1.17,5.17c1.38,1.2,2.6,1.26,3.58.69,1.16,2.78,1.42,6.92,1.75,8.68s3.31,1.8,3.71,0c.1-.42.16-.88.22-1.33a1.79,1.79,0,0,0,.42-.55C167.12,95.41,166.21,91.74,164.23,88.06Z" transform="translate(12.4 15.7)"/><path class="cls-24" d="M202.18,87.94c-1.22-2.94-4-7.29-7.23-8.84a24.28,24.28,0,0,0-1.53-2.18,55,55,0,0,0-4-5.32c-3.26-3.52-6.92-4.73-11.56-5.11-2.21-.19-2.25,2.89-.48,3.59a21.46,21.46,0,0,1,9.63,7.8c1.4,1.94,3.13,5.3,5.79,5.34,1.65,2.86,3.54,5.47,4.85,8.59A63.37,63.37,0,0,0,200.74,98c1.11,2,2,2.6,3.64,4a1.17,1.17,0,0,0,1.94-.51C207.25,97.34,203.74,91.72,202.18,87.94Z" transform="translate(12.4 15.7)"/><path class="cls-24" d="M231.2,161.59c-1.2-8.39-1.38-16.75-2.84-25.11,0-.06,0-.12,0-.18l-.06-.25a1.73,1.73,0,0,0-.3-.69c-.69-2.07.06-4.67-.37-6.86a27.68,27.68,0,0,0-2.65-7.23c-.66-1.27-1.52-2.88-2.52-4.44a108.44,108.44,0,0,0-2.27-18.44c-1.35-6.65-3.94-11.68-7.37-17.53-2.44-4.15-4.21-8.18-8.21-10.56-1.28-3.41-4.42-6.74-6.34-9.07-1.41-1.72-2.65-3.92-4.84-4.74-2-.73-4.69,0-6.34,1.21a1.82,1.82,0,0,0,.43,3.27l1.25.55a1.08,1.08,0,0,0,1.39-.53,3.15,3.15,0,0,1,2.11.55c1.48,1.2,2.75,3.53,3.92,5,2.16,2.73,3.68,6.83,6.77,8.59a1.42,1.42,0,0,0,.81.17c3.44,4.1,6,10.76,7.92,14.91,2.41,5.26,3.22,11.14,4.45,16.77a41.12,41.12,0,0,1,.72,4.63,2.2,2.2,0,0,0-2.64,1.52c-.7,1.82.71,3,1.4,4.69a1.34,1.34,0,0,0,1.32.87l.54.92c.43,5.87,1.14,11.73,4.15,16.37a1.61,1.61,0,0,0,1.65.68,8,8,0,0,0,.88,1.3c.36,6.62.1,13.39,1,19.94.38,2.8,1.17,5.56,1,8.41a16.21,16.21,0,0,1-1,4.12,1.73,1.73,0,0,0-2.57.41c-.95,1.32-.09,2.84,0,4.3a24.52,24.52,0,0,1,.07,4.92c-.24,2.14,3.1,2.46,3.67.5a13.13,13.13,0,0,0,.51-3.65C232.77,173.52,232.14,168.12,231.2,161.59Z" transform="translate(12.4 15.7)"/><path class="cls-24" d="M217,161.32c0-2.74-3.12-3.64-5-2.08a4.69,4.69,0,0,0-1.5,2.92,2.93,2.93,0,0,0-1.42.4,14.57,14.57,0,0,0-1.35,1.29h-.07a2.1,2.1,0,0,0-.72.32,2,2,0,0,0-.8.46,2.3,2.3,0,0,0-3.42-1,11.48,11.48,0,0,1-3.84,1.81l-.2.07a2.51,2.51,0,0,0-3.12-1.55c-2.88.83-1.92,4.48-1.45,6.57.67,3,4.71,2.53,5.58,0-.08.23.43-.13.55-.16a20.13,20.13,0,0,0,2-.35,9.41,9.41,0,0,0,3.39-2.25,2.23,2.23,0,0,0,.37.5c-.22-.38-.1-.23.36.43a3,3,0,0,0,1.29.75,3.88,3.88,0,0,0,1.59.11,3.1,3.1,0,0,0,.47.55,3.07,3.07,0,0,0,4.72-.61,9,9,0,0,0,1.34-3.36,2.35,2.35,0,0,0,1.51-2.34C217.19,163,217,162.18,217,161.32Z" transform="translate(12.4 15.7)"/><path class="cls-24" d="M137.87,131.3a21.61,21.61,0,0,0-1-2.15,6.65,6.65,0,0,0-1-1.91,1.24,1.24,0,0,0-1.76,0A2.45,2.45,0,0,0,134,130a14.35,14.35,0,0,0,1.35,2.34,1.39,1.39,0,0,0,1.73.56A1.36,1.36,0,0,0,137.87,131.3Z" transform="translate(12.4 15.7)"/><path class="cls-25" d="M93.59,126.52a17.61,17.61,0,0,0-13.43-5.13c-8.3.53-20.68,3.77-24.44,12.07a2.65,2.65,0,0,0-.18,1.81c-1.82,2.36-4.6,5.6-2.81,8.42,2.46,3.89,13,2.33,16.42,2.06,6.37-.51,12.74-.74,19.1-1.24,4-.32,10.14-.87,10.66-6.15C99.24,134.94,95.91,128.94,93.59,126.52Zm-2.6,11c-3.65,3.91-14.17,2.71-19,3.08-3.49.26-11.33,2.06-14.6.23-.15.32-.3.64-.44,1,.32-.83.64-1.65,1-2.47s.66-1.61,1-2.41A2.54,2.54,0,0,0,60,136c3.11-4.69,8.84-6.42,14-7.66,4.24-1,8.32-1.8,12.56,0,2.23,1,4.66,3.28,5.19,5.78S93.44,134.9,91,137.53Z" transform="translate(12.4 15.7)"/><path class="cls-25" d="M145.59,164.57a2,2,0,0,0-3.29-1,1.64,1.64,0,0,0-2.4.24,17.36,17.36,0,0,0-2.93,5.5c-1.25,4-2.3,5.37-6.59,6-2.55.37-8.13.21-9.47-2.51-1.45-2.92,1.41-8.72.58-12.24a4.71,4.71,0,0,0-6.35-3.43,2.85,2.85,0,0,0-2.06,2.83c-7.85,4.82-15.09,10.88-13.43,21.2,1.51,9.45,11,19.15,20,21.86,9.94,3,15.4.7,21-8.06A37.16,37.16,0,0,0,145.59,164.57ZM139.54,186c-2.56,6.52-7,14.56-15,12.58-7.1-1.77-12-5.94-16.17-11.9-6.66-9.43-1.08-17.6,6.41-23.7a1.55,1.55,0,0,0,.83.05,1.73,1.73,0,0,0,.13,1.11,16.26,16.26,0,0,1-.15,2.2c-.24,2.47-1.09,4.83-.77,7.34.56,4.4,4.35,5.82,8.16,7s9.1,1.16,12.87-.68c5.15-2.5,4.69-6,5.19-9.81,0,1.43.15,2.87.29,4.34A24.3,24.3,0,0,1,139.54,186Z" transform="translate(12.4 15.7)"/><path class="cls-25" d="M194,127.46c-2.83-4.17-5.29-7-10.45-7.68-7.68-1-20.22,1.63-24.88,8.77a1.34,1.34,0,0,0-.58.34c-5.34,5.63-5.67,15.51,4.28,13.75,7.66-1.35,14.66-2.51,22.48-.78,4.14.91,9.59,5,13.87,3.8a2.73,2.73,0,0,0,1.89-1.89C202.06,138,197,132,194,127.46Zm-20.05,8.1a41.75,41.75,0,0,0-10.48,1.55c-.68.16-3.89.9-4.18.64-1-.84-.77-2.59-.27-4.2a1.81,1.81,0,0,0,1-.18c7-3.44,12.11-7.69,20.38-7.9,4.81-.12,7.3,2.16,10,6,1.33,2,2.54,5.28,4,7a13.47,13.47,0,0,0,1.79,1.77,17.85,17.85,0,0,0-3.53-1.68A53,53,0,0,0,173.94,135.56Z" transform="translate(12.4 15.7)"/><path class="cls-26" d="M192.48,135.64c-2.25-5.59-11.25-7.77-16.77-8.21-3-.24-7.19.09-10,1.48-2,1-5.4,3.6-5.23,6.05a2.65,2.65,0,0,0,5.18.7,1.89,1.89,0,0,0,.44.2c.17.69.07.41.27,0a1.62,1.62,0,0,0,1.3-.73c.93-.31,2-1,3-1.29a16.21,16.21,0,0,1,8.24.11c4,1,7.32,4.28,11.45,4.43A2.19,2.19,0,0,0,192.48,135.64Z" transform="translate(12.4 15.7)"/><path class="cls-26" d="M137.92,182.46c-.89-2.09-4.11-1.56-5,.23a2.44,2.44,0,0,0-1.74,2c-.06.33-.11.66-.16,1a3.41,3.41,0,0,0-.25-.37,4.47,4.47,0,0,0-6.57-1.06,4.07,4.07,0,0,0-4,2,7.83,7.83,0,0,1-1.39-1.15,15,15,0,0,1-1.39-3.16,2.91,2.91,0,0,0-3.84-1.18,29.27,29.27,0,0,1-1.21-7c-.2-2.16-2.8-3.63-4.5-1.87-4.56,4.72-.27,16.65,5.69,15.67,1.68,2.78,4.06,5.15,7.17,5.81A6.12,6.12,0,0,0,127,196a5.72,5.72,0,0,0,2.64.41c3.5-.3,5.38-3.2,6.44-6.3a2.34,2.34,0,0,0,1-.66C139,187.15,139.06,185.18,137.92,182.46Z" transform="translate(12.4 15.7)"/><path class="cls-26" d="M82.49,129.27c-4.6,0-10.66.56-14,4.1a19.47,19.47,0,0,0-2.89,1,2.86,2.86,0,0,0,0,5.45c4.11,1.68,10.26,1,14.48,0,3.21-.75,11.29-1.61,12-5.84C92.88,129.09,85.41,129.29,82.49,129.27Z" transform="translate(12.4 15.7)"/><path class="cls-27" d="M191.52,135c-2-4-9.35-5.6-13.44-6.15-5.82-.78-11.83-1.16-16.41,3.15A1.91,1.91,0,0,0,163,135.2a11.16,11.16,0,0,0,4-1.16,25,25,0,0,1,10.83-1.68A13.69,13.69,0,0,1,185,134.7c1.68,1,2.87,2.17,4.88,2.44A1.49,1.49,0,0,0,191.52,135Z" transform="translate(12.4 15.7)"/><path class="cls-27" d="M114.8,181h0c-.55-1.45-.6-3.18-1.39-4.53a3.81,3.81,0,0,0-.64-.8,6.82,6.82,0,0,0-.83-.59v0a7.33,7.33,0,0,1-.5-1.38,2,2,0,0,0-3.8,0,7.07,7.07,0,0,0-.24,4.29,3.49,3.49,0,0,0,1.16,1.78,3.05,3.05,0,0,0,.91.48c.21.64.14,1.59.31,2.15a2.78,2.78,0,0,0,3.39,1.86A2.25,2.25,0,0,0,114.8,181Z" transform="translate(12.4 15.7)"/><path class="cls-27" d="M137.27,182.33a2,2,0,0,0-3.56-.46,21.56,21.56,0,0,0-1.25,3.24,6.59,6.59,0,0,0-1,.48c-1.33.81-2.6,3.26-4.25,3.36s-3-1.83-4.29-2.51c-2.07-1.08-4.28-1.68-6.19-3.09-1.4-1-3.45,1-2.42,2.42a9.28,9.28,0,0,0,2.11,2.39c1,.67,2.93.51,3.52,1.12s.73,2,1.23,2.69a8.24,8.24,0,0,0,2.66,2.53,7.71,7.71,0,0,0,6.61-.36c1.65-.82,2.57-2.28,3.84-3.39a2.32,2.32,0,0,0,1.81-.8A7.85,7.85,0,0,0,137.27,182.33Z" transform="translate(12.4 15.7)"/><path class="cls-27" d="M68.94,134a5.62,5.62,0,0,0-4.61-1.39c-1.75.4-3.61,2-3.45,4,.12,1.42,1.46,2.91,3,2.32a4.57,4.57,0,0,0,1.13-.56,4.47,4.47,0,0,0,1.91.51,4.57,4.57,0,0,0,1-.14,2.11,2.11,0,0,0,.92-.49l.26-.21A2.36,2.36,0,0,0,68.94,134Z" transform="translate(12.4 15.7)"/><path class="cls-27" d="M69.19,138l-.09.09Z" transform="translate(12.4 15.7)"/><path class="cls-27" d="M91.52,134.2c-1.87-3.31-8.18-2.68-11.41-3.26-2.1-.38-3.73-.74-5.69.37-1.49.84-2.36,2.2-3.67,3.25s.11,3.21,1.6,2.74a20.88,20.88,0,0,1,3.09-1.22c1.32-.2,2.8.49,4.11.78,2.87.65,6.07.56,8.86,1.39A2.78,2.78,0,0,0,91.52,134.2Z" transform="translate(12.4 15.7)"/><path class="cls-28" d="M188.11,132.55a38,38,0,0,0-10.78-3.42,36.07,36.07,0,0,0-7.91,0c-1.1.08-4.29,1.39-5.14,1-.56-.22-.85.74-.26.92,2.25.66,1.47,1.17,4.15.78,3-.44,5.83-1.2,8.9-.84,4,.47,6.64,3.31,10.52,3.42A1,1,0,0,0,188.11,132.55Z" transform="translate(12.4 15.7)"/><path class="cls-28" d="M112.22,178.28a5.34,5.34,0,0,1-.11-1.64c.14-1.3-2.08-1.62-2.31-.31a3.09,3.09,0,0,0,.42,2.65,4.34,4.34,0,0,0,1.84,1.1.55.55,0,0,0,.67-.67C112.62,179,112.3,178.69,112.22,178.28Z" transform="translate(12.4 15.7)"/><path class="cls-28" d="M116.62,183.71a12.82,12.82,0,0,1-.88-1.07c-.66-1.08-2.6-.38-2.13.9a3.31,3.31,0,0,0,1.35,1.84C115.93,186,117.38,184.71,116.62,183.71Z" transform="translate(12.4 15.7)"/><path class="cls-28" d="M135.1,185.91c-2.93.74-4.5,3.88-7.66,4-1.24,0-3.36-.05-4.36-.79a26.55,26.55,0,0,1-2.83-3.13c-1-1.12-2.54.5-1.65,1.65,2.28,2.94,4.9,5.73,8.74,6.57,4.15.91,8-2.44,9.52-6A1.58,1.58,0,0,0,135.1,185.91Z" transform="translate(12.4 15.7)"/><path class="cls-28" d="M86.36,133c-2.83-.07-5.62-.73-8.43-1.07-2.59-.31-5.47-.85-7.45,1.18a1.32,1.32,0,0,0,.58,2.18c2.59.79,5.82.51,8.54.88a20,20,0,0,0,7.2.1C88.67,135.9,88.19,133.09,86.36,133Z" transform="translate(12.4 15.7)"/><path class="cls-13" d="M64.2,151.73c-1.57-1.17-4.11-1.07-6-1.15a23.46,23.46,0,0,1-8.47-1.94c-1.54-.69-2.87,1.62-1.33,2.28,4.78,2,10.42,1.66,15.49,1.8C64.51,152.74,64.59,152,64.2,151.73Z" transform="translate(12.4 15.7)"/><path class="cls-13" d="M79.26,153.25a.08.08,0,0,0,0,.16A.08.08,0,0,0,79.26,153.25Z" transform="translate(12.4 15.7)"/><path class="cls-13" d="M85.85,152.38a1.3,1.3,0,0,0-.91,0c-.71.22-.38,1.35.3,1.1a6.3,6.3,0,0,0,.72-.28A.46.46,0,0,0,85.85,152.38Z" transform="translate(12.4 15.7)"/><path class="cls-13" d="M103.33,147.33a.68.68,0,0,0-.8-.46c-1.88.37-3.45,1.46-5.2,2.13a62.11,62.11,0,0,1-7.86,2.16.68.68,0,0,0,.18,1.33,16.57,16.57,0,0,0,4.5-1c1.78-.56,3.64-.38,5.41-.92C100.81,150.19,104,149.33,103.33,147.33Z" transform="translate(12.4 15.7)"/><path class="cls-13" d="M103.57,130.8a.51.51,0,0,0-.87.36c.55,4.56,2.61,9.1.61,13.61-.46,1,1.06,2,1.56.91a6.56,6.56,0,0,0,.89-3.32c-.09-2,.58-3.67.44-5.66A10.27,10.27,0,0,0,103.57,130.8Z" transform="translate(12.4 15.7)"/><path class="cls-13" d="M98.33,122.06c-1.7-2.86-2.44-5.53-5.74-7-2.31-1-5.52-1.56-7.66.1-.32.25-.15.72.12.92,1.75,1.25,4,2,5.89,3.09a18.87,18.87,0,0,1,2.61,2c1,.81,2.27,1.21,3.28,2C97.63,123.85,98.92,123.06,98.33,122.06Z" transform="translate(12.4 15.7)"/><path class="cls-13" d="M80.42,114.85c-3.79-1.53-8.68.18-12.28,1.46-2.7,1-5.78,2.54-7.5,4.92a.59.59,0,0,0,.66.86c5.77-2.14,12.71-4.83,18.85-5.25A1,1,0,0,0,80.42,114.85Z" transform="translate(12.4 15.7)"/><path class="cls-13" d="M58.15,122c-1.06.7-2.89,1.25-3.41,2.54a1.47,1.47,0,0,0-.39,1,.86.86,0,0,0,.61.82,1.89,1.89,0,0,0,.92,0,2.88,2.88,0,0,0,1.88-.88c.62-.52,1.23-1,1.8-1.61C60.47,123,59.28,121.3,58.15,122Z" transform="translate(12.4 15.7)"/><path class="cls-13" d="M48.83,131.25c-.53,1.23-1.11,2.41-1.6,3.66-.37.92-.9,2-.55,3a.55.55,0,0,0,1,.13,7.29,7.29,0,0,1,.67-.86A5.84,5.84,0,0,0,49,135.6c.44-1.35.15-2.74.45-4.1C49.49,131.16,49,130.9,48.83,131.25Z" transform="translate(12.4 15.7)"/><path class="cls-13" d="M46.72,145.39a.89.89,0,0,0-.39,1.47,2.67,2.67,0,0,0,.49.46.53.53,0,0,0,.71-.19,3.16,3.16,0,0,0,.27-.66A.88.88,0,0,0,46.72,145.39Z" transform="translate(12.4 15.7)"/><path class="cls-13" d="M70.47,156.55a2.78,2.78,0,0,0-1.71-.69c-.65-.13-1.28-.28-1.94-.38a1.37,1.37,0,0,0-1.63.92,1.33,1.33,0,0,0,.92,1.62,8.18,8.18,0,0,0,1.21.16c.33,0,.67-.09,1-.1a4.7,4.7,0,0,0,2-.24A.84.84,0,0,0,70.47,156.55Z" transform="translate(12.4 15.7)"/><path class="cls-13" d="M152.22,129.73c.53-1.62-1.89-2.2-2.5-.69a37,37,0,0,0-2.05,5.68,22.77,22.77,0,0,0-.16,4.74c0,2.32-.91,5.77.92,7.54a.73.73,0,0,0,1.21-.7c-.47-3.21-1.31-5.51-.42-8.76C150,134.83,151.34,132.39,152.22,129.73Z" transform="translate(12.4 15.7)"/><path class="cls-13" d="M156.82,149.83c-.51-.81-1.63-1-2.48-1.37-1.29-.5-2.23,1.69-1,2.26s2.48,1.28,3.43,0A.88.88,0,0,0,156.82,149.83Z" transform="translate(12.4 15.7)"/><path class="cls-13" d="M174.67,144.45a11.37,11.37,0,0,0-6,.82c-2.44,1.14-4.33,2.93-6.89,3.95-.37.15-.22.76.17.62,2.4-.83,4.83-1.36,7.25-2.1,1.94-.6,5.07.2,6.35-1.75A1,1,0,0,0,174.67,144.45Z" transform="translate(12.4 15.7)"/><path class="cls-13" d="M187.85,147.45c-.27-.78-1-.81-1.7-1-.93-.29-1.84-.62-2.74-1-1.13-.45-1.65,1.4-.51,1.84a14.67,14.67,0,0,0,2.32.77,6.74,6.74,0,0,0,2,.24C187.6,148.24,188,147.9,187.85,147.45Z" transform="translate(12.4 15.7)"/><path class="cls-13" d="M210.27,142.37a.89.89,0,0,0-1.61.21c-.95,2.46-.84,4-3.8,4.83-3.3.91-6.85.35-10.18,0-1.68-.19-2.1,2.74-.4,3,4.73.7,9.89,2.36,14.28-.35A5.46,5.46,0,0,0,210.27,142.37Z" transform="translate(12.4 15.7)"/><path class="cls-13" d="M207.75,136.68a16.09,16.09,0,0,1-1.28-4.58,11.41,11.41,0,0,0-3.5-6.45c-.57-.5-1.74-.22-1.66.69.43,4.94,4.87,8.52,6.7,12.9.18.42.85.27.71-.2A12.86,12.86,0,0,0,207.75,136.68Z" transform="translate(12.4 15.7)"/><path class="cls-13" d="M200.43,122.63c-1.7-3.64-2.41-6.74-6-9.07-3.1-2-7.21-4-10.89-4.26C173.17,108.44,159.32,115,153,123a.73.73,0,0,0,.88,1.14c4.53-2,8.32-5.23,12.6-7.68,4.7-2.69,7.93-3.59,13.34-3,3.39.4,7.58,1,10.74,2.66,4.2,2.2,5.16,4.79,8.18,7.74A1.09,1.09,0,0,0,200.43,122.63Z" transform="translate(12.4 15.7)"/><path class="cls-13" d="M124.94,154.19c-.79-1.94-2.8-2.79-4.81-3.06-1.47-.19-2.61.34-4,.48-2.61.27-5-.31-7.63.16-9.49,1.67-11.18,10.32-12.84,18.56a.85.85,0,0,0,.24.8,3.79,3.79,0,0,0-.05,2.08,1,1,0,0,0,1.7.23c2-2.66,1.55-6.56,3.58-9.13a1.06,1.06,0,0,0-.78-1.74A16.51,16.51,0,0,1,111,153.74a16.15,16.15,0,0,1,8.18-.49c1.75.41,3.35,1.6,5.17,1.69A.6.6,0,0,0,124.94,154.19Z" transform="translate(12.4 15.7)"/><path class="cls-13" d="M148.33,155.82a1.33,1.33,0,0,0-2.07-.24,6.74,6.74,0,0,0-11.14-1.32,14.37,14.37,0,0,0-3.47,6.72c-.16.76-.14,1.48-.24,2.25-.22,1.71.17,3.76-1.95,2.41-2.43-1.55-2.69-5.1-3.12-7.66-.12-.75-1.37-.44-1.16.33.8,3-.72,7,1.58,9.55,1.21,1.34,3.41,2.47,5.18,1.61,2-1,1.76-3.27,1.83-5.09.1-2.86.3-5.14,2.71-7,1.28-1,3.78-2.07,5.46-1.65,1.09.27,2.4,1.86,3.23,2.64a1,1,0,0,0,1.49-.07,25.11,25.11,0,0,1,2.29,4.95c.45,1.45.55,3.23,1.48,4.46.28.38,1,.45,1.15-.15C152.27,163.51,150.44,159.18,148.33,155.82Z" transform="translate(12.4 15.7)"/><path class="cls-13" d="M150.68,178.41c-.4,1.68-.71,3.38-1.07,5.08s-1.39,3.78-1.27,5.57c0,.65,1,1.1,1.37.37a49.88,49.88,0,0,0,2.82-10.51C152.77,177.72,151,177.2,150.68,178.41Z" transform="translate(12.4 15.7)"/><path class="cls-13" d="M146.5,197a.39.39,0,0,0-.68-.39,17.9,17.9,0,0,0-1.22,2.23.53.53,0,0,0,0,.12,1.61,1.61,0,0,0-1.79.6,24.09,24.09,0,0,1-13,8.44c-5.62,1.49-10.12-.31-15.5-1.18a.52.52,0,0,0-.4.95c5.67,3.35,11.72,2,17.75,1.28s10.18-2.76,13.89-7.9a1.25,1.25,0,0,0-.11-1.73.67.67,0,0,0,.12-.2A17,17,0,0,1,146.5,197Z" transform="translate(12.4 15.7)"/><path class="cls-13" d="M106.5,203.05a.07.07,0,0,0,0,.15A.07.07,0,0,0,106.5,203.05Z" transform="translate(12.4 15.7)"/><path class="cls-13" d="M98.27,188.33c-.78-1.77-1-3.71-1.67-5.52-.18-.55-1.11-.67-1.23,0a13.31,13.31,0,0,0,.11,5.62c.42,1.8,1.71,3.49,2.4,5.22a1.06,1.06,0,0,0,2-.56A19.34,19.34,0,0,0,98.27,188.33Z" transform="translate(12.4 15.7)"/><path class="cls-27" d="M96.38,168.7a19.26,19.26,0,0,0-.69,12.38,1,1,0,0,0,1.86,0c1.15-3.63.69-7.93,1.33-11.7A1.3,1.3,0,0,0,96.38,168.7Z" transform="translate(12.4 15.7)"/><path class="cls-27" d="M98.9,188.43a3,3,0,0,0-.37-1.22,9.25,9.25,0,0,0-.84-2.14c-.43-.55-1.36.17-1,.75.22.32.12.85.2,1.23a6.61,6.61,0,0,0,.4,1.38,2.54,2.54,0,0,0,1.22,1.39c.31.1.53-.21.48-.49S98.92,188.72,98.9,188.43Z" transform="translate(12.4 15.7)"/><path class="cls-27" d="M119.72,207.17c-3.17-1.47-7.15-1.33-9.79-3.88a22.1,22.1,0,0,1-2.63-3.11c-.9-1.31-2.21-2.52-3-3.88-.53-.93-2.17-.31-1.78.75,1.26,3.37,4.59,5.41,7.38,7.45,2.41,1.77,6.53,4.9,9.68,3.76C120,208.1,120.23,207.4,119.72,207.17Z" transform="translate(12.4 15.7)"/><path class="cls-27" d="M148.09,187.83a22,22,0,0,0-3,5,17.38,17.38,0,0,1-6.12,7.2A56.42,56.42,0,0,1,126.93,206c-1,.39-.63,2,.45,1.65,2.71-.78,5.05-.53,7.67-1.77A23.63,23.63,0,0,0,140.5,202a29.76,29.76,0,0,0,4.81-6.65c1.42-2.36,3-4.31,3.6-7C149,187.86,148.44,187.44,148.09,187.83Z" transform="translate(12.4 15.7)"/><path class="cls-27" d="M150.4,183.53a.33.33,0,0,0-.59-.08c-.16.25-.28.52-.42.79-.36.71.83,1.08.94.39A3.15,3.15,0,0,0,150.4,183.53Z" transform="translate(12.4 15.7)"/><path class="cls-27" d="M152.77,171.81a36.16,36.16,0,0,0-2.15-8.14c-.42-.85-1.35-1.51-1.83-2.31s-.62-2.1-1.21-2.88a6.46,6.46,0,0,0-5.22-2.25,13.66,13.66,0,0,0-9.54,4.56,12.16,12.16,0,0,0-2.46,6.36c-.17,1.16.14,1.83-.69,2.12-.46.17-1.95-.51-2.8-.24-.05,0-.07.06-.12.08a1.12,1.12,0,0,0,0-.32c-.1-.95.68-2.26.76-3.35a5,5,0,0,0-1.08-3.49,1.37,1.37,0,0,0-1.64-.21c-1.09.52-.83,2.77-.87,3.7-.07,1.58-.56,3,.66,4.25a1.34,1.34,0,0,0,1.54.17,1.2,1.2,0,0,0,.26.94c1.18,1.51,3.83,2.77,5.63,1.55,2.46-1.66,1.32-5.39,1.92-7.8,1.68-6.68,8.94-5.6,12.81-1.63a7.24,7.24,0,0,1,1.92,2.28c1.26,2.17.82,3.36,1.13,5.74.37,2.71.9,4.93.26,7.74a.93.93,0,0,0,1.79.49A15.07,15.07,0,0,0,152.77,171.81Z" transform="translate(12.4 15.7)"/><path class="cls-27" d="M124.19,157.43c-2.84-3.68-5.65-4.71-10.31-4-4,.59-7.46,4-8.88,7.72a1.17,1.17,0,0,0,1.71,1.31c2.64-1.76,4.11-4.6,7.38-5.44,3.07-.79,5.87-.29,7.88,2.14C123,160.37,125.18,158.7,124.19,157.43Z" transform="translate(12.4 15.7)"/><path class="cls-27" d="M82.56,147.12c-5.19-.24-10.64.4-15.85.51-2.69.05-4.94,1-7.63.43-1.73-.37-3.27-1.15-5-1.26-1-.06-1.18,1.28-.48,1.78,3.52,2.5,7,2.26,11.16,2.12,2.56-.1,5-.24,7.59-.49,2.24-.22,8.05-1.12,9.93-.85A1.14,1.14,0,1,0,82.56,147.12Z" transform="translate(12.4 15.7)"/><path class="cls-27" d="M95.78,120.67c-2.21-5-7.78-4.83-12.57-4.92s-10.28-.56-14,2.59c-6.94,1.46-13.31,4.67-17,10.92-2.58,4.38-8.07,10.76-4.81,16a1.28,1.28,0,0,0,2.21-1.3C47.17,139.68,53.81,130,57,127.37a41.23,41.23,0,0,1,6.6-4.48c1.85-1,4.09-1.3,5.76-2.5a1.11,1.11,0,0,0,.87-.06c2.44-1.28,4-.81,6.39-1.07s4.34-1.1,6.63-1.3c4.87-.42,7.53,1.36,11.29,4C95.36,122.56,96.11,121.43,95.78,120.67Z" transform="translate(12.4 15.7)"/><path class="cls-27" d="M105.37,134.31a11.26,11.26,0,0,0-1.36-4.26c-1-1.49-2.6-2.37-3.9-3.53-.8-.71-2.23.22-1.56,1.21a18.85,18.85,0,0,1,3.33,7.26c.42,2.16.43,4.52,1.36,6.53a.7.7,0,0,0,1,.25C106.49,140.29,105.74,136.63,105.37,134.31Z" transform="translate(12.4 15.7)"/><path class="cls-27" d="M100.92,145.21l-.13.13s0,0,0,0l.13-.13S100.93,145.2,100.92,145.21Z" transform="translate(12.4 15.7)"/><path class="cls-27" d="M91.17,146.8l-2.6.25a3.85,3.85,0,0,0-2.44.73,1.06,1.06,0,0,0,0,1.47c1.38,1.31,3.78.06,5.33-.33C92.61,148.63,92.41,146.68,91.17,146.8Z" transform="translate(12.4 15.7)"/><path class="cls-27" d="M195.77,120.43c-4.84-5.42-8.36-6.34-15.46-6.82-14.26-1-30.66,10.4-31.1,25.53,0,1.1,1.79,1.39,2,.26,2.25-14.27,16-24.78,30.47-22.88,4.85.63,7.75,2.34,11.65,5.25,5,3.73,7,10.36,9.29,16.06.41,1,2.22,1.39,2.45,0C206.13,131.15,199.82,125,195.77,120.43Z" transform="translate(12.4 15.7)"/><path class="cls-27" d="M202.53,142.93c-1.16,1.82-4.17,2.24-6.05,2.6-2.38.46-4.76.53-7.1,1.18a.43.43,0,0,0,0,.82c1.74.7,3.34,1.72,5.25,1.9a12.9,12.9,0,0,0,5.15-.68,7,7,0,0,0,4.64-5A1,1,0,0,0,202.53,142.93Z" transform="translate(12.4 15.7)"/><path class="cls-27" d="M185.42,146.09c-4.07-1.41-7-2.84-11.29-2.24-3.84.53-8,1-11.49,2.77-.75.39-.22,1.51.56,1.33,7.56-1.82,14.34-2.94,22-1.06A.42.42,0,0,0,185.42,146.09Z" transform="translate(12.4 15.7)"/><path class="cls-27" d="M154.65,148.69a.08.08,0,0,0,0,.15C154.74,148.84,154.75,148.69,154.65,148.69Z" transform="translate(12.4 15.7)"/><path class="cls-28" d="M86,119.05c-8.86-3.55-18,2.69-26.52,4.44a1.13,1.13,0,0,0,.3,2.2c3.93-.11,7-2.31,10.66-3.41,5-1.51,10.41-1.59,15.56-2.33C86.48,119.87,86.34,119.2,86,119.05Z" transform="translate(12.4 15.7)"/><path class="cls-28" d="M93.83,123.61a.08.08,0,0,0,0,.15A.08.08,0,0,0,93.83,123.61Z" transform="translate(12.4 15.7)"/><path class="cls-28" d="M103.31,135.45a30.49,30.49,0,0,0-2.3-3.78c-1-1.59-1.77-3.28-2.79-4.86a.83.83,0,0,0-1.43.84c1.36,2.43,2.52,5,3.75,7.45a18.85,18.85,0,0,0,1.52,2.25,7.69,7.69,0,0,1,1,3.82.61.61,0,0,0,1.19.16C105,139.35,104.11,137.28,103.31,135.45Z" transform="translate(12.4 15.7)"/><path class="cls-28" d="M98.79,146.22a11.87,11.87,0,0,1-3.11.64c-.91,0-1.82-.11-2.73,0a9.54,9.54,0,0,0-3.89,1.07.42.42,0,0,0,0,.72c1.41.67,3.1,0,4.58-.13A21.14,21.14,0,0,0,99,147C99.49,146.83,99.3,146.07,98.79,146.22Z" transform="translate(12.4 15.7)"/><path class="cls-28" d="M82.18,147.39c-8.23-.21-16.7,1.53-24.71-.59-.37-.09-.77.34-.53.68,1.43,2,5,2.48,7.25,2.53,6,.16,12-.92,18-1.13A.75.75,0,0,0,82.18,147.39Z" transform="translate(12.4 15.7)"/><path class="cls-28" d="M52.4,143.37a.07.07,0,0,0,0,.15A.07.07,0,1,0,52.4,143.37Z" transform="translate(12.4 15.7)"/><path class="cls-28" d="M164.05,117.88a27.68,27.68,0,0,0-7.12,4.51c-2.41,2.07-5,4.23-6.29,7.17-.75,1.63,1.62,3.07,2.44,1.42,1.34-2.71,3.9-4.85,5.94-7.06,1.71-1.84,4-3.5,5.45-5.5A.37.37,0,0,0,164.05,117.88Z" transform="translate(12.4 15.7)"/><path class="cls-28" d="M177.49,115.72c-2.37-3.08-8.34-1.21-11.05.48a.74.74,0,0,0,.74,1.28c1.63-.83,3.58,0,5.35,0,1.43,0,2.84.57,4.23,0C177.4,117.26,178,116.4,177.49,115.72Z" transform="translate(12.4 15.7)"/><path class="cls-28" d="M198.47,126.21c-2.16-2.95-2.91-5.22-6.51-6.69a59.2,59.2,0,0,0-9.43-2.65c-.63-.14-.9.82-.27,1,2.59.55,4.61,1.91,7.05,2.8a18.78,18.78,0,0,1,4.44,1.85,33.58,33.58,0,0,1,4.29,4.06C198.25,126.75,198.66,126.46,198.47,126.21Z" transform="translate(12.4 15.7)"/><path class="cls-28" d="M201.18,131.11a.16.16,0,1,0-.3.13,8.68,8.68,0,0,0,.69,1.36.09.09,0,0,0,.16-.1A8.74,8.74,0,0,1,201.18,131.11Z" transform="translate(12.4 15.7)"/><path class="cls-28" d="M202.37,134.56a.08.08,0,0,0-.16,0,38.85,38.85,0,0,1,.51,5.72c.09,1.42-.14,3.05.57,4.31a.6.6,0,0,0,1,0C205.67,141.45,203.07,137.58,202.37,134.56Z" transform="translate(12.4 15.7)"/><path class="cls-28" d="M192.15,147.8c-5.22-.52-11.72-5.11-16.9-2.08a.6.6,0,0,0,.3,1.11,28.89,28.89,0,0,1,9,1.24,20.16,20.16,0,0,0,7.55,1.42A.85.85,0,0,0,192.15,147.8Z" transform="translate(12.4 15.7)"/><path class="cls-28" d="M138,160.42c-3.49,1.1-4,4.14-5.25,7.19-1.18,2.85-4.42,2.15-6.06,0A9.83,9.83,0,0,1,125,163.4a4.56,4.56,0,0,0-.56-1.92.68.68,0,0,0-1.23.52c.74,3.9,2,9.58,6.7,10.55a4.43,4.43,0,0,0,4.88-2.29c1.68-2.59.83-7,3.66-8.87C138.93,161.08,138.64,160.23,138,160.42Z" transform="translate(12.4 15.7)"/><path class="cls-28" d="M122.8,159.31a15.73,15.73,0,0,0-22.23,6.79c-.21.45.26,1.11.77.76,3-2.06,5.61-5.62,9.06-6.73,3.93-1.26,8.09-.84,12.08-.06A.42.42,0,0,0,122.8,159.31Z" transform="translate(12.4 15.7)"/><path class="cls-28" d="M97.05,176.77c0-.23-.37-.23-.36,0,.34,3.91.6,7.42,3.06,10.68.21.27.76.13.61-.25C99.15,184,97.1,180.27,97.05,176.77Z" transform="translate(12.4 15.7)"/><path class="cls-28" d="M112.64,203.19c-.66-.79-1.65-1.28-2.38-2s-1.36-1.34-2.11-2c-.17-.15-.42.09-.25.25.74.7,1.39,1.44,2.1,2.18a10.64,10.64,0,0,0,2.32,2A.26.26,0,0,0,112.64,203.19Z" transform="translate(12.4 15.7)"/><path class="cls-29" d="M230.55,123c-1.83-7.79-4.34-15.57-6.47-23.3a105.11,105.11,0,0,0-8.37-20.87c-3.69-7-6.92-14.94-11.92-21.15-4.07-5.05-11.4-7-18-7.09-.95-8.34-12.14-6.91-19.22-6.71-5.84.16-11.68.43-17.52.51-2.55,0-5.56-.42-8.24-.21,2.39-5.63,12.75-10.56,13.13-17.09a3,3,0,0,0-1.51-2.62c-4.91-2.26-15.23-2.56-19.05,1.59-2.68,2.92-3.5,7.32-5.69,10.56a50.46,50.46,0,0,1-13.18,12.55c-5.19,3.38-10.16,1.81-16,1.2a37.49,37.49,0,0,0-13.18.89c-5.75,1.49-9.61,4.77-13.09,9-4.44-.66-9.54,3.25-12.94,5.41-7,4.47-12,10.67-17.22,17-11.43,13.79-16.82,32.27-20,49.68-3.45,19-3.6,42.22,3.92,60.35,3.14,7.56,7,14.43,13.82,19.24,4.79,3.37,12.19,7.17,18.56,7l.34.35a19.85,19.85,0,0,0,3.73,2.75c3.23,1.81,6.82,2,10.49,2.72a73.4,73.4,0,0,0,26.35.59c4.95,1.69,9.1,5.28,14.55,6.44,7.18,1.54,14.21,1.52,21.53,1.07a75.4,75.4,0,0,0,23.24-5.29c2.32-.91,8.51-2.56,11.92-4.84,5.57,1.63,12.48-.73,17.58-2.8,6.12-2.48,12.52-4.89,18.11-8.43,13.19-8.36,21.31-20.91,26.82-35.28C239.59,159.17,234.55,140,230.55,123ZM127.17,46.45a41.12,41.12,0,0,0,8-10.64c1.46-2.72,1.49-4.8,4.65-6.09.33-.14,5.42-.53,6.69-.89-.3.43-.67,1-1.13,1.66a10.15,10.15,0,0,0-2,2.1c-2.06,2.28-4.37,4.28-6.3,6.68-2.82,3.52-3.44,5.48-2.52,9.82a3.07,3.07,0,0,0,3.13,2.23c1.08,1.89,2.48,3.68,3.52,5.51-3.81,0-7.68-.57-11.4.59a15,15,0,0,0-5,2.86c-.83.7-2.11,2.89-3.23,4.41-1.46-2.6-2.63-5.13-5.24-7.24A9,9,0,0,0,114,56C118.81,54.11,122.89,50.51,127.17,46.45Zm-24,10.88c.63.08,1.25.14,1.86.17a2,2,0,0,0,.28,1c1.39,2.24,2.33,1.79,4.55,2.69,4.85,2,5.51,5.59,8.36,9.47a3.14,3.14,0,0,0,3.4,1.39c5-1.29,5.34-7.38,10.24-8.78,4.61-1.31,9.68,0,14.37-.88,1.7-.29,2.36-2.22,2.1-3.69-.51-2.83-2.54-4.6-4.22-6.85q-.47-.63-.9-1.29c.32,0,.63,0,1,0,4.91-.06,9.82-.31,14.73-.31,4.29,0,8.54-.36,12.84-.2a45.92,45.92,0,0,1,6.42.51c3.56.67,1.86-.26,1.63,1.46a3.36,3.36,0,0,0,0,4c-1.48,1.92-3.05,3.78-4.6,5.63-2.42,2.88-8.13,7.49-12.72,7.87a2.53,2.53,0,0,0-2.75-1,36.38,36.38,0,0,0-4.6-4.25c-1.57-1.13-3.79,1.1-2.68,2.68s2.16,3.26,3.32,4.84a34.4,34.4,0,0,1-13.47,7.55c-6.75,1.86-16.23,3.78-22.19-.63a2,2,0,0,0-2.41.31c-5.17,5-17.2,1.38-22.73-.63a86,86,0,0,1-8.34-3.51l.09-.41a24.56,24.56,0,0,0,.74-5c0-1.92-3-2.42-3.4-.47a23.05,23.05,0,0,1-1.39,3.74c-1.8-1.12-3-2.43-4.31-5.43a32.68,32.68,0,0,1-1.17-3.6C84,56,93.09,56,103.19,57.33ZM214.78,196c-6,6.63-12.79,11.1-20.83,15-4.16,2-10.75,5.26-16.5,6a143.23,143.23,0,0,0,1.21-31,1.93,1.93,0,0,0-3.85,0c-.68,10.06-3,20.17-3.1,30.24a2.12,2.12,0,0,0,0,.44c-.19-.06-.37-.1-.55-.17a3.45,3.45,0,0,0-.72-.18,2.64,2.64,0,0,0-3.53,2.05c.33-1.63-5.6,1.31-6.86,1.86a87.69,87.69,0,0,1-9,3.44,75.47,75.47,0,0,1-20.7,3.11c-6.16.19-12.21.18-18.15-1.72a37.52,37.52,0,0,1-7-3.53A2.63,2.63,0,0,0,105,221c-3.69-7.45-7.65-15-10.57-22.85-.52-1.37-2.87-1.32-2.76.37a58.77,58.77,0,0,0,3.22,15.14,52.07,52.07,0,0,0,2.32,6c-11.11,1.74-26,1.15-34.58-5.38a2.91,2.91,0,0,0-3.3-1.44c-1.58.37-5.84-1.06-7.2-1.38a26.86,26.86,0,0,1-12.32-7C34.68,199,31.24,191.06,29.53,184c-4-16.77-4.84-35.47-1.2-52.36,2.82-13,6.49-27.52,13.63-38.87A94.16,94.16,0,0,1,55.8,76.16a46.38,46.38,0,0,1,8.39-6.48c.39-.23,6.55-3.71,7.12-3.39a3.1,3.1,0,0,0,.89.35,22.58,22.58,0,0,0,1.67,5.48c1.48,3.45,4.63,5.62,8,7.29-4.48,6.9-9.13,15-9.75,23-.14,1.78,2.32,2.17,3.16.85,4.31-6.67,7.48-14.64,10.33-22.23l2,.8c6.52,2.67,14.15,3.57,21.18,3.64a23.07,23.07,0,0,0,6-.62,46.61,46.61,0,0,0-1.3,8.55c-.53,6-1.11,12.35-.34,18.38.23,1.79,2.9,2.53,3.41.46,2.09-8.46-.23-19.11,2.57-27.48,4.86,5.15,17,1.92,23,.64C147.25,84.32,154,82,158.43,78a69.33,69.33,0,0,1,3.45,9.55c1.38,4.69,1.73,9.71,3.58,14.22a2.25,2.25,0,0,0,4.39-.59c1-7.94-2.69-18.89-7.89-25.57a1.82,1.82,0,0,0,.56-.44c4.67.6,11.51-4,14.32-6.34a30.6,30.6,0,0,0,3.32-3.32c3.9,4.62,8.5,8.53,12.44,13.11,6.19,7.21,9.59,14.86,12,24,.49,1.89,3,1.29,3.2-.44,1.06-9.46-3.11-17.44-9-24.62-4.09-5-10.11-12.12-16.32-14.78,1-1.3,2-2.61,2.94-3.83a14.12,14.12,0,0,0,1.39-2.14A26.54,26.54,0,0,1,195.82,59c3.69,1.74,5.53,6,7.61,9.42a163.56,163.56,0,0,1,11,22c3.13,7.49,4.23,15.38,6.67,23.05a226.68,226.68,0,0,1,7.3,27.91C232,161,228.41,181,214.78,196Z" transform="translate(12.4 15.7)"/><path class="cls-29" d="M126,112.51c1.3-2.55,1.44-5.48,1.83-8.28s.81-5.74,1.1-8.63c.21-2-3.33-2.55-3.61-.49-.78,5.55-2.18,11.06-1.89,16.7C123.48,113.09,125.32,113.8,126,112.51Z" transform="translate(12.4 15.7)"/><path class="cls-30" d="M103.1,141.68c1.14-4.35-2.46-11.26-4.82-14.67-7-10.07-16.77-10.15-27.84-7.29-9.32,2.41-17.07,7.89-19.65,16.7-2.72,2.52-3.77,7.35-2.87,10.69A3,3,0,0,0,50,149.22c5.6,1.35,12.48,0,18.27.13A116.24,116.24,0,0,0,91.06,148C95.43,147.23,101.63,147.34,103.1,141.68Zm-7-.56c-.64.52-5.78.9-6.62,1.06-6.08,1.19-12.47,1.14-18.65,1.16-4.5,0-8.88-.2-13.39,0-.71,0-3.09-.29-3.79.17.33-1.41,1.88-4.2,2.12-5.16a2.35,2.35,0,0,0,0-1.21c3.57-7.27,10.11-11.14,19-12.66,10.06-1.73,19.46.75,21.66,12.35C96.67,138.5,97.73,139.77,96.08,141.12Z" transform="translate(12.4 15.7)"/><path class="cls-29" d="M56.91,155.24c-.93,5.65-2.49,12-.35,17.64.61,1.61,3.25,2,3.68,0,.59-2.7-.15-5.39-.38-8.12a64.42,64.42,0,0,1,.08-9.11C60.05,153.94,57.2,153.51,56.91,155.24Z" transform="translate(12.4 15.7)"/><path class="cls-29" d="M41.06,192.11a46.23,46.23,0,0,1-4.21-6.93c-.85-1.77-3.87-.52-3.19,1.34a42.39,42.39,0,0,0,3.4,7.93c1.4,2.26,2.91,5.58,5.39,6.75,1.45.69,3.49-.46,2.91-2.24C44.57,196.49,42.59,194.2,41.06,192.11Z" transform="translate(12.4 15.7)"/><path class="cls-29" d="M52.74,195.18a42.15,42.15,0,0,0,2.94,8.62c1.21,2.66,2.27,5.86,4.44,7.9a1.89,1.89,0,0,0,3.19-1.32c-.12-5.69-4.9-11-6.85-16.22A1.93,1.93,0,0,0,52.74,195.18Z" transform="translate(12.4 15.7)"/><path class="cls-29" d="M73.63,201.77a42.87,42.87,0,0,1-4.35-7.83c-.81-2.16-4.19-1.32-3.51,1a39.92,39.92,0,0,0,3.88,8.61c1.44,2.48,2.88,5.15,5.12,7,1.32,1.07,3.45-.27,2.48-1.92C76,206.36,75,204,73.63,201.77Z" transform="translate(12.4 15.7)"/><path class="cls-29" d="M219.68,157.62c-2.62,4.39-3.57,9.58-4.93,14.44-1.61,5.8-4.18,11.41-5.4,17.29-.42,2.07,2.36,3.41,3.5,1.47,5.77-9.78,5.65-21.62,9.8-31.95C223.35,157.12,220.59,156.08,219.68,157.62Z" transform="translate(12.4 15.7)"/><path class="cls-29" d="M175.59,150.44a4,4,0,0,0-.69,1.4,27.35,27.35,0,0,0,.9,7.82,1.45,1.45,0,0,0,2.61.34,9.7,9.7,0,0,0,1.93-5.84,24.54,24.54,0,0,0-.53-4.16C178.47,150,176.5,149.39,175.59,150.44Z" transform="translate(12.4 15.7)"/><path class="cls-30" d="M200.77,133.15c-2.85-5.92-7.24-13.53-13.67-16.19-11.52-4.77-29,2.18-34.65,13a16.43,16.43,0,0,0-.14,15.5c1.27,2.6,2.86,3.15,4.55,2.74l.12,0a7.92,7.92,0,0,0,2-.86c4.22-1.79,9.87-2.64,15.33-2.66a6.63,6.63,0,0,1,2.84-.08,29.78,29.78,0,0,1,3.14.29.64.64,0,0,1,.32.15,33.64,33.64,0,0,1,5.67,1.13c3.38,1,10.57,4.13,14,1.84C204.76,145,202.59,137,200.77,133.15Zm-4.45,10.41a3,3,0,0,0-2.69-1.79l-2.71-.45c-4.19-1.13-6.8-1.94-11.25-2-5.84-.11-12.69-.32-18.16,2.1a2.08,2.08,0,0,0-.61-.21,9,9,0,0,0-3.29.13l-.2.05c0-.22,0-.46,0-.76-.29-3.06-1.27-3.65-.06-6.83a13.77,13.77,0,0,1,3.63-5.36c4-3.63,10.15-5.6,15.4-6.45,8.84-1.43,13.35,4.07,17.45,10.93C194.85,134.69,198.38,143.47,196.32,143.56Z" transform="translate(12.4 15.7)"/><path class="cls-30" d="M136.21,158.71c-3.64,2-2.82,5.64-3.19,9a4.05,4.05,0,0,1,.33,2.42c-1.53-.07-3-.07-4.58,0-3.61-.79-2.77.88-2.74-3.11a2.75,2.75,0,0,0-.88-2.15c.09-5.71-1-12.08-7.45-11.46-8.07.77-13.92,7.85-17.39,14.37C96,176,97.09,187.4,102.07,195.23s12.79,11.07,21.84,11.9c21.58,2,29.27-21.7,25.81-39.46C148.66,162.25,142.39,155.26,136.21,158.71Zm6.64,27.62c-1.86,7.68-5.59,13.56-14,14.67-9.19,1.21-18.06-2.56-22.31-10.84s-3.61-18.77,3.09-25.69c1.27-1.31,7.55-6.16,9.38-5.11,1.22.7,1.59,3.25,1.71,5.84a2.86,2.86,0,0,0-.67,1.85c-.08,3.56-1.27,7.24,2.58,8.88,2.91,1.25,12.67,1.41,15.35-.75s.59-10.33,2.81-10.78C146.4,163.25,143.29,184.5,142.85,186.33Z" transform="translate(12.4 15.7)"/></g></g></g></svg>