<svg xmlns="http://www.w3.org/2000/svg" xmlns:xlink="http://www.w3.org/1999/xlink" viewBox="0 0 280.81 283.72"><defs><style>.cls-1{fill:none;}.cls-2{clip-path:url(#clip-path);}.cls-3{fill:#36455f;}.cls-4{fill:#2e3b4f;}.cls-5{fill:#25303f;}.cls-6{fill:#202935;}.cls-7{fill:#1b232b;}.cls-8{fill:#465975;}.cls-9{fill:#566e8c;}.cls-10{fill:#6c89a8;}.cls-11{fill:#5b80ba;opacity:0.6;}.cls-12{fill:#3c6022;}.cls-13{fill:#cf6805;}.cls-14{fill:#aa550f;}.cls-15{fill:#30491c;}.cls-16{fill:#293d18;}.cls-17{fill:#243315;}.cls-18{fill:#598436;}.cls-19{fill:#8ab75e;}.cls-20{fill:#c3ef8f;}.cls-21{fill:#874515;}.cls-22{fill:#6b3510;}.cls-23{fill:#e57c25;}.cls-24{fill:#ff9545;}.cls-25{fill:#ffbb8d;}.cls-26{fill:#3a271d;}</style><clipPath id="clip-path" transform="translate(10.55 11.83)"><path class="cls-1" d="M231,0H25A25.07,25.07,0,0,0,0,25H0V231H0a24.77,24.77,0,0,0,2,9.71A25.18,25.18,0,0,0,13.11,253c.71.39,1.44.74,2.18,1.06.38.16.75.31,1.14.45A24.84,24.84,0,0,0,25,256H231a24.84,24.84,0,0,0,8.57-1.52c.39-.14.76-.29,1.14-.45.74-.32,1.47-.67,2.18-1.06A25.18,25.18,0,0,0,254,240.71a24.77,24.77,0,0,0,2-9.71h0V25h0A25.07,25.07,0,0,0,231,0Z"/></clipPath></defs><g id="Layer_2" data-name="Layer 2"><g id="icon"><g class="cls-2"><path class="cls-3" d="M234.62-4.5H21.38A26,26,0,0,0-4.5,21.38V234.62a25.7,25.7,0,0,0,2,10A26.34,26.34,0,0,0,3.1,252.9a25.85,25.85,0,0,0,6,4.46c.73.4,1.49.77,2.26,1.1.39.16.78.32,1.17.46a25.73,25.73,0,0,0,8.88,1.58H234.62a25.73,25.73,0,0,0,8.88-1.58c.39-.14.78-.3,1.17-.46.77-.33,1.53-.7,2.26-1.1a25.85,25.85,0,0,0,6-4.46,26.34,26.34,0,0,0,5.56-8.23,25.7,25.7,0,0,0,2-10V21.38A26,26,0,0,0,234.62-4.5Z" transform="translate(10.55 11.83)"/><path class="cls-4" d="M266.56,85.07a44.18,44.18,0,0,0-14.65.44,18,18,0,0,0,4.34-3.89c1.76-2.18,2.1-5.21,3.06-7.77A51.28,51.28,0,0,0,262,63.63c.49-3.15,1.56-6.22,1.66-9.42a92.19,92.19,0,0,0-.69-13c-1.43-13-3.4-28.55-16.46-35.33C240.06,2.57,232.25-.26,225-.73c-8.48-.54-17.19,0-25.7,0-17.67,0-35.36.26-53,.06C129.1-.91,112-2.58,94.86-2.77c-7.2-.08-14.37-.93-21.57-.94-8.69,0-17.33-1.51-26-1.65C39.13-5.49,31-5.73,22.84-5.77,16.76-5.79,8.9-7,4-2.41S-.54,11.07-1.64,17.23a191.54,191.54,0,0,0-3,24.33C-5,50.14-6.21,58.67-6.35,67.26c-.15,8.93,0,17.87,0,26.8s0,17.82,0,26.73c0,4.11-.46,8.11-.58,12.21-.11,3.94.23,7.87-.06,11.8-1.21,16.51-.73,33.52.22,50,.41,7.33.38,14.8,1.59,22.06,1.33,8,2.28,16.67,4.49,24.49,1.75,6.23,6.05,9.73,11.88,12.27,7.53,3.28,16.3,5.23,24.32,6.86,3.76.77,7.54,1.5,11.33,2.08,1.27.19,3.24.14,5.13.23,1.15,2.77,2.54,5.42,3.52,8.24a1.21,1.21,0,0,0,2.37-.32,20.21,20.21,0,0,0-1.55-7l.23.14c2.73,2.12,6.48-1.15,4.86-3.53a2.09,2.09,0,0,0,.15-2.44c-.83-1.57-1.74-3.11-2.67-4.64.35.25.69.5,1.05.74,1.58,1,2.88-1.4,1.45-2.47a56.55,56.55,0,0,1-5.2-4.56.67.67,0,0,0,.71-.71c-.12-5.63-1.19-10.95-1.87-16.5-.06-.45-.75-.48-.73,0,.25,5.49,1,11,1.13,16.48l-.82-.8A71.85,71.85,0,0,1,51.91,238q-.84-8.62-1.47-17.23a151.68,151.68,0,0,1,.75-27.21,1.78,1.78,0,0,0,1.34-1.33c1-4.67,1-9.48,2.27-14.14.51-2,1.14-3.89,1.83-5.81a1.43,1.43,0,0,0,1.37-.76c.54-1,1.09-2.06,1.64-3.07,1.42-1.7,2.87-3.35,4.33-4.95,8.84-9.62,19.18-17.34,28.87-26a54.08,54.08,0,0,1,15.84-10.25c5.9-2.41,12.07-4,18-6.39,9.11-3.6,18.67-6.1,27.87-9.47,8.64-.78,17.37-1.51,25.57-4.07C186,105.49,192,105,198,103.83c4.55-.88,9.11-2.41,13.62-3.71,6.9-.13,13.79-.34,20.62-1.14,6.08-.72,12.49-.23,18.6,0,2.45.12,7,1.31,9.07-.56a1.71,1.71,0,0,0,.26-2.06c-1.51-2.73-6.93-3.93-11-4.54a145.37,145.37,0,0,1,17-3.44C267.82,88.23,268.65,85.38,266.56,85.07ZM94.83,118.81c1.34-1,3.13-2.1,4.9-3.39,3.25-1,6.53-2,9.81-3a2.62,2.62,0,0,0-.12,1,108,108,0,0,0-25.49,15.27c-1,.79-2,1.6-2.93,2.43A87,87,0,0,1,94.83,118.81ZM38.18,212.5a87.79,87.79,0,0,1,.4-14.48A116.52,116.52,0,0,0,39,220,69.12,69.12,0,0,1,38.18,212.5Zm2.48,2.22a114.28,114.28,0,0,1,.08-14.09,1,1,0,0,0,1-.12s0,.05,0,.08a97.37,97.37,0,0,0-.95,13.78A2.17,2.17,0,0,0,40.66,214.72Zm.65,15.87a.8.8,0,0,0,.56-.28c.15,1.45.31,2.89.48,4.33C42,233.29,41.65,231.94,41.31,230.59Zm4.83-12.5c-.15-.47-.3-.94-.48-1.4,0-3.51.08-7,.38-10.52.05-.55.11-1.09.17-1.62C46,209,45.93,213.55,46.14,218.09ZM47.7,244.3c-.1-1.47-.22-3-.35-4.42.23.75.51,1.49.76,2.23q.38,3.42.78,6.83A13.26,13.26,0,0,1,47.7,244.3Zm14.26-95a1,1,0,0,0-1.69-.09q-3.75,7.15-6.83,14.42a1.43,1.43,0,0,0-.95,1.12l-.63,2.77c-1.58,4-3,8.13-4.17,12.27a73.17,73.17,0,0,0-6.3,14.65c.07-.54.14-1.07.22-1.61a95.1,95.1,0,0,1,3.44-15.5c.17-.49.34-1,.53-1.46-.09.49-.2,1-.28,1.46-.26,1.68,2.23,2.44,2.6.72,3.8-17.39,14-34.31,26.58-46.84.29-.29.59-.56.88-.84a125.93,125.93,0,0,0-8.2,10.92C65.35,144,63.61,146.62,62,149.33Zm60.82-28.76c-5.66,2.24-11.63,3.6-17.11,6.28a64.77,64.77,0,0,0-14.61,10c-7.93,6.94-16.57,12.86-24.43,19.81a97.38,97.38,0,0,1,17.52-20.44c10.47-9.12,23.37-16.73,36.82-20.7a60.15,60.15,0,0,0,7.58-.58c5.37-.8,10.72-1.84,16.11-2.54C137.32,115,130,117.68,122.78,120.57ZM171,98.34c-15.8,4.18-32,6.53-47.9,10.48-2.21.55-4.41,1.2-6.59,1.93-.58,0-1.16.06-1.74.09,2.36-.73,4.72-1.49,7.05-2.28,3.75-1.29,7.39-2.86,11.08-4.26,9.32-1.56,18.59-3.56,27.88-5.37,2.22-.32,4.45-.67,6.66-1.09a69.83,69.83,0,0,1,12.05-1.18A71.55,71.55,0,0,0,171,98.34ZM201.05,92c4.37-.61,8.75-1.15,13.15-1.59,3.39-.34,7.29-.3,11.36-.28l-1.86.57h-3.59C213.75,90.71,207.41,91.47,201.05,92Zm29.15,5.53c-3.63.52-7.26.25-10.88.32l1.6-.5c1.83-.29,3.65-.6,5.47-.91,4,0,8,0,11.89.32l.38,0C235.84,96.93,233,97.14,230.2,97.54Z" transform="translate(10.55 11.83)"/><path class="cls-5" d="M264.6,69.71c-9-.89-17.8-2.24-26.91-2.42-8.88-.18-17.75-.34-26.62-.79A327.19,327.19,0,0,0,156.59,68c-17.25,2-34.32,5.66-50.41,12.31-7.74,3.19-15.2,7-22.69,10.76C76.35,94.62,69.76,98.73,63,102.74c2.58-2.59,5.25-5.08,8-7.44a155.55,155.55,0,0,1,45.92-26.58c4.46-.57,9-.42,13.48-1.06,5.88-.84,11.75-2,17.69-2.31,12.65-.77,25.35-.62,38-1a1.18,1.18,0,0,0,.32-2.3c-12.1-2.89-26-1.72-38.34-.9-6.63.44-13.12,1.86-19.69,2.67-.66.08-1.31.14-2,.19a1,1,0,0,0-1.1-.37c-.66.18-1.3.39-1.94.59a55.66,55.66,0,0,0-11.78,1.44A156.52,156.52,0,0,0,95,71.91c-2.71,1.1-5.5,2-8.29,2.94,6.69-3.94,13.33-8,20.39-11.19a54.33,54.33,0,0,1,6.24-1.76c5-1.07,10.1-.64,15.15-1.58,10-1.88,19.87-1.19,29.89-2.51l3.87-.14c5.72-.25,11.36-.86,17.11-.32,5.4.51,10.72,1.1,16.12,1.73,11.77,1.37,23.56,2.51,35.35,3.81,1.07.11,2.15.2,3.24.26,6.31,1.73,12.77,3.21,19,2.41a2,2,0,0,0,1.19-.63h.81a1.12,1.12,0,0,0,1.11-.92c2.56.15,4.63.37,4.73.68a1.74,1.74,0,0,0,3.39-.46c.43-3.57-2.62-4.35-5.56-4.94a93.3,93.3,0,0,0-13.95-1.52c-4-.18-8-.44-12-.73-2.49-.65-5-1.28-7.5-1.84,8.39-.06,16.76.06,25,1.83a1.38,1.38,0,0,0,1.26-2.33,23.2,23.2,0,0,0,3.53,0,3.1,3.1,0,0,0,3-3c1.17-8.86-2.86-17.32-2.58-26.26.13-4.15.54-8.24.64-12.4.1-3.8.68-7.52-2-10.6C249-3.54,238-4.36,231-6.44c-9.25-2.75-17.95-3.18-27.49-3.36-21.23-.37-42.18-2.58-63.41-.42C119.7-8.15,99-9.71,78.55-7.86c-11,1-22,1.75-33.1,2C34.74-5.57,24-6.2,13.27-5.76,8.1-5.55-1.66-5.55-2.5,1.48c-.45,3.76.79,7.77.76,11.57,0,5.69-.92,11.38-1.37,17.05-.83,10.62-1.83,21.15-2.45,31.78-.59,10.42-1.08,21.21-.78,31.64.15,5.13.92,10.22,1.07,15.35.17,5.53-.09,11.07-.09,16.61a275.85,275.85,0,0,0,1.27,30.16c1.23,11.09.73,22.56.73,33.71,0,11.91-.38,23.89,0,35.79.26,8.65.31,20.22,6,27.29a26.77,26.77,0,0,0,8.7,7.17c2.6,1.2,5.42,1.82,8,3,2,.88,3.81,2.16,6,2.48,3.54.54,5.16-4.58,2.09-5.59a27.73,27.73,0,0,1-.69-2.79c.23.66.48,1.32.74,2,.85,2.16,4.69,2.16,4.44-.6-.39-4.49-2.61-8.63-4.08-12.83a2.32,2.32,0,0,0-.18-.39q-.12-.78-.27-1.59c-1-5.47-1.55-11-2.45-16.51a1.47,1.47,0,0,0,1.57-.17c.21.88.43,1.76.67,2.64,0,.36.07.72.1,1.09a2,2,0,0,0,.53,1.19c.62,2.18,1.28,4.36,1.9,6.59,1.36,4.88,1.2,11.38,4.43,15.47.93,1.18,2.77-.11,2.41-1.4a20.22,20.22,0,0,0-1.25-3c-1.19-4-1.06-9-2.07-12.87q-.75-2.82-1.52-5.56c-.39-2.81-.69-5.63-.87-8.48a.73.73,0,0,0-.75-.69c-.85-8.22-1.6-16.5-2.07-24.76a1.12,1.12,0,0,0,.17-.84c-.11-.59-.21-1.17-.32-1.76-.19-3.84-.32-7.68-.36-11.52A103,103,0,0,1,29.74,159c1.56-6.94,3.16-14.49,5.71-21.25q-.86,4-1.68,8c-1.52,7.52-2.68,15.13-3.5,22.76-.73,6.86-2.28,14.34.36,20.84.19.47,1,.48,1-.13-.09-1.39-.44-2.66-.59-4.05-.3-2.75.31-5.35.67-8.07s.62-5.73,1-8.59c1-8.38,2.21-16.68,3.93-24.94q1.29-6.13,2.67-12.26A303.67,303.67,0,0,1,60,105.86a.82.82,0,0,0,.51,0c3.69-1.56,7.34-3.22,11-4.91q-3.89,2.6-7.62,5.32c-.58.42,0,1.39.57,1,5.26-3.84,10.13-7.47,16-10.38l4.11-2.06c7.83-3.71,15.68-7.34,23.74-10.44a177.12,177.12,0,0,1,52-11.23c8.54-.54,17-1.58,25.59-1.55,8.75,0,17.43.16,26.17.48s17.77.3,26.65.1c8.64-.19,17.34,1,25.94.6A1.51,1.51,0,0,0,264.6,69.71Zm-90-23.37c13.73-.87,27.5,1.52,41.16,2.47,6.42.45,12.73.75,19,2.08,2.25.48,4.41,1.11,6.55,1.72-11.31-1.53-22.73-1.26-34.15-2.47-7.38-.78-14.48-2.29-21.94-2.17-3.55.06-7-.16-10.52-.32-1.1,0-2.46,0-3.84,0-1.05-.29-2.1-.59-3.17-.85C170,46.66,172.3,46.49,174.61,46.34ZM46.72,103.65c.9-.82,1.82-1.63,2.75-2.43-1.63,3.14-3.26,6.33-4.84,9.56l-.24.33C45.13,108.61,45.9,106.12,46.72,103.65Zm53-43.13c2.58-1,5.18-2,7.81-2.89,7-1.8,14.34-2.43,21.46-3.51,2.6-.39,5.21-.87,7.83-1.34a3,3,0,0,0,.18,1.69,66,66,0,0,0-8,1.15c-5,1.06-10.05.68-15,1.81a62.29,62.29,0,0,0-13.95,5,71,71,0,0,0-9.73,4.41c-5.8,2.46-11.73,4.72-17.56,6.9,1.21-.82,2.44-1.61,3.72-2.31q6.94-3.82,14.14-7.07A60.5,60.5,0,0,0,99.71,60.52ZM62.18,75.71c5.15-4,10-8.11,15.93-10.92,1.59-.76,3.2-1.43,4.82-2.07,0,0,0,.05,0,.08-3,1.48-5.88,3.07-8.79,4.66-6,3.29-11.07,8-16.23,12.44a113.86,113.86,0,0,0-9.15,8.47A109.53,109.53,0,0,1,62.18,75.71ZM48.18,89a39.31,39.31,0,0,0-3.29,4.23c-.56.49-1.12,1-1.66,1.48Q45.65,91.83,48.18,89ZM34.57,106a40.52,40.52,0,0,0-1.75,5.54l-.37.44c-.55.69-1.13,1.41-1.74,2.15a45.27,45.27,0,0,1,4.22-8.91C34.81,105.49,34.68,105.75,34.57,106ZM22.05,224.13c0-.09,0-.17-.05-.25a147.56,147.56,0,0,1-2.31-23.35,1,1,0,0,0,1.94-.44c.81-6.77,1.3-13.57,2-20.35,0,.4.06.79.1,1.19q0,4.86.21,9.72a125.81,125.81,0,0,0,.25,33.41A1.69,1.69,0,0,0,22.05,224.13Zm3.21-86.28c-.88,5.11-1.16,10.33-1.83,15.47-.39,3-1.12,6.21-1.31,9.38-.26,1.5-.5,3-.7,4.52-.62,4.76-1.25,9.59-1.68,14.44,0-.16,0-.33,0-.49.33-13.48,1.88-26.8,3.31-40.19a66.86,66.86,0,0,1,3.34-14c1-1.35,2-2.65,3-3.9l.76-1C28.45,127.34,26.2,132.38,25.26,137.85Zm6.33-6.14c2.25-6.5,5.28-12.78,6.65-19.57l0-.1c.29-.32.56-.65.85-1,1.46-1.56,3-3.07,4.51-4.56q-1.56,4.83-2.93,9.73A104.58,104.58,0,0,0,31.59,131.71ZM49.65,113c-2.42,3-4.91,6-7.34,9.08.51-1,1-2.06,1.52-3.1C50,109.89,57,101.27,62.64,91.82a1.1,1.1,0,0,0,.13-.9c5.65-4.53,11.81-8.4,18.81-10.58s14.1-5.22,21.19-7.75c-2.26,1.08-4.52,2.18-6.8,3.3A129.66,129.66,0,0,0,49.65,113Z" transform="translate(10.55 11.83)"/><path class="cls-4" d="M259.43,58.52c-6.2-.84-12.31-1.6-18.44-2.16a.87.87,0,0,0-.64-1c-11.4-2-24.09-1.69-35.62-1-7.7.47-15.28,2-22.86,3.51-2.85.19-5.69.35-8.54.47a197.29,197.29,0,0,0-41.11,6.49,171.56,171.56,0,0,0-20.42,6.57c-6,2.34-12.26,5.88-18.54,7.09-1.44.27-1.11,2.61.34,2.55,5.51-.2,11.53-2.85,16.66-4.7,3.56-1.28,7.12-2.52,10.71-3.67q-7.69,2.56-15.25,5.52C96.08,82,86.84,86.65,77.34,90.72a11.28,11.28,0,0,0-1.82.79,1.64,1.64,0,0,0,.22,2.92A158.5,158.5,0,0,0,55.61,109.3,106.61,106.61,0,0,0,45.76,119q1.68-4.75,3.45-9.5c.52-1.4-1.69-2-2.21-.61q-3.06,7.86-6,15.81c-.8,1-1.59,2.08-2.38,3.15a106.1,106.1,0,0,0-7.12,10.73c-1.85,3.3-2.67,7.56-4.88,10.55-.75,1,.89,2.25,1.75,1.35,1.6-1.68,2.37-3.69,3.48-5.71,1.57-2.87,3.29-5.72,5.09-8.48-.61,1.8-1.23,3.61-1.81,5.42-3.63,11.28-5.55,23.17-6.92,34.92-1.32,11.23-2.57,23-2,34.34.49,9.84,2.41,21.18,7.49,29.74A1,1,0,0,0,35.6,240c-1.23-4.67-1.89-9.56-3-14.27a76.36,76.36,0,0,1-2.22-16.48,297.29,297.29,0,0,1,1.73-33.49c1.67-16.66,5.63-32.41,10.73-48a68.86,68.86,0,0,1,9.67-11.38C63.83,106.06,75.86,96.84,89.57,90c4.65-1.95,9.23-4,13.89-5.95a329.67,329.67,0,0,1,32.87-11.36c22.43-6.48,45.59-9.87,68.77-12.21a1.86,1.86,0,0,0,.81-.28q5.19-.42,10.4-.74c2.53-.16,5-.24,7.54-.3,4.91.23,9.82.54,14.75.43a.81.81,0,0,0,.57-.24c6.61.31,13.22.87,19.93,1.62C260.48,61.12,260.82,58.71,259.43,58.52Z" transform="translate(10.55 11.83)"/><path class="cls-4" d="M59.92,183.32c-2.83,5.92-4.17,12.32-5.74,18.65a1,1,0,0,0,1.85.51c.8-3.22,1.45-6.48,2.39-9.66.88-3,2.19-5.86,2.95-8.89C61.59,183.09,60.32,182.48,59.92,183.32Z" transform="translate(10.55 11.83)"/><path class="cls-4" d="M112.38,129.91a65.68,65.68,0,0,0-14.64,8.89c-4.8,3.73-9.37,7.81-14,11.76a88.61,88.61,0,0,0-12.75,13c-2.88,3.71-4.28,8-5.62,12.45-.28.93,1.14,1.31,1.45.4C70.4,165.85,78,158.83,86.29,151.77c4.08-3.46,8-7.11,12.16-10.5,4.46-3.67,9.73-6.66,14.58-9.82C113.78,131,113.31,129.54,112.38,129.91Z" transform="translate(10.55 11.83)"/><path class="cls-6" d="M260.59,21.12c-.94-3.31-3.24-6.52-4.59-9.71a20.84,20.84,0,0,0-5.61-7.27c-5.74-4.93-13.19-5.57-20.26-7.28A176.07,176.07,0,0,0,207-7.28c-9.23-1-18.48-1.63-27.72-2.56A245.09,245.09,0,0,0,153-11.27c-8.57.07-17.21-1-25.75-.34-8.85.67-17.61,1.87-26.49,2.22C92-9,83.27-7.91,74.55-7.78S57-6,48.27-6.11c-7.24-.06-15-.4-22.13.87A34.65,34.65,0,0,0,16.4-2.07C13.29-.52,11.12,1.8,8.25,3.74,2.85,7.39-1.06,11.65-2.2,18.25A141,141,0,0,0-3.89,41.56c0,9-1.57,17.89-2.75,26.8-1.16,8.69-1.22,17.25-1.59,26-.76,17.76-2.12,35.63-2.15,53.4,0,8.72,0,17.43,0,26.14,0,9.23.56,18.46.54,27.64,0,8.15-.07,16.48,1.34,24.5,1.22,6.95.62,16.27,6,21.51,2.21,2.14,4.62,3.25,7.3,4.65a31.9,31.9,0,0,1,3.76,2.58,2,2,0,0,0,2.67,1.67,7,7,0,0,0,2.07.64A3.37,3.37,0,0,0,17,253.43a1.72,1.72,0,0,0,.25-.71,6.79,6.79,0,0,0,0-1.11,1.2,1.2,0,0,0,.23-1.29c-.29-.73-.58-1.46-.86-2.2-.47-1.58-1.12-3.18-1.7-4.66a78.83,78.83,0,0,1-3.11-11.69c-1.24-6.92-1.47-14.07-2.25-21.05,0,0,0-.06,0-.1a1.19,1.19,0,0,0,.12-.71,59.65,59.65,0,0,1-.19-15.08q.2,5,.51,9.89a.57.57,0,0,0,1.13,0c.69-10.52.46-21.08.51-31.63.1-.87.21-1.74.35-2.61a1.05,1.05,0,0,0-.33-.91c.05-4.06.16-8.11.4-12.16a.87.87,0,0,0,1.38-.69c.17-17.73,5.41-34.31,11-50.91a1.41,1.41,0,0,0,1.71-.44c.68-1,2.32-1.84,3.18-2.78,1.16-1.26,2.1-2.81,3.13-4.18,2.67-3.53,5.27-7.14,8-10.62A152.17,152.17,0,0,1,57.63,69.64,187.3,187.3,0,0,1,79,53c3.09-2.08,6.14-4.17,9.2-6.26,4-2.7,8.77-4.23,13.07-6.31A1.12,1.12,0,0,0,102,39.1l1.62-.52c5.63-1.43,11.26-2.8,17-3.88,5.11-1,10.13-.14,15.25-.67,4.35-.46,8.68-1,13-1.45,7.79.64,15.53,1.8,23.35,2.14,9.42.4,18.7,2,28.11,2.43,10.46.46,21.13.32,31.6.09,4.92-.11,9.29-1,14.17.42,2.68.77,5.21,1.53,7.92,2.24v0A1.71,1.71,0,0,0,255.67,37c-3.51-3.47-9.62-5.69-14.43-6.14-3.75-.35-7.5.43-11.26.4-4.62,0-9.24,0-13.86,0q-3.52,0-7-.11c-3.26-.68-6.69-.45-10-1a94.27,94.27,0,0,0-15.29-1.38c-1.81,0-3.6.08-5.38.21q-4.83-.39-9.68-.64l12.85-1.14c8.58-.77,17.24-1.29,25.9-1.62l2.66.27c7.52.81,14.93,2.32,22.48,2.82,4.37.29,8.79,1.4,13.1,2.15,3.59.62,7.7,2.11,11.33,2C263,32.79,261.69,25,260.59,21.12ZM9,165.71c.26-3.15.77-6.26,1.31-9.37-.46,5.26-.76,10.61-.91,16-.07.26-.16.51-.22.77A46.09,46.09,0,0,1,9,165.71Zm11.36-58a.54.54,0,0,0-.28.35c-2.28,8.61-5.22,17.08-7,25.8-.24,1.16-.45,2.33-.64,3.49a24.66,24.66,0,0,1,.62-4.28c.89-3.62,2.07-7.09,2.75-10.76a192,192,0,0,1,4.62-18.93,16.27,16.27,0,0,0,2.75-3.57C22.12,102.42,21.2,105.06,20.34,107.72ZM50.7,50.32a20.87,20.87,0,0,0-5.46,6A3.11,3.11,0,0,0,44,55.7C46.11,53.82,48.36,52,50.7,50.32Zm-22,27.28A47.85,47.85,0,0,1,41.09,58.37a1.35,1.35,0,0,0,.86.09l2.54.91a.43.43,0,0,0,0,.07A69.9,69.9,0,0,0,32,75.09l0,0c-1.2,1.44-2.39,2.89-3.55,4.37-.2.26-.38.52-.58.77ZM54.88,66.88A147.08,147.08,0,0,0,37.33,85.32c-2.83,3.61-5.62,7.33-8.3,11.06-.7,1-1.53,2-2.33,3.09.95-2.68,1.94-5.34,3-7.93,1.33-3.26,4-6.21,6.16-9.08A134.13,134.13,0,0,1,51.3,69.16c4.72-3.52,9-7.67,14-10.79C61.69,61.08,58.2,63.91,54.88,66.88ZM124.53,32.3c-7.91.5-15.7,3.12-23.31,5.09-8.49,2.19-17.57,2.55-25.38,6.52C72.1,45.81,68,47,64.53,49.53a104,104,0,0,0-9.89,8.14c-.62.58-1.22,1.18-1.81,1.79-1.88,1.42-3.7,2.92-5.48,4.48,2.67-3.78,5.23-7.72,8.34-11A1.72,1.72,0,0,0,56.31,51c2.13-1.45,4.31-2.83,6.45-4.23C68.43,43,75.58,40.34,81.93,38c3.35-1.26,6.75-2.55,10.18-3.83l1.24-.29c4.6-.95,9.24-.84,13.87-1.37,3.82-.43,7.58-1.28,11.45-1.26s7.53.56,11.28.88C128.15,32.12,126.35,32.18,124.53,32.3Zm57.08-6.78q-9.3.75-18.58,1.58c-1.61.14-3.22.34-4.83.56-5.24-.55-10.46-1.29-15.73-1.42-3.17-.08-6.3-.17-9.44-.3,8.1-.58,16.2-1.16,24.32-1.21,11.7-.07,23.26-.36,34.86,0C188.67,25,185.13,25.23,181.61,25.52Z" transform="translate(10.55 11.83)"/><path class="cls-5" d="M259.6,33.05c-10.22-.06-20.25-1.59-30.48-1.76-3.22-.32-6.43-.69-9.67-1.18a162.92,162.92,0,0,0-22.24-2.18c-8.49-.07-17-.27-25.49-.12-7.72.13-15.32,1.45-23,2-7.05.5-13.92,2.16-20.85,3.48a193.84,193.84,0,0,0-21.33,4.91,174.27,174.27,0,0,0-23.68,9.53.8.8,0,0,0-1-.4c-2.31.91-4.5,1.94-6.65,3a1.1,1.1,0,0,0-1.42-1.26c-4.89,1.34-9.17,5.63-13.08,8.67C55,62.18,49.63,67.23,44.35,72.12a133,133,0,0,0-25.57,32.12,1,1,0,0,0,1.64,1,135.2,135.2,0,0,1,20.48-25c-.9,1.1-1.8,2.2-2.72,3.29A76.62,76.62,0,0,0,26.89,100.8c-.35.79.64,1.79,1.3,1,13-15.36,24-32.76,40.08-44.56a1.11,1.11,0,0,0,.37-.11,296.11,296.11,0,0,1,39.6-15.78c14-4.26,28.87-6.69,43.34-8.52,7.68-1,15.19-2.21,23-2.22s15.77-.07,23.65-.12a101.79,101.79,0,0,1,12.87.92c-6.67.09-13.33.27-20,.73a.58.58,0,0,0,0,1.15c11.64.8,23.39.83,35.06.9,11.2.07,22.26,1.51,33.44,1.19A1.17,1.17,0,0,0,259.6,33.05Z" transform="translate(10.55 11.83)"/><path class="cls-5" d="M18,211.86c-1.48-8.61-2.63-17.15-3.82-25.81s-2.74-17.32-2.28-26.14c.42-7.94,2.53-15.74,3-23.69.06-1-1.46-1-1.57,0-.89,7.95-3.17,15.69-3.78,23.69-.68,8.86.19,17.35,1.25,26.14,1,7.85,1.46,15.71,3.21,23.44.88,3.9,1.54,7.83,2.19,11.77.7,4.29,2,8.66,2.43,13a1,1,0,0,0,2,0C21.07,227.19,19.23,218.8,18,211.86Z" transform="translate(10.55 11.83)"/><path class="cls-5" d="M16.15,244.78a169,169,0,0,1-3.09-17.16c-1.43-11.06-1.54-22.27-1.68-33.4a.78.78,0,0,0-1.55,0c-.16,11.45-.51,22.86.56,34.28a102.41,102.41,0,0,0,2,13.51c1.2,5.13,3.31,9.92,4.68,15a1,1,0,0,0,2-.28C19.24,252.71,17.06,248.67,16.15,244.78Z" transform="translate(10.55 11.83)"/><path class="cls-5" d="M13.54,253.68c-5.51-8.51-7-19.07-6.85-29a.59.59,0,0,0-1.17,0c-.39,6.2-.48,11.95,1,18,.94,3.9,2.15,9.55,5.35,12.25C12.72,255.73,14.24,254.77,13.54,253.68Z" transform="translate(10.55 11.83)"/><path class="cls-7" d="M210,2.13C195-3.94,179.32-.22,163.63-.3c-17.65-.09-35.37,1.39-53,1.61l-.58,0A59.64,59.64,0,0,0,99.57.2c-3.83,0-7.66.58-11.49.28-3.6-.29-7.19-.86-10.8-1.16a45.59,45.59,0,0,0-9.84,0A41.22,41.22,0,0,1,56.29-1,52.53,52.53,0,0,0,50-1.37a1.49,1.49,0,0,0-.66-.54,7,7,0,0,0,.93-2,2.84,2.84,0,0,0-4.12-3.16Q43.7-5.66,41.24-4.2a2.5,2.5,0,0,0-1.64-.89c-5.2-.54-12,1.25-16.73,3.27A44.37,44.37,0,0,0,15.16,2.4a2.24,2.24,0,0,0-.81-.66C9.43-.55,5.91,7,4.19,10.46c-.37.75-.72,1.52-1.06,2.29-.57.95-1.1,1.91-1.62,2.89l-1,1a1.5,1.5,0,0,0-.42,1,31.33,31.33,0,0,0-5.3,16.48,2.55,2.55,0,0,0,2.67,2.69c-.05,1.1-.08,2.2-.07,3.29a2.43,2.43,0,0,0,.07.55c-.21.48-.41,1-.59,1.47C-5,45.65-6.77,49.29-8.56,53a2.58,2.58,0,0,0,.09,2.42c-.21.48-.42,1-.6,1.46-.65,1.66-.66,4-1.33,5.5S-9,66.12-7.66,64.46c1.93-2.34,3-5.26,4.48-7.91,1-1.82,2.05-3.63,3.12-5.43.61-.69,1.19-1.4,1.77-2.12Q.8,51.67-.06,54.37a74.46,74.46,0,0,0-3.4,14.25.69.69,0,0,1,0,.13c-.45,1.73-.85,3.49-1.19,5.26C-5.37,76-6,77.91-6.59,79.89a1.2,1.2,0,0,0,.68,1.42c0,.21-.09.42-.12.64a215.35,215.35,0,0,0-2.71,27.5v.13h0a1.85,1.85,0,0,0,3.6.49A29,29,0,0,0-3.72,99.19,85.73,85.73,0,0,1-2.58,86c1.76-1.74,1.71-4.33,2-6.81.39-3.21.72-6.56,1.19-9.86,1.07-2.75,2.12-5.49,3.25-8.19,2.89-6.9,6.19-13.61,9-20.52a1.16,1.16,0,0,0,0-.83,77.62,77.62,0,0,1,6.49-7.7c1.14-.65,2.31-1.25,3.49-1.83-.26.34-.54.66-.8,1a85.48,85.48,0,0,0-9.32,15.92c-.49.61-1,1.22-1.47,1.82a1.83,1.83,0,0,0-.24,2A33.71,33.71,0,0,0,7.85,63.72a.76.76,0,0,0,1.48.2A90.26,90.26,0,0,1,13.05,52a1.64,1.64,0,0,0,.81-.55c5.64-6.85,10.73-14.61,18.29-19.54,8.36-5.45,18.41-10.79,28.08-13.34,9.39-2.47,18.85-4.86,28.43-6.43,2.83-.47,5.62-.92,8.42-1.33,2.12-.08,4.24-.19,6.37-.37,3-.25,6-.53,9-.81,2.23-.05,4.47-.12,6.7-.33a.6.6,0,0,0,.52-.34c7.82-.71,15.63-1.33,23.48-1.46A1.21,1.21,0,0,0,144.15,7L148,6.87c7.78-.29,15.9.11,23.61-.88a.77.77,0,0,0,0-1.54c-.68-.09-1.37-.15-2-.22,4-.23,8-.46,11.95-.83,9.43-.89,18.65-1.41,27.67,1.91C211.18,6.06,212,2.91,210,2.13ZM31,17a88.24,88.24,0,0,1,9.58-3.43l.15,0a103.47,103.47,0,0,0-9.46,7.67l-2.41,1A11,11,0,0,0,31,17ZM20.67,25.57l-.51.51-.21.1a51.59,51.59,0,0,0-5.24,3l.06-.18c1.18-1.58,2.37-3.16,3.58-4.7.34-.43.7-.85,1-1.28.84-.57,1.72-1.12,2.65-1.63,2.05-1.13,4.16-2.18,6.3-3.17C26.5,21,22.82,23.41,20.67,25.57Zm9.62,3.2a50.11,50.11,0,0,0-10.43,9.6C21,36.53,22.17,34.73,23.44,33s2.38-3.13,3.62-4.63c4.29-1.78,8.54-3.66,12.88-5.33C36.56,24.85,33.31,26.79,30.29,28.77Zm29.4-16.23a204.82,204.82,0,0,0-24.5,7.19,75.52,75.52,0,0,1,9.38-7.13c5.93-1.28,12.08-1.8,18-2.92a68.48,68.48,0,0,1,12-.88C69.59,9.8,64.72,11.38,59.69,12.54Z" transform="translate(10.55 11.83)"/><path class="cls-7" d="M186.1,4.55l-1.5,0a.21.21,0,0,0,0,.42l1.5,0A.18.18,0,0,0,186.1,4.55Z" transform="translate(10.55 11.83)"/><path class="cls-8" d="M265.15,146.93c-2.25-2.37-5.87-3.56-8.59-5.34a40.34,40.34,0,0,0-11.05-4.94c-1.41-.41-2.83-.74-4.26-1-5.33-3.43-12.21-3.33-18.42-4.23-1.06-.16-1.55,1.41-.45,1.65,1.72.36,3.43.71,5.12,1.09-2.83-.13-5.67-.21-8.5-.33-8.71-.37-17.37-1.15-26.07-1.67-2.71-.16-5.42-.22-8.12-.23a1.14,1.14,0,0,0-.71-.31,50.14,50.14,0,0,0-10.74-.36c-1.59.2-3.16.47-4.73.73-1.34,0-2.68,0-4-.1a1.15,1.15,0,0,0-1.21.82l-1.13.08a57.6,57.6,0,0,0-13.23,2c.59-.45.21-1.58-.62-1.32a133.67,133.67,0,0,0-16.74,6.17,90,90,0,0,0-14.26,7.9c-4.88,3.55-10.1,6.56-14.24,11a77.18,77.18,0,0,0-10.08,13.69c-2.67,4.55-6.18,8.54-8.35,13.39C82.2,191.3,81.6,199,80.54,205c-2.14,12.36-1.35,25.5-.44,38.13a1.3,1.3,0,0,0-1.41,1.89h0c2.43,4,2.82,11.15,7.28,13.57a2.44,2.44,0,0,0,3.26-.86c1.47-2.38-.29-4.87-.94-7.35a58.55,58.55,0,0,1-1.76-14.67c0-1.46,0-2.92,0-4.38.28,3.21.62,6.41,1.07,9.6.62,4.42,2.74,12.3,6.63,16.7a2.66,2.66,0,0,0,1.37,3.12c3.09,1.72,4.72,4.12,8.32,4.79,5.2,1,10.54,1.61,15.77,2.35a104.35,104.35,0,0,0,14.79.68c5.11,0,10.19.63,15.32.6,10.3-.05,20.11-2.19,30.26-3.42a274.09,274.09,0,0,1,30.71-2,86.82,86.82,0,0,0,14-1.29c4.7-.82,9.21-1.33,13.93-1.91,3.84-.46,7.31-2.08,11-3,3-.76,5.89.17,7.45-3.08,1.3-2.71.41-6.81.76-9.74a125.4,125.4,0,0,0,.79-15.26c0-9.5.36-18.94.36-28.44,0-9.89.68-20.07-.25-29.91-.41-4.37-.08-8.77-.52-13.15-.27-2.74-.15-6.73-2.48-8.65-.77-.64-1.54-1.22-2.3-1.81,3.62,1.78,7.41,3.06,10.86,2.26A1.72,1.72,0,0,0,265.15,146.93ZM85,195.25c.42-2,.89-4,1.44-6,1.2-4.24,4-7.62,6.48-11.21-1.19,2.59-2.37,5.18-3.7,7.68A73.8,73.8,0,0,0,85,195.25Zm76.6-56.49c-4.33.5-8.63.75-12.71,2.34-4.31,1.68-8.36,4-12.58,5.82a132.92,132.92,0,0,0-23.09,12.83c.82-.65,1.65-1.29,2.48-1.92a123.29,123.29,0,0,1,29.69-16.64c3.53-1.4,6.81-2.76,10.62-3.21,3-.36,6-.33,9-.69,1.66-.2,3.29-.49,4.91-.82a28.8,28.8,0,0,0,3.3.72C169.32,137.73,165.46,138.31,161.55,138.76Z" transform="translate(10.55 11.83)"/><path class="cls-3" d="M199.1,121.62c-8.34.95-16.54,3.86-24.38,7.41-7.82-.17-15.6.09-23,2.65-11.67,4-23.81,7.9-33.48,15.88a101.19,101.19,0,0,0-24.37,28.93c-1.88,3.36-3.66,6.74-5.24,10.18a1.45,1.45,0,0,0-2.07,0c-7.75,8.84-10.8,22.18-11.65,33.58-1,13.7.65,26.69,7.29,38.8,1,1.86,3.79.21,2.83-1.66-6-11.69-7.34-24.13-6.27-37.14a60.89,60.89,0,0,1,3.86-17.79c.47-1.19,1-2.37,1.55-3.54a54,54,0,0,0-1.75,11.3c-.07,1.54,2.31,1.53,2.39,0a38.29,38.29,0,0,1,5.38-18.51c2.81-4.79,5-9.92,7.91-14.66q1.34-2.18,2.76-4.26a105.72,105.72,0,0,0-11.48,82.77,1.28,1.28,0,0,0,2.47-.68c-6.22-21.69-3.41-46.46,5.7-66.95,4.12-9.27,9-18.63,16.4-25.75s16.32-10,25.33-14.35a130.46,130.46,0,0,0-12.52,8.54c-1.07.83.34,2.68,1.46,1.89,10.63-7.39,22.6-12.4,34.16-18.11,5.31-2.63,10.49-5.17,16-7.29a92.15,92.15,0,0,0,13-1.86.81.81,0,0,0-.22-1.59c-1,0-2,0-2.94,0a107.77,107.77,0,0,0,11.75-4.81C201.29,123.93,200.69,121.43,199.1,121.62Zm-38.17,14.32c-6.47,3.43-12.94,6.78-19.21,10.45.44-.8-.06-2.09-1.12-2a44.72,44.72,0,0,0-20.94,7.73c1-.78,1.93-1.55,2.92-2.3,9.41-7,21.58-11.26,32.69-14.83a39.15,39.15,0,0,1,10.62-1.67Q163.37,134.65,160.93,135.94Z" transform="translate(10.55 11.83)"/><path class="cls-3" d="M263.35,147.68c-7.44-7.44-21-8.43-30.93-8.71-12.51-.36-25-.15-37.32,2-12.15,2.1-24.49,3.93-36.44,7a126.68,126.68,0,0,0-15.44,5.19c-2.53,1-5.1,2.08-7.53,3.34-2.2,1.14-4.17,2.86-6.47,3.78a1.46,1.46,0,0,0,.38,2.85c3.7.12,7-2.54,10.3-3.93,5.06-2.14,10.31-3.71,15.52-5.46,10.85-3.64,22.51-5,33.74-7a206.8,206.8,0,0,1,36.75-3.24c12.13,0,24,.8,35.16,5.9a1,1,0,0,0,1,.52l.32,0A1.33,1.33,0,0,0,263.35,147.68Z" transform="translate(10.55 11.83)"/><path class="cls-3" d="M125.25,161.37a176.33,176.33,0,0,0-17.89,20.06c-5.21,7-8.6,14.35-11.91,22.34-2.94,7.1-3.83,15.36-3.71,23a67.87,67.87,0,0,0,1.68,13.24c.6,2.78,4.55,7.27,3.52,10-.3.77.85,1.14,1.26.53a6.74,6.74,0,0,0,.8-5.39c-.4-1.62-1.59-3-2-4.67-.55-2.11-.69-4.66-1-6.82-1.39-8.88-.88-19.75,2.6-28.1,3.07-7.38,6-14.39,10.57-21.05A171.66,171.66,0,0,1,127,163.08,1.21,1.21,0,0,0,125.25,161.37Z" transform="translate(10.55 11.83)"/><path class="cls-9" d="M261.38,164.74c-1.54-.51-3.09-1-4.64-1.39a1.09,1.09,0,0,0-.82-1.27,24.9,24.9,0,0,0-7.27-1.07c-.55,0-1.12.08-1.7.14A157.33,157.33,0,0,0,221.53,159a.81.81,0,0,0-.43-.12c-1.46,0-2.92,0-4.38.1h-1a141.08,141.08,0,0,0-21.21,2c-2.32.37-4.66.68-7,1l.71-.14c.77-.15.44-1.3-.33-1.18-5.05.85-10.19,1.68-15.16,2.88-4.69,1.13-9.16,2.83-13.82,4.07-4.46,1.19-8.94,2.27-13.41,3.41a29.58,29.58,0,0,0-5.89,1.91c-1.78.89-3.15,2.31-5,3.11-.85.38-.25,1.77.63,1.5,3.73-1.11,7-3.3,10.83-4.36,3.07-.85,6.12-1.74,9.17-2.65l-2.42,1.14A166.48,166.48,0,0,0,133,182.24c-9.82,6.45-21.33,18-22.11,30.48-.08,1.28,1.56,1.43,2.19.59a29.05,29.05,0,0,0,2.91-5.52h0a43.32,43.32,0,0,0-1.3,6.35Q113.25,217,112,220c-4.28,10-3.44,20.15-.77,30.49a1.82,1.82,0,0,0,1.14,1.25A29.76,29.76,0,0,0,113.41,262c.69,2.11,4.08,2.44,4.62,0,0-.22.06-.43.08-.64h0a6.91,6.91,0,0,0-.1-1.7q-.26-4-.27-7.95a37.21,37.21,0,0,0,2.13,6.25c1.2,2.69,5.89.75,4.81-2-.52-1.67-1-3.3-1.32-4.93a24.64,24.64,0,0,0,4.94,9,1.83,1.83,0,0,0,2.77-.23,2.81,2.81,0,0,0,1.53.42c10.12,0,20.2-.13,30.27-.82,5.1-.35,10.41.53,15.51.78a118.24,118.24,0,0,0,15.41-.36c10.65-.88,21.19.05,31.85-1.28,9-1.13,19.12-2.51,27.73-5.51a3.09,3.09,0,0,0,2.08-3.67,49.08,49.08,0,0,1,.19-14.62c.74-5.11.41-10.28.43-15.43.05-10.51,2.87-20.29,4.15-30.62.85-6.92.71-14.34-6-17.92a46.74,46.74,0,0,0-19-5.3l1.4-.11a1.61,1.61,0,0,0,1.57-1.61l1.7.13c3.38.3,6.64,1.27,10,1.49a59.59,59.59,0,0,1,10.95,1.34A1,1,0,0,0,261.38,164.74Zm-139.22,66.1c.1-2.05.26-4.09.53-6.11s.94-4.35.75-6.51a2.22,2.22,0,0,0-.53-1.24c2.28-2.91,4.3-6,6.44-9A63.27,63.27,0,0,0,122.16,230.84Zm17.7-43.27c-.55.32-1.11.63-1.68.94-3.68,2-7.46,4.09-10.43,7.07a1.64,1.64,0,0,0-1.21-2.53,63.23,63.23,0,0,1,12.32-9.23c5-2.88,10.16-5.72,15.52-8.22C148.7,178.79,143.49,182.8,139.86,187.57Z" transform="translate(10.55 11.83)"/><path class="cls-8" d="M205.39,164.67c-7.91-1.22-15.91-1.73-23.81-.39-9.44,1.6-17.31,5.26-25.84,9.45-15.11,7.42-30,18.08-39.69,32a46.87,46.87,0,0,0-8.58,23.86,64.15,64.15,0,0,0,.61,18.25c.78,4,1.29,7.52,5,9.83,1.26.8,2.32-1.13,1.15-2-3.78-2.69-3.83-10.47-4-14.47a71,71,0,0,1,.88-15.62c1.7-9.75,7.26-16.49,11.67-24.92,3.54-3.31,7.37-6.3,11.27-9.45a120.86,120.86,0,0,1,22.58-14.39c7.88-3.87,15.41-7.57,24.11-9.18a51,51,0,0,1,12.32-1,69.11,69.11,0,0,0,12.12.1C206.2,166.68,206.72,164.87,205.39,164.67Z" transform="translate(10.55 11.83)"/><path class="cls-8" d="M269.6,168.54a55.66,55.66,0,0,1-7-.55.58.58,0,0,0-.36-.36A52.44,52.44,0,0,0,251,165.9a78.65,78.65,0,0,0-12.11-1.56c-9.3-.31-20.35,1.12-29,4.48a.94.94,0,0,0,.49,1.81c10-1.76,20.18-3.72,30.37-3.35,9.76.35,19.13,3,28.88,2.62A.68.68,0,0,0,269.6,168.54Z" transform="translate(10.55 11.83)"/><path class="cls-10" d="M257.64,198.07c-1.17-2.72-3.72-3.46-6.24-4.54-.18-.08-.37-.13-.55-.2l2,.46a1.11,1.11,0,0,0,.59-2.14c-10.28-3.28-19.92-6.16-30.75-7-5.08-.41-10.27-.72-15.36-.73-4.9,0-10.15-1.51-15-.65-1,.17-1,1.82,0,2,3.61.52,7.1,1.49,10.69,2-3.75.78-7.48,1.74-11.15,2.86-3,.37-6,.82-9,1.4-6,1.17-11.35,3.67-16.88,6.05-4.17.87-7.76,3.29-11.19,5.91-3.69,2.83-8.13,3.6-11.24,7.38-4.61,5.61-7.94,11-9.8,18-4.28.39-2.66,10-2.63,12.34,0,.46,0,.94,0,1.43a45.42,45.42,0,0,1-.92-5.6c0-.13,0-.26,0-.39a28.12,28.12,0,0,1,2.28-10.1c.26-.62-.31-1.12-.88-1.16.53-1.11,1.11-2.2,1.63-3.3,4.12-8.71,10.18-15.06,17.67-21,.92-.72-.07-2.35-1.14-2-.39.15-.78.32-1.16.49,2.15-1.55,4.34-3,6.42-4.19,7.37-4.38,15.56-10,24.17-11.25.48-.07.37-.9-.12-.85a39.66,39.66,0,0,0-12.24,3.36,131.28,131.28,0,0,0-13.68,7.1c-6.5,3.93-13.66,9.21-17.22,16.09a.71.71,0,0,0,.21.95,61.36,61.36,0,0,0-5.69,10.49c-1.87,4.37-3.29,7.89-2.87,12.71,0,.43.09.85.14,1.28-.67,5.23.35,10.4,2.74,16a1,1,0,0,0,1.37.63,13.44,13.44,0,0,0,2.79,6.15c1.27,1.47,3.67.06,3.6-1.57.24-1.87-.64-3.86-.92-5.72-.65-4.25-.24-8.54-.28-12.82,0-.35,0-.82,0-1.34.25-1,.52-2,.8-3,0,3.21.21,6.45.36,9.56.22,4.36.5,8.3,2.06,11.94a2.62,2.62,0,0,0,.23,3.78c3.77,3.49,7.72,2.77,12.58,2.88,6.7.16,13.34,1.39,20.06,1.61,6.15.2,12.17-.84,18.31-1.07,6.38-.23,12.82-.34,19.2-.68,5.9-.32,11.78-.62,17.66-.83a72.05,72.05,0,0,0,8.27-1.12c3-.46,6.39.38,9.32-.58,3.74-1.24,6.19-5.5,8.32-8.56,3.09-4.45,3.42-10.55,4.17-15.76.86-6,.69-12.08.69-18.15S260.08,203.77,257.64,198.07Zm-22.32-6.81-1.41-.13c-1.73-.56-3.45-1.16-5.18-1.7a26.94,26.94,0,0,0-4.59-.94,170.53,170.53,0,0,1,21,3.51C241.8,191.59,238.33,191.55,235.32,191.26Z" transform="translate(10.55 11.83)"/><path class="cls-9" d="M263.33,199.84c-3-.71-5.84-2.85-8.64-4.08a50.49,50.49,0,0,0-7.43-2.25c-3-.81-5.82-2.08-8.82-3s-6.19-1.23-9.24-1.93c-6-1.38-12.47-1.25-18.61-2-7.32-.86-14.87-.58-22.23-.81-12.09-.37-24.18,5.07-34.38,11.06l-.93.55a1.32,1.32,0,0,0-1.85-.11c-1.61,1.35-3.15,2.68-4.62,4.08a50.17,50.17,0,0,0-7.37,5.71c-4.58,4.37-5.66,9.82-7.31,15.78a1.12,1.12,0,0,0,.58,1.38c-1.33,2.89-2.22,5.82-1.54,8.27a.75.75,0,0,0,.06.13c0,.05,0,.1,0,.16-1.69,8.4.83,15.3,5.08,22.51a1.24,1.24,0,0,0,2.28-.5,1.15,1.15,0,0,0,.93-.8c4.92-14.59,10.76-27,22.32-37.55,2.32-2.11,4.8-4,7.13-6.12,3.22-2.89,4.54-4,8.9-5.24,7-1.94,13.8-4,21-4.9a.52.52,0,0,0,.39-.81c6.49-.72,13-1,19.53-1.45,7.54-.55,15.1-2,22.66-.8,7.27,1.13,14.17,4.49,21.37,5.48C264.35,202.9,265.21,200.28,263.33,199.84Zm-44-5.18c-7.12.6-14.37,1-21.43,2.14-4.41.7-8.93,1.4-13.26,2.52-4.1,1.07-8,2.69-12.22,3.34-.65.1-.5,1.18.15,1.15.38,0,.75-.07,1.12-.1-5.1,1.75-9.4,5.87-13.43,9.32a66.65,66.65,0,0,0-14.63,17.36c-4.19,7-6.25,14.17-8.4,21.94-3.08-6.19-4.66-11.7-3.58-18.41a1,1,0,0,0,.39-.7c0-.27.08-.53.12-.8-.08,3.6.14,7.22.38,10.8a.54.54,0,0,0,1.07,0c.26-4.39.17-8.8.4-13.19a35.69,35.69,0,0,1,.46-3.91c.29-.64.57-1.28.85-1.93a45.87,45.87,0,0,1,13.06-13.09A170.77,170.77,0,0,1,170,200.23c1.45-.73.88-2.72-.42-3.19-4.35-1.6-7.84.91-11.45,3.23a137,137,0,0,0-12.37,8.59c-.77.62-1.5,1.28-2.22,2a49.48,49.48,0,0,1,3.63-5.29c3.89-2.51,8-4.7,11.87-7.19,5.12-3.29,11.6-5,17.3-7.11,6.1-2.29,12.46-1.77,18.85-1.87a189,189,0,0,1,37.2,2.83,51.93,51.93,0,0,1,5.2,1.28C231.49,193.2,225.47,194.16,219.36,194.66Z" transform="translate(10.55 11.83)"/><path class="cls-9" d="M150.38,214.91c-.89.28-1.76.62-2.63,1s-1.65.52-2.41.9a.53.53,0,0,0,.12,1c1.77.39,3.71-.73,5.37-1.2C151.87,216.24,151.42,214.58,150.38,214.91Z" transform="translate(10.55 11.83)"/><path class="cls-9" d="M156.45,255.63c-1.07-.45-2.63-.65-3.5-1.45s-1-2.13-1.26-3.12c-.21-.77-1.29-.43-1.17.32.2,1.3.26,2.85,1.25,3.82s2.82,1.18,4.15,1.68C156.64,257.14,157.16,255.94,156.45,255.63Z" transform="translate(10.55 11.83)"/><path class="cls-9" d="M150.1,235.67a.05.05,0,0,0,0,.1A.05.05,0,1,0,150.1,235.67Z" transform="translate(10.55 11.83)"/><path class="cls-9" d="M248.7,210.06c-.45-.3-1.07-.23-1.59-.39a19.39,19.39,0,0,1-1.82-.76.36.36,0,1,0-.28.66,16,16,0,0,0,2,.79,2.15,2.15,0,0,0,1.67,0A.19.19,0,0,0,248.7,210.06Z" transform="translate(10.55 11.83)"/><path class="cls-9" d="M204,209.18c-10,2.57-20.16,5.06-29.28,10.09-8.21,4.52-12.44,11.68-15.6,20.31-.21.58.72,1,1,.42,2.13-4.06,3.55-8.2,6.2-12,2.95-4.24,6.56-6.48,11.14-8.7,8.51-4.12,17.76-6.53,26.83-9A.56.56,0,0,0,204,209.18Z" transform="translate(10.55 11.83)"/><path class="cls-9" d="M158.6,254.67a.05.05,0,0,0,0,.1A.05.05,0,1,0,158.6,254.67Z" transform="translate(10.55 11.83)"/><path class="cls-9" d="M164.1,239.67a.05.05,0,0,0,0,.1A.05.05,0,1,0,164.1,239.67Z" transform="translate(10.55 11.83)"/><path class="cls-9" d="M177.1,229.73a1.49,1.49,0,0,0,0,3A1.49,1.49,0,0,0,177.1,229.73Z" transform="translate(10.55 11.83)"/><path class="cls-11" d="M243,143.43c-.35-6.42-.43-12.64-2.63-18.64,1-3.34,2.15-6.39,2.18-10,0-4.68.51-9.29.5-14,0-9.24-.05-19.15-4.11-27.71-3.48-7.35-9.33-12-15.09-17.56A69.41,69.41,0,0,0,215,47.75a38,38,0,0,0-6.46-4c-1.39-5.46-5.12-9.79-9-14-2.31-2.49-5-4.08-7.87-5.89-3.25-2.09-6-4.91-9.41-6.66-7.18-3.63-13.44-3.9-21.34-3.95-6.55,0-12.6-.38-18.68,1.34a2.84,2.84,0,0,0-.54-.43,13.2,13.2,0,0,0-4.74-2.25,28.59,28.59,0,0,0-8.74-1.64A119.25,119.25,0,0,0,107.92,12c-7.48,1.13-14,5.14-21.07,7.63-6.48,2.29-11.59,6.17-17.84,8.8a6.84,6.84,0,0,0-4.28,4.65c-4,1.39-8.27,2.36-12.32,3.69a34.8,34.8,0,0,0-13.31,7.8C31.63,51.2,24.62,57.25,19.39,65.89a38.72,38.72,0,0,0-4.76,13c-.75,4.45-1.77,8.74-2.62,13.17C11,97.6,11.48,103.45,11.65,109a52.66,52.66,0,0,0,.71,8,44.2,44.2,0,0,0,1.57,5.23,5.76,5.76,0,0,0-1.61,2.85C11,130.36,9,134.82,9.09,140.41c.05,4.94.94,9.74,1.55,14.58.7,5.59.86,10.55,2.67,16,1.88,5.64,3.49,11,7,15.85,2.51,3.54,4.15,7.74,6.83,11.16,2.52,3.21,6.91,6.3,10.24,8.66,2,1.39,4.35,2.19,6.5,3.29,2.54,1.3,5,2.7,7.61,3.87,3,1.34,5.23,2.38,7.87,2.73l.11.21a40.92,40.92,0,0,0,9.25,10.66c2.25,1.68,4.82,2.4,7.31,3.62s4.72,2.93,7.15,4.27a102,102,0,0,0,14.61,6.16c5.56,2,11,4.12,17,4.68,10.63,1,21.79,2.93,32.42,1.52,10-1.33,22.52-3.88,29.73-11.7a6.71,6.71,0,0,0,.9-1.24h.54a37.88,37.88,0,0,0,11.78-1.8c.38-.12,2.87-.94,1.91-.8a35.21,35.21,0,0,0,5.26-.93,45.42,45.42,0,0,0,9.4-4c1-.65,2.53-2.48,3.23-2.86.31-.18,2.78-.76,3.55-1.21a20.46,20.46,0,0,0,6.57-6.62c0-.1.08-.17.11-.25a12.81,12.81,0,0,0,3.25-2.88c2.54-2.87,4-6.41,6.07-9.55a78.31,78.31,0,0,0,12.92-38.16A173.29,173.29,0,0,0,243,143.43Z" transform="translate(10.55 11.83)"/><path class="cls-12" d="M166.1,41.27a15.63,15.63,0,0,0-6.43,2.49c-3.07,2.3-2.49,6.21-2.73,9.62-.36,5-1.82,9.79-5.42,13.46a.67.67,0,0,1-.63.2c-8.18,2.51-18.14-.19-24.45,6.79a56.48,56.48,0,0,0-5.75,8.37,8.84,8.84,0,0,1-3.14,3.25c7,3.8,8.44,11.77,10.24,19.11h0c3.61,0,7.57-.55,11,.84,3.21,1.29,5,4.34,7.95,6,3.34-3.08,7.3-1.52,11.4-1.94,1.28-6.43,7.77-9.47,13.44-11.53a22.16,22.16,0,0,1-1-12.63c.6-3.31,1.53-6.5,1.81-9.87.24-2.76.06-5.52.32-8.27a.77.77,0,0,1-.53-1.12c2.71-4.86,8.66-9.57,6.64-15.71C177,44.47,172.4,40.08,166.1,41.27Z" transform="translate(10.55 11.83)"/><path class="cls-13" d="M230.52,144.18c-.42-3.3-1.24-17.89-5.75-21.91,3.2-4.19,4.18-10,5.28-15.66,2-10.11-.17-18.44-4.37-27.84-4-8.94-8.77-15.45-17.56-19.93-2.64-1.35-6.77-4-10-4A94.4,94.4,0,0,0,191.57,45c-4.11-5.71-9.1-12.44-15.29-16.05-6-3.47-13-3.31-19.51-2-3.28.64-9.38,1.55-12.18,4.6C139.22,27.38,132,25,125.75,24c-11-1.87-21.38,2.26-31.22,6.68-6.48,2.91-16.24,7.1-19.64,14a84.41,84.41,0,0,0-16.38,4.48C48.66,52.8,40,61.07,34.42,69.72c-2.88,4.44-5,10.72-6.5,15.79-1.4,4.75-2.64,11.12-2.32,16.08a117.26,117.26,0,0,0,6.33,31.18,30.46,30.46,0,0,0-4.21,10.34c-.89,4.74.63,10,1.27,14.75.76,5.58,2.67,11.27,4.19,16.69a2.72,2.72,0,0,0,.9,1.38,43.76,43.76,0,0,0,9.55,14.76,79.55,79.55,0,0,0,16.58,11.66c2.38,1.25,6.31,3.79,10,5.08,3.21,5,11.63,9.77,15.77,12.23,9.94,5.9,20.33,10.55,31.81,12.65a65.3,65.3,0,0,0,31.4-2.13c8.05-2.67,16.79-5.48,22.94-11.55a37.77,37.77,0,0,0,5.84-.44,66.14,66.14,0,0,0,11.4-.79c4.23-.65,9.56-1.61,12.15-5.24.25-.14.51-.26.75-.41,9.33-5.72,15.54-18.43,19.64-28.19C227.16,171.16,232.29,157.87,230.52,144.18Zm-56.7-77.81a.6.6,0,0,1,.47.69c-.42,4.47-.15,8.87-1,13.3-1.19,6-2.69,11.5-.11,17.43a.81.81,0,0,1-.31,1.3c-5.42,1.91-12.15,4.64-13.28,11h0a.61.61,0,0,1-.53.77c-3.89.56-8.34-1.29-11.45,1.83a.68.68,0,0,1-.79.16.7.7,0,0,1-.64,0c-2.54-1.37-4.11-3.84-6.54-5.31-3.49-2.12-7.93-1.48-11.82-1.43a.67.67,0,0,1-.48-.17.69.69,0,0,1-.89-.51c-1.81-7.3-3-16-10.87-19.23a.79.79,0,0,1-.49-.66.67.67,0,0,1,.49-.94c3.46-.73,4.58-4.9,6.39-7.5a27,27,0,0,1,6.16-6.84c6.39-4.54,15.27-2.45,22.42-4.66h.09c3.58-3.77,4.66-8.62,4.85-13.71.1-2.56,0-5.64,1.66-7.79,2.67-3.52,9.33-5.23,13.52-4.5,4.78.83,8.56,6.44,9.82,10.78C182.32,56.68,176.77,61.38,173.82,66.37Z" transform="translate(10.55 11.83)"/><path class="cls-14" d="M119.19,88.33a11.88,11.88,0,0,0-2.84-.22c-.46-.46-.86-1.15-1.61-1.25-3.74-.51-6.64,1.9-9.86,3.45l-.51.15a2.92,2.92,0,0,0-.94.12c-3.8,1.11-7.41,2.4-11,3.82a2.53,2.53,0,0,0-3.12,1.29c-3.43,1.46-6.83,3-10.29,4.82-6.5,3.34-12.13,7.22-19,9.69-5.9,2.11-9.71,6.39-14.15,10.83-1,1-2,1.93-3,2.89.47-.69.89-1.36,1.28-2s.77-1.26,1.14-1.9c3.6-3.79,7.5-7.23,12.48-9.47,8.67-3.91,16.44-9.61,25-13.79a241.87,241.87,0,0,1,23.25-9.87c4.08-1.49,12.73-2.31,14-7.32,1.6-6.27-8.43-7.73-12.3-9.12-7.31-2.62-14.2-6-22.1-6.83-5.37-.59-10.77-.71-16.15-1.38-1.37-.17-2.56-.37-3.69-.54a44.94,44.94,0,0,1,14.72-1.61c8.53.25,14.47,4.42,22.42,6.36a1.89,1.89,0,0,0,1-3.64C99.16,61.47,95.16,58.36,90.3,57c-4.35-1.19-9-1.17-13.51-1.23-5.68-.08-17.4.75-21.12,6.23-.78.2-1.55.41-2.3.65a2.71,2.71,0,0,0-1.75.4c-.19.13-.37.28-.56.42A35.84,35.84,0,0,0,36.9,74,39.26,39.26,0,0,0,30,86.59c-1.44,4.06-.87,8.15-1.24,12.41-.66,7.54-1.33,18.91,2.89,25.66a3,3,0,0,0,.89.92l-.49.62c-1.73,2.17-.18,5.43,2.77,4.76a6,6,0,0,0,.82-.25,61.22,61.22,0,0,0-4.94,5.41c-7.59,9.53-3,25.72,1.4,35.69,2.86,6.5,7.82,12.85,12.68,18.05,4.7,5,12.84,7.16,16.37,13.09,2,3.3,7.14.3,5.17-3a84.88,84.88,0,0,1-5.84-11c2.63-13.76,5.87-26.28,12.29-39.26,2-4.15,4.25-8.23,6.64-12.17a2.49,2.49,0,0,0,.6-.42c2.94-2.89,5.71-5.89,8.38-9-8.26,13.27-15.16,26.91-16.79,43-.16,1.57,2.23,1.52,2.42,0,1.49-11.66,5.56-21.44,11.7-31.42,4.63-7.51,10-14.7,13.24-23a1.16,1.16,0,0,0,0-.75,54.65,54.65,0,0,0,4.72-5.64,2.73,2.73,0,0,0-.34-3.4c1-1,2.05-1.89,3-2.89.51-.55,1.82-1,2.12-1.32a2.27,2.27,0,0,0,.85-.37l.57-.41c1.51-1.09,2-3.91.38-5a7.42,7.42,0,0,0,3-3.54c1.85-.08,1.15,0,2.86,2.54,2,2.87,1.47,6.43,3.31,9.17,1.24,1.86,4.53,1.82,5.07-.66C125.82,98.82,125.58,90.2,119.19,88.33ZM71,95.13a2.64,2.64,0,0,0,.74-.1,4.64,4.64,0,0,0,1.32-.66,2.73,2.73,0,0,0,.48.48c-1.55.87-3.09,1.73-4.65,2.58A16.42,16.42,0,0,0,71,95.13ZM37.35,119.61c0-.47,0-1,0-1.42a6.48,6.48,0,0,0,1.9-1.23l.23.12C38.78,117.91,38.06,118.76,37.35,119.61ZM47.92,184c-.64-.67-1.27-1.37-1.88-2.09-.25-.42-.49-.88-.73-1.35a1.89,1.89,0,0,0,.66-.1,2.6,2.6,0,0,0,.25-.1,21.79,21.79,0,0,0,1.94,3.72A.85.85,0,0,1,47.92,184Z" transform="translate(10.55 11.83)"/><path class="cls-14" d="M165.31,214.41a44.8,44.8,0,0,1-5.41,3.38c-9,2.91-25.74.7-30.2-3.75-4.68-4.66-6.55-12.76-8.32-18.81-.24-.82-.47-1.65-.7-2.47a157.7,157.7,0,0,1-.07-19.08,28.54,28.54,0,0,0,1.62,4.83c.47,1.06,2.23.52,2.17-.59-.55-10-1.07-19.68.09-29.64a64,64,0,0,0,1.7-8.37.71.71,0,0,0-.36-.74c.47-2.78,1-5.55,1.69-8.27.61-2.4,4.48-11,3.28-11.86a1.07,1.07,0,0,0,1.57-1.2l-.11-.35a1.21,1.21,0,0,0-2-.53c-6.64,6.11-7.53,20.57-9.07,28.8a110.07,110.07,0,0,0-1.54,11.14,128.66,128.66,0,0,0-2.54,16.26,111.45,111.45,0,0,1-.28-12.52,13.5,13.5,0,0,0,.54-7.21c.29-2.55.67-5.09,1.19-7.64,1.08-5.25,2.61-10.52,4-15.68.2-.75.46-1.53.73-2.33a75.57,75.57,0,0,0,4-9.21c1-2.77,3.18-3.66,2.94-7.74a3,3,0,0,0-5-2.1c-2.77,2.6-4.74,6.19-6.63,9.55a14.37,14.37,0,0,0-3.05,5.2c-2.48,4.15-5,8.27-7.5,12.41-.45.73-.86,1.45-1.3,2.18a2.57,2.57,0,0,0-2.82.83c-2.72,3-4.11,6.79-5.24,10.74-2.57,5.57-5.1,11.14-7.73,16.69-4.14,8.74-9.22,17.19-13.05,26-1.86,4.3-6.9,10.35-7.24,15.14-.42,5.67,4.87,7.86,9.27,9.68a4.17,4.17,0,0,0,2.69,1.14c1.85.81,3.66,1.63,5.47,2.43,2,2.32,4.77,3.52,7.41,3,1.62.57,3.29,1.08,5,1.51a137,137,0,0,0,25.55,4.3,86.73,86.73,0,0,0,21-1.15,47.62,47.62,0,0,0,16-5.37,13,13,0,0,0,5.93-3.93C170.87,216.73,168.32,212.2,165.31,214.41Zm-54-29.19c.18-1.9.3-3.68.41-5.15.32,2,.7,3.88,1.11,5.81A2.64,2.64,0,0,0,111.31,185.22Zm24,38.86a2.91,2.91,0,0,0-.3-.78c.28.06.56.13.86.17l2.73.4C137.53,224,136.43,224,135.33,224.08Z" transform="translate(10.55 11.83)"/><path class="cls-14" d="M139.09,62.14c-1.3-3.91-1.8-8-4.47-11.31-2.51-3.12-6.35-5.89-9.39-8.52-5.63-4.86-13.82-9.31-21.59-10.17a50.55,50.55,0,0,1,7.66-2.62c2.13-.21,2-3.54-.29-3.74-6.88-.58-18.43,3.26-22.24,9.71-2.36,0-4.65.47-6,1.66A2.63,2.63,0,0,0,82,39.29a2.72,2.72,0,0,0,.94,3.6c2.65,1.83,8.65.17,11.68,0,1.65.35,3.27.76,5,1.19,5.26,1.3,10.22,2.19,15,4.88a54.6,54.6,0,0,1,9.56,6.87c3.35,3,4.09,7.94,7.62,10.46a2.88,2.88,0,0,0,3,0,8,8,0,0,0,1-.83C137.61,65.86,139.86,64.43,139.09,62.14Z" transform="translate(10.55 11.83)"/><path class="cls-14" d="M212.12,197.81a2.05,2.05,0,0,0-3.4-2c-1.53,1.49-3.53,1.65-4.76,3.67a35.63,35.63,0,0,1-3.13,4.52,10.52,10.52,0,0,1-4.16,1.52c.08-.09.09-.22,0-.41-.36-.67-.68-1.34-1.1-2-1.6-2.44-3.35-4.57-4.79-7.17a2.73,2.73,0,0,0-2.95-1.36,114,114,0,0,0-1.47-37.33,15.35,15.35,0,0,0-1.4-6.61,2.49,2.49,0,0,0,.34-1.72,41.89,41.89,0,0,0-4-12.3,2.46,2.46,0,0,0,.11-1.1c-.61-5.68-4.44-11.11-7.54-15.76a2.65,2.65,0,0,0-.36-.44,65,65,0,0,0-6.62-12.76c-2.11-3.29-6.78-.45-5.18,3a2.45,2.45,0,0,0-.83,3.94,48.63,48.63,0,0,1,5.61,8.14c0,3,1.94,6.79,2.63,9.08,2.28,7.52,3.73,16.12,7.77,22.94a2.84,2.84,0,0,0,3.6,1.1,19.59,19.59,0,0,0,.72,2.08c0,.43,0,.87,0,1.31a1.36,1.36,0,0,0-1.29,1.48c.39,3,.59,6.09.69,9.13-.44-2.25-.92-4.49-1.45-6.69a1.29,1.29,0,0,0-2.52.34c-.47,9.07.43,18.62,1.3,27.66a36.07,36.07,0,0,1-1.89,15.73c-1.13,3.31-3.21,6.47-3.11,10a3,3,0,0,0,5.15,2.08,4,4,0,0,0,1.42.41c6.09.64,16.18-1.82,21.21-5.67a35.07,35.07,0,0,0,6.6-6.51l1.25-1.78a17.71,17.71,0,0,0,1.63-2.42,3,3,0,0,0,.2-.48,18.29,18.29,0,0,0,1.69-3.69Z" transform="translate(10.55 11.83)"/><path class="cls-15" d="M157.12,100.94a2.66,2.66,0,0,0-3.51.59,2,2,0,0,0-.55.09c-2,.64-2.41,1.14-3.94,2.66a6.89,6.89,0,0,1-1,.73l0-.22a2.75,2.75,0,0,0-2.66-2.07,2,2,0,0,0-.1-.38c-1.05-2.83,2.9-7.37,4.1-9.61s2.3-4.59,3.45-6.89a2.6,2.6,0,0,0-2.35-3.92,17.65,17.65,0,0,0,1.4-3.57,1.91,1.91,0,0,0,2.37-.79c2.2-3.56,4-8.08,4-12.33,0-2.56-2.93-3.37-4.68-1.94-2.2,1.8-3.56,4.28-5.51,6.35-2.77,2.93-6.17,5.19-9.43,7.53-1.37,1-2.94,2-4.48,3.11a2.7,2.7,0,0,0-.91-.77A81.16,81.16,0,0,1,140,74.15c1.85-1.51.25-4.48-1.87-4.5-3.24,0-5.69,1.85-8.18,3.64-2.35,1-4.73,1.84-6.79,3.59s.11,4.87,2.47,4.56a12.58,12.58,0,0,0-.74,2.06,2.74,2.74,0,0,0,0,1.07c-1.59,1.8-2.22,4.11-.79,6.2a13.28,13.28,0,0,0,2.36,4.37,5,5,0,0,0-.06,3.6,5.62,5.62,0,0,0,.38.69,2.63,2.63,0,0,0-.09.3,3.09,3.09,0,0,0,1.82,3.57,4.34,4.34,0,0,0,2,2,3,3,0,0,0,3.05,0c4.11-2.65,4.36-1.21,7.13,1.53a8.45,8.45,0,0,0,2.64,1.91,5.38,5.38,0,0,0,5.3,2.75,6.93,6.93,0,0,0,2.46-1,7.62,7.62,0,0,0,2-1.24l.47-.61c.25-.19.45-.36.63-.52a2.52,2.52,0,0,0,1.4.44C160.22,108.46,160.7,103.29,157.12,100.94Zm-17.45-3.71c.88-.58,1.72-1.19,2.52-1.82l-.27.62A20.63,20.63,0,0,0,141,98.3a10.69,10.69,0,0,0-1.32-1.07Z" transform="translate(10.55 11.83)"/><path class="cls-15" d="M167.5,62c-.47-1.81-.88-3.65-1.41-5.43a36.71,36.71,0,0,1-1.39-4.92,37.58,37.58,0,0,0-.41-3.81l0,.07c-.59-2-3.62-3-4.71-.69-1.39,2.88-.4,6.24.45,9.17.93,3.2,1.63,6.59,2.71,9.72.71,2.07,4.19,3.15,5.25.69.16-.36.3-.92.48-1.25A2.56,2.56,0,0,0,167.5,62Z" transform="translate(10.55 11.83)"/><path class="cls-16" d="M141.79,107.36l0,0Z" transform="translate(10.55 11.83)"/><path class="cls-16" d="M157.56,105.15c-2.18-.93-3.43-.48-5.57.22-.58.19-5.38.79-4.91,1.61a1.33,1.33,0,0,0-.8-.63,2.35,2.35,0,0,0,.07-1c0,.21,0,.06,0-.06a3.26,3.26,0,0,0-.36-1.32,5.48,5.48,0,0,0-1.37-1.5c.32.27-.55-.46-.5-.43l-.5-.33c.26.18,0,0-.11-.08s-.36-.37-.53-.56a3.57,3.57,0,0,0-2.6-1.47,2.61,2.61,0,0,0-1.38.38h0a1.83,1.83,0,0,0-1.26-1,12,12,0,0,0-3.2-.07c0-.12,0-.25.05-.37a11.07,11.07,0,0,0,2.87-4.06c1.87-2,3.61-4.36,5.12-6s4.32-4.31,3.64-6.9a1.58,1.58,0,0,0-.33-.61c1.51-2.4,3-4.83,4.37-7.3a18.13,18.13,0,0,0,4.61-8,1.15,1.15,0,0,0-2.09-.88c-5.69,7.85-13.83,12.61-21.42,18.37a3.65,3.65,0,0,0-.27-.3l-.13-.1a12.73,12.73,0,0,0,3-5.22,1.9,1.9,0,0,0,.09-.53,2,2,0,0,0,.41-2.94c-2.6-3.12-7.49.07-9.6,3.68-3.12,3.81-4.78,9.38-1.51,12.41a4.52,4.52,0,0,0,1.35.84,6.82,6.82,0,0,0,1.58,2.18,7.73,7.73,0,0,0,.75.59,6.62,6.62,0,0,0,1.75,4.52,8.48,8.48,0,0,0,.82,5.1,3,3,0,0,0,2.6,1.48,7.25,7.25,0,0,0,5.4-1.54,1.76,1.76,0,0,0,.27.4,3.87,3.87,0,0,0,.45.35,6.6,6.6,0,0,0,1.51,2,7.77,7.77,0,0,0,1.09.79c.13.08.73.34.91.42a10.13,10.13,0,0,0,1.33.38c-.29,0-.09.08.59.1l.07,0a1.92,1.92,0,0,0,.54.13.51.51,0,0,1,0,.13c.94,2.48,2.52,3,5.1,2.43a32.4,32.4,0,0,0,3.54-.8c1.45-.5,2.1-1.48,3.74-1.5S159.17,105.84,157.56,105.15Z" transform="translate(10.55 11.83)"/><path class="cls-16" d="M163.66,55.71a24.32,24.32,0,0,0-3.09-9.11,1.13,1.13,0,0,0-2.06.87,64.76,64.76,0,0,1,1.65,9.87c.22,2.62.13,5.31,1.23,7.74a1.61,1.61,0,0,0,2.91-.38C164.81,61.82,164.08,58.59,163.66,55.71Z" transform="translate(10.55 11.83)"/><path class="cls-17" d="M137,104.62a5.05,5.05,0,0,0-1.68-.82,6,6,0,0,1-.59-.13,2.47,2.47,0,0,1-.44-.27,2.17,2.17,0,0,0-1.37-.72,2.54,2.54,0,0,0-.19-.69,6.35,6.35,0,0,0-1-1.66l-.09-1.09c-.24-1.82-.69-3.59-.89-5.44-.18-1.7-.12-3.25-1.7-4.37a7.74,7.74,0,0,0-1.15-.69,21,21,0,0,0-.31-2.54,2.46,2.46,0,0,0-3-1.71,2.09,2.09,0,0,0-.45.22,4.66,4.66,0,0,0,.3-.46A13.19,13.19,0,0,0,126,81.32c.67-2-2.61-3.5-3.54-1.49-1.25,2.69-2.41,8.33.49,9.47A4.8,4.8,0,0,0,123.2,92c.57,1.15,2.15,1.24,2.61,2,.13.23-.17,2.2.35,3.06a3.75,3.75,0,0,0,.79,1c-.9,2.16,0,4.7,1.54,6.47a2.49,2.49,0,0,0,2.3.69,1.4,1.4,0,0,0,1.5.86h.18a5.68,5.68,0,0,0,1.65.73c1,.22,1.94.67,2.91,0A1.29,1.29,0,0,0,137,104.62Z" transform="translate(10.55 11.83)"/><path class="cls-17" d="M142.85,105.88c-.65-.26-1.17-.71-1.92-.5-.28.08-.39.26-.63.38l-.21.28c-.25,0-.51-.07-.76-.09-.6,0-.67.84-.14,1a8.3,8.3,0,0,0,1,.22,6.72,6.72,0,0,0,.44,1.31,4.43,4.43,0,0,0,1.76,1.7,3.41,3.41,0,0,0,3.39.25,2.25,2.25,0,0,0,1.35-2.3C146.8,106,144.3,106.45,142.85,105.88Z" transform="translate(10.55 11.83)"/><path class="cls-18" d="M171.72,41.63a3.57,3.57,0,0,0-4.45,1.45,4.37,4.37,0,0,0-.58,1.81c-4.41,2.2-2.68,6.86.82,10.32a8.47,8.47,0,0,0,1,3.6,2.82,2.82,0,0,0,3.12,1.27,5.11,5.11,0,0,0,1.91-1,6.61,6.61,0,0,0,3.53.27C185.67,57.21,176.59,43.33,171.72,41.63Z" transform="translate(10.55 11.83)"/><path class="cls-18" d="M171.14,73.33c0-.74-.06-2.35-.39-1.68a1.2,1.2,0,0,0,0-1.19,2.14,2.14,0,0,1-.13-.19A1.53,1.53,0,0,0,169,69.6c-2.68.5-3.77,3.25-4.27,6.07a4,4,0,0,0-.23.39c-3.8-2.57-6.75,3.71-8.46,8.55a77.59,77.59,0,0,0-6.13,11.14c-1,2.48,3.16,3.91,4.19,1.56a49.92,49.92,0,0,1,3.17-5.18,1.82,1.82,0,0,0,.33,0,6.75,6.75,0,0,0,.68,1.88A3.11,3.11,0,0,0,161,95.49a3,3,0,0,0,4.42,2c.12-.06.22-.14.33-.2a2.13,2.13,0,0,0,3.41-1c.74-3.35.08-6.61,0-10,0-.8-.11-2-.17-3.46a27.81,27.81,0,0,1,1.29-6.13A10.4,10.4,0,0,0,171.14,73.33Zm-7.88,6.4c-.29,1.69-.38,3.39-.54,5.09a1.59,1.59,0,0,0-.21.15,6,6,0,0,0-.29-1.43c-.05-.14-.13-.24-.19-.37A11,11,0,0,1,163.26,79.73Z" transform="translate(10.55 11.83)"/><path class="cls-19" d="M178,48.52c-1.27-2.15-2.89-4.17-4.07-6.33-1.59-2.9-5.28-1.2-5.63,1.52,0,.12,0,.24,0,.36a4.18,4.18,0,0,0-.85,2.32c-.11,2.53,1.84,4.6,3.29,6.45a15.61,15.61,0,0,0,2.77,3.08,5.69,5.69,0,0,0,1.86,1.43,2.09,2.09,0,0,0,3-1.18,3.6,3.6,0,0,0,1.41-2.35C180,51.94,178.88,50.08,178,48.52Z" transform="translate(10.55 11.83)"/><path class="cls-19" d="M171.64,71.12a2,2,0,0,0-3.29-1.91c-2.73,2.85-3.51,8.25-3.76,12-.05.66-.05,1.31-.06,2a1.42,1.42,0,0,0-2.17-.06,8.47,8.47,0,0,0-.69.89,1.85,1.85,0,0,0-1.14,0,7.16,7.16,0,0,0-3.78,3.43c-1.59,2.63,2.05,5.4,4.22,3.25a2.88,2.88,0,0,0,.32-.39c.75,3.71,3.37,7.27,6.86,7.5A2.84,2.84,0,0,0,171,95c-.79-7.08-1.88-14.56-.05-21.61C171.2,72.64,171.44,71.88,171.64,71.12Z" transform="translate(10.55 11.83)"/><path class="cls-20" d="M179.26,49a13.37,13.37,0,0,0-2.15-2.3,18.05,18.05,0,0,0-2.7-2.34,1.9,1.9,0,0,0-2.76,2.12c.3,1.86,1.51,3.06,2.61,4.52a12.63,12.63,0,0,0,.76,1.4.3.3,0,0,0,.11.06,4.17,4.17,0,0,0-.2.61,2.35,2.35,0,0,0,.6,2.27l-.26-.36c1.13,1.86,3.44,1.58,4.62,0S180.32,50.5,179.26,49Z" transform="translate(10.55 11.83)"/><path class="cls-20" d="M169.89,83.43c0-4.16,1.24-7.91.4-12.05a1.18,1.18,0,0,0-2.25,0c-1.55,7.54-5.12,15.77.46,22.63a1.21,1.21,0,0,0,1.7,0C173.12,90.62,169.94,87.27,169.89,83.43Z" transform="translate(10.55 11.83)"/><path class="cls-21" d="M117.45,90.44c-4.76-2.82-10.06-3.11-15.43-2,3.56-1.11,7.13-2.14,10.68-3.1s2.39-5.51-.79-5.85l-.78-.07a.78.78,0,0,0-.42-.92c-11.52-5.84-26.34-3.85-38.61-1.35-1.32,0-2.63.09-3.95.19-7.26.55-14.33,2.41-21.45,3.81-.83.17-1.61.34-2.37.52h-.06c-1.13.08-2.83.63-3.87.33a2.1,2.1,0,0,0-.43-.08,2.2,2.2,0,0,0,.13-.51c.23-1.58,1.73-3.09,2-4.9a2.44,2.44,0,0,0-1.26-2.18L40.18,74a2.63,2.63,0,0,0-3.14.41A32,32,0,0,0,30.28,88l-1.84,1.27c-1.65,1.18-.29,3.82,1.47,3,0,.27,0,.54,0,.8C27.46,95,26.55,99.22,26.67,104a10.3,10.3,0,0,0,.54,5.44,33.64,33.64,0,0,0,3.09,9.8c-.1.19-.2.39-.3.56a2.78,2.78,0,0,0,1.05,4,11.19,11.19,0,0,0-1.8,4c-.56,2.68,3,5.42,5,2.93,1.51-1.81,3-3.76,4.43-5.68a3,3,0,0,0,.65-.82.18.18,0,0,0,0-.07l.69-.88c1.25-1.25,2.49-2.52,3.68-3.83,3.39-2.62,6.9-4.89,8.78-6.19A212.32,212.32,0,0,1,74.75,99.36a147.78,147.78,0,0,1,17.48-7.62c-7,3.13-13.64,7.47-19,10.44l-4.73,2.62A7.93,7.93,0,0,0,66,106.22a136.69,136.69,0,0,0-19,12.11c-6.16,4.91-8.68,12.19-13.35,18-12.36-2.78-4.52,26.37-2.26,32,4.58,11.36,15,26.17,26.79,31.5.73.57,1.47,1.15,2.18,1.75a1.51,1.51,0,0,0,2.13-2.13c-2-2.26-4.3-4.26-6.38-6.45q-1.64-2.11-3.35-4.21c-.19-.29-.39-.58-.57-.89-2.91-5.11-4-10.73-4.56-16.49a39.69,39.69,0,0,1,.1-9.12.92.92,0,0,0,1-.44c3.16-6.12,3.78-13.09,7.35-19.09a1.37,1.37,0,0,0,0-1.46,107.21,107.21,0,0,1,11.44-13.57c-6.78,8.05-12.24,16.58-14.67,27-.19.82,1,1.41,1.41.6,5.16-10.07,9.43-19.33,17.26-27.85a219.92,219.92,0,0,1,23.22-22.32c4.8-1.62,9.69-4.65,13.92-7A3,3,0,0,0,110,94.85a3.84,3.84,0,0,0-1-2.07,12.12,12.12,0,0,1,5.93.94,3.77,3.77,0,0,0,1.5.48C118.51,94.48,119,91.38,117.45,90.44Zm-45.18-9.7c-5.48.86-11.58,1.14-17.59,1.89l3.44-.77c3.9-.72,7.83-1.28,11.74-1.69a105.38,105.38,0,0,1,10.66-.52C77.79,80,75.05,80.3,72.27,80.74ZM33.1,142.48c.12.06.25.1.37.15-.17,1.17-.31,2.36-.39,3.57-.06.36-.11.7-.15,1s-.27.6-.4.9a22.2,22.2,0,0,1-.25-4.25C32.51,141.17,31.23,141.61,33.1,142.48Z" transform="translate(10.55 11.83)"/><path class="cls-21" d="M164.32,221.28a2.4,2.4,0,0,0-3-2.28,23.34,23.34,0,0,0-5,1.64c-3.43.11-7.51-.45-9.88-.43-4.9,0-9.77,0-14.66-.41A70.48,70.48,0,0,1,121,218.17c-5.51-2.87-10.7-5.69-12.14-12.84a103.27,103.27,0,0,1-1.79-25.75c0-.14,0-.28.08-.42.23-1.08.45-2.15.63-3.24a1,1,0,0,0-.55-1.16,2.72,2.72,0,0,0-2.61-1.37c.8-8.3,1.73-16.86,5.19-24.1-.21,1.31-.39,2.62-.5,3.93-.08.81,1.19.94,1.4.19.45-1.7.79-3.52,1.1-5.39a.78.78,0,0,0,1.05-.49c1.31-4.09,3.09-7.7,4.7-11.64.84-2.06,1.75-5,1.24-7.22a1,1,0,0,0-1.68-.45c-2.88,2.52-3.87,7.07-4.87,10.59-.76,2.63-1.44,5.31-2,8a1.17,1.17,0,0,0-1.91-.21,19.68,19.68,0,0,0-2.44,3.43,2.73,2.73,0,0,0-.88-.91c1.6-3.47,3.25-6.92,5.1-10.3a172.46,172.46,0,0,1,13.68-21.72,2.24,2.24,0,0,0,2.39-1.52c.46-1.25,1.43-2.58,1.66-3.87.38-2.22-2.19-4.14-4-2.32a108.73,108.73,0,0,0-18.15,25.16c-4.13,7.58-10.13,16.54-12.63,25.29a188.92,188.92,0,0,0-13.27,29.55,2.5,2.5,0,0,0-.13,1.33c-1,2.11-2.1,4.17-3.25,6.07a3.13,3.13,0,0,0-1.48,1c-1.6,2.11-5.1,5.11-4.63,8.06.51,3.28,5.49,6.88,7.72,8.89,6.75,6.09,17.4,9.2,26.05,11.57,9.22,2.52,20.08,4.77,29.71,4.09,4.63-.32,9.59-.39,14.16-1.31s8.44-3.17,12.6-4.85a6.33,6.33,0,0,0,2-.34,2.41,2.41,0,0,0,1.71-2.24ZM116.7,131.83a45.82,45.82,0,0,1-2.19,5.33,46.17,46.17,0,0,0-1.55,4.51A25.55,25.55,0,0,1,116.7,131.83ZM93.46,173.69a3.55,3.55,0,0,0-1,.74c.51-1.11,1-2.23,1.54-3.34C93.79,172,93.62,172.84,93.46,173.69Zm6.87,14.43a93.4,93.4,0,0,1,.92-11.16l.09-.67c.07,2.47.21,4.83.38,7a.89.89,0,0,0,.19.47c0,2.28,0,4.58.1,6.93,0,.46,0,.94,0,1.41A39.38,39.38,0,0,0,100.33,188.12Zm28.73,35.8s0-.1,0-.15c2.64.21,5.28.29,7.92.31C134.25,224.06,131.64,224,129.06,223.92Z" transform="translate(10.55 11.83)"/><path class="cls-21" d="M206.14,204.3c-1.93.75-3.74,1.64-5.54,2.55-6.38,2.16-17.62,5.2-17.72,1.53a2.87,2.87,0,0,0-.47-1.54c3.3-6.4,1.53-22,1.27-26.15-.41-6.61.09-13.24-.88-19.83-1-6.74-4.12-12.91-5.24-19.63a1.9,1.9,0,0,0-1-1.44c-.25-.65-.49-1.3-.75-2a1.63,1.63,0,0,0,0-1.05c-2.75-9.3-7.13-17.63-10.74-26.64a2.06,2.06,0,0,0-4,.55h0c0,.16.05.32.07.47v.08s0,0,0,0c.56,4.93,3.9,10.21,5.86,14.66.63,1.43,1.27,2.85,1.89,4.28,1.72,5.93,3.65,11.85,5,17.83a2.23,2.23,0,0,0,.13.39c.66,2.81,1.46,5.57,2.15,8.42,1.57,6.41,1.41,12.93,1.5,19.48.07,5,.37,10,.38,15.11,0,3-.21,5.85-.5,8.79-.08.81-.18,1.62-.26,2.43-2.85,4.07-6,9.65-6.15,14.46a2.72,2.72,0,0,0,1.36,2.37c2.6,1.31,4.22.47,7-.18,3.71-.87,7.18-1.12,10.68-2.62s6.72-2.61,10-4.39c3.56-1.92,4.18-3.46,6.95-6.3C207.8,205.33,207.14,203.92,206.14,204.3Zm-28.67,8.18a12.93,12.93,0,0,0,.4,2.06l-1,.21C177,214,177.23,213.26,177.47,212.48Z" transform="translate(10.55 11.83)"/><path class="cls-21" d="M134.38,62.16a7.32,7.32,0,0,0-1.08.14c-.93-1.42-1.65-3.9-2.43-5-1.68-2.3-3.5-3.38-5.84-5.14a65.12,65.12,0,0,0-10.82-6.51c-3.14-1.51-6.4-2.8-9.59-4.19C103.06,40.8,101,39.93,99,39a2.05,2.05,0,0,0-1.27-.77l-.54-.13c-.87-.44-1.72-.91-2.54-1.39A1.56,1.56,0,0,1,94.84,35c1-1.54-.67-3.88-2.47-3.22-1.11.41-2.11,1-3.19,1.47a2.32,2.32,0,0,0-1.65.64l-.26.26a2.11,2.11,0,0,0-.58,2c-.75,0-1.5,0-2.29,0a1.74,1.74,0,0,0-1.62,1.53l-.57.27c-2,1.09-1,4.08,1.12,4.14a11.6,11.6,0,0,0,4.06-.6c3.24.07,6.43,1.41,9.68,1.35l.18,0c3.86,2.37,8.08,4,12.2,5.91,5.18,2.42,10.43,5.2,14.75,9,2.9,2.56,4.48,7.09,7.74,9.11a2.15,2.15,0,0,0,2.59-.34l.83-.79C136.89,64.81,136.37,62,134.38,62.16Z" transform="translate(10.55 11.83)"/><path class="cls-22" d="M106.74,91.78a1.8,1.8,0,0,0,0-2.5,2.44,2.44,0,0,0-2.61-2.23C83.45,86.92,62,93.77,42.39,99.51a33.27,33.27,0,0,1-7.23-2.19c-.6-.26-1.14-.53-1.67-.78-.05-.13-.08-.28-.13-.4-.75-1.93-3.84-3-4.94-.64-.05.11-.1.24-.15.36A2.07,2.07,0,0,0,27.49,97a17.64,17.64,0,0,0-.32,8.85c0,.33,0,.67.08,1-4.23,4.44-1.9,15.85,2.11,19.23a6.87,6.87,0,0,0,3.5,1.5,8.23,8.23,0,0,0,.79,2.1,2.27,2.27,0,0,0,.31.4A18.1,18.1,0,0,0,31.43,137c-.14.22-.28.46-.41.71a3.06,3.06,0,0,0-1.67,1.21,9.33,9.33,0,0,0-1,1.65c-3.9,4.12-.26,12.41,1.66,17.41a1.63,1.63,0,0,0-.1.47c-.11,4.68,1.42,9.41,2.58,13.91.69,2.69,1.54,5.49,4.44,6,.63.94,1.29,1.87,2,2.79,2.46,3,4.3,7,7,10,2.34,3.17,5.33,6.28,8.92,7.8,1.14.48,2.47-.83,1.43-1.84a86.63,86.63,0,0,1-6.19-6.55,42.67,42.67,0,0,0-5.91-10.35l-.74-.93a31.61,31.61,0,0,1-1.63-11.65c.2-5.28,1.4-10.63,2.39-15.8.42-2.2,1.8-5.28,1.26-7.54a1.71,1.71,0,0,0-.57-.87,59.12,59.12,0,0,1,3.77-7.65c2.09-3.54,5.4-5.47,8.18-8.33s4.53-6.34,8.11-8.29a.57.57,0,0,0-.39-1c1.18-.83,2.38-1.64,3.63-2.39,6-3.59,12.84-6.25,18.29-10.72.84-.69-.06-2.27-1.08-1.86-1.56.62-3.11,1.26-4.65,1.9q1.78-1,3.63-2.07c1.46-.8,3-1.57,4.46-2.34l-.22.17c-.17.14.07.37.23.24.66-.53,1.34-1,2-1.48,2.09-1,4.2-2.06,6.32-3l.52-.21a.69.69,0,0,0,.3-.13C100.88,95,104.74,94,106.74,91.78ZM44.61,104.47c-1,.26-1.91.49-2.77.64a12.52,12.52,0,0,0-1.68-1.94A28.59,28.59,0,0,0,44.61,104.47Zm-6.7,67a2.44,2.44,0,0,0,1.34-.64c0,.43.07.85.13,1.27.09.72.19,1.41.31,2.1C39.07,173.28,38.47,172.38,37.91,171.45Zm.36-7.57a2,2,0,0,0,.87,0c0,.62-.06,1.24-.07,1.87C38.78,165.13,38.51,164.51,38.27,163.88Zm7.19-30c-4.58,7.27-8.25,17.72-8.45,26.56-.53-1.29-1.07-2.58-1.52-3.91s-1-2.62-1.46-4.1a2.93,2.93,0,0,0,1.14-.65,7.65,7.65,0,0,0,2.12-4.86,8,8,0,0,0,.54-1.13,2.72,2.72,0,0,0,.88-.49c1.37-1.15,2.9-4.36,3.71-7.77a19.4,19.4,0,0,0,3.17-3.91l0,0Zm3.69-11.12c.62-.56,1.24-1.14,1.86-1.71a2.55,2.55,0,0,0,.83,1.56,37,37,0,0,0-3,2.76A14.41,14.41,0,0,0,49.15,122.73Zm5.39,3.15A65.58,65.58,0,0,0,48.87,130c2.63-3,7.07-5.42,9.74-7.44A42.8,42.8,0,0,1,54.54,125.88Zm24.12-25.09c-1.33.71-2.62,1.45-3.91,2.2l.16-.17a2.66,2.66,0,0,0,.76-2c.14,0,.27-.11.41-.15,2.16-.73,4.36-1.36,6.58-1.94C81.32,99.4,80,100.08,78.66,100.79Z" transform="translate(10.55 11.83)"/><path class="cls-22" d="M95.36,82.66c-14.09-1-28.52,4.6-41.83,8.36a1,1,0,0,0-.69,1.21A43.3,43.3,0,0,1,45,93.57c-3,.18-7.71.52-10.55-1.12l-.89-.58a1.18,1.18,0,0,0-1.71,1.32c1.2,3.35,6.85,3.72,9.74,3.82a36,36,0,0,0,19.85-4.82A1,1,0,0,0,61.91,91c5-1.21,10-2.32,15-3.1,6.38-1,12.62-1.4,18.68-3.8A.75.75,0,0,0,95.36,82.66Z" transform="translate(10.55 11.83)"/><path class="cls-22" d="M134.75,65.81c-2.24-3.12-4.14-5.72-7.73-7.66a62.42,62.42,0,0,1-8.58-6.08.79.79,0,0,0,0-1.17c-3.86-3.55-8-4.59-12.79-6.49-2.15-.85-3.84-2.2-5.88-3.16-1.88-.88-4-.79-5.95-1.19a1.34,1.34,0,0,0-.28,0c.7-.4.35-1.35-.27-1.61a3.38,3.38,0,0,0-2-.1,6.15,6.15,0,0,1-2.89-.19,12,12,0,0,0-4-.37.91.91,0,0,0-1.4,0l-.31.38a1.18,1.18,0,0,0,.52,1.94,12.12,12.12,0,0,0,2.76.42c1,.18,1.84.61,2.78.84,1.54.39,2.75-.24,4-.9a1,1,0,0,0,.55,1.63c2.43.73,4.71,1.18,6.92,2.53a24.49,24.49,0,0,0,4.4,2.29c3.09,1.17,6.3,2,9.29,3.29a.74.74,0,0,0,.33.64c3.7,2.57,6.83,5.83,10.73,8.15.85.5,1.65,1,2.44,1.48a.88.88,0,0,0-.19.69,5.38,5.38,0,0,0,1.68,3.28,9.65,9.65,0,0,1,.68.8,3.28,3.28,0,0,0,2.89,3,1.86,1.86,0,0,0,1.71-1.39C134.66,66.79,135.1,66.31,134.75,65.81Z" transform="translate(10.55 11.83)"/><path class="cls-22" d="M144.52,226.61c-5.51-.56-11,.28-16.47-.16-8.42-.9-17.79-2.63-23-7.75a43.74,43.74,0,0,0-3.37-2.9,1.68,1.68,0,0,0,.24-.46l.06-.17a1.61,1.61,0,0,0-.19-1.43,116.06,116.06,0,0,1-3.28-16.23c-.66-5.55-.37-11.76-2.7-16.87a1.09,1.09,0,0,0-1.86-.09,2.47,2.47,0,0,0-.36-.19,72.11,72.11,0,0,0,2.5-13.6,19.82,19.82,0,0,0,.42-3.63c0-.3-.22-1.18-.37-1.9,1-1.89,2.07-3.76,3-5.67-.19.8-.37,1.6-.53,2.4a.75.75,0,0,0,1.45.4C106.38,142.92,115,128.93,122,114c.79-1.23-1.14-2.34-2-1.14-1.24,1.85-2.5,3.78-3.75,5.77a33.09,33.09,0,0,0-3.28,4.11c-1.43,2.36-2.9,4.86-4.14,7.31-1,1.95-1.83,3.89-2.73,5.81a1,1,0,0,0-.71.13c-3,1.81-4.47,8.18-5.79,11.21-.61,1.41-1.24,2.81-1.87,4.22a1,1,0,0,0-1,.44,74.82,74.82,0,0,0-6.83,14.12,1.25,1.25,0,0,0-1.07,1c-.14.58-.31,1.17-.47,1.76-.24.79-.51,1.58-.79,2.36a2.93,2.93,0,0,0-.78,1.84v.17c-2.44,6-5.94,11.77-8.64,17.61a75.75,75.75,0,0,0-4.12,9.71l-.2.34a3.66,3.66,0,0,0-.44.67,3.21,3.21,0,0,0-1.25.63,3.25,3.25,0,0,0-.41.42l-.1.13s-.08.09-.11.15a1.48,1.48,0,0,0-.1.27,2.26,2.26,0,0,0-.22,1.1c0,.32.07.63.11,1,0,0,0,.11,0,.16A2.46,2.46,0,0,0,72,207c-.37,7.57,23.33,19.49,27.71,20.74,8,2.28,17,3.22,25.3,4,5.85.58,15.86,1.44,20.39-3A1.24,1.24,0,0,0,144.52,226.61Zm-64-33.36a10.55,10.55,0,0,0,1.75-3,1.16,1.16,0,0,0,0-.94c.32-.56.63-1.12.94-1.68a70.89,70.89,0,0,0-2.31,9.46.92.92,0,0,0,.67,1.07l0,.07a2.64,2.64,0,0,0-.68-.3,1.64,1.64,0,0,0-1.28.16A30.43,30.43,0,0,1,80.49,193.25Zm-1.75,16.57a1.11,1.11,0,0,0,.31-.62c.16-1.22.48-2.61.7-4l.07,0a9.46,9.46,0,0,0,.38,2.64c.44,1.32,2.42,1.7,3.12.55a10.19,10.19,0,0,0,1.91,5.27C83,212.29,80.67,210.91,78.74,209.82ZM92.79,169.7c-.11.63-.2,1.24-.3,1.86l-.06-.17a2.8,2.8,0,0,0-.59-.84c.34-1,.73-1.94,1.14-2.89A18.48,18.48,0,0,1,92.79,169.7Z" transform="translate(10.55 11.83)"/><path class="cls-22" d="M156,225.54l-.11-.22a1.46,1.46,0,0,0-1.27-.73,18.19,18.19,0,0,0-5.57.95,1,1,0,0,0-.63.57,2.21,2.21,0,0,0-.88.44.4.4,0,0,0,.38.66,4.34,4.34,0,0,1,.48-.14.9.9,0,0,0,.93.57c.9,0,1.79.09,2.68,0a20.74,20.74,0,0,1,2.61-.13,1.43,1.43,0,0,0,1.27-.73l.11-.2-.06,0A1.06,1.06,0,0,0,156,225.54Z" transform="translate(10.55 11.83)"/><path class="cls-22" d="M188.44,213.38a24.58,24.58,0,0,1-3.11,1.13,6.55,6.55,0,0,0-4.16-.6l-.34.05c-.31-.19-.62-.39-.94-.57.31-.78.69-1.58.86-2.14.43-1.47,1.05-3.18.48-4.69a3,3,0,0,0-1.24-1.47,34.48,34.48,0,0,0,2.21-8.17,23.14,23.14,0,0,0-.34-7.34c-.63-3.48-.64-7.12-1.57-10.54a.57.57,0,0,0-1.12.15c-.57,5.46.72,10.87-.54,16.28a68.92,68.92,0,0,1-5.26,14.23,1.71,1.71,0,0,0,1,2.54l-.09.25a2.4,2.4,0,0,0-2.44.91,4.38,4.38,0,0,0-.5,3.9,1.27,1.27,0,0,0,.57.8,4.48,4.48,0,0,0,.49.48c1.68,1.36,3.78.88,5.75.76,1.17-.07,2.32,0,3.5-.09s2.45.09,3.64,0c1.7-.17,3.48-1.84,4.68-2.95a1.13,1.13,0,0,0,.33-.78C190.69,214.4,189.76,212.86,188.44,213.38Z" transform="translate(10.55 11.83)"/><path class="cls-22" d="M179.85,168.69c-1.19-2.39.16-4.48-.48-6.87a17.26,17.26,0,0,0-1.07-2.1c-.43-1-.57-2.16-.94-3.19-.15-.41-.86-.39-.82.11.19,2.21.92,4.33,1.07,6.53s0,4.22,1,6.24C179,170.24,180.26,169.52,179.85,168.69Z" transform="translate(10.55 11.83)"/><path class="cls-22" d="M172.3,137.31a28.73,28.73,0,0,1-1-2.84c-.25-.89-.64-1.91-1.73-1.9a1,1,0,0,0-1,1,7,7,0,0,0,.52,1.91A23,23,0,0,0,170,138a1.25,1.25,0,0,0,1.49.85A1.23,1.23,0,0,0,172.3,137.31Z" transform="translate(10.55 11.83)"/><path class="cls-23" d="M116.34,106c-4.34,4-7,8.8-9.7,14.14-3.07,6.13-6.92,12-10.28,18-.34.6-.65,1.2-1,1.8a1.94,1.94,0,0,0-1.4.82,67.39,67.39,0,0,0-4,6.41,1.39,1.39,0,0,0-.6.48c-4,5.34-6,10.91-7.65,16.71-.53,1.09-1.07,2.17-1.62,3.25-.44.83-.87,1.66-1.3,2.5a1.54,1.54,0,0,0-1,.49C73,175.83,69.82,183.63,69,190.7a1.94,1.94,0,0,0,1.34,2.12c-1.49,1.6-3,3.21-3.51,5.3a1.26,1.26,0,0,0,1.83,1.4c5.66-2.57,8.65-10.34,10.21-15.92.27-1,.53-2,.79-3q3-5.66,6-11.35c2.27-4.43,4.8-9.19,7-14l2.6-4.69a1.87,1.87,0,0,0,.56-.53c5.19-7.45,9.15-15.76,13.93-23.49,2.52-4.08,4.48-9.16,7-13.49,1-1.48,2-3,3-4.37C121.26,106.64,118,104.27,116.34,106Z" transform="translate(10.55 11.83)"/><path class="cls-23" d="M127.18,64.55c-3.57-5.9-10.2-9.76-16.1-13.07-7.29-4.09-13.83-8.1-22.36-9.12-8.08-1-15.94.27-23.77,2.31a29.12,29.12,0,0,0-10,4.52,35.91,35.91,0,0,0-4.63,3.29C48.65,54.05,46,58.5,44,59c-1.43.39-1.65,2.87,0,3.12,5.59.82,9.45-5.5,13.73-8.22,7.47-4.74,16.6-5.86,25.32-5.84,14.15,0,30.62,9.25,40.64,19.14C125.47,69,128.51,66.74,127.18,64.55Z" transform="translate(10.55 11.83)"/><path class="cls-23" d="M152.35,45.6a36.31,36.31,0,0,0-15-16.56c-3.64-2-12.65-5.09-15.26-.29a5.62,5.62,0,0,0-3.32-.36c-1.73.32-2.3,2.49-1.57,3.85a3.63,3.63,0,0,0,4.06,2.1c.54.36,1.1.78,1.64,1.2,2.69,3.65,8.34,6.26,11.92,5.65a2.92,2.92,0,0,0,2.1-2.09l.12-.62s0,0,0-.08c1.68,3.49,8.57,13.77,8.52,18.38a7.06,7.06,0,0,0-1.42,3.06c-.29,2,1.91,4.83,4.1,3.16a7.59,7.59,0,0,0,2.5-3.18,9.61,9.61,0,0,0,1.09-1A9.18,9.18,0,0,0,153.21,55,14.28,14.28,0,0,0,152.35,45.6Z" transform="translate(10.55 11.83)"/><path class="cls-23" d="M195.71,51.66a7.08,7.08,0,0,0-2-2.55c-.83-7.14-9.09-13.54-14.37-17-4.75-3.08-9-3.88-14.6-4.06-2-.06-4.24-.44-6.06.74a3,3,0,0,0-.49.42,6.57,6.57,0,0,0-2.46.13c-3.3.78-4.26,3.35-3.76,5.58-.54,2.89,1,6,5.12,5.51a5.79,5.79,0,0,0,5.2-5.87A4.93,4.93,0,0,1,163.4,34c3.86-1.35,8.95,1,12.23,2.92a31.15,31.15,0,0,1,6.92,5.47,1.55,1.55,0,0,0-.12.22c-1,2.77,0,4,.93,6.83a37.9,37.9,0,0,1,1.18,4.42c.12.64,2.08-1.35.21.56a3.06,3.06,0,0,0,2.14,5.17c2.39,0,4.15-1.57,5.39-3.54C194.6,56.59,197.48,54,195.71,51.66Z" transform="translate(10.55 11.83)"/><path class="cls-23" d="M227.58,90.71c-1.41-6.74-5.2-12.26-8.77-18a35,35,0,0,0-5.69-7.15c-1.25-1.77-2.37-3.36-3.14-4.7-1.22-2.11-3.7-1.69-4.93-.26a2.36,2.36,0,0,0-1.18-1c-6.55-2.67-18-.14-22.9,5.07-.32.35-.64.71-1,1.09a18.49,18.49,0,0,0-7.6,15.31,2.64,2.64,0,0,0,.82,2,19.11,19.11,0,0,1-.39,2.06,1.93,1.93,0,0,0,1.84,2.41c.82,0,1.68,0,2.55,0a2.84,2.84,0,0,0,2.49,1.38,21,21,0,0,0,4.59-.86c1.19.14,2.37.32,3.55.54a2.78,2.78,0,0,0,.69,1.22c3.4,3.45,9.17,4.85,14.79,5.05,3.29,2.07,6.6,4.08,10.36,4.5a1.14,1.14,0,0,0,1.2-1,29.39,29.39,0,0,1,3.17,2.47c2.35,2.14,6.09,6.09,9.33,2.76C230.23,100.73,228.28,94.07,227.58,90.71ZM210.2,71.14c.42.63.89,1.35,1.38,2.15a2.66,2.66,0,0,0-2.12-.48A3.09,3.09,0,0,0,210.2,71.14Z" transform="translate(10.55 11.83)"/><path class="cls-23" d="M225.34,125.37c-1.42-5.2-2.8-7.43-7.65-9.88-4.52-2.28-9.12-5.28-13.84-7.08a130.16,130.16,0,0,0-12.92-4.12c-3.86-1-6.74-2.27-9.78-2.9a7,7,0,0,0-6.42-.22c-.46.06-.94.14-1.43.24a2.63,2.63,0,0,0-.62,4.75,12.8,12.8,0,0,1,1.28.74,40.48,40.48,0,0,0,4.54,6.44,1.15,1.15,0,0,0-.2,1.91c7.07,6.46,10.24,17.59,13,26.53,2.61,8.56,5.94,16.57,7.25,25.49.87,6,.88,12.76,3.16,18.39a9.66,9.66,0,0,0,.47,1,4.71,4.71,0,0,0,.54.93c2.4,3.75,7.22,7.5,11.27,7.72a2.13,2.13,0,0,0,2-2.75,3.41,3.41,0,0,0,.37-.48c2.23-3.7,3.75-8.09,5.45-12.18,2.49-1.38,3.32-4.67,3.42-8.26a65,65,0,0,0,3.05-11.23C230.36,148.24,228.56,137.14,225.34,125.37ZM209.87,141c.07.94.2,1.89.35,2.83a10.44,10.44,0,0,0-.26,1.29l-1.29-4.61A5.41,5.41,0,0,0,209.87,141ZM197.94,153c-2.75-6.95-4.43-15.54-7.29-23.35a70.35,70.35,0,0,1,7.45,20.68c.67,3.26,1.37,6.49,2,9.72A53.35,53.35,0,0,0,197.94,153Zm21,18.25c-.08-.18-.14-.37-.21-.55s0-.56,0-.82c0-2-.12-4-.2-6l.22.12c.29,2.14.54,4.32.65,6.15C219.27,170.49,219.12,170.84,219,171.2Z" transform="translate(10.55 11.83)"/><path class="cls-23" d="M171.59,187.2c3.49-2.77,2.86-9.28,2.13-14.23-.45-6.32-2.06-12.59-2.85-18.85-1.18-9.23-3.19-19.16-7.28-27.55-2.43-5-9.81-13.58-16.33-9.06a8.78,8.78,0,0,0-3.24,5.58,4.51,4.51,0,0,0-2.81.15,3,3,0,0,0-4.67.58,12.41,12.41,0,0,0-2.06,6.05,1.17,1.17,0,0,0-1.68.62c-5.2,15.13-4.58,31.67-2.44,47.18,1.12,8.09.74,18.13,3.95,25.75,1.95,4.64,8,8.15,13,7.41a1.39,1.39,0,0,0,1.3-1.4,4.17,4.17,0,0,0,1.1-.3,5.13,5.13,0,0,0,3.22,1.1,4.81,4.81,0,0,0,3.91,1.25,4.46,4.46,0,0,0,2.67-1.38,6.08,6.08,0,0,0,1.42.71c3.92,1.23,5.83-1.71,6.85-5a2.84,2.84,0,0,0,2.77-1.44c2.41-4.18.93-11.62.6-16.28a3.43,3.43,0,0,0-.06-.34,1.21,1.21,0,0,1,0-.19C171.24,187.42,171.41,187.34,171.59,187.2ZM136,199.46c-.72-2.19-.66-5-1.2-7.24-1.58-6.61-1.34-13.39-2.74-20.05-2.31-11,.91-22.16,2.33-33.2,0,.88.05,1.71.05,2.46,0,5.19,0,10.4,2,15.22-2.88,3.35-3,9.93-3.07,13.6,0,1.64,0,3.24.1,4.82a70.71,70.71,0,0,0,.91,11.89c.64,4.69,2.12,15.47,7.4,17.75.36.66.71,1.22,1.05,1.72C139.77,204.74,136.56,201.18,136,199.46Zm23-9.26c.14-.25.28-.52.4-.79a21.66,21.66,0,0,0,2.11,4.47,7.79,7.79,0,0,1-.45,1.34A20.9,20.9,0,0,1,159,190.2Zm3.08,13.65c-.15,0-.35-.27-.56-.7,0-.3,0-.6,0-.9a4,4,0,0,0,1-.33C162.42,202.93,162.24,203.84,162.09,203.85Zm.26-58.4a5.46,5.46,0,0,0-1.13-.83,1.59,1.59,0,0,0-.13-.13c-.07-.24-.14-.48-.22-.71A9.51,9.51,0,0,0,162,141.3c0-.13.06-.26.09-.39.36,1.42.7,2.86,1,4.3A2.5,2.5,0,0,0,162.35,145.45Z" transform="translate(10.55 11.83)"/><path class="cls-24" d="M118.66,108.23c-3.25,2.91-5.65,6.76-8,10.38-3.77,5.7-7.94,11.19-11.61,17A161.75,161.75,0,0,0,83,168.4c-5.69,8.57-9.51,17.82-14.19,27.08-.78,1.55,1.51,2.91,2.34,1.37,2.65-4.91,4.72-10,7.22-14.93,1.8-3.58,3.79-7,5.68-10.51a1.11,1.11,0,0,0,.45-.54c.16-.41.35-.82.51-1.24.82-1.56,1.62-3.13,2.35-4.75a.8.8,0,0,0,0-.66A263.45,263.45,0,0,1,102,137.34c3.15-5.2,7-10,10.47-15,2.69-3.92,5.14-8.32,8.72-11.53C123,109.23,120.39,106.68,118.66,108.23Z" transform="translate(10.55 11.83)"/><path class="cls-24" d="M127.19,63.23c-7.34-7.62-17.41-15.15-27.76-17.93a58.48,58.48,0,0,0-10.48-2,1.47,1.47,0,0,0-1-1.16c-6.12-1.93-12.16-2.58-18.23,0a130.74,130.74,0,0,0-11.75,6.1c-3.46,1.91-4.78,5.14-7.94,7.15-.94.59-.34,2.34.79,1.89,1.94-.78,2.59-1.78,4.08-3.17a27.41,27.41,0,0,1,6.66-4.32,1,1,0,0,0,1.15.82c5.18-.73,9.84-2.85,15.16-3.22,6.81-.47,12.81-.42,19.46,1.45,10.6,3,18.64,10.56,27.06,17.22C126.33,67.64,129,65.15,127.19,63.23Zm-55-18.61a15.75,15.75,0,0,1,5.65-1.19,10.75,10.75,0,0,1,2,.18A66.4,66.4,0,0,0,72.17,44.62Z" transform="translate(10.55 11.83)"/><path class="cls-24" d="M175.47,32.07c-7.65-3-21.49-8.9-27.41.84a2.56,2.56,0,0,0,0,2.5,30.71,30.71,0,0,0-22-10,8.85,8.85,0,0,0-5.63.58c-2.6,1.22-1.21,5.21,1.41,5.21A35.15,35.15,0,0,1,133.63,33a70.91,70.91,0,0,1,12,10.29,1.86,1.86,0,0,0,1.14.59,12.51,12.51,0,0,1,1.86,7.25,25,25,0,0,1-.93,5.29,12.91,12.91,0,0,0-.28,1.63,4.88,4.88,0,0,0-1.26,2.25,1.24,1.24,0,0,0-.25.45h.27c-2.24,1-1.15,4.91,1.26,4.66,4.44-.46,5.35-4.54,6.08-8.27,1.21-6.17,2.06-11-1.52-16.56a34.13,34.13,0,0,0-3.08-4.11,2.5,2.5,0,0,0,.7.33c2.52.68,3.24-1.35,5-2.66l0,0c5.9-3.16,14.78.82,20.33,2.46,7.19,2.13,13.52,9,14.21,16.71.18,2,3.44,2.82,3.78.51C194.52,43.34,183.88,35.38,175.47,32.07Z" transform="translate(10.55 11.83)"/><path class="cls-24" d="M220.25,74c-3.49-6-9-14.95-16.56-16.23s-11.52-.28-17.34,4.5c-4.26,3.5-13.7,8-11.8,15.08a3,3,0,0,0,5,1.32A20.93,20.93,0,0,0,182,75.86a3.44,3.44,0,0,0,.55-.39l1.06-1a3,3,0,0,0,1.81.18c.52-.12,1.06-.2,1.61-.27a1.75,1.75,0,0,0,1.38,2.42l.48.08a1.9,1.9,0,0,0,.79,0,24.9,24.9,0,0,1,7.32,1c-2.08,0-4.17.16-6.23.37s-5.34-.71-6,1.9a1.18,1.18,0,0,0,.31,1.14l.19.19a.87.87,0,0,0,1.26,0v0c.41-.41,1.43.18,2,.23,1.8.16,3.72-.35,5.51-.39,3.65-.09,7.31.47,10.92-.2a1.31,1.31,0,0,0,0-2.5l-.31-.06a2.37,2.37,0,0,0,.28-.81,33.4,33.4,0,0,1,5.39,2.87c5.14,3.43,9.85,11,10.73,17.19.48,3.35,5.7,2.41,5.76-.78C226.9,89,224.31,81.06,220.25,74Z" transform="translate(10.55 11.83)"/><path class="cls-24" d="M224.28,129.31c-1.53-8.89-6-14.44-14.16-18.25-4.49-2.08-9.94-3-14.67-4.39a172.92,172.92,0,0,0-17.24-4.42c-3.11-1-4.47,4-1.34,4.88,3.36,1,6.71,2,10.08,3.1a2.36,2.36,0,0,0,.43,1c.54.73,1.13,1.43,1.73,2.11a.9.9,0,0,0,0,.28c-.08,2.38,2.83,4.4,4.11,6.15l1.62,2.28a49.64,49.64,0,0,1,3.35,7.34c1.81,5.54,3.14,11.17,5,16.7,1.94,5.7,2.48,12,5,17.44,1.83,4,2.33,7.12,3.47,11.47.56,2.16,1,4.72,3.15,5.79a1.33,1.33,0,0,0,2-1.14v-.48a1.3,1.3,0,0,0-1.32-1.25c-2.56-2.77-3.33-10.29-4.17-13.38-1.74-6.44-2.62-13-4.93-19.32-1.13-3.06-2.11-6.58-3.17-10.2,4.53,7.92,7.58,17.15,10.29,25.81a1.57,1.57,0,0,0,3-.83,99.89,99.89,0,0,0-12-28.76c-.63-1-1.36-2.3-2.16-3.64a78.86,78.86,0,0,1,7.77,12.15A68.12,68.12,0,0,1,217,182.55a2.38,2.38,0,0,0,4.58,1.26C228.47,165.61,227.58,148.37,224.28,129.31Z" transform="translate(10.55 11.83)"/><path class="cls-24" d="M173.68,168.22c-.79-5.32-.5-10.82-.64-16.19-.27-9.92-3.09-18.69-6.31-28-1.67-4.81-5.69-10-11-11.13-3.92-.85-11.37,3-10.52,7.9.42,2.38,3.29,3.84,5.2,5.43a17.38,17.38,0,0,0-1.53,5.23,2.4,2.4,0,0,0-1.81,1.23c-2.37,4-2,9.39-2.27,13.94a71.91,71.91,0,0,0,.95,16.38c1.92,11.48,4.5,24.73,10.84,34.69a2.71,2.71,0,0,0,4.9-.64c.06-.2.08-.42.13-.62.08,1.61.14,3.23.18,4.87a3,3,0,0,0,4.43,2.55c-.59,1.79,1.11,4,3,2.75l.4-.25a2,2,0,0,0,1-1.77c3.48-6.5,5-14.67,5.07-21.91C175.84,177.72,174.39,173.1,173.68,168.22Zm-17.29-48.39a3.36,3.36,0,0,0-2.95,1.51c-.55-.44-1.08-.88-1.53-1.31A3.14,3.14,0,0,1,156.39,119.83ZM150.16,151c.56,4.06,2.05,10.16,4.84,14.6.12.68.23,1.35.35,2,0,1.27,0,2.55,0,3.83a140.55,140.55,0,0,0-4.79-13.57,60,60,0,0,1-.53-7.49ZM163,133.07c-.23-.71-.47-1.41-.71-2.11-.36-1.48-.79-2.92-1.27-4.34.62,1.35,1.09,2.58,1.37,3.37.35,1,.69,2,1,3A2.57,2.57,0,0,0,163,133.07Z" transform="translate(10.55 11.83)"/><path class="cls-24" d="M149.9,197.12c-2.26-2.05-2.84-5-3.64-7.85a45.54,45.54,0,0,0-2.56-7.19.81.81,0,0,0-1.51.4c.56,5.53,1.44,12.58,6.07,16.28C149.4,199.68,151,198.14,149.9,197.12Z" transform="translate(10.55 11.83)"/><path class="cls-24" d="M144.3,138.65c.15-1.8-2.57-2.05-3.05-.42-2.82,9.37-.72,19.71-.61,29.3a1.35,1.35,0,0,0,2.69,0c.06-5.11-.55-10.12-.7-15.2C142.5,147.7,143.92,143.23,144.3,138.65Z" transform="translate(10.55 11.83)"/><path class="cls-25" d="M227.93,146.07c-.44-8.92-1-22.55-7.83-29.29-5.23-5.15-11.26-7-17.62-8.72l-.26-.07c-2.84-.75-5.74-1.49-8.67-2.47-4.1-1.37-16.28-8.19-19.05-2.28a1.81,1.81,0,0,0,1.54,2.69h.15a1.65,1.65,0,0,0,1-.32c1.79-.54,9.63,3.33,10.51,3.69a68,68,0,0,0,7.61,2.76c1.63.45,3.33.88,5,1.35,2.05,2.61,4.75,4.6,6.82,7.27a52.83,52.83,0,0,1,7.05,12.37c2,4.61,4.35,9.4,5.3,14.34,1.2,6.16.84,12.49,2.37,18.59a1.66,1.66,0,0,0,1.56,1.23c-.17,4.48-.44,9-.75,13.5-.15,2.14,3.48,2.69,3.8.51A178.86,178.86,0,0,0,227.93,146.07Z" transform="translate(10.55 11.83)"/><path class="cls-25" d="M227,92.33c-1.81-8.23-3.13-15-7.57-22.36C216.55,65.25,212,59.2,206.87,56.8c-5.51-2.6-9.77-1-14.58,1.84-6.2,3.7-12.49,7.22-18.3,11.59-2.33,1.15-.29,4.67,2,3.5,1.93-1,4.52-2.66,7.42-4.46a46.14,46.14,0,0,1,9.66-1c3.83-.07,7.41-1,11,.78,3.33,1.61,6.61,4.25,9.55,6.44a2.16,2.16,0,0,0,2.61.12l0,0c3.53,5.65,4.22,12.43,7.57,18A1.69,1.69,0,0,0,227,92.33Z" transform="translate(10.55 11.83)"/><path class="cls-25" d="M196.41,54.18C194.65,43.85,183.57,34.36,174.67,30c-8.11-4-20.45-5.72-28,.44a1.37,1.37,0,0,0,0,1.93l.42.34a2,2,0,0,0,2.24.29c9.62-4.42,19.83-2.08,28.34,3.42a48.54,48.54,0,0,1,11.59,11.25c1.88,2.47,2.52,6.48,5.29,7.93A1.28,1.28,0,0,0,196.41,54.18Z" transform="translate(10.55 11.83)"/><path class="cls-25" d="M154.87,51a28,28,0,0,0-2.37-6.8c-2.24-4.85-4.37-8.93-8.7-12.31a39.21,39.21,0,0,0-14.88-6.49c-3.74-.72-10.16-2.44-13.42.14-1.08.86.13,2.31,1.23,2.1,8.31-1.57,22.38,4,27.61,10.27a35.87,35.87,0,0,1,6.37,13.49c.81,3.8-1,7.75.92,11.13a1.75,1.75,0,0,0,3.19-1.34C154.07,58,155.44,54.22,154.87,51Z" transform="translate(10.55 11.83)"/><path class="cls-25" d="M127.9,64.34c-1.37-4.84-7.1-8.16-10.93-10.87a58.23,58.23,0,0,0-18.33-8.88c-7-2-13-2.88-20.27-2.19-4.42.43-10.45.67-14,3.64-.7.58.06,1.69.86,1.47a60.37,60.37,0,0,1,33.39.8,54.69,54.69,0,0,1,14.66,7c4.58,3.13,8.35,7.47,13,10.38A1.18,1.18,0,0,0,127.9,64.34Z" transform="translate(10.55 11.83)"/><path class="cls-25" d="M179.24,167.41c-1.31-12.27-6.59-24.3-10.56-35.87-2.66-7.78-5.07-20.84-15.86-20.48-3.07.1-6.51,1.86-5.77,5.55.57,2.79,3.31,4.35,5.85,5.94a89.45,89.45,0,0,0,7.3,28.38,107.38,107.38,0,0,1,4.25,10.93,123.06,123.06,0,0,0,4.67,19.67c.36,2.23.7,4.48,1,6.78.21,1.63,2.38,1.94,2.92.69a49.66,49.66,0,0,1-2.71,11.92c-.83,2.16,2.14,3.38,3.59,2.09,3.62-3.2,4.71-11.66,5.42-16.21C180.3,180.61,179.91,173.61,179.24,167.41Zm-5.85,5.15c.09,1.82.14,3.72.15,5.63-.7-8.72-2.66-17.66-4.61-26.35A73.53,73.53,0,0,1,173.39,172.56ZM173,183.93a1.66,1.66,0,0,0,.5-.52c-.06,1.52-.18,3-.33,4.56C173.1,186.62,173,185.27,173,183.93Z" transform="translate(10.55 11.83)"/><path class="cls-26" d="M229.42,126.4c6.65-15.18,5.6-29.8.22-45.12C225,68.15,218.39,56.65,204,52.88c-3.4-.89-1.81.83-3.36-2.2a42.85,42.85,0,0,0-4.31-6.61c-4.08-5.3-8.4-11.28-14-15.06a34.27,34.27,0,0,0-18.12-5.74c-7-.2-13.73,2.79-20.57,3.19-9-7.58-26.69-7.36-37.15-4.77-7.13,1.76-14,5.12-20.38,8.67-4,2.22-11.06,5.88-13.91,10.24h-.08a52.5,52.5,0,0,0-26,10.95c-7,5.45-11.31,13.48-15.73,21A61.19,61.19,0,0,0,22.1,99c-1,11,3,20.27,5.32,30.58-3.66,6.45-2.83,15.8-2.48,22.75A87.43,87.43,0,0,0,30.2,176.6c5.45,15.48,18.82,24.51,33.14,31a3.06,3.06,0,0,0,1.75.26c5.49,8.61,15,12.67,24,16.81,11,5,22,9.18,34,10.76a63,63,0,0,0,31.71-4c5.07-2,12.7-4.81,17-8.67,11.14,0,21.54.22,31.43-6,10.83-6.82,14.59-16.24,20-27.28,4.89-9.95,9.13-20.64,9.92-31.76a87.4,87.4,0,0,0-.65-16.95C231.9,135.84,230.28,131.18,229.42,126.4ZM156.17,30A29.51,29.51,0,0,1,176,32.48c6.1,3.23,10.27,8.56,14.46,13.88A42.64,42.64,0,0,1,195.25,54c-3.74.76-7.8,3.31-10.67,5-1.33.79-2.76,1.56-4.19,2.37a30.77,30.77,0,0,0,1.82-2.73c4-6.74-1.46-15.59-7.3-19.83-7.14-5.19-12.41,2-19.17,2.79a19.52,19.52,0,0,0-4-5.45A45.69,45.69,0,0,0,148,32.61c-.21-.18-.42-.39-.63-.6C150.34,31.42,153.3,30.53,156.17,30ZM170,96.45a16.22,16.22,0,0,0-8,5.71,25.08,25.08,0,0,1-.17-5.63c.36-2.51-3.19-3.68-3.91-1.08a34.1,34.1,0,0,0-1.16,8,20.89,20.89,0,0,0,.12,4.55A12.06,12.06,0,0,0,146,109.09a10,10,0,0,0-7.75-5.31,17.14,17.14,0,0,0,1.5-.92c3.91-2.73,7.33-6.8,10.14-10.63,4.7-6.42,10.89-14.17,12.44-22.37l.08,0A9.67,9.67,0,0,0,171,69.7a40.74,40.74,0,0,0-3.41,13.36C167.17,88.05,168.76,92,170,96.45Zm-40.62,3.77c1.68-1,3-2.71,4.28-4.1.95-1,2-2,2.83-3.07.39-.51,1.35-2.34,2-2.53a1.44,1.44,0,0,0,0-2.75c-2.93-.87-4.89,2-6.89,3.67-1,.81-2.2,1.74-3.33,2.78-.13-.38-.26-.76-.4-1.13a12.21,12.21,0,0,0-4.4-5.61c5.6-3,16.65-7.74,22.91-13A25.43,25.43,0,0,0,153.51,68a34,34,0,0,0,3.65-6.22c.15.54.3,1.08.47,1.62a15,15,0,0,0,1.53,3.47c-2.22,8.34-8.33,16.23-13.35,23a40.21,40.21,0,0,1-10.22,10.06c-2.08,1.3-4.31,2.09-6.32,3.33A16.15,16.15,0,0,0,129.4,100.22Zm-3.68-20.43c2.24-4,3.59-6.75,8.94-8.27,3.37-1,6.81-2,10.24-2.79-.55.52-1.12,1-1.71,1.48-1.38.93-2.72,2-4.31,3C136.6,74.6,134,75.75,131.64,77,129.93,77.88,127.84,78.8,125.72,79.79Zm37.75-18c-1.28-2-1.07-6.48-1.71-8.89-.56-2.13-1.27-4.24-2-6.33.85-.38,1.71-.82,2.65-1.28,6.62-3.22,10.92-2,14,5.21,1.73,4,.58,6-2.22,9.13C171.59,62.61,166.82,67.1,163.47,61.8ZM89.23,35.61A84.37,84.37,0,0,1,106,28.15a45.31,45.31,0,0,1,17.18-1.46c4.31.36,10.7.91,15,3.34,0,0,0,.08,0,.12l0,.21a3.1,3.1,0,0,0,2.94,2.24c.26,0,.52,0,.78,0,.38,1.66,2.29,3.13,3.61,4.14a24.9,24.9,0,0,1,6,6.44,2.92,2.92,0,0,0,1.7,4.1.35.35,0,0,0,.11,0c1.08,5.77-1,11.41-4.2,16.2a2.59,2.59,0,0,0-2.47-.57c-4.17,1.69-9.52,1.75-14.16,2.89-2.69-10.93-19.09-17.23-27.58-21.9A38.65,38.65,0,0,0,83.11,39.6,68.08,68.08,0,0,1,89.23,35.61ZM28.09,102.77a54.82,54.82,0,0,1,2.81-16.6c0,1,.93,2,2,1.34,1.88-1.19,2.83-3,4.32-4.69A88.25,88.25,0,0,1,44,76.08,123.17,123.17,0,0,1,61.16,63.3c1.08-.66.37-2.66-.91-2.15-6.68,2.68-12.33,6.61-17.93,11.13-3,2.41-7.34,5.71-9.74,9.5a58.61,58.61,0,0,1,3.1-6.12C39.8,68.62,43.83,61,50.44,56A47.56,47.56,0,0,1,68,47.59a2,2,0,0,0,1.2.46c4.87.26,9.65-2.39,14.4-3.35,6-1.21,12.51.13,18,2.9,8.72,4.43,22.22,10.15,27.22,19.55a11,11,0,0,0-1.06.59c-2.7,1.66-4.58,5.42-6.16,8-3.39,5.53-5.92,7.49-12.38,8.43A2.24,2.24,0,0,0,107.23,86c-5.52.77-12.07,4.47-16.08,6-9.06,3.41-18.76,5.9-27.28,10.59-8.31,4.58-14.39,11.58-21.16,18-3.05,2.89-6.51,4.77-9.5,7.07C31.26,119.28,27.93,111.64,28.09,102.77ZM66.75,202a3.49,3.49,0,0,0-.76.18c-12.43-5.65-24.37-13.13-29.56-26.4a83.3,83.3,0,0,1-5-19c-.7-5.32-1.72-13.24-.41-19.48,5-4.42,10.91-7.84,15.83-12.46,6.14-5.77,11.48-12.44,18.68-17S81,101.16,89,98c4.75-1.87,9.41-4,14.16-5.89,1.65-.65,3.67-1.85,5.65-2.63a2.35,2.35,0,0,0,1.15.2c6.38-.4,12.48,2.42,13.79,8.77.65,3.16-.09,6.14-.09,9-3,1.44-4.67,4.58-6.78,7.16-3.42,4.16-6.48,8.51-9.72,12.8-6.35,8.42-10.87,17.56-15.77,26.78s-8.4,18.83-13.3,28c-2.06,3.84-3.77,8.14-6.1,11.82C70.11,197,68.16,199.05,66.75,202ZM214.5,114.1c2.21.91,4,2.82,5.64,4.5a20.4,20.4,0,0,1,2.24,2.59,8,8,0,0,1,.74,1.63,2.84,2.84,0,0,0-.13,1.3c1.12,9.44,4.34,18.33,4.31,28,0,10.52-3.07,19.4-7,29-4.46,10.81-9.09,22.37-18.74,29.41-8.57,6.23-18.37,6.1-28.35,6.06,5.72-7.25,7.22-17.16,8.44-26.17,1.63-12,3.61-25.5-.67-37.24-.92-2.52-4.83-1.54-4.08,1.12,3.16,11.22.16,24.77-1.45,36-.7,4.88-1.3,9.73-2.91,14.39-1.28,3.7-2.56,7.44-2.1,11.43a1.48,1.48,0,0,0,.16.49,2.63,2.63,0,0,0-2.17.91c-1.22,1.3-.4.42-1.09.87-.9.58-2.29,1.32-3.24,1.82-3,1.57-6.21,3.12-9.3,4.53a57.8,57.8,0,0,1-31.49,4.61c-10.23-1.32-19.72-4.85-29.08-9.07-8.25-3.71-18-7.22-23.37-14.83,9.93-12.49,16.47-28,22.59-42.61,3.94-9.42,9.26-18.31,14.43-27.08,2.24-3.8,4.72-7.48,7.08-11.19s7.45-12.45,11.38-14.41a1.45,1.45,0,0,0,.83-1.46c.07-.09.11-.2.18-.29a1.93,1.93,0,0,0,1.61.6c6.49-.65,11.39-1.83,13.41,5.67a2.79,2.79,0,0,0,5,.66c3.55-5.81,10.06-1.66,12.53,1.77,1.54,2.12,2.11,4.57,2.79,7.06,1.44,5.32,2.69,10.71,4.46,15.94.68,2,3.83,1.76,3.83-.52,0-8.47-2.07-21.3-8.13-27.71-.21-.23-.43-.43-.65-.64,2.24-4.85,6-10.12,11.74-10.19,3.74,0,7.25,2.16,10.53,3.61,5.43,2.4,13.17,6.1,19.21,5.14a1.7,1.7,0,0,0,1-2.48c-2.17-3.57-7.85-4.21-11.52-5.47-5.5-1.9-10.86-5.17-16.71-5.93-.26,0-.52,0-.78-.06-.31-2.64-1.52-4.88-2-7.6-.63-3.8,0-7.76.87-11.48C177,66,190.08,62.6,198.83,58c2.7,1.29,6.35,1.94,8.88,3.17,7.88,3.83,10.8,9.36,14.19,17.2,5.6,13,8.21,26.41,4.15,39.79a15.65,15.65,0,0,0-2.2-2.29,24,24,0,0,0-8.59-4.52C213.47,110.73,212.84,113.41,214.5,114.1Z" transform="translate(10.55 11.83)"/><path class="cls-26" d="M67.1,93.43C76.33,89.73,83.66,82.21,93.2,79c.94-.32.55-1.78-.41-1.49-9.48,2.84-19.41,7.63-26.43,14.65C65.86,92.66,66.37,93.72,67.1,93.43Z" transform="translate(10.55 11.83)"/><path class="cls-26" d="M134.23,160.46c-3.88,2.72-2.76,8.72-2.86,12.87-.21,9-3.53,17.29-4,26a1.57,1.57,0,0,0,2.9.79c2.88-5,4.22-10.87,4.91-16.6a77.8,77.8,0,0,0,.5-10.23c0-2.57-1.3-8.13.49-10.3C137.31,161.71,135.88,159.3,134.23,160.46Z" transform="translate(10.55 11.83)"/><path class="cls-26" d="M138.82,119.55a41.59,41.59,0,0,1,.44,9.46c-.15,2.7-.74,5.31.29,7.89a1.41,1.41,0,0,0,2.54.33c3.31-4.81,2.3-13.49.37-18.68A1.89,1.89,0,0,0,138.82,119.55Z" transform="translate(10.55 11.83)"/><path class="cls-26" d="M182.42,128.52c-1.9-1.81-4.4-5-7.13-5.48-1.35-.24-2.62,1.38-1.44,2.48,2.1,2,4,4.15,6,6.25s3.59,5.41,6,7c1.37.9,2.8-.58,2.55-2C187.84,133.67,184.64,130.65,182.42,128.52Z" transform="translate(10.55 11.83)"/><path class="cls-26" d="M187.59,122.52c-1.52-1.23-3.71.87-2.18,2.18a107,107,0,0,1,8,8c2.37,2.51,4.3,6.09,7.15,8,1.12.76,2.33-.69,1.76-1.76C198.8,132.44,193.27,127.07,187.59,122.52Z" transform="translate(10.55 11.83)"/><path class="cls-26" d="M209.48,159.27a113.55,113.55,0,0,1,3.91,11.59c.85,3.25,1.43,6.48,2.82,9.56.5,1.1,2,.41,2.06-.56.68-7.14-2.93-15-5.59-21.47C211.89,156.45,208.7,157.25,209.48,159.27Z" transform="translate(10.55 11.83)"/><path class="cls-26" d="M202.06,75c-2.45-.67-5.1.3-7.51.82a76.19,76.19,0,0,0-9.39,2.8c-1.5.53-.9,2.86.66,2.4,5.32-1.55,11-1.71,16.24-3.48A1.33,1.33,0,0,0,202.06,75Z" transform="translate(10.55 11.83)"/><path class="cls-26" d="M211.21,87.74a1.62,1.62,0,0,0-.43-1.63c-1.7-1.37-3.65-1.16-5.73-1-2.74.15-5.34,0-8,.75-1.71.45-1,2.92.72,2.62,2.88-.53,6.19.13,9.12.23C208.29,88.71,210.64,89.63,211.21,87.74Z" transform="translate(10.55 11.83)"/><path class="cls-26" d="M83.83,119.81a.8.8,0,0,0-.21-1.56c-5.81,0-7.8,5.06-10.52,9.52-5.26,8.64-10.75,17.27-14.91,26.51a1,1,0,0,0,1.7,1c3.91-5.7,7.24-11.78,10.73-17.74C73.41,132.75,77.88,121.33,83.83,119.81Z" transform="translate(10.55 11.83)"/><path class="cls-26" d="M77.28,145.56C73,154.34,67.62,162.87,64,171.94c-.46,1.14,1.25,2,2,1.18,6.32-7,9.6-17.84,13.35-26.36C79.93,145.39,78,144.17,77.28,145.56Z" transform="translate(10.55 11.83)"/><path class="cls-26" d="M93.36,105.41c2.35-.77,4.59-2.46,6.66-3.81A28.43,28.43,0,0,1,103,100c1.25-.62,2.53-1.73,4-1.89a1.4,1.4,0,0,0,0-2.8c-2.51-.32-5,1.3-7.16,2.33-2.57,1.22-6,3.23-7.75,5.45C91.26,104.1,91.94,105.88,93.36,105.41Z" transform="translate(10.55 11.83)"/><path class="cls-26" d="M92.49,63.26a89.34,89.34,0,0,1,19.79,4.07c1.91.69,3.3-2.5,1.4-3.32-6.53-2.81-14.13-3.72-21.19-3.72C90.54,60.3,90.63,63.06,92.49,63.26Z" transform="translate(10.55 11.83)"/><path class="cls-26" d="M129,52.61c1.53,1.63,3.87-.78,2.44-2.44-2.83-3.26-6.81-7.56-11.36-7.9A1,1,0,0,0,119.4,44C122.48,47,126.06,49.45,129,52.61Z" transform="translate(10.55 11.83)"/><path class="cls-26" d="M136.83,45.36A7.74,7.74,0,0,1,138,46.64c1,1.15,2.58-.5,1.65-1.65a6.27,6.27,0,0,0-1.34-1.38,5.88,5.88,0,0,0-1.83-.51c-.48-.13-1.09.36-.88.88A3.44,3.44,0,0,0,136.83,45.36Z" transform="translate(10.55 11.83)"/><path class="cls-26" d="M157.09,176.06c-.05,3.23,0,6.48-.25,9.71-.19,2.75-1.09,5.55-.82,8.28a1.09,1.09,0,0,0,2.14.29c1.68-5.9,1.08-12.23,1-18.28A1,1,0,0,0,157.09,176.06Z" transform="translate(10.55 11.83)"/><path class="cls-26" d="M97.67,192.83A35.22,35.22,0,0,0,94,200.78c-1.09,3.33-2.61,6.36-3.3,9.82a1.62,1.62,0,0,0,2.68,1.56c4.58-4.65,4.72-11.84,7.62-17.39A1.92,1.92,0,0,0,97.67,192.83Z" transform="translate(10.55 11.83)"/></g></g></g></svg>