<svg xmlns="http://www.w3.org/2000/svg" xmlns:xlink="http://www.w3.org/1999/xlink" viewBox="0 0 285.5 277.43"><defs><style>.cls-1{fill:none;}.cls-2{clip-path:url(#clip-path);}.cls-3{fill:#614a6b;}.cls-4{fill:#52405b;}.cls-5{fill:#47384f;}.cls-6{fill:#3b3042;}.cls-7{fill:#7a6187;}.cls-8{fill:#8f75a0;}.cls-9{fill:#af95c4;}.cls-10{fill:#ba7fd3;opacity:0.6;}.cls-11{fill:#3c6022;}.cls-12{fill:#cf6805;}.cls-13{fill:#ba17fe;}.cls-14{fill:#aa550f;}.cls-15{fill:#30491c;}.cls-16{fill:#293d18;}.cls-17{fill:#243315;}.cls-18{fill:#598436;}.cls-19{fill:#8ab75e;}.cls-20{fill:#c3ef8f;}.cls-21{fill:#874515;}.cls-22{fill:#6b3510;}.cls-23{fill:#e57c25;}.cls-24{fill:#ff9545;}.cls-25{fill:#ffbb8d;}.cls-26{fill:#c24dff;}.cls-27{fill:#d99fff;}.cls-28{fill:#f5e9ff;}.cls-29{fill:#3a271d;}</style><clipPath id="clip-path" transform="translate(14.07 12.58)"><path class="cls-1" d="M231,0H25A25.07,25.07,0,0,0,0,25H0V231H0a24.77,24.77,0,0,0,2,9.71A25.18,25.18,0,0,0,13.11,253c.71.39,1.44.74,2.18,1.06.38.16.75.31,1.14.45A24.84,24.84,0,0,0,25,256H231a24.84,24.84,0,0,0,8.57-1.52c.39-.14.76-.29,1.14-.45.74-.32,1.47-.67,2.18-1.06A25.18,25.18,0,0,0,254,240.71a24.77,24.77,0,0,0,2-9.71h0V25h0A25.07,25.07,0,0,0,231,0Z"/></clipPath></defs><g id="Layer_2" data-name="Layer 2"><g id="icon"><g class="cls-2"><path class="cls-3" d="M234.62-4.5H21.38A26,26,0,0,0-4.5,21.38V234.62a25.7,25.7,0,0,0,2,10A26.34,26.34,0,0,0,3.1,252.9a25.85,25.85,0,0,0,6,4.46c.73.4,1.49.77,2.26,1.1.39.16.78.32,1.17.46a25.73,25.73,0,0,0,8.88,1.58H234.62a25.73,25.73,0,0,0,8.88-1.58c.39-.14.78-.3,1.17-.46.77-.33,1.53-.7,2.26-1.1a25.85,25.85,0,0,0,6-4.46,26.34,26.34,0,0,0,5.56-8.23,25.7,25.7,0,0,0,2-10V21.38A26,26,0,0,0,234.62-4.5Z" transform="translate(14.07 12.58)"/><path class="cls-4" d="M270.31,163.52c-.71-5.24-.28-10.56-.21-15.84.13-10,.85-19.47-.62-29.35a95.09,95.09,0,0,1-.86-15.08c.06-5.19-.54-10.31-.53-15.5,0-10.79-.5-21.58-.5-32.38,0-9.6-.2-19.09-.48-28.65a56.73,56.73,0,0,0-1.17-11.86c-.87-3.38-3.56-5.47-6.6-7a43.86,43.86,0,0,0-11.75-3.67c-4.77-.92-9.5-2.12-14.31-2.82C223-.19,212.78-1,202.35-1.66,191.07-2.32,179.86-4,168.57-4.57S146.24-5.22,135-5.24c-21.17,0-42.49-.51-63.54,2C61-2,50.24-2.24,39.77-.92,34.72-.28,29.62-.36,24.59.34,19.82,1,15.21,2.13,10.42,2.72,8.12,3,4.53,2.38,2.58,3.89.15,5.76-.92,10.5-1.25,13.33-2.42,23.23-5,32.87-6.85,42.69c-4.1,22.2-4.32,45-5.87,67.43-.78,11.3-1.79,22.66-1.13,34,.26,4.61,1.36,9,2.27,13.47a25.77,25.77,0,0,0,1.79,5.32A29.66,29.66,0,0,0-9.71,172a5.28,5.28,0,0,0,.09.9,1.2,1.2,0,0,0,.17.42,1.63,1.63,0,0,0,2.16.9c1.81-.12,3.67-1.37,5.07-2.36s.13-3.27-1.36-2.33a6.2,6.2,0,0,1-1,.63c.24-.44.47-.89.7-1.28A3.3,3.3,0,0,0-2,166.15c.76-1.13,1.54-2.24,2.32-3.35A1.49,1.49,0,0,0,2,162.05l1.09-1.79a1.82,1.82,0,0,0,.7-.34c1.66-1.31,3.29-2.6,4.93-3.88-.26.33-.54.66-.79,1l-.16.21c-5.66,5.49-10.26,11.83-9.74,20a2,2,0,0,0,1.69,1.93c0,1.15,1.49,2.17,2.36,1.07,2-2.55,2.43-5.79,4.1-8.55.7-1.15,1.45-2.31,2.22-3.46a7.64,7.64,0,0,0-.14,1,.83.83,0,0,0,1.53.42,102,102,0,0,1,20.41-23.12c2-1.27,4-2.46,6.12-3.59a180,180,0,0,1,16.32-8c-3.57,2.42-8.06,3.49-11.56,6.07a2,2,0,0,0,2,3.44c2.92-1.33,6.13-2.2,9.09-3.49,3.62-1.57,5.78-4.18,8.88-6.39q3.08-2.19,6.19-4.28c6.56-1.57,13.13-2.75,19.81-4,19.26-3.55,39.14-4,58.41-.16,9.12,1.83,18.47,3.72,27.38,6.39,8.7,2.61,16.8,6.36,25.28,9.58,9.62,3.65,19.22,7.21,28.75,11.18a95.46,95.46,0,0,1,19,11c1.66,1.71,3.29,3.44,5,5.13,2.43,2.4,5.6,4.33,8.49,6.33.15.24.31.46.45.71.83,1.39,3.25.49,2.7-1.14-1.68-4.94-4.78-8.46-8.46-11.58a1.28,1.28,0,0,0,.42-.48l1.86,1.62c3.5,3.06,6.16,8,10.31,10.17,1.3.68,3.41.47,4.09-1.07C272.3,170.44,270.81,167.24,270.31,163.52Zm-33.75-13c-3.09-2.26-6.22-4.46-9.48-6.52a53.31,53.31,0,0,1-6.78-5.21,39.07,39.07,0,0,1,4.49,2.23A65.6,65.6,0,0,1,236.56,150.54ZM174.64,113c5.28,1.1,10.55,3.45,15.58,5.37a166.54,166.54,0,0,1,29.43,15c.59.37,1.17.77,1.76,1.15-3.57-1.4-7.25-2.54-10.73-4.18-1-.45-1.9-.93-2.84-1.41l-.09-.07a19.93,19.93,0,0,0-3.08-1.82,18.31,18.31,0,0,0-2.83-1.84c-2.18-1.13-4.38-2.14-6.6-3.1a42.21,42.21,0,0,0-7.5-4.18c-4.44-1.72-9.05-3.27-13.58-5Zm-15,.61c3.37.6,6.22,2.57,9.43,3.63,2.77.91,5.65,1.43,8.43,2.26-7.84-1.89-15.63-3.95-23.49-5.81A17.43,17.43,0,0,1,159.59,113.6Zm7.32,8.1,2.18.59c.85.22,1.71.43,2.57.63,6.43,1.68,13,3,19.23,5.31-6.1-1.82-12.52-2.56-18.7-4.14-8.82-2.26-17.5-5.07-26.57-6.23-7.63-1-15.26-1.29-22.91-1.71H123c3.08-.09,6.13-.21,9.17-.23l.45,0c3.73.33,7.36.37,11,.6,1.33.19,2.66.41,4,.71C154.06,118.71,160.53,120.07,166.91,121.7Zm-20.47-12.59c-.58.09-1.16.17-1.75.21l-.89.06-2.35.11c-4.9.15-9.81-.26-14.72-.11-1.21,0-2.42.12-3.63.21-11.36-.1-22.76.08-33.49,3.57l-.78,0q-4.86-.18-9.83,0a114.31,114.31,0,0,1,12.74-2.38A268.19,268.19,0,0,1,146.44,109.11ZM-2.41,158.88c-.46.66-1,1.44-1.7,2.28-.21-.43-.41-.85-.6-1.29a29.42,29.42,0,0,1,1.14-2.77c2.17-4.49,6.86-7.3,10.79-10.2-.4.55-.79,1.11-1.18,1.68A74.21,74.21,0,0,0-2.41,158.88ZM27.77,144q-1.31.83-2.58,1.71l1.07-1c.73-.52,1.46-1,2.2-1.49.24-.16.48-.3.72-.44C28.7,143.14,28.24,143.57,27.77,144Zm-.88-6.21c-1,.79-2,1.64-3,2.5-1.43.84-2.86,1.69-4.28,2.59A78.1,78.1,0,0,0,12.5,148a14.53,14.53,0,0,0,1-1.92,1.93,1.93,0,0,0,.16-.92q2-2.48,4.23-4.79l1.32-.73c4.72-2.61,8.69-5.9,13.14-8.89,7.22-4.86,15.61-7.5,23.81-10.33.47-.12.94-.22,1.41-.33a52.78,52.78,0,0,0-8.8,4.18C41.41,128.6,33.7,132.54,26.89,137.77Zm32.72-8.34a117,117,0,0,0-11.42,4s0-.08,0-.12c4-1.6,8-3.05,12.11-4.41Zm6.13-4.75c-3.56.88-7.07,1.8-10.56,2.8,3.48-1.5,7.08-2.75,10.6-4.09,1.43-.55,2.87-1,4.32-1.51Q67.84,123.22,65.74,124.68Zm28.38-2.38c-6.62,1.13-13.19,2.21-19.66,3.53,1.55-.89,3.12-1.74,4.74-2.55,2-.44,4-.88,5.9-1.44,4-1.13,7.83-2.67,11.78-3.88,4.76.44,9.51,1,14.25,1.58,3.53.42,7.08.67,10.63.88A139.44,139.44,0,0,0,94.12,122.3ZM207.3,142.49c-8.54-3.24-17.1-6.79-25.7-9.82-10-3.55-20.53-5-30.7-7.9a116.87,116.87,0,0,0-23.45-4c3.61.18,7.21.38,10.8.72a166.54,166.54,0,0,1,26.59,5.06c7.79,2,15.72,2.95,23.53,4.76,4.8,1.12,9,3.44,13.51,5.32,4.78,2,9.57,3.93,14.3,6,.79.35,1.56.71,2.33,1.07a64.41,64.41,0,0,0,8.84,6.27,51.71,51.71,0,0,1,4.33,3C223.82,149,215.47,145.6,207.3,142.49Z" transform="translate(14.07 12.58)"/><path class="cls-3" d="M228.88,141.26c-3.74-2-7.22-4.5-11-6.5-3.23-1.72-6.73-2.75-10.12-4.12-7.88-3.17-16.16-6-24.24-8.69-16.36-5.35-34.19-5.87-51.16-7.84-16-1.86-33.28,1.42-49,4.31-16.89,3.11-32.3,9.59-46.88,18.52a93.39,93.39,0,0,0-20.14,16.49c-3,3.22-6.86,6-9.31,9.61A141.05,141.05,0,0,0-.06,175.83c-.47.88.84,1.65,1.33.78,1.92-3.36,4-6.6,6-9.93,2.33-3.94,5.79-6.49,9-9.65,5.91-5.79,11.59-11.35,18.58-15.91,13.83-9,28.85-16.34,45-20.21,7.55-1.81,15.25-2.62,22.92-3.68a136.71,136.71,0,0,1,25.07-1.53c8,.41,16,1.68,24,2.52a214.56,214.56,0,0,1,25.61,3.8c8.63,2,16.82,5.77,25.18,8.65,3.86,1.32,7.74,2.77,11.55,4.26,4.93,1.93,9.37,5,14.19,7.26C229,142.47,229.5,141.59,228.88,141.26Z" transform="translate(14.07 12.58)"/><path class="cls-3" d="M265.77,158.83c-11-14.31-23.84-25.89-40.13-34-17.21-8.56-35.42-11.85-54.09-15.7a266.11,266.11,0,0,0-58.44-5.48,164.85,164.85,0,0,0-18.73.28c-11.56.93-23.38,2.5-34.35,6.51-1.33.33-2.64.66-4,1a103.89,103.89,0,0,0-48.6,29.11.9.9,0,0,0,1.27,1.28A119.7,119.7,0,0,1,24,129.31c-9.4,7.38-16.91,17.11-24.83,26-1.09,1.23.64,3,1.83,1.82C9.56,148.61,17.51,139,27.39,132c10.18-7.22,21.41-12,33.1-16.17,11.15-4,23.05-5.65,34.79-6.54,6-.46,12-.3,18-.48,6.22-.19,12.58-1.23,18.77-.86a1.14,1.14,0,0,0,1-1.7A289.78,289.78,0,0,1,164,109.48c18,3,36.81,6,53.45,13.59a125.85,125.85,0,0,1,26.3,15.59,123.86,123.86,0,0,1,20.77,21.11C265.1,160.45,266.31,159.53,265.77,158.83Z" transform="translate(14.07 12.58)"/><path class="cls-5" d="M268.27,106.63c-.93-7.91-.21-16.13-.2-24.08,0-15.88-3.57-31.34-4.69-47.08a175.66,175.66,0,0,0-2.66-21.06c-1.11-5.66-2-12-6.32-16.23s-12-5-17.77-5.41c-8-.5-16.19,0-24.22,0-15.84,0-31.56.71-47.38,1.06-16.63.37-33.3-.07-49.94-.07q-23.84,0-47.69-.09c-7.34,0-14.6,1.06-21.91,1.64-6.66.52-13.4.57-20,1.45C20.33-2.58,12.32-3.9,9.4,1.67A11.69,11.69,0,0,0,8.55,3.9a2.8,2.8,0,0,0-4.12-.07c-3,2.8-3.59,7.15-4.32,11C-.7,19.17-1.37,23.55-2,27.92c-.54,1.87-1.09,3.74-1.61,5.62-2.78,9.93-3.67,19.89-4.55,30.12C-9,73.48-8.3,83.16-8.7,93c-.19,4.7-.88,9.22-.61,14,.19,3.32,1.31,6.28,2.05,9.37a2.3,2.3,0,0,0,0,2.19,11.42,11.42,0,0,0-1.41,5.24c0,2.27,3.33,2.22,3.49,0a7.91,7.91,0,0,1,1.05-3.24,3,3,0,0,0,3-3.7c0-.06,0-.12,0-.18,2.24-2.33,4.88-4.44,6.52-6.24,3.31-3.66,7.15-6.58,11-9.68,1.46-1.18,2.92-2.39,4.38-3.59A5.9,5.9,0,0,0,20,98.31a2.68,2.68,0,0,0,2.28,4,8.51,8.51,0,0,0,1.75-.17A60,60,0,0,0,9.09,113.71a.69.69,0,0,0,.1,1.06c-5.3,4.79-8.93,10-13.12,15.85-.78,1.09,1,2.51,1.88,1.45a94.37,94.37,0,0,1,15-15.15c4.82-3.84,10.1-7,15-10.78,3.77-2.92,8.11-5.19,12.35-7.59a93.53,93.53,0,0,0,9.36-2.88c4.81-1.48,9.38-3.64,14.2-5,3.94-1.15,7.85-2.31,11.77-3.47a213.77,213.77,0,0,1,31.74-4.53c9.44-.65,19-1.14,28.47-.94,10.07.22,19.55,2.44,29.4,4.19,9.14,1.62,19.14,2.85,27.7,6.55,8,3.46,16,6.8,24.05,10,.81.32,1.38-1,.59-1.42-6.5-3.14-13.27-5.71-19.83-8.72s-13.27-4.61-20.44-6.11c-14.93-3.12-30-6.19-45.31-6.37a291.21,291.21,0,0,0-37.7,2c.8-.22,1.59-.45,2.39-.66a165,165,0,0,1,34.87-5.45c11.24-.54,21.73,2.47,32.45,5.19a.7.7,0,0,0,.37-1.34c-9.84-2.87-19.64-7.21-30-7.73-2.72-.13-5.47-.17-8.24-.14,1.07-.07,2.14-.16,3.21-.22,7.73-.45,15.12.87,22.73,1.9,6.66.91,13.36,1.62,20,2.5,14.69,1.93,28,11.49,40.86,18.28,2.54,1.34,5.09,2.71,7.59,4.16a1,1,0,0,0,.23.18l.64.32a87.4,87.4,0,0,1,10,6.69c2.17,1.71,4.56,3,6.77,4.67,3.51,2.59,6.17,6.32,9.16,9.45,1,1,2.84-.36,2-1.52l-.64-.87c3.58,3.21,7.79,6.31,11.95,6.89a.4.4,0,0,0,.21-.77c-6.46-2.61-12-9-17.21-13.74a86.91,86.91,0,0,1,15.29,9.93c1.12.93,2.74-.63,1.63-1.62a97.57,97.57,0,0,0-26.87-16.46,120,120,0,0,0-16.44-11.06c-4.65-2.69-9.25-5.52-14-8.13a24,24,0,0,0-5.71-3.75c-2.84-1.32-5.73-2.52-8.61-3.72,8.64,2.3,17,6,25.24,9.28,10.52,4.21,19.14,10.23,28.24,17,8.07,6,16,12,22.19,19.91,1.3,1.65,3.68.76,4.67-.6C271.94,116.56,268.75,110.68,268.27,106.63Zm-230-20.15C34.35,88.8,30.41,91,26.49,93.29c-1,.58-2.09,1.1-3.11,1.69A76.56,76.56,0,0,1,39.13,84.65c2.64-1.21,5.51-2.4,8.36-3.45C44.34,82.89,41.25,84.67,38.23,86.48Zm15.49-1.82c1.87-.93,3.77-1.82,5.7-2.65C57.52,82.9,55.62,83.79,53.72,84.66Zm46-9.73c-5.66,1.4-11.41,2.56-17,4.13s-10.9,3.65-16.44,5.17c-1.25.34-2.49.71-3.72,1.1l.24-.11c.48-.2.5-1.09-.14-1a16.63,16.63,0,0,0-1.67.28c4.5-2.44,9-4.83,13.68-6.9a.78.78,0,0,0,.48-.71c3.48-.9,7-1.74,10.45-2.65a.75.75,0,0,0,.13.06,19.45,19.45,0,0,0,2.57.49c-.88.35-1.75.73-2.59,1.16-1,.54-.13,2,.91,1.56a37.75,37.75,0,0,1,6.39-2c.72-.19,1.5-.35,2.25-.58,3.61-.25,7.28-.84,10.55-1.23C103.7,74,101.67,74.43,99.67,74.93Z" transform="translate(14.07 12.58)"/><path class="cls-4" d="M250.86,117.47c-2.32-2.13-5-3.58-7.13-6-2.26-2.56-4.06-5.41-6.62-7.72a95.1,95.1,0,0,0-14.7-11.26,174.24,174.24,0,0,0-17.83-9.66,229.3,229.3,0,0,1,25.16,9c.84.35,1.57-.86.73-1.24-31.74-14.15-65.32-19.95-99.69-23.2-33.95-3.22-68.46,3.87-99,18.71a.71.71,0,0,0,.54,1.29l3.46-1.2a88.66,88.66,0,0,0-15.36,9.49c-4.08,3.1-7.65,6.74-11.4,10.23s-7.87,6.52-10,11.16c-.66,1.46,1.42,2.75,2.19,1.28,2.38-4.58,7.08-7.39,10.86-10.71,4-3.54,7.79-7.22,12.14-10.37,7.82-5.66,16.48-8.76,25-13,1.31-.65.33-2.42-.93-2.2-.43.07-.87.16-1.3.25a288.57,288.57,0,0,1,33.25-9.69c8.49-1.82,17-2.07,25.62-2.74a146.08,146.08,0,0,1,23.94.11q9.86.86,19.65,2c-4.14-.11-8.29-.11-12.42,0-8.3.23-16.63.06-24.93.48-8.51.42-17,2.15-25.49,2.38a.86.86,0,0,0,0,1.71c7.84,0,15.72-1.23,23.56-1.55,7.68-.32,15.4.17,23.09.2a270.23,270.23,0,0,1,47.59,4c14.48,2.66,27.77,9.69,40.32,17.08a78.27,78.27,0,0,1,15.1,11.44c2.25,2.19,3.92,4.92,6.27,7,2.14,1.91,4.72,2.76,7,4.33C250.57,119.82,251.75,118.28,250.86,117.47Z" transform="translate(14.07 12.58)"/><path class="cls-5" d="M164.78,99.58c-5.26-1.88-10.08-4-15.63-5-5.28-1-10.67-1.44-16-2-12.21-1.26-24.27-.2-36.53-.1a.72.72,0,0,0,0,1.43c11.62.08,23.18-.63,34.73.69,5.73.66,11.53,1.14,17.2,2.21,5.39,1,10.56,2.8,15.9,4A.67.67,0,0,0,164.78,99.58Z" transform="translate(14.07 12.58)"/><path class="cls-6" d="M262.39,31.94C261,21.31,258.48,9.54,251.94.72c-6.09-8.22-17.51-10.65-27-11.89-26.2-3.42-53.09.48-79.45.41-25.33-.07-50.41,1.67-75.64,3.45-14.09,1-28,3.56-42,5.08-4.58.5-9.17.93-12.7,4.11-2,1.76-3.64,6.5-6.32,6.46-1.76,0-2.86-1.93-4.77-2-4.53-.19-6.72,6.55-8,9.89-2.23,6-4.47,12.75-4.9,19.17-.48,7.13.94,14.53.94,21.72,0,6.69-.54,13.4,1.1,19.91a3,3,0,0,0,.49,1A16.92,16.92,0,0,0-7,81.72a1.39,1.39,0,0,0,.14.72,14.05,14.05,0,0,0-1.42,4.13c-.46,3,4,4.42,4.7,1.3A16.7,16.7,0,0,1-.49,82a76.38,76.38,0,0,0-2.64,7.34c-.54,1.58,1.87,2.18,2.47.68,3.88-9.84,10.94-16.92,17.24-25.22l.16-.21c1.75-1.69,3.47-3.42,5.13-5.22,1.46-1.58,3.36-3.16,4.91-4.9a1.93,1.93,0,0,0,1.71-1.79,4.9,4.9,0,0,1,.17-.88c.1-.18.21-.36.29-.54a.13.13,0,0,0,0-.06,18.06,18.06,0,0,1,4.31-3.08c2.55-1.18,5.24-.84,7.91-1.17,1.7-.2,3.67-1,5.37-.62,1.34.26,2.3,1.19,3.54,1.74.32.13.75-.15,1-.08.52.16-1.11.08-.3.12a10.7,10.7,0,0,0,4.3-.41l1.42-.51C50,50,43.19,52.67,37,56S23.28,64.41,19.69,70.39c-.82,1.37.85,3.16,2.24,2.25,6.45-4.24,12.08-9.58,19-13.1,3-1.54,6.2-2.68,9.29-4,4-1.81,7.78-4.28,11.91-5.86,6.66-2.54,14.7-1,21.76-1.57,3.85-.29,7.67-.37,11.48-.57a53.2,53.2,0,0,0,5.37.23c3.45-.06,6.85-.52,10.31-.56,7.16-.07,14.16-1.49,21.25-1.67,3.32-.09,6.47-1,9.79-1.06,4.36-.13,7.75.08,11.91-1.3a1.47,1.47,0,0,0,0-2.82,27.3,27.3,0,0,0-2.79-.74c3-.24,6-.41,9.09-.45a35.67,35.67,0,0,1,8.41,1.09c-3,.79-5.88,1.79-8.9,2.4-1.36.28-.9,2.15.3,2.26,4.77.45,9.07-.52,13.8-.7,5.3-.19,10.24,1.53,15.36,2.64,3.64.79,7.8,1.17,11.2,2.67,3.15,1.4,5.5,3.36,9.06,2.76a1.58,1.58,0,0,0,.69-2.63,43.34,43.34,0,0,0-5.68-4.6c1.95.09,3.9.19,5.84.34,6.49.52,13.83,4.29,18.89,8.39A42.16,42.16,0,0,1,240,67a66.71,66.71,0,0,0,4.78,8.43,26.09,26.09,0,0,1-6.22-4.66.67.67,0,0,0-1,.94,41.33,41.33,0,0,0,11.12,7.92c.17.14.33.29.51.42,9.41,6.89,11.56-6.08,13.09-12.7C265.09,55.55,264,43.86,262.39,31.94ZM8.12,64.68a92.65,92.65,0,0,1,8.25-8.08C13.72,59.41,10.92,62,8.12,64.68ZM53,42.91c-.25.15-2.08,1.64-3,2.26-.18-.4-1.78-1.1-1.94-1.12-1.66-.29-3.25.28-4.85.51,2-.56,4.1-1.06,6.15-1.52,1.75-.4,3.51-.75,5.27-1.07ZM68.82,34.7l-.72.42-.28.16A17.2,17.2,0,0,0,65.7,35C66.76,34.9,67.79,34.79,68.82,34.7Zm25.92,6.81c-4.47-.51-10.19,1.25-14.23-.84-1.71-.88-3.8,1.43-2.17,2.82a14,14,0,0,0,2.56,1.75l-1.82-.11c-7-.39-12.65-1.32-19.11.75a77.07,77.07,0,0,0,7.28-3.44c4.86-2.63,9.4-6.07,15-6.9a2,2,0,0,0,1.27-.66l2.54.19c1.44.12,2.84.25,4.22.41a4.2,4.2,0,0,0,1.09.35,4.35,4.35,0,0,0,1.39,0,58.19,58.19,0,0,1,12.27,3,81.38,81.38,0,0,0,7.75,2.51C106.76,41.47,100.68,42.19,94.74,41.51Z" transform="translate(14.07 12.58)"/><path class="cls-6" d="M232.34,63c-1-.51-2.07-1-3.11-1.48-2-2.83-5.06-5.06-7.73-7.16-2-1.54-4.77,1.19-2.79,2.78h0a90.8,90.8,0,0,0-23.79-5.43c-6.5-.53-12.76.51-19.13,1.54-6.93,1.12-14.05,1.27-20.91,2.71a.82.82,0,0,0,0,1.56c5.41,1,10.62-.22,15.9-1.42a67.48,67.48,0,0,1,20.63-1.23,150.87,150.87,0,0,1,19.48,2.72,66.73,66.73,0,0,1,14.41,5.24,18.35,18.35,0,0,0,3.75,2.34,1.14,1.14,0,0,0,1.07,0l.74.36C232.55,66.28,234,63.79,232.34,63Z" transform="translate(14.07 12.58)"/><path class="cls-6" d="M146.1,51.77c-1.75-.17-3.53-.27-5.33-.33-1.37-.44-2.77-.79-4.14-1.23a34,34,0,0,1-4.21-2c-.53-.25-1.21.28-.85.84A6.56,6.56,0,0,0,135,51.41c-4.81.1-9.64.47-14.29,1-8.33.87-16.67,1.11-25.06,1.33-2,.05-2,3.1,0,3.07,16.83-.32,33.78-1.16,50.5-3.09A1,1,0,0,0,146.1,51.77Z" transform="translate(14.07 12.58)"/><path class="cls-6" d="M8,81.42c-.46,2.2-.6,4.83-1.8,6.78-.59,1,.85,2.16,1.62,1.25,1.78-2.1,1.89-4.84,2.37-7.43C10.47,80.6,8.31,80,8,81.42Z" transform="translate(14.07 12.58)"/><path class="cls-6" d="M18.26,74.28a75.82,75.82,0,0,0-6.67,5.42A1.45,1.45,0,0,0,11.88,82c1.65.86,2.62-.27,3.74-1.36a36.7,36.7,0,0,1,4.32-3.45C21.67,75.93,20,73.06,18.26,74.28Z" transform="translate(14.07 12.58)"/><path class="cls-7" d="M265.12,232.84c-.09-4.23-.07-9.42-2.11-13.27-1.91-3.59-5.52-6.21-9.12-8a1.09,1.09,0,0,0-.57-.52c-1.12-.49-2.28-1-3.45-1.57a81.45,81.45,0,0,0-7.59-4.08,53.38,53.38,0,0,1-9.18-6.85c-2.78-2.66-5-5.75-8-8.21-2.79-2.28-5.35-4.64-7.95-7.14-2.07-2-5.2,1.14-3.15,3.15,2.91,2.84,5.9,5.42,8.95,8.09a71.82,71.82,0,0,1,5.47,5.83c-1.65-.66-3.29-1.33-4.91-2.05a72.72,72.72,0,0,1-11.21-6.44c-3.57-5.06-6.77-10-12.78-12.82a31.29,31.29,0,0,1-10.46-7.06,43.76,43.76,0,0,0-7.58-6.64c-2.34-1.61-4.53-3.34-6.69-5.12H175c3.14.18,6.9.54,9.68,2.25,5.24,3.21,8.87,8.93,15.45,9.42,2.44.19,2.6-3.29.55-4-6.7-2.39-10.75-9.07-17.57-11.22-4.7-1.48-10.06-1.71-15.25-1.62a9.8,9.8,0,0,0-4.73-1,1.25,1.25,0,0,0-1.28,1.21h-.14a132.46,132.46,0,0,1-28-1.74c-8.73-1.5-16-3.27-24.83-.66a45,45,0,0,1-13.3,1.88c-3.21,0-5.36,1.16-8.44,1.89-3.46.84-6.6-.72-10-1.26,1.56-.53,3.13-1,4.68-1.6,1.09-.38.64-2.12-.49-1.76-5,1.6-10.44,2.7-15.53,4.46l-.83.2c-14,3.73-28.69,13.62-36.39,26.06-1.57,2.54,2.38,4.81,4,2.33a49.24,49.24,0,0,1,9.66-10.76,1,1,0,0,0,1.52.27c2.49-2.3,5.51-3.48,8.22-5.44,1.87-1.35,3.65-2.84,5.48-4.25a56,56,0,0,1,15.6-4.38c3.24-.39,6.22.33,9.15.65a104.61,104.61,0,0,0-11.57,2.1c-5.38,1.33-10,4-14.94,6.37a64.31,64.31,0,0,0-12.65,7.46c-4.69,3.72-9,7.83-13.48,11.84-4.59,4.16-8,9.22-12.31,13.52-4.1,4.07-7.76,9.34-12.79,12.33a24.2,24.2,0,0,1-6.42,2.58c5.17-3.12,10.45-6.15,14.59-10.62,2.66-2.88,4.58-6.2,7.08-9.16a8.24,8.24,0,0,0,2.61-2.8,20.2,20.2,0,0,0,4.83-6.46,1.84,1.84,0,0,0-2.5-2.5,22.78,22.78,0,0,0-3.2,2.07,20.84,20.84,0,0,0,2.26-4,1.71,1.71,0,0,0-2.09-2.09c-2.71,1-4.35,4.09-5.12,6.74a24.52,24.52,0,0,0-1.15,5.56c-2.14,2.62-4.14,5.4-6.44,7.94-5.39,6-12.89,10-18.87,15.37a1.85,1.85,0,0,0-.6,1.77l-.93.2c-2.75.65-1.5,4.47,1.13,4.12,2.47-.34,4.69-.48,6.93-.79-.13,2.3-1.23,4.56-1.5,6.87-.24,2.13-.5,4.33-.58,6.48C-5.67,240.79-6,246.65-4,251.33a17.72,17.72,0,0,0,7.55,8.32c4.14,2.4,9,1.65,13.6,1.55,11.08-.25,21.95-1.49,33-1.49,11.87,0,23.72.53,35.59.49,12.26,0,24.52-.18,36.74.94s24.38.85,36.6,2.64c11.16,1.63,22.62.91,33.87.93,5.85,0,11.67-.26,17.52-.42,6.09-.17,12.15-1.13,18.23-1.06,4.9,0,9.68-1.17,14.45-2.13,4.35-.87,9.15-1.55,13.06-3.79C264.32,252.66,265.3,241.17,265.12,232.84ZM104.69,159.27c-5.14.27-10.36.52-15.56,1a9.48,9.48,0,0,0,1-.49,10.68,10.68,0,0,1,8-1.43,27.31,27.31,0,0,0,3.59.55c4.13.14,8.25-1.6,12.31-2.1,5.41-.66,10.62.61,15.88,1.73C121.55,159,113.09,158.83,104.69,159.27Zm75,12.71c-2-1.33-4.06-2.61-6.12-3.89-2.48-1.54-4.15-4-6.37-5.82a21.12,21.12,0,0,0-7.63-3.88c1.23,0,2.45,0,3.68.07s2.29.24,3.43.42c1.93,1.47,3.69,3.19,5.64,4.67,3.58,2.72,7.81,4.89,10.45,8.63.64.92,1.24,1.83,1.85,2.72C183,174,181.32,173,179.72,172Z" transform="translate(14.07 12.58)"/><path class="cls-7" d="M138.6,144.07c-3.38-.28-6.87-1-10.28-.73-3,.29-6,1.26-9,1.73-1.18.18-1.11,2.06,0,2.3,2.85.63,5.4-.34,8.21-.89,3.73-.73,7.35-.23,11.1-.11C140.1,146.42,140.06,144.19,138.6,144.07Z" transform="translate(14.07 12.58)"/><path class="cls-3" d="M42.91,171.1c-4.32-.59-9.49,3.25-12.74,5.75-3.86,3-6.62,6.39-7.08,11.37a1.76,1.76,0,0,0,0,.33,1.34,1.34,0,0,0-1.41.26c-1.49,1.46-2.11,3.19-3.12,5A29,29,0,0,1,12.34,201c-4.81,4.3-7.8,9.09-14.74,9.63-2.61.2-2.69,4.15,0,4.12,3.67,0,6.61-.08,9.66-2.31,2.77-2,5.11-4.49,7.68-6.74,4.51-3.94,10.4-9.46,8.93-16.2a1.52,1.52,0,0,0,2.19-.91c.94-4.12,3.9-6.87,7.28-9.19,2.93-2,6.31-4.8,9.57-6.09C43.83,173,44.19,171.28,42.91,171.1Z" transform="translate(14.07 12.58)"/><path class="cls-3" d="M133.1,169.64a112,112,0,0,0-18.5-.14c-3.11.3-6.5.71-9.83.72a.65.65,0,0,0-.25-.21c-3.24-1.49-6.74-1.49-9.77-3.12a.76.76,0,0,1,0-.21h0c3.9-.62,8.19-2.26,12.44-3.23,3.7.15,7.77,1.32,11.13-.69,2-1.17,1.77-4.64-.67-5.13-4.61-.94-9.61.61-14.18,2.57a48.9,48.9,0,0,0-9.17,2.32,8,8,0,0,0-3,1.81c-2.56-2.29-4.86-4.54-8.58-5.11A27.83,27.83,0,0,0,68.23,161a32.15,32.15,0,0,0-6.72,3.77c-3.22,2.35-5.1,3.81-9.41,3.93a1.48,1.48,0,0,0,0,3c5.3.39,7.19-.5,11.51-3.29a30.45,30.45,0,0,1,16.7-5,10.55,10.55,0,0,1,7,2.58c-.83.11-1.68.21-2.57.3a59.76,59.76,0,0,0-11.1,1.88c-7.6,2.15-14.82,5.91-21.79,9.55-6.74,3.52-14.09,7.45-19.86,12.4-.86.75.4,2,1.26,1.26,5.54-4.87,12.83-8.95,19.37-12.33,6.9-3.56,14-7.12,21.4-9.5a50,50,0,0,1,12.41-2.46c.72,0,1.43-.05,2.15-.06.77.66,1.55,1.34,2.39,2a7.24,7.24,0,0,0,.65.94c3.66,4.58,10.53,3.66,15.63,3.5,3.68-.11,7.36-.67,11-1.12a95.88,95.88,0,0,1,14.86-.53C134.5,171.84,134.48,169.73,133.1,169.64Z" transform="translate(14.07 12.58)"/><path class="cls-3" d="M220.53,195.3A80.83,80.83,0,0,0,201.24,181c-4.36-2.22-8-5.29-12.5-7.43a134.34,134.34,0,0,0-12.6-4.87c-15.46-5.57-31.79-13.59-47.48-4.28a.88.88,0,0,0,.89,1.52c15.71-7.89,32.94,3.2,48,7.47,4.37,1.24,9,2.23,13.17,4.16,3.53,1.65,6.44,4.29,9.95,6,6.82,3.39,12.63,8.51,19.1,12.59A.6.6,0,0,0,220.53,195.3Z" transform="translate(14.07 12.58)"/><path class="cls-3" d="M264,229.05c-2.82-2-5.58-4.11-8.45-6.07-.92-.62-1.76.85-.87,1.48a30.25,30.25,0,0,1,5.82,4.68c.84,1,2.44,2.53,3.66,1.13A.79.79,0,0,0,264,229.05Z" transform="translate(14.07 12.58)"/><path class="cls-3" d="M257.5,219.78c-9.48-1.57-15.87-7.94-24.48-11.57a39.82,39.82,0,0,1-13-8.21c-3.27-3.22-6.2-6.25-10.28-8.44a1.35,1.35,0,0,0-1.63,2.11,99.61,99.61,0,0,0,10.34,10.41,37.08,37.08,0,0,0,11.22,7c9.23,3.77,16.95,10.11,27,11.55C258.58,222.94,259.42,220.09,257.5,219.78Z" transform="translate(14.07 12.58)"/><path class="cls-3" d="M190.7,184.71c-5-2.16-10.07-4-15.15-6-4-1.51-9.18-3.34-13.45-3.46a1,1,0,0,0-.24,1.85c4.54,1.32,9.1,3.42,13.55,5.09,4.69,1.76,9.63,3,14.38,4.63C191,187.27,191.92,185.24,190.7,184.71Z" transform="translate(14.07 12.58)"/><path class="cls-3" d="M39.34,199.28a94.58,94.58,0,0,0-12.09,9c-4.39,4-8.59,8.11-12.8,12.29a.93.93,0,0,0,1.31,1.31c4-4.06,7.87-8.16,12.08-12A69.48,69.48,0,0,1,33,205.05c2.3-1.72,4.78-3.1,7-5C40.41,199.71,39.83,199,39.34,199.28Z" transform="translate(14.07 12.58)"/><path class="cls-3" d="M188.59,191.23c-5-4.16-11.71-6.7-17.8-8.94-7.32-2.69-14.11-3.38-21.78-4.47-16.31-2.32-33-2.29-49.41-1.58-.61,0-.62,1,0,1,8.53-.29,16.87-.56,25.36.41,7.37.84,14.84.57,22.24,1.3a70.41,70.41,0,0,1,21.44,5.1c6.44,2.76,12.79,5.74,19.28,8.38C188.55,192.65,189.11,191.66,188.59,191.23Z" transform="translate(14.07 12.58)"/><path class="cls-8" d="M260,246.36c-2.66-5.55-7.94-8-13.45-9.77.85,0,1.69,0,2.51-.11a1.76,1.76,0,0,0,0-3.52c-4.44-.18-9-1.47-13.24-2.67s-8.67-2.55-12.58-4.92c-5.57-3.37-12-8.26-18.68-8.84-1.49-.12-2.17,1.92-1.19,2.88a14.6,14.6,0,0,0,2.61,2,1.05,1.05,0,0,0,.78.91c.92.27,1.79.57,2.65.9,1.11.52,2.24,1,3.34,1.63l.86.47c.3.19.6.39.89.61s.71.48,1.07.7c-.91-.37-1.82-.74-2.72-1.13-8.67-3.77-16-8.95-23.91-14.05-5.46-3.52-10.58-7.69-16-11.31a52.19,52.19,0,0,1,12.62,5.66c2.65,1.66,4.33,3.78,6.7,5.72,1.32,1.07,3.26,1.49,4.46,2.58,1,.92,2.72-.26,2-1.51a11,11,0,0,0-3.4-2.94c-2.2-1.56-4.13-3.5-6.39-5a100.47,100.47,0,0,0-15.81-8.47c-6-2.53-12.53-3.06-18.82-4.66a135.2,135.2,0,0,0-18.42-3.67c-5.86-.62-12.13.27-17.92,1.26a1.48,1.48,0,0,0-.82-.32c-5.07-.45-9.51-3.1-14.35-4,.7-.14,1.41-.31,2.14-.52a1.09,1.09,0,0,0-.29-2.14c-2.46,0-4.84.63-7.3.67-3.07.06-6.11-.69-9.19-.71-5,0-9.6,2.07-14.4,3.2-1.88.44-1.07,3.23.79,2.87,5.55-1.1,10.66-3,16.38-2.79l2.18.07a104.35,104.35,0,0,0-12.25,4A101.77,101.77,0,0,0,65,196.87a75.4,75.4,0,0,1-8.07,4.21c-2.21.93-4.3,1.68-5.92,3.51a1.57,1.57,0,0,0-.4,1.41,1.48,1.48,0,0,0-2.09.09,86.89,86.89,0,0,1-12.87,12c-1.76,1.35-3.58,2.75-5.36,4.21a1.52,1.52,0,0,0-1.55-.6,51.18,51.18,0,0,0-5.23,1,14.06,14.06,0,0,0-2.24,1.18.82.82,0,0,0-.35,0,5,5,0,0,0-1,.46,1.5,1.5,0,0,0,.75,2.77c1.47.14,2.14-.88,3.36-1.4a11.56,11.56,0,0,1,3.12-.71,52.06,52.06,0,0,0-5,5l0,.05a23.49,23.49,0,0,1-9.52,3.23c-2.44.25-3.54,4.29-.63,4.72l.67.08c-2.56.06-5.1-.11-7.64-.3,0-2.74-4-4.55-5.47-1.6a9.08,9.08,0,0,1-.75,1.24l-1.18,0a2.17,2.17,0,0,0-1.83,3.43,11.67,11.67,0,0,0-2,2.71,12.27,12.27,0,0,0-.39,10.06c1.28,2.77,3.75,4,6.67,4.46,4.64.68,9.42.84,14.08,1.39,21.11,2.51,42.52-.68,63.58,1.85,9.5,1.14,19.16-.14,28.7.25,11,.45,21.68,1.58,32.68,1.6,10.67,0,21.43-.84,32.07-.55,9.74.26,19.25,2.11,29,2.07a116.4,116.4,0,0,0,16.14-1.38c5.51-.79,11.15-1,16.58-2.31s11.3-2.55,16.44-5.07c3.41-1.68,8.49-3.4,10.71-6.59A3,3,0,0,0,260,246.36ZM31.32,233.25c-2.43.89-4.91,1.86-7.43,2.7l.66-.35c3.21-1.8,6.43-3.71,9.61-5.62a1.81,1.81,0,0,0,0,2.17C33.22,232.52,32.28,232.89,31.32,233.25Zm3.8-3.79-.18,0,3.79-2.29c1.17-.42,2.34-.85,3.5-1.3s2.42-1,3.62-1.49C42.49,226.61,39,228.71,35.12,229.46Zm32.71-21.31c-.45.75-.93,1.37-1.36,2a3,3,0,0,0-1.19,0c-.2.05-.39.12-.58.18.84-.69,1.8-1.12,2.72-2S69.73,205,67.83,208.15Zm13.41-5.85c-2.82,1.53-5.6,2.47-8.21,4.36l-.21.16a1.69,1.69,0,0,0-.24-1.2c-3.46-5-11.74.8-12,5.6a1.3,1.3,0,0,0,.45,1c-1.4,1-2.76,2.06-4.14,2.83a121.63,121.63,0,0,1-11.19,5.45l-.45.19a37.94,37.94,0,0,1,3.53-4,42.6,42.6,0,0,1,7-5.23c1.47-.91,2.61-1.23,3.4-2.83a2,2,0,0,0-.8-2.64,36.45,36.45,0,0,0,7.6-3c5.49-2.86,10.53-5.75,16.38-7.93,5-1.87,10.63-4.1,15.91-4.92,4-.62,8,.1,12.12.72-1.3.36-2.6.7-3.91.95a53.92,53.92,0,0,0-9.57,2.43C91.44,196.49,86.42,199.5,81.24,202.3Zm43.14-7.36c-4.07.9-8.19,1.49-12.24,2.4-4.45,1-8.72,2.83-13.18,3.76-1.7.35-3.43.67-5.15,1.06l1.1-.55c5.84-2.81,11.54-6.12,18-7.46,5.55-1.16,11.89-.86,17.71-.65C128.49,194,126.42,194.48,124.38,194.94Z" transform="translate(14.07 12.58)"/><path class="cls-8" d="M64.81,188.49c-1.54-.35-3,.71-4.17,1.58-2.06,1.51-4.15,3-6.23,4.47-1.41,1-.06,3.39,1.39,2.37,1.74-1.23,3.57-2.35,5.23-3.69,1.24-1,2.2-2.84,3.78-3.26A.77.77,0,0,0,64.81,188.49Z" transform="translate(14.07 12.58)"/><path class="cls-8" d="M195.44,200.38c-3.32-3.7-8.73-6.62-13.31-8.45-3.31-1.32-6.83-1.87-10.15-3.11s-6.26-3.31-9.38-4.95a1,1,0,0,0-1,1.7c2.71,1.57,5.22,3.52,8,5a43.61,43.61,0,0,0,7.65,2.76c6.28,2.07,11.08,5.77,16.78,8.89A1.19,1.19,0,0,0,195.44,200.38Z" transform="translate(14.07 12.58)"/><path class="cls-9" d="M243.87,250.14a11,11,0,0,0-2.56-.7c-1.57-1.31-4-1.56-5.92-2.25-.87-.31-1.53.72-1.3,1.43-4-.82-7.9-1.92-11.81-2.92l-.55-.15a57.21,57.21,0,0,0,7.37.37,1.2,1.2,0,0,0,.32-2.35c-4.12-1.37-8.34-2.53-12.5-3.76s-7.12-3.7-10.9-5.75c-3.47-1.89-7.41-2.15-11.2-3-4.48-1-8.33-3-12.56-4.62l-.46-.17a44.48,44.48,0,0,0-7.26-3.58c-2.59-1-5.13-2-7.65-3a32.06,32.06,0,0,0-6.48-3.88,24.41,24.41,0,0,0-7.47-1.37c-1.87-.61-3.76-1.2-5.7-1.71a41.44,41.44,0,0,1-12-4.7c-3.17-1.95-6.07-1.36-9.61-1-4.41.42-8.34.58-12.68,1.66-4.64,1.16-8.78,3.67-13.47,4.64a.42.42,0,0,0,.11.83c8.37-.53,15.76-5.87,24.36-5.85a15.75,15.75,0,0,1,9.22,2.43c.91.63,1.69,1.4,2.55,2.07l-.63,0c-2.56-.07-2.48,3.73,0,3.94l.24,0c-3,0-6,0-9,0h-1.73a6.6,6.6,0,0,0,.49-.55c.77-1,.1-2.79-1.33-2.29-5.06,1.76-9.36.26-14.54.23-4.11,0-7.67,1.83-11.58,2.83-2,.49-1.61,3.79.48,3.59,5.07-.49,9.18-3,14-3-3.77.81-7.47,2.08-11.19,3.05a117.27,117.27,0,0,0-23,8.93c-4.53,2.24-9.18,4.23-13.8,6.26a38.91,38.91,0,0,1,3.3-2.57c5.7-3.73,12.64-5.09,18.59-8.39a1.91,1.91,0,0,0-1-3.52c-5.81-.2-13.61,4.44-18.29,7.66-2.77,1.9-4.73,4.69-7.46,6.57-2.39,1.66-5.54,2.25-8.19,3.36s-5.48.51-8.36,1.2c-3.2.77-5.76,2.75-8.71,4.08-4.24,1.91-9,2-13.28,3.57a41.66,41.66,0,0,0-7.7,4.11l-.66,0C8.19,252,4.31,250.1.1,250.62a1.61,1.61,0,0,0,0,3.21c2,.1,3.79,1.18,5.66,1.76a29.66,29.66,0,0,0,5.4.87l1.09.1a4.56,4.56,0,0,0,3.93,4.05c2.92.51,6.07.27,9.05.58a121.78,121.78,0,0,0,12.38.5c8.5,0,17.07-.27,25.52-1.11,4.08-.41,8.09-.21,12.17-.42,3.91-.2,7.75-1,11.68-1.12s8,.5,12,.69c4.6.22,9.25,0,13.85,0h85c9.56,0,19-1.19,28.48-1.49,5.29-.17,14.94,1,18.58-4A3,3,0,0,0,243.87,250.14ZM40.51,246.22a22.39,22.39,0,0,1,3.76-2,15.79,15.79,0,0,1,3.38-.75Q44.11,245,40.51,246.22ZM54,240.57l-1.13.54a7.17,7.17,0,0,1,3.6-2.06,9.34,9.34,0,0,1,1.19-.27C56.44,239.36,55.21,240,54,240.57ZM180.47,229.1q2.63,1.59,5.23,3.23a81.13,81.13,0,0,1-10-4.44C177.29,228.26,178.88,228.64,180.47,229.1Zm18.34,8.57a1,1,0,0,0-.6-1c-2-1-3.84-2.18-5.7-3.39,1,.28,2,.56,3.08.83a32.29,32.29,0,0,1,12.72,6.44,21.28,21.28,0,0,0,2.94,1.89A131.85,131.85,0,0,1,198.81,237.67Z" transform="translate(14.07 12.58)"/><path class="cls-8" d="M38.43,244.56c-5.58-1.37-10.09-.62-15.19,2-2.83,1.43-5.43,3.28-8.32,4.6-4,1.82-8,1.87-12.32,2a1.55,1.55,0,0,0,0,3.1c6.19.35,11.06-.27,16.56-3.22,3.05-1.65,5.93-3.63,9.24-4.74s6.66-.86,10-1.42C39.62,246.68,39.53,244.83,38.43,244.56Z" transform="translate(14.07 12.58)"/><path class="cls-8" d="M59.3,232.6a14.92,14.92,0,0,0-2.92,2c-1,.67-2,1.31-2.94,2-1.34,1-.11,3.25,1.33,2.29,2-1.33,5.06-2.47,5.95-4.84A1.16,1.16,0,0,0,59.3,232.6Z" transform="translate(14.07 12.58)"/><path class="cls-8" d="M162.81,219.51a118.71,118.71,0,0,0-19.59-8.9c-3.41-1.14-7.1-2.93-10.69-3.27-3.19-.31-6.57.85-9.76,1a59.7,59.7,0,0,0-10.91,1.09c-3.28.75-6.19,2.46-9.46,3.28s-6.81,1.45-9.74,3.14a27.57,27.57,0,0,0-2.61,1.94,20.72,20.72,0,0,1-6.83,3.06,1.44,1.44,0,0,0,.77,2.78c5.88-1.67,10.27-5.5,16.21-7,7-1.72,13.33-4.34,20.64-4.5,3-.06,5.61-.34,8.5-.66,4.69-.51,8.42,1.91,12.88,2.77,3.34.64,6.32.68,9.46,2.15,3.39,1.59,6.32,4,9.71,5.55C163,222.69,164.43,220.39,162.81,219.51Z" transform="translate(14.07 12.58)"/><path class="cls-8" d="M217.86,244.78c-3.41-.77-7.06-2.39-10.38-3.57-4.2-1.49-8.41-2.51-12.7-3.71-.67-.19-1.34-.41-2-.63,0,0,0,0-.07,0l-.12,0c-6.88-2.3-13.54-6.23-19.76-9.82a1.43,1.43,0,0,0-1.45,2.47c4.34,2.42,9.69,3.16,13.75,5.91a34.75,34.75,0,0,0,9,4.62c4.46,1.46,8.95,2.62,13.37,4.23,3,1.1,7.17,3,10.4,2.44A1,1,0,0,0,217.86,244.78Z" transform="translate(14.07 12.58)"/><path class="cls-8" d="M227.26,248.15c-2.66-1-5.26-2.27-8.16-2.22-.38,0-.36.55,0,.58,2.75.28,5.21,1.65,7.7,2.73A.59.59,0,1,0,227.26,248.15Z" transform="translate(14.07 12.58)"/><path class="cls-8" d="M157.6,225.24c-6.87-.07-13.92-.92-20.75.11-6.5,1-13,1.84-19.49,3a.91.91,0,0,0,0,1.74,39,39,0,0,0,17-.66c7.88-1.89,15.19-2.26,23.25-2.22A1,1,0,0,0,157.6,225.24Z" transform="translate(14.07 12.58)"/><path class="cls-8" d="M79.84,233.27c-7.67,1.65-14.67,4.78-22,7.48a146.07,146.07,0,0,0-19,8.49.56.56,0,0,0,.43,1c6.83-2.29,13.22-5.31,20-7.73,7.06-2.53,13.78-5.72,21.15-7.36C81.6,234.89,81.08,233,79.84,233.27Z" transform="translate(14.07 12.58)"/><path class="cls-8" d="M120.38,240.4c-7.06,1.1-14.21.16-21.28-.28-1.44-.09-1.37,2,0,2.2,7.26.89,15,2.88,21.94-.36C122,241.52,121.25,240.26,120.38,240.4Z" transform="translate(14.07 12.58)"/><path class="cls-10" d="M238.77,116.93c-3-8.46-9.7-15.29-15.92-21.45A6.54,6.54,0,0,0,221,94.21c-1.32-7-3.84-13.8-8.42-19.23-3.2-3.8-6.47-5.27-10.58-7.79-2-1.2-3.9-2.61-5.92-3.67a9.58,9.58,0,0,0-2.75-1,20.45,20.45,0,0,0-2.24-4.43c4.65-2,7.74-6,6.18-11.34-1.7-5.8-4.81-11.25-8.07-16.25s-7.76-7.78-12.38-11.18c-4.35-3.2-9.5-3.88-14.82-2.9-4.92.91-10.2,1.68-14.43,4.52-4.81,3.23-7.77,8.54-10.46,13.51a23.75,23.75,0,0,0-2.89,7.41c-9.86-3.31-21-4.08-30.91-3.79a37.89,37.89,0,0,0-17.55,4.59c-4.7,2.71-10.34,6.18-13.44,10.9-1.07.1-2.15,0-3.34.17a16.65,16.65,0,0,0-5.92,2A59.26,59.26,0,0,0,52.87,62,52.52,52.52,0,0,0,38.8,80.48c-3,6.86-5.62,13.89-8.45,20.81S24,115.15,22.82,122.47c-1.29,8.19-2.77,16.17-2.71,24.52a82.26,82.26,0,0,0,3.68,23.38c2,6.63,4.42,13.92,8.52,19.6,4.63,6.43,11.45,10.07,17,15.49a5.76,5.76,0,0,0,.53.47,5.84,5.84,0,0,0,2.69,5.47c4.35,2.95,7.75,8,11.9,11.38a45,45,0,0,0,8.29,5.35,53.1,53.1,0,0,0,8.3,3.57c5.3,1.46,11.73,1.26,17.08.18A27.85,27.85,0,0,0,104.4,230c1.78,1.31,3.73,2.42,5.51,3.7A43.41,43.41,0,0,0,122.42,240c4.71,1.53,10.07.82,14.9.41,2.57-.21,5.16.09,7.73-.21a8.81,8.81,0,0,0,1.87-.45c4.9,2,11.85-.29,16.71-1.46,4.56-1.09,8.86-2.75,13.29-4.23,3.79-1.27,7.66-2,11.43-3.35a119.91,119.91,0,0,0,20.5-10.15c5.66-3.36,9.53-8.41,12.91-13.92,4.46-5.35,7.52-12,10.38-18.22,3.19-7,4.5-15.4,5.76-22.94.72-4.28,1.7-8.66,2.07-13,.34-3.93-.09-7.89.14-11.83C240.55,132.71,241.44,124.59,238.77,116.93Z" transform="translate(14.07 12.58)"/><path class="cls-11" d="M151.31,72.73C159,74.4,164.69,77.64,171,82c1-2.14,2.66-3.63,4.37-5.38a47.09,47.09,0,0,0,5.52-6.81c-.27-.48-.54-1-.84-1.44a3,3,0,0,0-.33-2.21,12.57,12.57,0,0,0-5.35-4.92c-1.54-1.7-4.67-4.81-7.46-5.82,0-.13,0-.23,0-.36-.16-2.43-.15-5.91,1.46-7.56,2.11-2.19,6.45-2.77,9.52-3.09.17.09.32.18.49.26a2.24,2.24,0,0,0,3.23-2.49c-1.53-5.92-8.2-11.18-13.41-14s-9.7-1.25-13.25,3.24c-4.58,5.82-6.39,10.81-5.86,18.22.13,1.7,1.42,6.74,1.06,7.87-.66,2-3.27,2-5.22,3.12-2.2-.61-4.43-1.11-6.67-1.55,1,3.19,0,7.49,2.12,10.08S148.06,72,151.31,72.73Z" transform="translate(14.07 12.58)"/><path class="cls-12" d="M87.06,67.33c5.67,5.91,12.32,9.34,19.88,12.5a.79.79,0,0,1,.36.31c2.41-.43,5.38-.64,7.07.58a3.78,3.78,0,0,1,.9,1c1,1.37,1.08,2.95,2.28,4.32a17.82,17.82,0,0,0,2.59,2.32c4,3.07,8.73,4.82,13.26,6.87a55.84,55.84,0,0,0,14.75,4.51.74.74,0,0,1,.34-.08c4.56,0,9.13,0,13.69-.33s8.89-1.21,13.36-1.64a.8.8,0,0,1,.23,0,.71.71,0,0,1,.74.35c.89,1.51,2.81,2,4.35,2.58,1.84.68,3.72,1.23,5.59,1.82a1.18,1.18,0,0,1,.19.11c4.29.47,8.57,1.23,12.9,1.42a23.37,23.37,0,0,0,10.19-2,79.14,79.14,0,0,0-4.67-12.74,27.59,27.59,0,0,0-12.52-12.69c-3.53-1.88-6.76-4.41-10.45-4.38-.12-.31-.28-.61-.42-.91-1,1.43-2.11,2.81-3.25,4.16-2.14,2.53-5.14,4.63-6.33,7.81a.77.77,0,0,1-.78.51.6.6,0,0,1-.46-.12c-4.19-2.9-8-5.85-12.92-7.62-3.93-1.42-8.1-2-12.14-3-2.07-.5-6.1-.91-7.35-2.86-1.79-2.81-.64-7.74-1.71-10.9a.64.64,0,0,1,0-.53c-4.48-.84-9-1.51-13.45-2.39-6.26-1.24-13.09-3-19.52-2.48-8.45.65-20.77,4.63-16.57,13.42Z" transform="translate(14.07 12.58)"/><path class="cls-13" d="M89.38,80.75a.62.62,0,0,1,.58.11,36.38,36.38,0,0,0,12.68,6.39.63.63,0,0,1,.43.32c4.68,3.25,6,9.35,11.67,11.28,2.65.89,5.51,1.09,8.09,2.22,2.75,1.21,5,3.54,8.18,3.82a.8.8,0,0,1,.71.89c2.88.86,5.54,2.23,8.52,2.86a43.77,43.77,0,0,0,11,.72c6.92-.29,13.69,0,20.61.09a.74.74,0,0,1,.41.14c14.37.2,28.6,3.87,42.63-.44a14,14,0,0,0-4.32-3.13c-.12-.77-.28-1.57-.46-2.39a20.46,20.46,0,0,1-7.86,2c-5.43.16-10.83-1-16.21-1.52a.79.79,0,0,1-.49-.24c-2.25-.71-4.5-1.4-6.69-2.28a7.3,7.3,0,0,1-3.39-2.29c-4.46.43-8.82,1.34-13.31,1.63s-9,.32-13.52.33a.76.76,0,0,1-.5.1c-8.61-1.23-17-4.81-24.65-8.94-3-1.63-6.09-3.69-8.07-6.54-1-1.49-1.15-3.42-2.88-4.1-2-.78-5.06-.15-7,.32a.76.76,0,0,1-.52-1.41c-7.55-3.25-14.24-6.87-19.9-13.14-1.59.18-3.17.4-4.74.63A31,31,0,0,0,89.38,80.75Z" transform="translate(14.07 12.58)"/><path class="cls-12" d="M216,110.39c-14.59,4.77-29.25.84-44.21.71a.71.71,0,0,1-.4-.13c-7.22-.08-14.32-.2-21.54,0a44.48,44.48,0,0,1-9.36-.68c-3.49-.66-6.51-2.35-9.89-3.23a.67.67,0,0,1-.52-.74c-2.21-.45-4-1.67-6-2.79-3.11-1.76-6.38-2.08-9.72-3.17-6.21-2-7.19-8.28-12.29-11.62a.34.34,0,0,0-.06-.06A35.38,35.38,0,0,1,91.1,83.51a.63.63,0,0,1-.64-.07,32,32,0,0,1-11.56-15,.53.53,0,0,1,0-.12l-2.43.36c-5.55.8-11.93,2.07-16.37,5.79-7.19,6-11.07,17.33-14.87,25.63-5.51,12-8.66,24.56-10.85,37.55-.87,5.15-1.73,10.63-1.26,15.85.44,4.88,2.19,9.56,2.89,14.3a2.42,2.42,0,0,0,.54,1.89l.15.18c.38,6,4,11.19,8.4,15.55,2.64,2.62,6.92,8.09,11,8.48a54.23,54.23,0,0,0,6.83,10.73c3.62,4.67,8.26,7.09,13.45,9.64,7,3.44,12.69,5,20.58,4.38,4.55-.34,7-2,8.95-4.66a61.61,61.61,0,0,0,7.89,7.53c4.34,3.56,10.25,5.64,15.69,6.68,5.08,1,18.32.68,22.43-4.54a50.74,50.74,0,0,0,7.09.13c5.24-.15,10.57-1.78,15.6-3.1,9.36-2.47,20.31-7.09,26.62-14.7,4.39-5.3,7.75-11.86,10.56-18.44,3.8-4.24,5.37-10.42,6.33-16.12,2.48-6.55,4.51-13.25,3.38-20,.52-2.86,1-5.73,1.48-8.61C224.23,134.79,222.78,118.83,216,110.39Z" transform="translate(14.07 12.58)"/><path class="cls-14" d="M182.51,213.62c-4,.46-7.61,2.31-11.54,3.24-2.84.67-7.87,1.76-10.56.07a2.43,2.43,0,0,0-1.15-1.11l-.28-.14a2.64,2.64,0,0,0-3.13.41c-1.92,2.37-8.31,3.13-11.33,3.77-1.29.28-2.59.48-3.89.63.36-3.86-1.71-8.72-1.77-12.34-.11-6.58.65-13,.27-19.64a2.16,2.16,0,0,0-2.68-2.09c1.62-5.43,3.37-10.81,5.18-16.18q1.16-3.45,2.34-6.88l-.12.77c-1.07,6.55-3,13.43-2.7,20.08.06,1.4,2.33,1.88,2.59.35,1.91-11,2.41-22.25,4.21-33.27.48-1.56,1-3.11,1.41-4.67,1.56-5.51,4.7-13.77,3.27-19.51a2.17,2.17,0,0,0-.3-.66c-.61-1.67-2.63-2.72-4.21-1-1.77,1.88-4.07,3.23-5.37,5.54a35.15,35.15,0,0,0-2.38,5.5c-2.28,3.68-3.54,9-4.84,13.24l-.48,1.09c-1.15,2.77-2.19,5.6-3.2,8.43a93,93,0,0,0-4,11.17c-1.35,3.58-2.73,7.15-4.1,10.73-5,8.85-7.91,19.17-11.59,28.47a2.53,2.53,0,0,0-.16.66,23.41,23.41,0,0,1-2-2.29c-.17-2.27-3.1-4.17-5.14-2.06h0a.88.88,0,0,0,.2-.65c-1-11.09.67-22.26,2.61-33.13a1.2,1.2,0,0,0-2.32-.64c-4,9.7-5.34,23.93-2.42,34.06a1.15,1.15,0,0,0,1.62.63,11.54,11.54,0,0,1-4.81,2.28,9.38,9.38,0,0,0,.68-2.62c.51-4.61-.81-10-.78-14.8.07-11,3-21.33,5.09-32a1.57,1.57,0,0,0-3-.83,152.57,152.57,0,0,0-5.22,23c0-1.79.08-3.57.11-5.36A179.34,179.34,0,0,1,99.26,158c.21-1.06.4-2.12.59-3.19,2.3-7.23,4.48-14.5,7-21.64a1.44,1.44,0,0,0-2.39-1.39c-.27.3-.51.63-.76.95a79.72,79.72,0,0,1,4-13.56c.38-.93-.86-1.68-1.62-1.24-1.66,1-2.45,3.29-3.24,5-1.8,3.74-4,7.17-5.87,10.88.65-5,1.53-10,2.36-14.93.75-4.38,3.9-12.32,2-16.64-.61-1.42-2.64-1.36-3.61-.46-1.82,1.7-3.83,3.07-5.3,4.88-1.88,2.31-2.91,5.39-3.95,8.44a2.84,2.84,0,0,0-2.8,1.11c-7.89,10.32-11.29,25-14.57,37.32-.1.38-.21.76-.31,1.14a2.14,2.14,0,0,0-1.76,1.17A17,17,0,0,0,68,158.53a65.5,65.5,0,0,0-4.4,15.57,67.51,67.51,0,0,0-.67,9.84,12.57,12.57,0,0,0,.16,1.44,30.76,30.76,0,0,0-.34,4.85c-1.55-.95-3.07-1.84-4.55-2.75-.06-1-.13-2.13-.2-3.35,0-3.22.14-6.46.36-9.7a12.79,12.79,0,0,0,.64,1.21A1.61,1.61,0,0,0,61.76,174c-1.09-2-1.41-4.59-1.93-6.84a1.74,1.74,0,0,0-1-1.11c.06-1.42.08-2.83.07-4.24a2.71,2.71,0,0,0,2.41-.61c1.57-1.42,1.49-3.88,1.66-5.83.43-5.09.93-10.12,1.66-15.18.78-5.38,1.51-11,2.67-16.58l.72-1.95c2.75-5.7,5.6-11.45,9.4-16.42,1.52-2-1.91-4.66-3.48-2.69l-1.54,2a2.35,2.35,0,0,0-3-1.54,78.34,78.34,0,0,1,4-7.78c.85-1.41-.22-3.83-2.07-3.6a9.49,9.49,0,0,0-2.74.8,2.07,2.07,0,0,0-1.73-.54,3.74,3.74,0,0,0-.63-.77,2.33,2.33,0,0,0-3.25,0c-.18.21-.34.44-.5.66a2.84,2.84,0,0,0-.47.15c-.05-.75-.14-1.47-.25-2.19.07-.16.15-.3.22-.46,1.16-2.3,2.32-4.64,3.44-7,0,0,0,0,0,.08,0,.27.07.54.11.81.2.54.64.84.72,1.46.13,1.08,1.77,1.15,1.73,0a10.13,10.13,0,0,1,.09-3,11.27,11.27,0,0,0,.55-3s0-.08,0-.12a1.62,1.62,0,0,0,.55-1c.29-2.2.5-3.32-1-5.2A2.33,2.33,0,0,0,65.46,72a14.23,14.23,0,0,0-4.18,5,2.82,2.82,0,0,0-1.73,0c-3.63,1-5.77,6.27-7.34,9.33-3.55,6.91-6.07,14.17-9.68,21.06-2.51,4.78-2.63,9.19-3.39,14.52-1,6.7-2.56,13.2-3,20-.78,12.1-.59,23.76,4.36,35,2.18,4.95,4.38,9.2,8.82,12.54a89.42,89.42,0,0,0,10.5,6.29c-.14,4.48,4.25,9.61,8.81,13.35l0,.05c.06.06.14.09.2.15a32.61,32.61,0,0,0,7.32,4.63c6.7,2.7,21.94,2.72,29.88-1.48,5.28,7.58,17,12.91,25.34,14.17,8.51,1.28,19.09-.41,26.63-4.89,3.08,2.14,7.24,1.66,11,1.1a28.64,28.64,0,0,0,14.5-6.59A1.52,1.52,0,0,0,182.51,213.62ZM44.69,128.73c-.54,4.19-.85,8.39-1.1,12.6a2.19,2.19,0,0,0-1.38.26c.51-5.53,1.71-10.85,2.68-16.27.75-4.21.6-9,2-13C45.83,117.86,45.35,123.63,44.69,128.73Zm8.38,55.19c-.38-.32-.75-.64-1.11-1a2.6,2.6,0,0,0,1.13-.8C53.08,182.73,53.07,183.33,53.07,183.92Zm17.81-2.45a2.67,2.67,0,0,0-1.23-.1,1.71,1.71,0,0,0,.2-.18c.25-.31.51-.62.76-.94a2.62,2.62,0,0,0,.46-.87C71,180,70.94,180.74,70.88,181.47Zm.36-4.22c0,.41-.06.84-.1,1.29a2.6,2.6,0,0,0-.83-1.68q.8-3.39,1.68-6.75C71.66,172.48,71.38,174.86,71.24,177.25ZM78,206.41c.24,0-1.63-4.75-1.83-5.33-.36-1-.69-2.08-1-3.13,0-1.64,0-3.27.08-4.92a2.65,2.65,0,0,0,1.27-1.23,2.63,2.63,0,0,0,1,.67q0,.93.06,1.86c-.64,2.61-.32,6.81.77,10.75C78.28,205.87,78.17,206.39,78,206.41Zm13.34-6a3.41,3.41,0,0,0-.32-.6c.14-.81.28-1.62.41-2.43,0,1.33.09,2.66.23,3.94C91.53,201,91.42,200.7,91.31,200.41Zm2.11-73.85c-.33,2.28-.6,4.53-.79,6.77a2.38,2.38,0,0,0-3.46-.05c.5-1.91,1-3.82,1.57-5.7a76.89,76.89,0,0,1,4-9.48C94.3,120.91,93.83,123.73,93.42,126.56Zm2.31,23.17A1.28,1.28,0,0,0,96,149c0-.9,0-1.82,0-2.73a33.81,33.81,0,0,1,3.7-11.91c.4-.77.83-1.51,1.28-2.24-1.22,4.59-2.2,9.29-3.11,14q-.87,2.24-1.7,4.47a3.2,3.2,0,0,0-.43-.17Zm.3,48.82a1.41,1.41,0,0,0,.17-.32c.12,1.55.2,3.17.18,4.63A28.28,28.28,0,0,1,96,198.55Zm33.87-6.39c-.26,1-.52,2-.79,3.05a1.76,1.76,0,0,0-.73-.28c1.66-4.34,3.09-8.79,4.42-13.29Q131.3,186.89,129.9,192.16Zm3.52,22.31a2,2,0,0,0,.07.31,8,8,0,0,0-1.62-1.36,21.71,21.71,0,0,0-.4-5.74c1-3.88,1.4-8.39,2.21-11.51.06-.23.13-.46.19-.69a99.92,99.92,0,0,0-1,11.57A47.31,47.31,0,0,0,133.42,214.47Zm0-35c2.52-8.74,4.75-17.59,7.62-26a1.17,1.17,0,0,0-.58-1.53c1.91-4.3,4.33-8.58,5.8-13-1,3.41-2.32,6.75-3,9.13-2.29,7.43-4.75,14.81-7,22.25C135.26,173.29,134.35,176.36,133.45,179.44Z" transform="translate(14.07 12.58)"/><path class="cls-14" d="M170.45,92.11c-6.62-1.28-13.64-1-19.67-4.26-6.35-3.48-7.95-9-12.32-14-1.88-2.15-3.83-3.07-5.57-3.08a9.25,9.25,0,0,1,.92-.54,2.66,2.66,0,0,0,1.89.12,3.41,3.41,0,0,0,2.55-2.62c.28-1.43-.39-3.46-2.1-3.7-5-.69-9.37-.43-13.68,2.15-.21.13-.49.28-.79.44q0-.21,0-.39a2.9,2.9,0,0,0-3.65-2.78c-3,1.08-6.23,3-6.66,5.82-.47-.11-.9-.19-1.11-.22a5.26,5.26,0,0,0-1.37,0,10.92,10.92,0,0,0,3.51-5.42,3.33,3.33,0,0,0-1.07-3.25c2.28-2.66,3.68-5.39-.25-7.1-2.94-1.29-7.45-.73-10.45.06-3.42.89-7.62.77-9.85,4a6.14,6.14,0,0,0-.68,1.32,2.55,2.55,0,0,0-3.27,2.46,6.57,6.57,0,0,0,.34,2.64,3,3,0,0,0,.64,1.07,7.4,7.4,0,0,0,2.77,3.12l.26.17a.28.28,0,0,1,0,.09,2.5,2.5,0,0,0,1.92,1.94c1.77,3.34,6,5.08,9.68,5.44h.17c3.53,2.25,7.5,4,11.26,3a5.25,5.25,0,0,0-.63,2.55c0,2.49,1.42,3.92,3.35,4.9,1.69,2.28,4.71,3.69,7.22,2.47l.52.21c7.21,3.31,13.65,7,21.53,8.43,3.8.7,7.92,1.24,11.75,1.63,4.12.42,8-.93,12-.77C173,98.17,173.82,92.76,170.45,92.11Zm-66.07-33-1.4-.54a7.79,7.79,0,0,1,1.74-.18l.39.09C104.85,58.67,104.6,58.89,104.38,59.09Zm18.81,13.69a10.38,10.38,0,0,1,1-.75,21.23,21.23,0,0,0-1.37,2.85,8.42,8.42,0,0,0-1.42,0A14.74,14.74,0,0,1,123.19,72.78Z" transform="translate(14.07 12.58)"/><path class="cls-14" d="M202.52,95.05c-5.64,0-11.27-.61-17-.86-2.72-.12-2.9-.26-3.89-2.89a2.64,2.64,0,0,0,1.7-2.45,5.06,5.06,0,0,0-.44-2.34,1.87,1.87,0,0,0,0-1.87c-.18-.29-.36-.58-.55-.86a2.47,2.47,0,0,0-3-.92,2.85,2.85,0,0,0-.39-.11,3,3,0,0,0-4.13,0c-1.75,2.24-1.09,4.48-.23,7,.47,1.39.78,3,1.25,4.62,0,0,0,.06,0,.08A4.73,4.73,0,0,0,178.43,99c.08.06.13.14.21.19a6.48,6.48,0,0,0,3,1.12,60.46,60.46,0,0,0,7.51,1.21c5.11.73,12.56,3.69,16-1.87A3,3,0,0,0,202.52,95.05Z" transform="translate(14.07 12.58)"/><path class="cls-15" d="M173.61,75.51c-3.5-4.86-6.5-6.32-12.49-8.37-.74-.25-1.51-.45-2.27-.65l-.26-.13h0a6.47,6.47,0,0,0-.22-1.08,2.11,2.11,0,0,0-1.16-1.4c0-3,1.22-8.8,1.22-9.86,0-4.84-1.55-9.52-.78-14.36a3,3,0,0,0-1.31-3.22l-.56-.36a3,3,0,0,0-4,1c-3.12,4.09-2.58,8.9-1.28,13.36,1.1,3.75,2.34,5.46-1,8.1-2,1.55-4.54,2.48-6.73,3.74a2.8,2.8,0,0,0-4.38,1.17,2.33,2.33,0,0,0-.1,1.3,3.62,3.62,0,0,0,.77,1.73,2.81,2.81,0,0,0,.91.78c3.11,3.48,8.94,3.17,13.65,4.17l2.3.52c4.54,2.11,8.81,5.74,13.16,8.13a3.06,3.06,0,0,0,3.63-.47l.45-.5A3.06,3.06,0,0,0,173.61,75.51Zm-20.49-12,.12-.08a10.32,10.32,0,0,1-.63,1.24l-1.16-.2A14.87,14.87,0,0,0,153.12,63.52Z" transform="translate(14.07 12.58)"/><path class="cls-15" d="M168.14,38.63a2,2,0,0,1-1.45-1.16c-.5-.77-1-1.52-1.54-2.29a25,25,0,0,0-1.29-2.24c-.75-1-1.59-1.64-1.82-2.91-.25-1.45-2.25-1.17-2.65,0-1.18,3.38,1.38,6.29,2.92,9.08.81,1.46,1.33,2.67,3,3.37a3.61,3.61,0,0,0,4.22-.55C170.84,40.69,169.7,38.78,168.14,38.63Z" transform="translate(14.07 12.58)"/><path class="cls-16" d="M172.07,76.93c-5-3.82-10.8-5.94-16.66-7.87a68.63,68.63,0,0,1-9.68-3.69c-.12-.06-.37-.21-.65-.39a7.21,7.21,0,0,0,1.78-.48c1-.4,1.58-.62,2.25-.93,1.23-.57,2.8-1.56,3-3a2,2,0,0,0,0-.77,1.5,1.5,0,0,0,2.27-.13c3.16-3.69.76-7.45-.59-11.34-1-3-.22-6.52,1.17-9.29a9.89,9.89,0,0,1,2.86-3.32c0,.07.05.13.08.19a2.2,2.2,0,0,0,2,1.13,2.09,2.09,0,0,0,.61-.08,2.33,2.33,0,0,0,1.36-3.35c-.4-.84-.75-1.7-1.15-2.54a2,2,0,0,0-3.15-.41c-1.2,1.47-3.66,1.92-5,3.68a17.81,17.81,0,0,0-3.12,7.43c-.49,2.38-.84,5.13,0,7.46,1,2.67,3.65,5.23,2.2,8.28a1.81,1.81,0,0,0,0,1.46l-.08-.07c-1.5-1-3.67-.47-5.21.16-.4.16-.76.36-1.15.55-.23.11-.23,0-.36.13a2.49,2.49,0,0,0-2.22.63l-.24.07a2.65,2.65,0,0,0-.26-.21,2.9,2.9,0,0,0-3.48.45,4.79,4.79,0,0,0-.07,7.35c2,1.58,3.51,2.27,6.8,3a115.86,115.86,0,0,1,12.67,3.68c4.37,1.45,7.81,4.11,11.95,6A2.16,2.16,0,0,0,172.07,76.93Z" transform="translate(14.07 12.58)"/><path class="cls-17" d="M169,75.27a57.55,57.55,0,0,0-16-6.08c-2.16-.5-4.67-.37-6.76-1a50.76,50.76,0,0,1-6.56-3.39,1.58,1.58,0,0,0-.79-.65l-.49-.18a1.75,1.75,0,0,0-2,2.55c1.41,2,3.41,2.68,5.84,3.11a17,17,0,0,1,5.36,1.89c2.85,1.26,6.53,1.68,9.55,2.6,3.62,1.1,7.55,2.93,11.32,3.2A1.08,1.08,0,0,0,169,75.27Z" transform="translate(14.07 12.58)"/><path class="cls-18" d="M174.33,63.05a5.54,5.54,0,0,0-2.86-2.25c-.92-.28-2.42-.55-2.89-.06l-.52-.13-.23-.28a2.21,2.21,0,0,0-1.31-.77,1.46,1.46,0,0,0-.71-1.22c-.17-.48-.29-1-.5-1.58-1.09-3,.18-3.56.61-6.21a2.39,2.39,0,0,0-.14-1.32c0-.07,0-.13.05-.21.2-1-.67-2.19-1.76-1.76-1.72.69-2.3.78-3.15,2.63a2.27,2.27,0,0,0,.51,2.78,12.43,12.43,0,0,0,1.4,7.34,4.58,4.58,0,0,0,.72,3.37,3.37,3.37,0,0,0,1.36,1.83c.28.31.55.61.82.89a2.19,2.19,0,0,0,2.85.22,41.14,41.14,0,0,1,3.53,4.75c.16,2.58,5.49,3.24,5.16-.25A13.25,13.25,0,0,0,174.33,63.05Z" transform="translate(14.07 12.58)"/><path class="cls-18" d="M178.62,39.87c-1.2-2.48-3.32-4-5.64-5.38a21.35,21.35,0,0,1-2.88-2c-.51-.44-1.08-.82-1.62-1.24l-.13-.1a15.8,15.8,0,0,0-1.2-1.08,2.74,2.74,0,0,0-4.28,3.31,4.84,4.84,0,0,0,1.74,1.8,3.23,3.23,0,0,0-.12.47,2.42,2.42,0,0,0,1.77,2.32l.26.07a2.29,2.29,0,0,0,.52.05c.19.18.38.36.58.53.75.64,1.56,1.25,2.36,1.84,1.41,1,2.67,1.92,4,3A3,3,0,0,0,178.62,39.87Z" transform="translate(14.07 12.58)"/><path class="cls-19" d="M176.53,62.37c-2.23-3.28-5.49-4-8.65-5.86a2.23,2.23,0,0,0-.73-.27c-.94-2.61-.31-5.81-1.14-8.5,0-2-3.3-2-3.42.15a30.58,30.58,0,0,0,.28,7.71A13,13,0,0,0,164,59c.46.81.69.6.8.74,1.66,2.14,2.58,2.24,4.67,3.47,4.53,2.65,3.46,6.12,4.28,10.48.31,1.7,2.76,1.84,3.56.47A11.13,11.13,0,0,0,176.53,62.37Z" transform="translate(14.07 12.58)"/><path class="cls-19" d="M180.72,41.68A11.5,11.5,0,0,0,178,37.26a11.09,11.09,0,0,0-2.53-2.89A7,7,0,0,0,173.69,33c-2.25-1.65-5.05-3.4-7.64-3.62-1.34-.42-3.23,1.41-1.76,2.76A46,46,0,0,0,170.12,36a13.06,13.06,0,0,0,2.29,2.83c.72.83,1.5,1.68,2.22,2.57.69,1.77,1.43,3.59,3.68,3.41A2.54,2.54,0,0,0,180.72,41.68Z" transform="translate(14.07 12.58)"/><path class="cls-20" d="M177.85,35.62a10.59,10.59,0,0,0-3.39-2.22c-1.68-.75-3.84-1.07-5.26-2.24s-3.15.66-1.89,1.89c1.84,1.82,4.33,2.57,6.49,3.91,2.6,1.61,2,4.41,3.38,6.84a1.34,1.34,0,0,0,2.3,0C180.73,41.32,179.75,37.57,177.85,35.62Z" transform="translate(14.07 12.58)"/><path class="cls-20" d="M166.88,55.35c-.88-2-1.93-3.84-1.81-6.14.09-1.6-2.25-1.8-2.71-.37a9.74,9.74,0,0,0-.18,5.78c.49,1.7,1.83,4.43,4,4.2C168,58.62,167.37,56.5,166.88,55.35Z" transform="translate(14.07 12.58)"/><path class="cls-20" d="M176.52,61.68c-1.75-2.55-4.62-3-7.51-2.74a1.3,1.3,0,0,0,0,2.59,4.68,4.68,0,0,1,4.25,3.41c.75,2.11.23,4.42,1.74,6.22a1.76,1.76,0,0,0,2.74-.35C179.21,68.19,178.15,64,176.52,61.68Z" transform="translate(14.07 12.58)"/><path class="cls-21" d="M66.49,75.59c1.27-2.35-2.27-4.43-3.59-2.09-2,3.53-5.16,6.19-7.61,9.39a41.69,41.69,0,0,0-5.72,11.29c0,.09-.07.2-.11.29l-.28.13c-5.18,2.69-7.83,14.06-9.39,19s-4.32,14.18-3.06,20.11c-1.51,2-2.08,5.37-2.26,8.75-2.14,4.46-.61,12.13,0,16,1.14,7.24,2.3,17.87,7.21,23.65A2.35,2.35,0,0,0,43,183c3,4.49,7.92,8.48,11.71,11.08,2.28,1.56,4.8-1,4.32-3.32-.44-2.16-1.93-4.28-3-6.17a39.6,39.6,0,0,1-3.43-7.66c0-.71-.06-1.43-.11-2.15a38.53,38.53,0,0,0-.17-9.94c.37-7.14.94-14.22,1-21.4a72.54,72.54,0,0,1,2.41-16.78,2.15,2.15,0,0,0,2.07-2.15q.16-3.15.36-6.28c1.89-5.9,4.07-11.68,6-17.15a1,1,0,0,0-.45-1.11l-.39-.25a.93.93,0,0,0-1,0,8.12,8.12,0,0,0-1.78,1.78,16.36,16.36,0,0,0-.79-5.34c0-.53.09-1.05.14-1.58.18-1.91-2-3-3.56-2.5.47-1.17,1-2.3,1.55-3.4a1.14,1.14,0,0,0,1.11-1.33,3.64,3.64,0,0,1-.05-.56,42.19,42.19,0,0,1,3-4.35A34.48,34.48,0,0,0,66.49,75.59Zm-20,55.7c0,.38-.07.75-.1,1.13,0-1.42,0-2.84.1-4.26,0-.61.1-1.58.21-2.75A45.85,45.85,0,0,0,48,120.54C47.5,124.29,46.79,128,46.53,131.29Zm-4.29,35.33c.12,1.24.26,2.5.43,3.76-.28-1.17-.51-2.37-.72-3.53A2.92,2.92,0,0,0,42.24,166.62ZM50.54,153c0-.15-.07-.29-.11-.43.1-1.58.24-3.16.48-4.78,1-6.72,1.17-13.52,1.81-20.29.13-1.38.33-2.84.53-4.32,0,.45,0,.89.06,1.34a2.2,2.2,0,0,0,1.39,2c-.33,1.47-.67,2.94-1,4.4C51.9,138.27,51.42,145.46,50.54,153Z" transform="translate(14.07 12.58)"/><path class="cls-21" d="M104,209.65c-2.44.07-4.79.17-7.1.2-3.72-1.67-7.3-5.62-8.86-8.16,0,0,0,0,0-.06,1.82-3.61-.17-10.37-.17-14.22,0-3.47.12-7,.43-10.56a83.79,83.79,0,0,0,1.32,14.49c.31,1.5,2.59,1.11,2.62-.35.11-6.1-.07-12.17-.37-18.25-.21-4.17.23-8.81-.77-12.84a1.59,1.59,0,0,0-3,0c-.27,1.07-.49,2.18-.72,3.28,0-.15,0-.3-.08-.44a1.54,1.54,0,0,0-2.25-.93c-.11-2.22-.2-4.44-.21-6.67a124.66,124.66,0,0,1,.8-14.26,115.45,115.45,0,0,0,1.9-13.34,1.53,1.53,0,0,0-.12-.66c3.35-6.33,7-12.6,9.52-19.24.77-2-2.16-3.55-3.56-2.08-3.83,4-5.85,8.49-7.88,13.32a2.56,2.56,0,0,0-2.78.55c-3.64,3.31-5.1,9.67-6.82,14.06-.18.48-.34,1-.52,1.44-3.72,4.21-5.54,10.82-7,16-1.49,5.44-4.45,13.61-2.78,19.3,0,.08.07.14.1.22-1.78,4.09-2,8.91-2.4,13.33-.22,2.52-.47,5.11-.61,7.7-4,1.45-3.38,6.06-.74,9.26,1.19,4.92,8.87,9.41,12.31,11,7.86,3.55,15.51,4.34,23.67,4a12.42,12.42,0,0,0,7.48-.78C108.05,213.81,106.62,209.57,104,209.65ZM83.68,185.14c0,1.64,0,3.28,0,4.91,0-.24-.12-.48-.17-.72-.12-1.48-.29-3-.44-4.46A1.63,1.63,0,0,0,83.68,185.14ZM76.1,206a22.17,22.17,0,0,1-5.17-3,2.71,2.71,0,0,0,.68-1.58c1.58,2.24,4,4.57,6.21,5.26l.05.05.1.1C77.35,206.52,76.73,206.26,76.1,206Zm3.64-56.24c.59-2.92,1.74-6.93,1.84-10.49L82.1,138a115.9,115.9,0,0,0-1.17,16,3.19,3.19,0,0,0-1.85-1C79.32,151.86,79.54,150.74,79.74,149.72Zm4.81,59.09c-1.33-.29-2.6-.64-3.85-1a2.39,2.39,0,0,0,1.46-1.47,19.43,19.43,0,0,0,.56-1.88,5.86,5.86,0,0,0,.3-.55,32.75,32.75,0,0,0,4.21,5.43C86.35,209.16,85.46,209,84.55,208.81Z" transform="translate(14.07 12.58)"/><path class="cls-21" d="M149.62,125.72v0c0-2.29-3.14-2.33-3.66-.47l0,0c-.24,1-.46,2-.61,3-1.11,1.63-3.35,3.28-4.05,4.6-1.81,3.44-3.17,7.27-5,10.77-4.17,8-9.38,16-10.79,25.09a1.25,1.25,0,0,0,.77,1.38c-.34.91-.68,1.83-1,2.75a2.15,2.15,0,0,0-1.7,1.48c-3.63,10-6.23,20.05-9.07,30.2a2.35,2.35,0,0,0-.56,1.21c-.1.59-.19,1.19-.29,1.78a1.77,1.77,0,0,0,0,.23c-.75,3.83-2.8,7.63-1.36,11.51s5.49,5.84,9.23,7.09c8.07,2.72,15.15,1.53,23.15-.71a1.16,1.16,0,0,0,.28-2.1c-2-1.48-4.36-1.67-6.76-1.53-3.84-.87-6.95-2.25-9.19-5.77-.05-4.82-1.17-10-1.13-14.69.06-7-.24-13,1.52-19.88a105.52,105.52,0,0,1,4-11.45,2.92,2.92,0,0,0,1.08-1c.28-.44.53-.9.8-1.36-1.85,9.59-4.32,19.07-5.51,28.77-.13,1.05,1.52,1.19,1.8.24a218.66,218.66,0,0,0,6.67-34.87c3.83-8.84,5.87-18.62,9.29-27.63a1.35,1.35,0,0,0,.4-.39,11.56,11.56,0,0,0,1.42-4c.28-.6.53-1.21.82-1.8A1.86,1.86,0,0,0,149.62,125.72ZM124.56,195.4a3.33,3.33,0,0,0-1.37,0,7.76,7.76,0,0,0,1.74-2.32C124.8,193.85,124.68,194.62,124.56,195.4Zm10.84-42.89c.49-.86,1-1.71,1.46-2.55-.3.84-.59,1.68-.89,2.51A2.19,2.19,0,0,0,135.4,152.51Z" transform="translate(14.07 12.58)"/><path class="cls-21" d="M166.33,97.25a20.25,20.25,0,0,0-6.68-1.93.83.83,0,0,0-.71-.55c-5.94-.64-11.65-3.16-17.44-4.86-2.36-.87-4.64-1.74-6.89-2.72-3.54-2.59-5.54-7-3.85-11.5a2.22,2.22,0,0,0-1.11-3,5.9,5.9,0,0,0-1.76-1.86,2.88,2.88,0,0,0-2.92,0,4.18,4.18,0,0,0-2.26,2.77,3.35,3.35,0,0,0-2-.24A5.59,5.59,0,0,0,117,76.26c.18-1.07-.26-2.23-1.7-3.26-2-1.46-4.68-.87-6.94-1.22a6.74,6.74,0,0,1-3.73-1.67A1.79,1.79,0,0,0,104,67.5a13.73,13.73,0,0,1-1.29-.86c-.65-2.62-.41-5.81-.54-8.5a2.8,2.8,0,0,0-4.16-2.39l-.26.14a3,3,0,0,0-1.93.29c-1.74.87-3,2.51-4.83,3.19l-.22.11a2.94,2.94,0,0,0-4.29,1.73A5.55,5.55,0,0,0,87.29,66c.09.2.19.39.31.6a2.89,2.89,0,0,0,.77.85,31.74,31.74,0,0,0,6.33,5.09,48.55,48.55,0,0,0,8.82,4.79c2.68,1.06,5.42,2.62,8.4,2.55a6,6,0,0,0,4.39-2.13c-.88,2.42-.88,5.27.29,7.13s3.36,2.42,5.33,3.19c3.73,1.46,7.06,3.48,10.69,5.1,4.87,2.18,11,4.33,16.26,4.94,5.55.63,12.15,2.83,17.45.34A.71.71,0,0,0,166.33,97.25ZM124.14,82.16a2.59,2.59,0,0,0,.26-.46,8.84,8.84,0,0,0,.4-1.6,1.34,1.34,0,0,0,.24.12l.14.16a14.57,14.57,0,0,0,.7,2.69l-.58-.26A12.93,12.93,0,0,0,124.14,82.16Z" transform="translate(14.07 12.58)"/><path class="cls-21" d="M205.06,98.84c-3.57-1-7.46.61-11.12.34a27.69,27.69,0,0,1-10.65-3c-.87-.43-1.74-.54-2.55-1-.15-1.3-.07-2.57-.33-3.89-.54-2.7-1.22-7-3.5-8.83-1-.8-2.78-.95-3.42.44l-.19.42a2.15,2.15,0,0,0,.74,2.83l.3.23c1.18,2.37,1.28,6.42,2.5,9.06-.07.07-.16.13-.23.21a2.59,2.59,0,0,0-.19,2.79c.42.9,1.27,1.18,2,1.69a2.32,2.32,0,0,0,1.61.28,1.4,1.4,0,0,0,2.05-.29,29.72,29.72,0,0,0,8.85,2.62,30.51,30.51,0,0,0,5.4.45,17.18,17.18,0,0,0,8.7-.22A2.16,2.16,0,0,0,205.06,98.84Z" transform="translate(14.07 12.58)"/><path class="cls-22" d="M42.63,132.14c.1-2.06.54-4.1.66-6.13.1-.61.21-1.22.31-1.82C44.48,119.07,44.94,114,46,109c.77-2,1.6-4,2.49-6C52,94.9,57.55,88,61.1,79.92c.71-1.61-1.38-3.77-2.71-2.09a111,111,0,0,0-15.27,24.66c-1.83,4.22-6.16,12.34-4.84,17.59-.14.87-.29,1.76-.43,2.64-4.08,4.86-4.09,19.91-3.19,30.39-1.93,8,2.65,19.21,5.7,26.32,3.24,7.55,6.19,12.19,14.14,15.19,1.94.73,2.84-1.84,1.82-3.12-19.19-23.91-9.37-57.36-5.88-84.83a.72.72,0,0,0-1.33-.36c-5.24,12.36-5.54,25.84-6.81,39C42.23,140.91,42.41,136.51,42.63,132.14Zm-1,32.45a2.57,2.57,0,0,0,.5-.54c.27,2,.62,4,1,6-.26-.87-.51-1.74-.71-2.63S42,165.6,41.68,164.59ZM41.91,149c-.21,1.88-.31,3.67-.34,5.41a8.8,8.8,0,0,0-.69-1.29c0-1.3,0-2.58,0-3.81A2.76,2.76,0,0,0,42,148.19Z" transform="translate(14.07 12.58)"/><path class="cls-22" d="M55.79,91.21v.51a0,0,0,1,0,0,0v-.51A0,0,0,1,0,55.79,91.21Z" transform="translate(14.07 12.58)"/><path class="cls-22" d="M95,214.2c-5.43-2.92-11.75-5.16-16.14-9.38A6.18,6.18,0,0,0,81,202.66c1.19-1.93-1.44-3.74-3-2.33-.57.52-1.79-.26-2.87-1.29-.24-.46-.5-.92-.77-1.36a55.75,55.75,0,0,1-2.57-10.11c-.46-3.19.34-6.37,1-9.58A43.55,43.55,0,0,0,75,189.06a1.09,1.09,0,0,0,1,.75c.08.2.15.41.23.61.57,1.35,3,1.41,2.85-.39-.48-5.78-2-11.41-2.69-17.17-.08-.61-.17-1.26-.27-1.93.39-5.13.92-10.28.49-15.1a.76.76,0,0,0-1.29-.51,14.49,14.49,0,0,1,.77-2.77c.45-1.11-1.3-1.77-1.88-.79-.11.18-.19.38-.29.56.37-3.09.89-6.87,1.76-7.82a1.65,1.65,0,0,0-.37-2.46A48.66,48.66,0,0,1,79,133.43c3-5.62,6.78-10.56,9.94-16A1.69,1.69,0,0,0,86,115.7c-6.86,10.84-18.57,22.19-17.09,36.18-.14.56-.29,1.11-.44,1.63a138.66,138.66,0,0,0-3.43,13.56c-1.7,6.57-2.44,13.37-3.44,20.1-.75,5-1.16,12.55,1.12,17.24s8.31,7.05,12.87,8.85c4.28,1.69,9.76,5.2,14.45,3.23a1.44,1.44,0,0,0,.81-1.2c.92.4,1.84.81,2.76,1.26C95.2,217.32,96.58,215,95,214.2Zm-24.1-46.29c.29-1.45.61-2.91,1-4.36.05,1.8.18,3.58.3,5.29,0,.35,0,.71.08,1.07a2.72,2.72,0,0,0-1.56-.49C70.77,168.91,70.84,168.41,70.92,167.91ZM68,201a9.06,9.06,0,0,1-.4-1.39,15.65,15.65,0,0,0,3.86,5.11A7.77,7.77,0,0,1,68,201Z" transform="translate(14.07 12.58)"/><path class="cls-22" d="M124.55,190.17c.21-.87.39-1.75.56-2.65a2.23,2.23,0,0,0,1.68-1.32c2.14-4.52,2.42-9.92,3.54-14.75,1-4.51,1.76-9.17,2.81-13.68,1.21-2.76,2.36-5.56,3.65-8.24,2.66-5.52,5.65-10.71,7.29-16.64.41-1.5-1.82-2.52-2.57-1.08-3.37,6.5-7.25,12.64-10.29,19.34-2.14,4.71-5.22,9.08-4.41,14.39a1,1,0,0,0,.4.66c-.17.58-.34,1.17-.52,1.75-.38,1.22-.71,2.5-1,3.8-2.85,4-4,8.82-5.17,13.53-.58,2.37-1.28,4.7-2,7a1.63,1.63,0,0,0-.83.88,70.13,70.13,0,0,0-4,18.61c-2.38,5.66.54,11.72,5.3,15.17,6.06,4.4,11.79,4,18,.33l0,0a1,1,0,0,0,1,.83,7.55,7.55,0,0,0,1.42-.17,1.36,1.36,0,0,0,1-1l0-.16a1.3,1.3,0,0,0-1.24-1.57l0,0-.1,0h-.07a1.94,1.94,0,0,0-.59.19h-.91a1.39,1.39,0,0,0-.57-.66c-3.57-2.18-6.16.66-10.42-.6a12.05,12.05,0,0,1-3.48-1.74l.07-.08,0,0c6.2,1.61,5.58-8.63,1.9-10.83a1.52,1.52,0,0,0-2.28,1.31c0,.3,0,.62,0,.95-.38-.69-.76-1.39-1.08-2.12a51.34,51.34,0,0,1-1.75-5.9c0-.1-.1-.17-.14-.27l0-.49A76.15,76.15,0,0,0,124.55,190.17Z" transform="translate(14.07 12.58)"/><path class="cls-22" d="M113.27,76.91l-.23-.12c-1.54-2.26-7.26-4.68-8.75-5.66-2.16-1.43-4.17-3.09-6.35-4.5a10.74,10.74,0,0,0-2.88-1.16,5.32,5.32,0,0,1-.33-1.11,2.89,2.89,0,0,0,.77,0,1.43,1.43,0,0,0,1-1A6.75,6.75,0,0,0,98,60.21c.57-2.3.53-4.46-1.52-6a2.69,2.69,0,0,0-2.7,0,5.59,5.59,0,0,0-2.59,4.6,5.17,5.17,0,0,0-.82.71,2.85,2.85,0,0,0-.29,0,2.39,2.39,0,0,0-3.13.9c-2.24,3.55.36,6.28,3.57,8.35a13,13,0,0,0,3.92,4.55c2.37,1.52,5.52,1.62,8,2.83,1.41.68,2.79,1.41,4.18,2.09a12,12,0,0,0,2.71,1.24,25.26,25.26,0,0,0,2.49.88C113.81,81,115.27,77.78,113.27,76.91Z" transform="translate(14.07 12.58)"/><path class="cls-22" d="M159.4,97.81c-6.64-1.7-12.68-4.24-19.13-6.17-3.05-.92-6.35-1.24-9.24-2.7-.44-.22-2.85-1.55-4.89-2.78a.91.91,0,0,0-.16-.35,8.51,8.51,0,0,1-.82-1.46,2.15,2.15,0,0,0-.52-1.26c-.33-.9-.62-1.82-.91-2.64a9.46,9.46,0,0,1-.73-2.26c0-.65.19-.83.77-1.29a1.53,1.53,0,0,0,.3-2.06,1.27,1.27,0,0,1,.92-.22c2.18.16,2.55-3.2.51-3.75-1.8-.49-3.16-.44-4.57.89a16.47,16.47,0,0,0-3,4.78,9.56,9.56,0,0,0-1.08,3,8.32,8.32,0,0,0-.43,2.59,7.19,7.19,0,0,0,2.76,5.23c2.24,4,9.69,6.14,13.52,7.2s7.58,1.94,11.28,3.17c2.15.71,4.33,1.35,6.58,1.91,3.41.83,5.13.1,8.68-.28C160,99.24,160.31,98.05,159.4,97.81Z" transform="translate(14.07 12.58)"/><path class="cls-22" d="M199.21,100.5c-2.27-.48-4.68-.12-7-.27a32.11,32.11,0,0,1-6.18-.74c-2.05-.56-4.78-1.29-5.6-3.34a13.8,13.8,0,0,1-.66-2.28.59.59,0,0,0,0-.08c.43-1.55-.21-3.19-.53-4.71a15.45,15.45,0,0,0-.72-2.43c0-.06-.05-.12-.08-.17a9.21,9.21,0,0,0-1-1.83,1,1,0,0,0-1.64,0,2.94,2.94,0,0,0-.28,1.73,1.7,1.7,0,0,0-.36,1.5c.66,3.38.32,7.75,1.8,10.91,1.27,2.7,3.65,2.85,6.22,3.42s4.82.16,7.42.32c3.09.18,5.91,1.37,8.76-.43A.88.88,0,0,0,199.21,100.5Z" transform="translate(14.07 12.58)"/><path class="cls-23" d="M171.06,90.87a4.41,4.41,0,0,0-.79-1.61,2.68,2.68,0,0,0-.64-.92c-.43-.35-1.23-.43-1.56-.72-1.5-1.32-2.94-4.22-4.37-6.12-3.83-5.08-10.31-7.47-16.51-8.37a3.08,3.08,0,0,0-2.43.59h0a2.07,2.07,0,0,0-2,2,5.2,5.2,0,0,0,3,4.26c1.72,3,7.83,5.15,10.37,3.35.78.34,1.57.65,2.37,1a.9.9,0,0,0,.93-.06c.61.54,1.21,1.1,1.81,1.72,1.3,1.32,2.33,2.91,4,3.83s1.54.65,2.64,2.33A1.78,1.78,0,0,0,171.06,90.87Z" transform="translate(14.07 12.58)"/><path class="cls-23" d="M137.48,60.89A77.5,77.5,0,0,1,128.54,58c-4.61-1.79-7.74-3.07-12.45-.78a2.13,2.13,0,0,0-.76,2.89l.6.82a2.23,2.23,0,0,0,3.3.28l.09,0a1.09,1.09,0,0,0,.89,0,18.67,18.67,0,0,1,5.18,1.06c1.7.59,4.14,1.39,6,1,.59-.13,1.47-1,1.94-1a6.13,6.13,0,0,0,1.52,1.29,2.8,2.8,0,0,0,3.2-.67A1.23,1.23,0,0,0,137.48,60.89Z" transform="translate(14.07 12.58)"/><path class="cls-23" d="M201.74,89.69c-1-2.09-2.87-3.78-4.35-5.53a33,33,0,0,0-6.51-6.36c-2.4-1.57-5.43-2-8.15-2.66-1.9-.44-3.85-.4-5,1.41a2.69,2.69,0,0,0,.42,3.22,12,12,0,0,0,3.44,2,6.84,6.84,0,0,0,1.19,2.91c1.32,1.9,5,3.87,7.54,3.42a3.18,3.18,0,0,0,2.68,0c.37.43.75.87,1.12,1.32a12.57,12.57,0,0,0-2.1.41,1.63,1.63,0,0,0-.38,2.94,5,5,0,0,0,4.82.55l2,.65A3,3,0,0,0,201.74,89.69Z" transform="translate(14.07 12.58)"/><path class="cls-23" d="M218.52,123.26c-1.41-2.64-3.64-3.14-6.5-2.57-3.31.66-7.29,2.55-10.76,3.43-2.34.59-4.78,1.75-7.23,2.48a3,3,0,0,0-3.21-.15,7.35,7.35,0,0,0-2.36,2.25c-1.3,1.77.44,4.7,2.59,4.51.43,0,.86-.11,1.29-.18a3.08,3.08,0,0,0,3.79,2.52c.07,0,.12-.05.18-.06a28.12,28.12,0,0,0-1.13,4.18,1.8,1.8,0,0,0-2.67,1.23,13.71,13.71,0,0,0-1.15,4,13.65,13.65,0,0,0-.44,1.81c-.39,2.35-.71,4.71-1.11,7.05s3.15,3.41,3.64,1c.19-.92.34-1.84.51-2.76,0,.1,0,.22,0,.33-.56,6.71-.58,13.35-1.18,19.94-.49,1.58-1,3.18-1.42,4.79a43.4,43.4,0,0,0-.7-10.49c-.21-1.41-2.21-1.14-2.58,0-1.67,5.09-1.76,10.77-2.73,16-.53,2.89-2.51,7-.91,9.72a1.83,1.83,0,0,0,2.85.37c1.11-1.15,2.24-2.27,3.37-3.4a3.12,3.12,0,0,0,2,2.21c-1.93,3.88-4,8.58-7,12.05a12.63,12.63,0,0,0-5.37,4.63c-1.82,2.65,1.65,5.46,4.15,4.14a15.79,15.79,0,0,0,1.89-1.18c.23,2.35,3.23,3,4.9,1.59a31.45,31.45,0,0,0,6.09-7.66,3.47,3.47,0,0,0,3.19-.61c2.65-2.21,4-5.7,5.63-8.67,2.48-4.54,4.91-8.77,6.28-13.79,2.09-7.7,6.9-18.31,4.85-26.25,0-.1-.09-.18-.12-.28.5-3.09,1-6.18,1.26-9.3C218.87,140.17,221.5,128.85,218.52,123.26ZM190,185.34l-1.34,1.41c.49-1.64,1.12-3.31,1.64-4.89A22.93,22.93,0,0,0,190,185.34Zm10.23-16.16a15.35,15.35,0,0,0-1.18,1.44c.07-.91.13-1.82.19-2.73a3.3,3.3,0,0,0,1.55.28C200.57,168.5,200.39,168.83,200.21,169.18Zm13.13-40.29a2.25,2.25,0,0,0-1.29.42,9,9,0,0,0-2,2,3,3,0,0,0-2.39-1.34,7,7,0,0,0-.6-1.12l5.42-1.41a3.74,3.74,0,0,0,1.72-.8A5.61,5.61,0,0,0,213.34,128.89Z" transform="translate(14.07 12.58)"/><path class="cls-23" d="M200.29,114.13c-2.21-1.64-6.14.42-8.41,1.09-3,.9-5.34-.5-8,1.46a1.1,1.1,0,0,0-.21.22c-6.36-.38-12.72-.88-18.94.43a1.79,1.79,0,0,0-1.08.76c-4.83-2.17-10.39-2.72-15.54-3.48-3.27-.48-6.78-.57-10-1.27-3.71-.81-5.64-3.53-9-4.74-3.79-1.36-7.57-1.83-11.23-3.82-4.16-2.27-8.06-3.85-12.39-5.84-3.89-1.78-8.16-3.14-11.8-5.48-1-.64-1.92.41-1.78,1.37a4.36,4.36,0,0,0,2.17,3.11c.6.32,1.46.27,2,.52a5.44,5.44,0,0,0,1.43-.35,9.06,9.06,0,0,1,3.77,2.91c3.88,2.93,7,3.46,11.43,5.75,3.21,1.65,5.77,3.41,9.27,4.53,4.69,1.5,8.58,2.55,12.75,5.35a16.78,16.78,0,0,0,6.68,3.07c7,1.29,15.35-1.32,22.05,1.15a1.2,1.2,0,0,0,.55.06,1.42,1.42,0,0,0,.28.2c4.86,2.29,10.42.38,15.66-.12,3.18-.3,6.39-.51,9.59-.8a7.14,7.14,0,0,0,2.72-.1c.37-.08.74-.19,1.12-.31,1.24-.16,2.47-.33,3.7-.55a1.15,1.15,0,0,0,.83-1.45,7.16,7.16,0,0,1,2.14-1.11.91.91,0,0,0,.87-.66l.07-.33A1.46,1.46,0,0,0,200.29,114.13Z" transform="translate(14.07 12.58)"/><path class="cls-14" d="M86.69,89A49.15,49.15,0,0,1,76,76.34a1.22,1.22,0,0,0-1.79-.44c-.42-.48-.84-1-1.22-1.46a7.53,7.53,0,0,0-2-2.27l0,0a1.51,1.51,0,0,0-1.83.2l-.16.15a1.75,1.75,0,0,0-.47,1.76c1.1,3.11,3.44,5.4,5.35,8,1,1.3,3.07,3.51,5.07,3.88a38.28,38.28,0,0,0,4.21,4.68c1.76,1.65,3.69,3,5.48,4.61,1.26,1.12,2,2.1,3.74,2.32.56.07,1-.53,1-1C93.47,93.18,89.09,91,86.69,89Z" transform="translate(14.07 12.58)"/><path class="cls-23" d="M140.61,123.76c-2.74-3.14-8.89-2.29-13.6-4.25a2.17,2.17,0,0,0-1.71-1.32c-6.11-1.29-14.38-6.77-19-11.25-1.77-1.71-5.08.57-3.54,2.73.09.14.19.27.29.41a2.4,2.4,0,0,0,.58.57,54.76,54.76,0,0,0,4.28,3.92.67.67,0,0,0-.13.67c.88,2.36.88,5.47,2.16,7.58a2.71,2.71,0,0,0,2.5,1.25c0,2.4-.58,5.8-.58,6.87a2.39,2.39,0,0,0,1.12,2,13.85,13.85,0,0,1,.74,1.88,2.06,2.06,0,0,0,2.74,1.26c0,.9,0,1.76.08,2.58-3.25,8.51-3.26,26.15-3.66,28.58a2.42,2.42,0,0,0,1.38,2.59q-.52,2.52-1.12,5a2.27,2.27,0,0,0,.31,1.86l-.51,1.63a2.22,2.22,0,0,0,1.17,2.85c-.14.61-.25,1.23-.37,1.84-.43,1.29-.82,2.59-1.15,3.89a126.33,126.33,0,0,0-2.9,14.54c-.18,1.37,2,1.85,2.57.69,2.18-4.25,2.67-9.19,3.48-13.86A1.05,1.05,0,0,0,116,188c1.8-2.36,2-5.8,2.85-8.62,1.75-5.8,3.86-11.61,6.11-17.23,2.56-6.41,6.56-13.28,7.88-20.29,1.37-1.57,3-3,4.27-4.63,2.16-2.69,3.62-6.1,6.1-8.51C145.2,126.8,143,123.18,140.61,123.76Zm-23.71,6.42c.28-2.66,1-6.6.26-9.49,1.07.53,2.15,1,3.23,1.41C118.56,123.59,117.45,126.72,116.9,130.18Z" transform="translate(14.07 12.58)"/><path class="cls-23" d="M93.49,98.17c-4.37-1.57-8-2.32-12-5.24-3.6-2.67-6.09-7.42-10.39-9a1.05,1.05,0,0,0-1.29,1.29,30.75,30.75,0,0,0,9,12.32,42.53,42.53,0,0,0,5.43,4.3,2.94,2.94,0,0,0,1,.43c-.38.43-.75.88-1.1,1.35-1.33.81-2,2.29-2.86,3.72-2.48,4.25-4.87,8.64-7.14,13-4.82,9.3-8,18.39-8.67,28.86-.06.84,1.35,1,1.49.2,2-11.81,8-21.67,13.53-31.85a1.06,1.06,0,0,0,.44-.45c3-6,8.78-10.81,13.5-15.52A2.09,2.09,0,0,0,93.49,98.17Z" transform="translate(14.07 12.58)"/><path class="cls-23" d="M182.69,127.73a2.87,2.87,0,0,0-2.06-2c-6-.92-14.25-3.62-19.92-.07a3,3,0,0,0-1.05,4,4.37,4.37,0,0,0,2.75,2.17,3.32,3.32,0,0,0,.44.06v.28a5.71,5.71,0,0,0,.73,1.93,1.83,1.83,0,0,0,.29.45c-1,2.28-1.81,4.71-2.87,6.92a18.11,18.11,0,0,0-2.87,4.47,3.32,3.32,0,0,0,1.8,4.42c-.34,1.3-.61,2.34-.78,3a2.93,2.93,0,0,0-.06,1.4c-1.13,3.61-1.87,7.25-.94,11.09a1.17,1.17,0,0,0,.58.76c-1.48,3.72-2.87,7.48-4.19,11.23l-.16,0a2.16,2.16,0,0,0-2.11,2.12,19,19,0,0,0-.1,4.9c-.18.55-.37,1.1-.54,1.64-.69,2.13,2,3.23,3.45,2,.12-.1.23-.22.34-.32a1.42,1.42,0,0,0,.89-.91,14.43,14.43,0,0,0,1.74-2.47,2.92,2.92,0,0,0,3.76-2.48c.29-2.22,1.13-5.07,1.38-7.67.81-2,1.71-3.89,2.14-5.19a.57.57,0,0,0,0-.14c-.08.41-.17.82-.26,1.22a80.11,80.11,0,0,0-2.39,9c-.33,1.17-.66,2.34-1,3.5-1.81,6.09-4,12.07-6.41,17.95-1.5,3.7-4.25,7.75-4.58,11.8-.16,2,2.42,2.67,3.72,1.54a29.27,29.27,0,0,0,5.92-7.22,2.65,2.65,0,0,0,1.1-.68c3.13-3.29,4.49-9.27,6-13.41v0a2.44,2.44,0,0,0,.46-.35c3.57-3.37,4.81-12.08,5.89-16.67.17-.71.32-1.43.47-2.15.13-.34.25-.68.37-1a1.94,1.94,0,0,0,.08-1.18l.33-1.71c.05.12.08.23.14.35.87,1.95,4.19,1.9,5.08,0,2.13-4.53,1.9-10.54,2.07-15.42.29-8.12.07-16.24,1.23-24.31A3.2,3.2,0,0,0,182.69,127.73Zm-6.34,3.53a4.18,4.18,0,0,0-.17,1,2.15,2.15,0,0,0-.57,0,6.54,6.54,0,0,0-.88.18l0,0a17.82,17.82,0,0,0-.45-2c.73.15,1.45.32,2.17.5C176.39,131.05,176.36,131.16,176.35,131.26Z" transform="translate(14.07 12.58)"/><path class="cls-24" d="M184,134a9.27,9.27,0,0,0-3.91-7.25c-1.58-1-2.67-.89-4.42-1.16.16,0-2.28-.37-4-.53-1.8-1.82-3.84-2.18-5.63,1.27a3.07,3.07,0,0,0,1.08,4.12,6.36,6.36,0,0,0,2.11.72,14.9,14.9,0,0,1,1.61,5.24c-1.25,9.23-1.21,18.63-2.34,27.92-.29,1.86-.57,3.73-.83,5.58a2.88,2.88,0,0,0,1.31,3l-.21,1.09a1.41,1.41,0,0,0-2.76-.37c-2.66,6.81-4.93,13.88-7.4,20.78-1.93,5.41-5.37,11.18-6.17,16.86-.32,2.25,2.91,3.3,3.5,1s2.24-4.58,3.27-6.8a64.07,64.07,0,0,0,2.37-6,1.81,1.81,0,0,0,.66-.18c4.07-1.92,6.49-7.89,8.17-11.68a60.28,60.28,0,0,0,5.3-19.56c1.82-6,3.53-12,5.17-18.09C182.1,145.3,184.31,138.93,184,134Zm-7.14,4.84c-.09-1.35-.23-2.69-.41-4a14.77,14.77,0,0,0-.79-2.76C178.8,133.19,177.55,135,176.83,138.88Z" transform="translate(14.07 12.58)"/><path class="cls-24" d="M167,134.79c-.86,10.5-4.23,20.41-2.77,31,.23,1.69,2.53,1,2.71-.36.68-5.23.51-10.55,1.1-15.81a139.42,139.42,0,0,0,1.15-14.86A1.1,1.1,0,0,0,167,134.79Z" transform="translate(14.07 12.58)"/><path class="cls-24" d="M218,121.45a3.08,3.08,0,0,0-4.45-1.81c-4.57,2.48-10.89,3.72-16.76,4.63a34.71,34.71,0,0,0-5.05.74,2.5,2.5,0,0,0-1.89.52c-.2.06-.41.11-.6.18a1.3,1.3,0,0,0-.11,2.42,2.34,2.34,0,0,0,1.82,2.05c4.31.79,7.91-.62,12.12-1.25a7.38,7.38,0,0,0-1.25,1.49c-1.27,2.11.1,4.2.4,6.22.18,1.2.34,2.43.49,3.67a.56.56,0,0,0-.36.57,85.18,85.18,0,0,1-2.25,23.31c-1.21,5.29-2.89,10.76-2.9,16.22,0,1.08,1.72,1.37,1.94.26a245.47,245.47,0,0,0,4.26-33.77l.06.68c.73,8.47-.71,18.11-2.18,26.44-1.08,6.09-4.57,12.51-4.83,18.56-.06,1.58,2.28,2.73,3.34,1.38.31-.38.57-.77.85-1.16-3.15,6.36-8.95,12.88-12.92,16.35-2,1.68.14,5.36,2.59,4.45,15.6-5.82,20.32-29.93,24.32-43.81C217.33,160.55,221,151.7,222,142,222.89,134.14,220.78,128.55,218,121.45Zm-10,33.63a44.44,44.44,0,0,1-1.68,9c.44-4,.79-8.12,1-12.16a94.21,94.21,0,0,0-1.09-16.43c-.39-3-1.21-1.56,1.66-2.91a9.49,9.49,0,0,1,.81,2.24C210.16,141.27,208.56,148.66,208,155.08Z" transform="translate(14.07 12.58)"/><path class="cls-24" d="M203.75,87.64a34.18,34.18,0,0,0-6.14-5.71C192.2,78.27,187,74.59,180,75.64c-2.39.37-1.91,4.16.35,4.34l.66.12c.68.25,1.8.93,2.31,1.07a1.58,1.58,0,0,0,1.47-.37,14.65,14.65,0,0,1,2.09.62c2.5,1,4.2,2.77,6.49,4,3.92,2.14,7.45,4.64,9.36,8.67a1.23,1.23,0,0,0,2.23-.29A6.44,6.44,0,0,0,203.75,87.64Z" transform="translate(14.07 12.58)"/><path class="cls-24" d="M204.3,95.8a.23.23,0,0,0,0,.45A.23.23,0,0,0,204.3,95.8Z" transform="translate(14.07 12.58)"/><path class="cls-24" d="M163.13,80.4c-5.8-2.77-11.41-6.41-18-5.92a1.82,1.82,0,0,0-1.55,2.7l.17.3a1.54,1.54,0,0,0,1.65.7q0,.3.63.45c.49.09,1,.16,1.48.23a5.94,5.94,0,0,0,1.52,0,9.18,9.18,0,0,1,3.54,1.35,61.59,61.59,0,0,0,7.12,2.94c3.27,1,6.41,2.36,8.2,5.59.87,1.58.79,3.87,2.57,4.78a1.27,1.27,0,0,0,1.85-.75C173.23,86.69,168.18,82.81,163.13,80.4Z" transform="translate(14.07 12.58)"/><path class="cls-24" d="M136.18,60.12A6.78,6.78,0,0,0,132.49,59a27.07,27.07,0,0,1-7.12-1.9,16,16,0,0,0-9.83-.51,1.22,1.22,0,0,0,.32,2.38c7.08,0,12.86,5,20.06,3.13A1.1,1.1,0,0,0,136.18,60.12Z" transform="translate(14.07 12.58)"/><path class="cls-24" d="M142,123.82c-3.29-2.35-9.54-2.92-13.47-4.29-6.45-2.25-12.1-6.12-18.48-8.53-1.26-.47-2.15,1.32-1.27,2.19.24.27.53.54.8.82a84.9,84.9,0,0,0,6.46,6.82c-2.32,3.57,0,9,2.31,12.16.11,1,.21,2,.3,2.88.46,4.61-.67,9.62.63,14a1.51,1.51,0,0,0,2.88,0c1.84-5.14,2.09-12.82.73-19.56a14.84,14.84,0,0,1,3.58,8.41,9.46,9.46,0,0,0-.72,2.07,2.47,2.47,0,0,0,.65,2.14,64.86,64.86,0,0,1-2.22,9.68c-2.78,9.93-6.53,19.75-9.57,29.63-.61,2,2.4,2.77,3.09.85,1.43-4,2.9-7.93,4.35-11.89,1.27-2.23,2.69-4.37,3.89-6.69,2.38-4.57,3.54-9.89,5.56-14.64s3.65-9.3,6.15-13.68c1.73-3.05,4.46-5.85,5.7-9.09A3,3,0,0,0,142,123.82Zm-20.29,2.06c-.29-.82-.6-1.61-.94-2.36a7.61,7.61,0,0,0,3.53.14.84.84,0,0,0,.14-.06l.09,0,.23.1A6.17,6.17,0,0,0,121.67,125.88Z" transform="translate(14.07 12.58)"/><path class="cls-24" d="M90,97.06a24.34,24.34,0,0,0-4.26-1.86,26,26,0,0,1-6.11-3.08c-1-.62-1.89.73-1.21,1.57a19.2,19.2,0,0,0,5.63,5.07c2.09,1.1,4.56,1.81,6.72,2.93l-1.07.85c-1.22,1.14-2.46,2.33-3.65,3.52a16,16,0,0,0-4.3,7.38,1.22,1.22,0,0,0,2.22.93c2-3.55,4.64-5.72,7.54-8.45,1.29-1.21,4.14-2.75,3.77-4.94S91.58,97.88,90,97.06Z" transform="translate(14.07 12.58)"/><path class="cls-25" d="M223,130.65c-.87-3.94-2.7-9.55-5.81-12.32a2.93,2.93,0,0,0-2.85-.76,102.13,102.13,0,0,1-11,4c-4.43,1.27-9.28,1.26-13.51,3.17a1,1,0,0,0,0,1.8c7.16,3.34,17.14.14,24.35-2.69,1.6,2.4,2.56,6.05,3.09,8.45a24.32,24.32,0,0,1,.43,2.86c-2,3.25-2.42,8.48-2.59,13a2.4,2.4,0,0,0-1.6,2.17c-4.44,14.55-5.5,29.7-10.89,44-.64,1.14-1.33,2.27-2.09,3.36-2.55,3.64-4,8.51-8,10.93a1.66,1.66,0,0,0,1.27,3c6.16-1.44,7.78-7.13,11.63-11.56a22.43,22.43,0,0,0,5.16-14.31c.32-.73.62-1.47.92-2.2a.9.9,0,0,0,.83-.57c1.49-3.4,4.05-6.14,5.53-9.61a37.21,37.21,0,0,0,2.82-13.82c.1-4,.54-8.09.81-12.15C223.08,142,224.14,136,223,130.65Z" transform="translate(14.07 12.58)"/><path class="cls-25" d="M183.44,126.87c-2.39-3.28-11.56-4.66-13.45-.3-.49,1.14-.25,3.05,1.32,3.26a3.08,3.08,0,0,0,1.73-.17,1.67,1.67,0,0,0,.6,0c.73-.1,1.46-.16,2.2-.2,4.82,1.41,1.91-.51,3.1,3,1.39,4.06-.26,10.27-1,14.34a150.81,150.81,0,0,1-6.33,22.37c-2.51,7-5,13.87-7.62,20.81-2.32,6.12-6.51,12.33-8,18.65-.55,2.32,2.62,3.05,3.49,1,1.47-3.55,4.38-7,6-10.61,2-4.45,3.83-9.06,5.75-13.56,4.14-9.69,6.79-20.13,9.74-30.2a94,94,0,0,0,3.46-15.36C184.79,136.5,185.64,129.91,183.44,126.87Z" transform="translate(14.07 12.58)"/><path class="cls-25" d="M144.32,124.9a2.74,2.74,0,0,0-2.62-3.42c-5.82-.32-9.79-2-15.24-4.58-3.32-1.55-6.78-3.09-10.19-4.35-1.85-.68-2.61,2.24-.81,2.93a24.7,24.7,0,0,1,5.07,2.77c3,2.41,5.39,5.12,9,6.7,1.44.63,4.67,1.84,5.77,3.13a6.75,6.75,0,0,1,1.17,2.09c-2.6,5.74-5.78,11.2-8.11,17.11-2,5-3.68,10.26-5.51,15.33s-2.57,11-5.06,15.86c-.65,1.26,1.07,2.82,2.07,1.6,3.18-3.91,4.26-9,5.93-13.69,1.91-5.33,3.8-10.74,5.86-16,2.52-6.49,6.52-12.11,9.63-18.21a1.74,1.74,0,0,0,.14-.27A45.79,45.79,0,0,0,144.32,124.9Z" transform="translate(14.07 12.58)"/><path class="cls-25" d="M89,97.44c-1.57.22-1.84,2.78-.45,3.43a4.59,4.59,0,0,0,1.4.45c.47.07,1.22-.24,1.59.13s-.07.43-.38.85-.62,1-1,1.55c-.66.79-1.52,1.42-2.13,2.24a30.43,30.43,0,0,0-1.79,3.39c-.62,1.09.93,1.93,1.64,1A12.84,12.84,0,0,1,90,107.53c.71-.56,1.53-.93,2.21-1.55,1-1,2.62-2.37,3-3.76C96.22,98.62,91.69,97.05,89,97.44Z" transform="translate(14.07 12.58)"/><path class="cls-25" d="M163,78.34a72.3,72.3,0,0,0-19.72-5.14c-1.16-.15-1.39,1.76-.27,2,4.39,1.06,8.63,2.67,13,3.72,8.47,2,13,6.38,16,14.61.44,1.2,2.54,1.15,2.41-.32C173.75,86.49,168.9,81,163,78.34Z" transform="translate(14.07 12.58)"/><path class="cls-25" d="M198.4,81a36.71,36.71,0,0,0-16.32-6.85c-2.05-.27-1.8,2.9-.33,3.19,4.1,2.57,9.33,3.52,13.54,5.91A14.48,14.48,0,0,1,201.66,90c1.14,2.55.33,6.12,2.56,7.89a1.21,1.21,0,0,0,2-.53C208.35,91.06,203.05,84.48,198.4,81Z" transform="translate(14.07 12.58)"/><path class="cls-25" d="M133.85,58.68c-2.58-1.93-5.65-1.6-8.74-2.11-2.81-.47-5.6-2-8.46-1.4a.85.85,0,0,0,0,1.63c3,.68,5.72,2.11,8.84,2.57,2.61.39,5.26.94,7.86,1.15C134.43,60.61,134.54,59.2,133.85,58.68Z" transform="translate(14.07 12.58)"/><path class="cls-26" d="M96.34,78.21a7.93,7.93,0,0,0-2.09-.48c-1.06,0-1-.1-1.68-1-.91-1.18-2-1.28-3-2.12s-1.39-2.53-1.9-3.73c-.72-1.71-3.5-.49-3,1.25a14.3,14.3,0,0,0,1.47,4.14c.93,1.33,2.24,1.56,3.71,1.83C91.6,78.42,91.42,80,92.7,81a7.23,7.23,0,0,0,2.08.77,5,5,0,0,0,2.33.64c.78-.09,1.68-.65,1.58-1.58C98.53,79.35,97.69,78.7,96.34,78.21Z" transform="translate(14.07 12.58)"/><path class="cls-26" d="M136.42,101.57c-2.55-.43-4.5-1.78-7-2.26s-2.18-.14-4.21-1.56c-.63-.44-1.63-1.2-2.2-1.71-2.65-2.36-3.7-3.43-7.13-4.6a23.31,23.31,0,0,1-9.39-6.09c-1.36-1.37-3.38.68-2.1,2.1,1.57,1.74,3.27,4.08,5.33,5.29,1.72,1,2.73,1.19,4.12,2.44,2.22,2,3.87,6.08,7.18,6.38.62.06,1.4-.47,2-.33l.16,0c-.34,0-.34.06,1.27.68,1,.38,1.78,1.15,3.08,1.37,2.61.43,6.25,1,8.86.34C137.41,103.42,137.5,101.75,136.42,101.57Z" transform="translate(14.07 12.58)"/><path class="cls-26" d="M140.75,103.83a6.35,6.35,0,0,0-1.34-.78c-1.08-.62-2.07,1.1-1,1.66.68.35,1.41.81,2.15.35A.8.8,0,0,0,140.75,103.83Z" transform="translate(14.07 12.58)"/><path class="cls-26" d="M144.4,103.92c-1.39-.56-2.68,1.64-1.49,2.56a10.38,10.38,0,0,0,3.09,1.91c1,.34,2.71.47,3.31-.62C150.56,105.52,145.67,104.43,144.4,103.92Z" transform="translate(14.07 12.58)"/><path class="cls-26" d="M157.79,106.91a6.53,6.53,0,0,0-2.37-.17,10.19,10.19,0,0,1-1.54.38,10.55,10.55,0,0,1-1.68-.2,1.32,1.32,0,0,0-.7,2.54c1.61.54,3.31.87,4.88,1.52s3.92.62,4.26-1.46C160.92,107.82,159.13,107.17,157.79,106.91Z" transform="translate(14.07 12.58)"/><path class="cls-26" d="M189.35,104.72c-1.95-.22-4.56-.86-6.57-.13a6.54,6.54,0,0,0-1.61-1c-1.21-.45-1.83-.17-3-.13-1.05,0-2.1-.12-3.21-.1a5.82,5.82,0,0,0-2.36.51c-.16.08-1.53,1.12-1.26,1a19.34,19.34,0,0,1-6.23,2.23c-1,.18-.58,1.71.43,1.55a39.54,39.54,0,0,1,5.57-.32c1.56.11,3,.31,4.4.47a17.93,17.93,0,0,0,5.88-.34,4.37,4.37,0,0,0,1.08-.45,9.2,9.2,0,0,0,2.92.46c1.35.09,2.66.46,4,.59a2.22,2.22,0,0,0,2.2-2.2A2.26,2.26,0,0,0,189.35,104.72Z" transform="translate(14.07 12.58)"/><path class="cls-26" d="M205.9,106.92a1.93,1.93,0,0,0-3.21-.85c.34-.38-3.27-1-3.67-1-1.8-.16-3.38,0-4.74,1.24a1.43,1.43,0,0,0-.4.79.56.56,0,0,0-.48-.25.61.61,0,0,0,0,1.21.56.56,0,0,0,.48-.24,1.4,1.4,0,0,0,.4.79,5.33,5.33,0,0,0,3.77,1.3c1.33.09,2.61.6,3.92.65C204.11,110.6,206.35,109.31,205.9,106.92Z" transform="translate(14.07 12.58)"/><path class="cls-26" d="M138.54,106.82a7.22,7.22,0,0,0-.79-.13c-.14,0-.64-.09-.34.06a1,1,0,0,0-1.37,1,2.39,2.39,0,0,0,1.41,1.61C139.27,110.45,140.52,107.27,138.54,106.82Z" transform="translate(14.07 12.58)"/><path class="cls-26" d="M129.12,105.84c-.85-.43-2.43-1.92-3.34-.92a.68.68,0,0,0,.13,1.06c.35.26.85.22,1.25.38s.85.44,1.29.63C129.22,107.32,129.9,106.23,129.12,105.84Z" transform="translate(14.07 12.58)"/><path class="cls-26" d="M120.15,101.86c-.71-.24-1.38-.59-2.09-.84a3.87,3.87,0,0,1-.58-.22,3.1,3.1,0,0,0-1.2-.32,1.42,1.42,0,0,0-1,2.39,16.69,16.69,0,0,0,1.55,1.37,12.7,12.7,0,0,0,2.34,1.15,1.84,1.84,0,0,0,2.25-1.28A1.87,1.87,0,0,0,120.15,101.86Z" transform="translate(14.07 12.58)"/><path class="cls-26" d="M105.35,96.06c-2.08-.28-3.27-1.51-5-2.36a15.69,15.69,0,0,0-1.26-1.18,1.4,1.4,0,0,0-1.91,0,4.07,4.07,0,0,1-1.42-1.19.8.8,0,0,0-1.43.19c-.44,1.84,1.59,3.43,3.23,3.76a2.5,2.5,0,0,0,.55,0c.43.4.85.8,1.31,1.17a7.06,7.06,0,0,0,1.2.67,7.77,7.77,0,0,0,1.34.7.85.85,0,0,0,1-1s0-.07,0-.11c.75.15,1.52.24,2.27.32C105.76,97.08,105.9,96.14,105.35,96.06Z" transform="translate(14.07 12.58)"/><path class="cls-26" d="M92.46,88.52c-.44-.45-.78-1-1.26-1.4s-1-.67-1.49-1c-.88-.64-1.57-1.23-2.72-1.07-1,.13-.7,1.44,0,1.72.21.08.59.62.76.79a5.4,5.4,0,0,0,1,.82c.42.24.9.35,1.31.63s.81.69,1.24,1C92.2,90.63,93.17,89.26,92.46,88.52Z" transform="translate(14.07 12.58)"/><path class="cls-26" d="M85.54,83.36c-2-1.32-4.25-1.66-5.84-3.63s-2.13-4.48-4.11-5.94a1.16,1.16,0,0,0-.49-.2,1.65,1.65,0,0,0,.22-.24,4.17,4.17,0,0,0,.26-.46,1.53,1.53,0,0,0-.48-2.68,2.45,2.45,0,0,0-2.82,1.36A1.82,1.82,0,0,0,72.91,74a1.64,1.64,0,0,0,.67.21,1.39,1.39,0,0,0-.35,1,7.48,7.48,0,0,0,.69,3.76,17.7,17.7,0,0,0,2.73,3.87,6.39,6.39,0,0,0,3.49,1.94,7.79,7.79,0,0,0,2,.49c.9,0,1.37-.26,2.25.16A1.17,1.17,0,0,0,85.54,83.36Z" transform="translate(14.07 12.58)"/><path class="cls-26" d="M121.48,109c-1.41-.68-2.71-1.57-4.07-2.34s-3-1.11-4.38-2.09c-.83-.61-1.87.75-1.11,1.44,1.38,1.23,3.07,2.08,4.52,3.24a10.49,10.49,0,0,0,4.19,2.28,1.17,1.17,0,0,0,1.4-.8l.08-.19A1.37,1.37,0,0,0,121.48,109Z" transform="translate(14.07 12.58)"/><path class="cls-26" d="M134.07,114.75c-.65-.91-1.82-.87-2.83-1.11-1.7-.39-3.39-.76-5.07-1.24-.85-.25-1.11,1.12-.17,1.23,1.61.2,3.4.12,4.89.85a15.83,15.83,0,0,0,2.57,1.08C133.89,115.68,134.36,115.15,134.07,114.75Z" transform="translate(14.07 12.58)"/><path class="cls-26" d="M156.92,115.16c-2.76.29-5.28-.41-8-.13-1.65.16-3-.35-4.63-.56s-3.31,0-5-.37c-1.3-.32-2.22,1.59-.94,2.24a13.88,13.88,0,0,0,4.53,1.36c1.95.29,3.83,1.4,5.85,1.24,1.08-.09,1.9-.44,3-.48s2.09.39,3.23.36a3.33,3.33,0,0,0,3-1.95A1.14,1.14,0,0,0,156.92,115.16Z" transform="translate(14.07 12.58)"/><path class="cls-26" d="M181.18,116.1c-3.17-.55-5.63-2-8.83-2.35-1.6-.16-3.15-.63-4.75-.7s-3.52.8-4.89,0c-1.85-1-4.11,1.58-2.35,3,3.31,2.77,6,1.15,9.9,1.85a19.83,19.83,0,0,0,5.6.05c2.23-.19,3.53.63,5.49-.61C181.84,117.12,181.83,116.22,181.18,116.1Z" transform="translate(14.07 12.58)"/><path class="cls-26" d="M200.74,112.65a4.12,4.12,0,0,0-2.65.52c-1.39.58-2.7.76-4.13,1.22-1.85.6-2.05,1.66-4.36,1.13a9.91,9.91,0,0,0-3.54-.44,1.47,1.47,0,0,0,0,2.94c1.86,0,3.22-.71,5.15-.52a6.07,6.07,0,0,0,3.16-.44c1.42-.43,2.92-.11,4.31-.55s1.78-1.4,2.59-2.55A.9.9,0,0,0,200.74,112.65Z" transform="translate(14.07 12.58)"/><path class="cls-27" d="M112.52,89.49c-2.1-1.24-3.29-3.82-5.64-4.85-1-.44-1.61,0-2.55,0s-1.66-.91-2.66-1a.69.69,0,0,0-.65.86c.34.93.9,1.14,1.77,1.57.49.24.89.17,1.32.65a15.17,15.17,0,0,1,.78,1.45c1.43,2,4.28,3.17,6.55,3.83A1.41,1.41,0,0,0,112.52,89.49Z" transform="translate(14.07 12.58)"/><path class="cls-27" d="M99.23,81.75c-.74-.7-1.58-1.36-2.53-.58a1,1,0,0,0-.14,1.14,11.37,11.37,0,0,0,1,1.13C98.46,84.64,100.38,82.83,99.23,81.75Z" transform="translate(14.07 12.58)"/><path class="cls-27" d="M95.35,78c-.94-.54-2-.9-2.93-1.53-.4-.29-.7-.71-1.11-1a4.5,4.5,0,0,0-1.4-.5.56.56,0,0,0-.62.81A15.09,15.09,0,0,0,91,78.55a8.7,8.7,0,0,0,2.83,2.07A1.53,1.53,0,0,0,95.35,78Z" transform="translate(14.07 12.58)"/><path class="cls-27" d="M88.47,72.74a10.39,10.39,0,0,0-1.4-1.16,1.27,1.27,0,0,0-1.73,1.73,9.69,9.69,0,0,0,1.16,1.4C87.74,76,89.76,74,88.47,72.74Z" transform="translate(14.07 12.58)"/><path class="cls-27" d="M131.27,100.53c-.65-1.07-1.42-1.26-2.57-1.69a10.39,10.39,0,0,1-2.33-.89c-.48-.39-.93-1.24-1.44-1.67a36.23,36.23,0,0,0-8.77-5c-1.25-.55-2.31,1.13-1.09,1.87,1.6,1,2.9,2.44,4.59,3.22a16,16,0,0,1,4,3c1,.87,2,1,3.22,1.58a7.2,7.2,0,0,0,3.45,1.23A1.12,1.12,0,0,0,131.27,100.53Z" transform="translate(14.07 12.58)"/><path class="cls-27" d="M137.81,102.72a3.59,3.59,0,0,0-.86-.55,1.1,1.1,0,0,0-1.12,1.9,1.68,1.68,0,0,0,1.79.1A.94.94,0,0,0,137.81,102.72Z" transform="translate(14.07 12.58)"/><path class="cls-27" d="M145.87,103.61a14.26,14.26,0,0,1-4.26-.93c-1.6-.55-2.73,2-1.17,2.76a29.76,29.76,0,0,0,4.08,1.6c1.32.37,3.2,0,3.55-1.56C148.36,104.17,146.94,103.63,145.87,103.61Z" transform="translate(14.07 12.58)"/><path class="cls-27" d="M157.63,105.89c-.52-.85-1.66-1-2.58-1.06a3.07,3.07,0,0,0-2.44.57c-1,.9.48,2.43,1.51,1.52-.12.1.07,0,.16,0h.43c.33,0,.66.06,1,.1a1.83,1.83,0,0,0,1.93-.58A.52.52,0,0,0,157.63,105.89Z" transform="translate(14.07 12.58)"/><path class="cls-27" d="M177.64,105.7c-2.26-.87-5-1-7.43-1.3-2.93-.39-5.82.41-8.73.54a1.22,1.22,0,0,0,0,2.44c2.92.05,5.81.13,8.73.09,2.56,0,5,.67,7.43-.35A.75.75,0,0,0,177.64,105.7Z" transform="translate(14.07 12.58)"/><path class="cls-27" d="M191.12,106.3c-3.71.33-7.16.47-10.75-.81-1.57-.56-2.7,2.06-1.15,2.71,2.62,1.11,5,.75,7.74,1.08,1.71.21,4.15.43,5.14-1.28A1.14,1.14,0,0,0,191.12,106.3Z" transform="translate(14.07 12.58)"/><path class="cls-27" d="M210.9,111.88c-2.52.49-5.11-.06-7.66.23a39.57,39.57,0,0,0-8,1.36c-.58.19-.52,1.17.15,1.12a59,59,0,0,1,8.72-.09,15.81,15.81,0,0,0,7.23-.88A.9.9,0,0,0,210.9,111.88Z" transform="translate(14.07 12.58)"/><path class="cls-27" d="M185.8,112.88c-1.83,0-4.13.19-5.84-.61a10,10,0,0,0-3.08-1.34,38.66,38.66,0,0,0-10.34-.48,1.3,1.3,0,0,0-1.1,1.93c1.77,3.32,7,1.94,10,2.17,1.48.11,2.17.67,3.51,1,1,.24,2.17-.21,3.2-.19,1.2,0,2.42.31,3.65.31A1.39,1.39,0,0,0,185.8,112.88Z" transform="translate(14.07 12.58)"/><path class="cls-27" d="M163.81,110.64c-1.34-.22-3.55-.89-4.58.37a1.08,1.08,0,0,0,0,1.45c1,1.26,3.24.59,4.58.37A1.14,1.14,0,0,0,163.81,110.64Z" transform="translate(14.07 12.58)"/><path class="cls-27" d="M156.15,110.42a26.12,26.12,0,0,1-3.76.31,19.5,19.5,0,0,0-2.29.1,9.91,9.91,0,0,0-2,.53.66.66,0,0,0,0,1.26,11,11,0,0,0,2,.53c.85.08,1.7.1,2.56.14a7.07,7.07,0,0,0,1.89-.1c.66-.15,1.23-.55,1.89-.69C157.58,112.26,157.35,110.29,156.15,110.42Z" transform="translate(14.07 12.58)"/><path class="cls-27" d="M145.37,110.42a46.15,46.15,0,0,0-9.43-1.85,15.39,15.39,0,0,1-5.09-1.19c-1.37-.51-2.81-.56-4.19-1a.57.57,0,0,0-.7.7,2.66,2.66,0,0,0,1.65,1.69c.71.3,1.25,0,2,.26,1.62.47,3,1.67,4.59,2.23A38.56,38.56,0,0,0,145,113.1C146.56,113.2,146.83,110.82,145.37,110.42Z" transform="translate(14.07 12.58)"/><path class="cls-27" d="M124.19,104.84a9.38,9.38,0,0,1-4.06-3.26,12.23,12.23,0,0,0-3-3.16,5.1,5.1,0,0,0-3.64-1c-1,.2-1.58,1-2.46,1.32a1.24,1.24,0,0,0-.23-.42,11.28,11.28,0,0,0-5.12-3.89c-2.48-.79-3.44-1.3-5-3.44a7.22,7.22,0,0,0-3.56-2.56c-.48-.15-1.09,0-1.51-.14s-.41-.58-1.08-.68A.86.86,0,0,0,93.72,89a31.77,31.77,0,0,1,2,2.85,18.73,18.73,0,0,0,3.42,2.83c1.48,1,3,1.1,4.47,2.2,1.76,1.29,3.63,2.39,5.41,3.64a1.15,1.15,0,0,0,1.48,0,.82.82,0,0,0,.3.25,6.9,6.9,0,0,0,2.25.42,9.49,9.49,0,0,1,3.73,1.59c1,.59,1.69,1.47,2.66,2.06a28.69,28.69,0,0,0,4,1.71C124.45,107,125.15,105.3,124.19,104.84Z" transform="translate(14.07 12.58)"/><path class="cls-27" d="M89,84.53c-2.55-1-7.88-4.27-7.93-7.29,0-2.59,1.19-4.41-1.23-6.22a1.27,1.27,0,0,0-1.44,0l0-.09a2.22,2.22,0,0,0-.7-.51.56.56,0,0,0-.76.76,2.22,2.22,0,0,0,.51.7.77.77,0,0,0,.37.17s0,.07,0,.12c.19,1.69.73,3.32,1,5a7,7,0,0,0,1.44,3.43,15.14,15.14,0,0,0,3.35,3.91,12.52,12.52,0,0,0,5,1.65A.88.88,0,0,0,89,84.53Z" transform="translate(14.07 12.58)"/><path class="cls-27" d="M77.92,79l-.64-1.07a.79.79,0,1,0-1.25,1l.85.92C77.39,80.33,78.31,79.61,77.92,79Z" transform="translate(14.07 12.58)"/><path class="cls-27" d="M84.91,96.92a19.28,19.28,0,0,0-1.72-1.29,25.43,25.43,0,0,0-2.63-.9C77,91,72.8,87.78,69.74,83.62c-.86-2.52-1.81-5-2.59-7.55a.73.73,0,0,0-1.4.38A45.82,45.82,0,0,0,67,81a.78.78,0,0,0-.19,1A45.09,45.09,0,0,0,81.91,99.17c1,.65,1.87-.74,1.21-1.57-.11-.15-.25-.28-.36-.43a4.82,4.82,0,0,0,1.94.55A.43.43,0,0,0,84.91,96.92Z" transform="translate(14.07 12.58)"/><path class="cls-27" d="M135.2,122.07a12.42,12.42,0,0,0-3.69-1.62c-1.6-.47-3.18-1-4.76-1.49a.83.83,0,0,0-.27,0,.74.74,0,0,0-.13-.12c-3.8-2.59-8.31-3.63-12.14-6.38a95.21,95.21,0,0,1-12.47-10.64c-.91-.92-2.6.3-1.83,1.41,3.34,4.85,7.2,8.22,11.92,11.71,3.82,2.84,9,6.21,13.92,6.13a1.1,1.1,0,0,0,.69-.23,37.22,37.22,0,0,0,3.95,1.69,20.51,20.51,0,0,0,4.31.76A.65.65,0,0,0,135.2,122.07Z" transform="translate(14.07 12.58)"/><path class="cls-27" d="M173.68,126.38c-4.5-1.27-9.83-.39-14.48-.7-3.89-.27-7.62-1-11.51-.39-.4.07-.35.66,0,.76,8.44,2.36,17.19,5,26,2.46A1.11,1.11,0,0,0,173.68,126.38Z" transform="translate(14.07 12.58)"/><path class="cls-27" d="M215.2,118a12.41,12.41,0,0,0-5,1.32A70.21,70.21,0,0,1,202,121.7c-5.19,1.44-10.11,3.58-15.43,4.55-1.1.2-.82,1.92.26,1.92,5.44,0,9.87-1.3,15.14-2.84,4.9-1.43,9.36-2.42,13.93-4.81A1.38,1.38,0,0,0,215.2,118Z" transform="translate(14.07 12.58)"/><path class="cls-27" d="M100.62,73c-5-1.37-9.25-5.65-13-9a.59.59,0,0,0-.84.84c1,1.33,1.45,3,2.68,4.14a36.75,36.75,0,0,0,3.22,2.77c2.35,1.77,4.76,3,7.7,2.83A.79.79,0,0,0,100.62,73Z" transform="translate(14.07 12.58)"/><path class="cls-27" d="M110.88,75.93a4.62,4.62,0,0,0-1.85-.35,19.68,19.68,0,0,0-2-.08A.76.76,0,0,0,107,77c1.21,0,2.75.63,3.88.08A.68.68,0,0,0,110.88,75.93Z" transform="translate(14.07 12.58)"/><path class="cls-27" d="M164.75,96.19c-6.9-1.78-13.72-1.68-20.68-3-8-1.56-18.74-3.29-24.56-9.39-.44-.46-1.14.24-.7.71,6.34,6.74,12.87,8,21.5,10.12a107.93,107.93,0,0,0,13.84,2.28c3.35.4,7,1.48,10.37,1C165.43,97.8,165.79,96.46,164.75,96.19Z" transform="translate(14.07 12.58)"/><path class="cls-27" d="M198.2,99.22a47,47,0,0,0-8.11-1.17c-3.37-.28-6.27.16-9.44-1.49A.85.85,0,0,0,179.8,98a14.45,14.45,0,0,0,7.59,2.15c3.55.1,7,1,10.58.8A.89.89,0,0,0,198.2,99.22Z" transform="translate(14.07 12.58)"/><path class="cls-28" d="M100.73,81.52a38.33,38.33,0,0,0-7-4.2,16.58,16.58,0,0,1-7.18-6.64,1,1,0,0,0-1.76,1c1.53,3,3.17,5.23,6.16,6.85s5.73,3.86,9,4.31C100.63,83,101.43,82.1,100.73,81.52Z" transform="translate(14.07 12.58)"/><path class="cls-28" d="M129.75,99.88a84.39,84.39,0,0,0-9.59-6.37c-4.58-2.89-7.67-6.64-12.7-8.93a.93.93,0,0,0-.93,1.6c5,3.37,8.47,8.9,13.27,12.64,2.5,2,6.45,4.65,9.67,3.19A1.37,1.37,0,0,0,129.75,99.88Z" transform="translate(14.07 12.58)"/><path class="cls-28" d="M159.45,106.71c-4.45-.57-8.39-.54-12.69-2A63.3,63.3,0,0,0,136,102c-1.75-.26-2.57,2.28-.76,2.73,4,1,8.12,2.36,12.12,3.55,3.81,1.14,8.16.86,12.08.36A1,1,0,0,0,159.45,106.71Z" transform="translate(14.07 12.58)"/><path class="cls-28" d="M192.9,106c-8.55-.55-17.06,1.23-25.6.15-1.42-.18-1.63,2.07-.33,2.45,4.5,1.31,8.55,1.25,13.24.75,1.79-.19,3.24-.92,5-1.27,2.66-.55,5.27,0,7.88-.82A.64.64,0,0,0,192.9,106Z" transform="translate(14.07 12.58)"/><path class="cls-28" d="M205.81,105a6.9,6.9,0,0,0-4.05,0,23.61,23.61,0,0,1-5.32.43,1,1,0,0,0,0,1.9,24.46,24.46,0,0,0,4.91.1,36.6,36.6,0,0,0,4.46-.67A.93.93,0,0,0,205.81,105Z" transform="translate(14.07 12.58)"/><path class="cls-28" d="M161.59,112.07a37.47,37.47,0,0,0-13.54-2.24c-.6,0-.93.89-.33,1.19,2.16,1.1,3.9.91,6.28,1.13s4.95.43,7.36.77A.44.44,0,0,0,161.59,112.07Z" transform="translate(14.07 12.58)"/><path class="cls-28" d="M139.68,108a10.08,10.08,0,0,0-2.78-.38.79.79,0,0,0-.4,1.46,10.12,10.12,0,0,0,2.68.73A.94.94,0,0,0,139.68,108Z" transform="translate(14.07 12.58)"/><path class="cls-29" d="M157,70.79a1.71,1.71,0,0,0,2.82.75c3.46-3.8.51-11.32-2.31-14.78-1.22-1.51-3.43.41-2.59,2C156.88,62.48,155.62,67,157,70.79Z" transform="translate(14.07 12.58)"/><path class="cls-29" d="M223.11,117.33c-2.72-5.57-7.43-9.57-10.44-14.82a3,3,0,0,0-1-1,28.86,28.86,0,0,0-6.41-18.71c-2.74-3.31-6.69-5.73-10.4-7.8-3.51-2-7.39-2.79-11-4.18a3.76,3.76,0,0,0,0-.74c-.6-4-2.72-7.14-5.19-10.15s-5.14-4.47-8.36-6.18c-.83-9,14.1-.13,16.45-8.09C188,41.29,179.09,32.24,176,30.09,170,26,162,21.54,154.75,24.84c-6.84,3.09-8.05,12-9.23,18.61a22,22,0,0,0-.54,6.47c.17,1.54,1.47,3.79,1.35,5.21,1.19.61,1.22.78.1.51a15.9,15.9,0,0,0-3.65.14c-3.5.23-6.66.41-10.11-.59-9.22-2.68-17.22-6.34-27.15-5.91-7.17.32-17.14,2.53-22.09,8.21a12.4,12.4,0,0,0-2.54,6.63c-12.13.73-20.4,5.56-28.91,15.13C41.5,91,37.12,108.84,33.1,123.7c-3.89,14.38-5,31.39-1.59,46,3.07,13.12,11.59,22.16,23.64,27.25,1.69,9.27,13.37,17.45,21.56,20.54,5.22,2,10.1,3.67,15.71,3.73a32.85,32.85,0,0,0,7.8-.55c1.06-.25,4.37-2.21,5.06-2.17,1,.06,5,3.52,5.74,4.11,1.53,1.15,2.93,2.45,4.48,3.6a29.07,29.07,0,0,0,13,5.77,31.83,31.83,0,0,0,13.89-1c3.2-.89,8.13-2,11.26-4.2,5.83,1,12.46-.19,18-1.65,7.35-1.94,14.58-3.82,21.19-7.69,13.41-7.86,19.89-18.57,24.87-33,5-14.56,8.66-28.9,8.74-44.41C226.55,132.55,226.47,124.22,223.11,117.33ZM177.75,81.39a14.91,14.91,0,0,0,2.6-5.48c5.23,2.25,10.68,3.58,15.64,6.85a22.38,22.38,0,0,1,9.76,17.92c-5.27.69-10,1.33-15.5.35a64.72,64.72,0,0,1-12.87-3.73,12.59,12.59,0,0,0-.44-8,24.85,24.85,0,0,0-2.6-5.18A10.23,10.23,0,0,0,177.75,81.39ZM160.57,30.15a10.63,10.63,0,0,1,4.54,1.16,32.88,32.88,0,0,1,14.11,11.83,4.06,4.06,0,0,0-.44.16,18.58,18.58,0,0,0-5.16-.52,19,19,0,0,0-2.4.12,2.79,2.79,0,0,0-.77-.25c-1.26-.19-3-.17-4.13-.74a10.2,10.2,0,0,1-3-3.09C161.63,36.55,159.73,33.15,160.57,30.15Zm-21.21,32c2.78-.1,7,.51,9.55-.27,4.86-1.49,3.79-5.38,3-9.49-1-4.72-.3-8.64.86-13.21.16-.63.34-1.23.53-1.82.21,6,2.14,12.26,6.86,16A1.47,1.47,0,0,0,162.55,52c-.77-3.06-2.51-5.89-3.58-8.86-.4-1.13-.77-2.25-1.1-3.37.15.28.32.56.5.83a20.41,20.41,0,0,0,4.27,5,8.77,8.77,0,0,0,2.7,1.41,15.06,15.06,0,0,0-.88,8.6,2.63,2.63,0,0,0,1.48,2.66c3,1.61,5.63,2.5,7.87,5.23a18.73,18.73,0,0,1,3.71,6.32,2.37,2.37,0,0,0-1.09,1.32c-1.32,3.25-2.59,6.71-5.84,8.43a.05.05,0,0,0,0,0,36.46,36.46,0,0,0-8.16-5.72c-6.89-3.65-14-4.72-21.59-6.26a7,7,0,0,0-.51-2.07c-.37-1.07-.92-2.23-1.26-3.37ZM151.66,76a37.55,37.55,0,0,1,12.07,5.85c2.91,2.14,5.24,4.2,6.71,7.69,2,4.75,2.06,6.52-2.9,7.18-5.61.75-12-.72-17.68-1a51.55,51.55,0,0,1-16.67-3.49c-3.62-1.44-13.29-5.27-15.45-9.72a.1.1,0,0,0,.05,0,1.7,1.7,0,0,0-.33-2.7c0-.11.07-.22.11-.33.89-2.16,3-4.12,5.37-5.82a2.72,2.72,0,0,0,1.64.23c1.66-.32,3.26-1.22,4.75-1.57,2.63-.6,5.24.1,7.93.7C142.06,74.07,146.94,74.62,151.66,76ZM88,61.41a19.37,19.37,0,0,1,4.13-2.68,35.64,35.64,0,0,1,14.71-3.38c8.27-.06,14.68,2.71,22.29,5.21A32.53,32.53,0,0,0,135.81,62a20.63,20.63,0,0,0,.35,3.17c.08.51.18,1,.31,1.53-5.19-1-9.43-1.18-14.21,2.64-4.1,1.89-7.79,4.57-9.71,8.82-3.63-.86-7.37-1.4-10.7-2.92s-8.94-5.07-11.36-7.66a18.42,18.42,0,0,1-2.75-4.28.92.92,0,0,0-.13-.89c-.06-.08-.12-.15-.17-.23A1.89,1.89,0,0,1,88,61.41Zm-3.67,8.68a3.29,3.29,0,0,0,.79-.09c3.32,4.59,9.1,8,13.41,10.43,3.12,1.75,6.63,2,10,2.89,1.22.32,2.34.62,3.41.79,1.2,3.74,5.31,6.44,9.22,8.55,8,4.31,16.25,8.19,25.46,9,7.37.61,18,2.91,25.27.78a8.39,8.39,0,0,0,2.81-1.38c3.85,3.79,9.58,5.06,14.82,6,5.7,1.08,12,1.73,17-1.22a3.65,3.65,0,0,0,1.51.84c.64,1,1.35,1.92,2.09,2.85-2.21.38-4.37.79-6.54,1.06-2.56-.27-5.14,0-7.88-.1-3.88-.12-7.89-.76-11.77-.35-6.1-.66-12.22-1.65-18.32-1.88-1.89-.07-3.79-.06-5.7,0a1.16,1.16,0,0,0-.88-.39c-7.44.07-15.64.72-22.88-1.51a88,88,0,0,1-9.24-3.86c-1-.52-2-1-3-1.49-2.06-1-4.12-1.14-6.31-1.78l-.16-.06a.87.87,0,0,0-.7-.33c-.1,0-.2,0-.3,0-.94-.37-1.87-.79-2.8-1.19a20,20,0,0,1-5-5c-1.46-2.23-2.23-5.11-4.63-6.6a2.33,2.33,0,0,0-2.67.28c-4.35-2.85-9.41-4.6-13.21-8.09-2.51-2.3-3.71-5.43-5.69-8Zm-6.89.32a14.83,14.83,0,0,0,1.74,3.18c2,3.45,3,5.66,6,8.42C88,84.5,91,85.69,94.32,87.17c2.39,1,4.34,2.69,6.89,2.43.76,1.26,1.72,2.36,2.48,3.64a13.73,13.73,0,0,0,3.08,4,18.93,18.93,0,0,0,5.4,3.21,5.94,5.94,0,0,0,2.64.46,69.77,69.77,0,0,1,7.63,2.84,26,26,0,0,0,6.47,3.47c.4.18.75.32,1.09.46a41,41,0,0,0,9.78,3.81c5,1.71,9.6,1,14.86-.09,3.7-.12,7.4-.23,11.05-.1,2.92.1,5.86.39,8.8.73a4.06,4.06,0,0,0,.7.09c2.38.28,4.75.59,7.11.86a58,58,0,0,0,13.48,1.36,57.08,57.08,0,0,0,6.54-.35,10.08,10.08,0,0,0,1.82-.4c2.73-.35,5.43-.91,8.24-1.36l1.11,1.37c-7.8,6.83-19.52,3.55-27.79,9.09-12.59-6.65-25.25-1.68-38.91-3.81a2.5,2.5,0,0,0-1.29.13,71.82,71.82,0,0,1-26-9.35A148.73,148.73,0,0,1,102.1,98.39a2.82,2.82,0,0,0-2.07-3c-2.59-.88-5.26-.88-7.83-1.61-3.51-1-6.35-3.39-9-5.73-5.09-4.48-10.16-9.59-13-15.89A28,28,0,0,1,77.47,70.41ZM59.4,182.86c-.25,2.89-.91,5.88-1.12,8.83l-.22-.11c-12.28-4.8-19.2-14.55-21.38-27.48s-.9-28.07,2.77-40.56S46.57,98,53.75,87A47,47,0,0,1,66.34,74.12C67.75,81,73.46,86.93,78.22,91.46c3,2.84,6,5.47,9.81,7.18a24,24,0,0,0,6.39,1.65c-5.9,5.06-10.2,12.36-14.71,18.51-5.07,6.92-8.2,14.37-11.3,22.31-3.65,9.34-5.57,19.63-7.32,29.47C60.36,174.66,59.76,178.72,59.4,182.86Zm50.3,25.51c-.5,1.5-1,2.81-1.36,4.13a8.47,8.47,0,0,0-1.25-.61c-2.41-.91-3.24.38-5.22,1.35-5.08,2.47-11.15,2.37-16.56.87-7.94-2.21-21-8.29-23.91-17.25l0,0c4.16-6.73,3-16.39,4.6-24,1.92-9.32,4-18.95,6.93-28,2.4-7.28,5.59-14.85,9.94-21.16,4.92-7.15,11.78-14.23,15.6-22,4.16,5.53,13.13,10.08,18.06,13a74.64,74.64,0,0,0,27.41,10c-4.44,8-9.7,15.49-13.6,23.85a191.09,191.09,0,0,0-8.26,22.26c-3,9.46-7.65,18.58-10.35,28.14C110.84,202.11,110.73,205.26,109.7,208.37Zm48,.26c-1.81,3.67-3.7,7.33-5.64,10.93a13.34,13.34,0,0,1-1.09,1.64l-.05.05c-2.17,2.33-8.66,3.55-11.69,4.21-5,1.08-10.11,1.09-14.87-1-3.57-1.55-6.2-4.26-9.24-6.57-.89-.68-1.8-1.5-2.73-2.33,5.53-15.13,8.16-31.54,15.39-46.13,3.53-7.1,5.45-14.89,9-22.06,3.84-7.69,8.83-14.74,11.58-22.93a24,24,0,0,0,6.27,1c-2,4.41-2.67,9.88-2.63,14.57a1.55,1.55,0,0,0,3.09,0c.31-4.83,1.9-9.81,2.95-14.56,1.77-.06,3.49-.19,5.09-.31,6.88-.52,12.49-.71,18.63,2.26a2.64,2.64,0,0,0,0,.79c1.73,9.15-.63,20.48-2.5,29.56-2,9.47-5.66,18.2-10,26.75C165.19,192.46,161.6,200.64,157.66,208.63Zm56-30.92c-4.5,12.94-8.75,24.92-20.78,32.66-6.05,3.88-12.15,5.83-19,7.7-4.8,1.31-10.22,3-15.44,3,2.21-3.55,3.79-7.76,5.28-11,4.48-9.76,9.4-19.24,14.17-28.83a89.5,89.5,0,0,0,8-26.33c1.31-9,3-17.94.7-26.7a3.05,3.05,0,0,0,1.28-1.4c10-2.63,20.66-1.62,29-8.25,3,5.83,3.56,12.23,3.67,18.8A115.71,115.71,0,0,1,213.62,177.71Z" transform="translate(14.07 12.58)"/><path class="cls-29" d="M70.16,158.53c-.31,8.8-3.94,17.09-3,26.1.19,1.8,2.9,2.49,3.38.45,1.12-4.65.93-9.56,1.5-14.31.5-4.17,1.68-8.46.61-12.58A1.28,1.28,0,0,0,70.16,158.53Z" transform="translate(14.07 12.58)"/><path class="cls-29" d="M76.87,189.25c-.27-1.88-3.42-1.44-3.32.44s.14,3.6.18,5.4-.16,3.28.58,4.82a1.67,1.67,0,0,0,2.87,0c.78-1.65.51-3.39.36-5.18S77.13,191.07,76.87,189.25Z" transform="translate(14.07 12.58)"/><path class="cls-29" d="M46.34,158.29c-.35,1.94-.6,3.92-.77,5.89s-.55,4.28.11,6.14a1.5,1.5,0,0,0,2.86,0c1.38-3.32.82-7.52,1.37-11C50.28,157,46.76,155.92,46.34,158.29Z" transform="translate(14.07 12.58)"/><path class="cls-29" d="M74.89,119.58a70.37,70.37,0,0,1,4.5-7.27A27,27,0,0,0,83,106.47a1.5,1.5,0,0,0-1.83-1.83c-2.25.86-3.44,3.11-4.68,5.06A75.71,75.71,0,0,0,72,117.91C71.13,119.8,73.88,121.47,74.89,119.58Z" transform="translate(14.07 12.58)"/><path class="cls-29" d="M74.62,107.74c.74-.88,1.37-1.83,2.1-2.71a6.21,6.21,0,0,0,1.76-3c.13-.75-.69-1.7-1.46-1.13s-1.78,1.3-2.64,2a21.63,21.63,0,0,0-2.07,2.5C70.91,107,73.29,109.35,74.62,107.74Z" transform="translate(14.07 12.58)"/><path class="cls-29" d="M129.38,133.5c1.49-.76,2-2.68,2.26-4.22a20.12,20.12,0,0,0,.28-5,2,2,0,0,0-3.9,0,23.06,23.06,0,0,1-.63,4.05c-.35,1.39-1.08,2.59-.7,4A1.86,1.86,0,0,0,129.38,133.5Z" transform="translate(14.07 12.58)"/><path class="cls-29" d="M136,137.53l.35-.45c.56-.74-1-1.54-1.24-.53l-.15.54C134.81,137.76,135.67,138,136,137.53Z" transform="translate(14.07 12.58)"/><path class="cls-29" d="M126,190.49a138.42,138.42,0,0,0-4.4,20.74c-.13,1.08,1.44,1.33,1.93.52,3.67-6.07,4.49-13.46,5.88-20.32C129.85,189.22,126.6,188.27,126,190.49Z" transform="translate(14.07 12.58)"/><path class="cls-29" d="M133.27,210.4a2,2,0,0,0-2.35,1.34c-.46,1.1-.67,2.28-1.1,3.37a3.14,3.14,0,0,0-.35,2.16,1.73,1.73,0,0,0,1.17,1.29c1.25.32,2.22-1.14,2.77-2,.68-1.08.75-2.59,1.19-3.77A1.94,1.94,0,0,0,133.27,210.4Z" transform="translate(14.07 12.58)"/><path class="cls-29" d="M145,210.76a29.31,29.31,0,0,0-1.39,3.08,17.94,17.94,0,0,0-1.11,3.21,1,1,0,0,0,1.65,1,11.72,11.72,0,0,0,1.75-2.74c.59-1,1.07-2,1.58-3.06C148.25,210.56,145.77,209.1,145,210.76Z" transform="translate(14.07 12.58)"/><path class="cls-29" d="M161.28,190.49c-2.5,1.81-4.1,5-5.93,7.47a52.35,52.35,0,0,0-6.31,10.6c-1.14,2.67,2.79,5,3.93,2.3,2.78-6.54,9-11.45,10.84-18.43C164.17,191.09,162.56,189.57,161.28,190.49Z" transform="translate(14.07 12.58)"/><path class="cls-29" d="M178.34,155.23c.4-5.08,2.42-11.35.63-16.34a1.42,1.42,0,0,0-2.72,0c-.68,2.05-.41,4.71-.59,6.89a71,71,0,0,0-.29,9.45A1.49,1.49,0,0,0,178.34,155.23Z" transform="translate(14.07 12.58)"/><path class="cls-29" d="M185.42,191.42a33.81,33.81,0,0,0-5.13,8.82c-1.11,2.47-2.54,4.61-3.8,7a1.89,1.89,0,0,0,3.26,1.91c3.39-4.9,7-10.26,8.17-16.27C188.18,191.53,186.5,190.22,185.42,191.42Z" transform="translate(14.07 12.58)"/><path class="cls-29" d="M196,178.27a15.68,15.68,0,0,0-.86,3.48,1.33,1.33,0,0,0,.91,1.59,1.31,1.31,0,0,0,1.59-.9,9.48,9.48,0,0,0,.27-3.92C197.66,177.72,196.35,177.42,196,178.27Z" transform="translate(14.07 12.58)"/><path class="cls-29" d="M206.47,142.34a55.91,55.91,0,0,0-1.92,11.12c-.11,1.54,2.22,1.49,2.38,0a51.1,51.1,0,0,1,1.08-6.53,9.27,9.27,0,0,0,0-4.59A.83.83,0,0,0,206.47,142.34Z" transform="translate(14.07 12.58)"/><path class="cls-29" d="M199.91,130.05c-.59,1.87-.33,3.94-.38,5.88s-.16,3.74-.18,5.62a1.07,1.07,0,0,0,2.14,0c.13-3.85,2.2-7.63,1-11.5A1.33,1.33,0,0,0,199.91,130.05Z" transform="translate(14.07 12.58)"/></g></g></g></svg>